<svg viewBox="0 0 24 24" xmlns="http://www.w3.org/2000/svg" xmlns:xlink="http://www.w3.org/1999/xlink"><defs><circle id="a" cx="12" cy="12" r="12"/></defs><g fill="none" fill-rule="evenodd"><mask id="b" fill="#fff"><use xlink:href="#a"/></mask><g fill-rule="nonzero" mask="url(#b)"><path d="M-4-1h32v26H-4z" fill="#039"/><g fill="#fc0"><path d="M12 3.761l-.366 1.144.563.185z"/><path d="M12 3.761l.366 1.144-.563.185z"/><path d="M13.135 4.592l-1.2.005-.003.593z"/><path d="M13.135 4.592l-.974.702-.351-.479z"/><path d="M12.702 5.936l-.376-1.14-.565.18z"/><path d="M12.702 5.936l-.969-.71.347-.481z"/><path d="M10.865 4.592l1.2.005.003.593z"/><path d="M10.865 4.592l.974.702.351-.479z"/><path d="M11.298 5.936l.376-1.14.565.18z"/><path d="M11.298 5.936l.969-.71-.347-.481zM12 18.19l-.366 1.144.563.186z"/><path d="M12 18.19l.366 1.144-.563.186z"/><path d="M13.135 19.021l-1.2.005-.003.594z"/><path d="M13.135 19.021l-.974.702-.351-.479z"/><path d="M12.702 20.365l-.376-1.14-.565.181z"/><path d="M12.702 20.365l-.969-.71.347-.48z"/><path d="M10.865 19.021l1.2.005.003.594z"/><path d="M10.865 19.021l.974.702.351-.479z"/><path d="M11.298 20.365l.376-1.14.565.181z"/><path d="M11.298 20.365l.969-.71-.347-.48zm-6.406-9.389l-.366 1.143.564.186z"/><path d="M4.892 10.976l.366 1.143-.563.186z"/><path d="M6.027 11.807l-1.2.005-.003.593z"/><path d="M6.027 11.807l-.974.701-.35-.478z"/><path d="M5.594 13.15l-.376-1.14-.565.181z"/><path d="M5.594 13.15l-.968-.71.346-.48z"/><path d="M3.757 11.807l1.2.005.004.593z"/><path d="M3.757 11.807l.975.701.35-.478z"/><path d="M4.19 13.15l.377-1.14.565.181z"/><path d="M4.19 13.15l.97-.71-.347-.48zm3.544-6.247l.968-.71-.346-.482z"/><path d="M7.734 6.903l.376-1.14.565.18z"/><path d="M7.304 5.564l.975.701.35-.478z"/><path d="M7.304 5.564l1.2.005.004.593z"/><path d="M8.445 4.73L8.08 5.875l.563.186z"/><path d="M8.445 4.73l.366 1.144-.563.186z"/><path d="M9.14 6.898l-.967-.71.346-.481z"/><path d="M9.14 6.898l-.375-1.14-.565.18z"/><path d="M9.58 5.555l-.974.702-.351-.478z"/><path d="M9.58 5.555l-1.2.006-.003.593zM6.557 9.544l-.376-1.14-.565.18z"/><path d="M6.557 9.544l-.969-.71.347-.482z"/><path d="M5.15 9.539l.968-.71-.346-.482z"/><path d="M5.15 9.539l.376-1.14.565.18z"/><path d="M4.71 8.196l.975.702.35-.479z"/><path d="M4.71 8.196l1.201.005.003.594z"/><path d="M6.987 8.204l-.975.702-.35-.479z"/><path d="M6.987 8.204l-1.201.005-.003.594z"/><path d="M5.846 7.371l.366 1.144-.564.186z"/><path d="M5.846 7.371l-.367 1.144.564.186zm1.151 8.043l-1.201.005-.003.593z"/><path d="M6.997 15.414l-.975.701-.35-.478z"/><path d="M6.557 16.75l-.376-1.14-.565.18z"/><path d="M6.557 16.75l-.968-.71.346-.481z"/><path d="M5.145 16.753l.968-.71-.347-.481z"/><path d="M5.145 16.753l.376-1.14.565.18z"/><path d="M5.856 14.591l.366 1.144-.564.185z"/><path d="M5.856 14.591l-.366 1.144.563.185z"/><path d="M4.711 15.419l1.2.005.003.593z"/><path d="M4.711 15.419l.975.701.35-.478zm4.887 2.636l-1.2.005-.003.593z"/><path d="M9.598 18.055l-.974.701-.351-.478z"/><path d="M9.159 19.39l-.376-1.14-.565.181z"/><path d="M9.159 19.39l-.969-.71.347-.48z"/><path d="M7.746 19.394l.969-.71-.347-.481z"/><path d="M7.746 19.394l.376-1.14.565.18z"/><path d="M8.457 17.232l.366 1.143-.563.186z"/><path d="M8.457 17.232l-.366 1.143.563.186z"/><path d="M7.313 18.06l1.2.005.003.593z"/><path d="M7.313 18.06l.974.701.35-.478zm11.795-7.084l.366 1.143-.564.186z"/><path d="M19.108 10.976l-.366 1.143.563.186z"/><path d="M17.973 11.807l1.2.005.003.593z"/><path d="M17.973 11.807l.974.701.35-.478z"/><path d="M18.406 13.15l.376-1.14.565.181z"/><path d="M18.406 13.15l.968-.71-.346-.48z"/><path d="M20.243 11.807l-1.2.005-.004.593z"/><path d="M20.243 11.807l-.975.701-.35-.478z"/><path d="M19.81 13.15l-.377-1.14-.565.181z"/><path d="M19.81 13.15l-.97-.71.347-.48zm-3.544-6.247l-.968-.71.346-.482z"/><path d="M16.266 6.903l-.376-1.14-.565.18z"/><path d="M16.696 5.564l-.975.701-.35-.478z"/><path d="M16.696 5.564l-1.2.005-.004.593z"/><path d="M15.555 4.73l.366 1.144-.563.186z"/><path d="M15.555 4.73l-.366 1.144.563.186z"/><path d="M14.86 6.898l.967-.71-.346-.481z"/><path d="M14.86 6.898l.375-1.14.565.18z"/><path d="M14.42 5.555l.974.702.351-.478z"/><path d="M14.42 5.555l1.2.006.003.593zm3.023 3.989l.376-1.14.565.18z"/><path d="M17.443 9.544l.969-.71-.347-.482z"/><path d="M18.85 9.539l-.968-.71.346-.482z"/><path d="M18.85 9.539l-.376-1.14-.565.18z"/><path d="M19.29 8.196l-.975.702-.35-.479z"/><path d="M19.29 8.196l-1.201.005-.003.594z"/><path d="M17.013 8.204l.975.702.35-.479z"/><path d="M17.013 8.204l1.201.005.003.594z"/><path d="M18.154 7.371l-.366 1.144.564.186z"/><path d="M18.154 7.371l.367 1.144-.564.186zm-1.151 8.043l1.201.005.003.593z"/><path d="M17.003 15.414l.975.701.35-.478z"/><path d="M17.443 16.75l.376-1.14.565.18z"/><path d="M17.443 16.75l.968-.71-.346-.481z"/><path d="M18.855 16.753l-.968-.71.347-.481z"/><path d="M18.855 16.753l-.376-1.14-.565.18z"/><path d="M18.144 14.591l-.366 1.144.564.185z"/><path d="M18.144 14.591l.366 1.144-.563.185z"/><path d="M19.289 15.419l-1.2.005-.003.593z"/><path d="M19.289 15.419l-.975.701-.35-.478zm-4.887 2.636l1.2.005.003.593z"/><path d="M14.402 18.055l.974.701.351-.478z"/><path d="M14.841 19.39l.376-1.14.565.181z"/><path d="M14.841 19.39l.969-.71-.347-.48z"/><path d="M16.254 19.394l-.969-.71.347-.481z"/><path d="M16.254 19.394l-.376-1.14-.565.18z"/><path d="M15.543 17.232l-.366 1.143.563.186z"/><path d="M15.543 17.232l.366 1.143-.563.186z"/><path d="M16.687 18.06l-1.2.005-.003.593z"/><path d="M16.687 18.06l-.974.701-.35-.478z"/></g></g></g></svg>