<svg viewBox="0 0 32 32" xmlns="http://www.w3.org/2000/svg"><path d="M24.7 19.576c-.614-.639-1.355-.98-2.14-.98-.778 0-1.525.335-2.164.974l-2 1.994c-.165-.089-.33-.171-.487-.253-1.873-1.19-3.576-2.74-5.209-4.747-.791-1-1.323-1.842-1.709-2.696.52-.475 1-.968 1.469-1.443.177-.177.354-.36.531-.538 1.33-1.33 1.33-3.05 0-4.38l-1.728-1.728c-.38-.393-.779-.798-1.19-1.178-.614-.608-1.348-.93-2.12-.93s-1.52.322-2.152.93l-.013.013-2.152 2.17c-.152 1.848.392 3.57.81 4.696 1.025 2.766 2.557 5.329 4.842 8.076 2.772 3.31 6.107 5.924 9.917 7.765 1.456.69 3.4 1.507 5.57 1.646.133.006.272.013.399.013 1.462 0 2.69-.526 3.652-1.57.006-.013.019-.019.025-.032.33-.398.709-.759 1.108-1.145.272-.26.55-.532.822-.817.627-.651.956-1.411.956-2.19 0-.784-.335-1.537-.975-2.17l-6.062-1.48zm2.266 6.665c-.007 0-.007.006 0 0-.247.266-.5.506-.773.772-.411.392-.829.804-1.221 1.266-.64.683-1.393 1.006-2.38 1.006-.095 0-.196 0-.291-.006-1.88-.12-3.627-.855-4.937-1.481-3.582-1.734-6.728-4.196-9.341-7.317-2.159-2.6-3.602-5.006-4.557-7.588-.589-1.576-.804-2.804-.71-3.962.064-.74.349-1.355.874-1.88l2.158-2.158c.31-.291.64-.45.962-.45.4 0 .722.24.924.443l.02.02c.385.36.753.734 1.139 1.132.196.203.398.405.6.614l1.729 1.728c.67.671.67 1.291 0 1.962-.184.184-.361.367-.545.544-.013.012-.025.019-.032.031-.544.545-.443 1.076-.329 1.437l.02.057c.448 1.089 1.081 2.114 2.043 3.336l.007.006c1.747 2.152 3.588 3.829 5.62 5.114.26.164.525.297.778.424.228.114.443.221.627.335.025.013.05.032.076.045.215.107.418.158.627.158.525 0 .854-.33.962-.437l2.164-2.164c.215-.216.557-.475.956-.475.392 0 .715.247.911.462l.013.013 3.487 3.487c.652.645.652 1.31.007 1.98zm-9.76-18.108c.05 0 .095-.007.145-.014zm13.747 6.095c2.95.5 5.64 1.898 7.779 4.031.05 0 .095-.007.146-.013z" fill="#1d1d1b" stroke="#1d1d1b" stroke-width=".4"/></svg>