<?xml version="1.0" standalone="no"?>
<!DOCTYPE svg PUBLIC "-//W3C//DTD SVG 1.1//EN" "http://www.w3.org/Graphics/SVG/1.1/DTD/svg11.dtd" >
<svg xmlns="http://www.w3.org/2000/svg" xmlns:xlink="http://www.w3.org/1999/xlink" version="1.1">
<metadata>
Created by FontForge 20170731 at Fri Apr  2 10:08:55 2021
 By Aleksey,,,
Copyright 2014 Dinamo (Johannes Breyer, Fabian Harb)
</metadata>
<defs>
<font id="Favorit-BoldLining" horiz-adv-x="1228" >
  <font-face 
    font-family="Favorit Bold Lining"
    font-weight="600"
    font-stretch="normal"
    units-per-em="2048"
    panose-1="2 1 8 3 3 2 1 8 2 3"
    ascent="1638"
    descent="-410"
    x-height="1024"
    cap-height="1434"
    bbox="-670 -772 4526 2081"
    underline-thickness="0"
    underline-position="0"
    unicode-range="U+0020-FBE6"
  />
<missing-glyph horiz-adv-x="1310" 
d="M1167 0h-1024v1434h1024v-1434zM952 215v1004h-594v-1004h594z" />
    <glyph glyph-name="f_f" unicode="ff" horiz-adv-x="1497" 
d="M518 0h-266v809h-209v215h209v143q0 129 69 198t197 69h293v-222h-180q-70 0 -91 -21q-22 -22 -22 -91v-76h420v143q0 129 69 198t197 69h293v-222h-180q-70 0 -91 -21q-22 -22 -22 -91v-76h242v-215h-242v-809h-266v809h-420v-809zM1538 -317v-220h-1579v220h1579z" />
    <glyph glyph-name="fi" unicode="fi" horiz-adv-x="1341" 
d="M928 1157v277h286v-277h-286zM518 0h-266v809h-209v215h209v143q0 129 69 198t197 69h293v-222h-180q-70 0 -91 -21q-22 -22 -22 -91v-76h686v-1024h-266v809h-420v-809zM1382 -317v-220h-1423v220h1423z" />
    <glyph glyph-name="fl" unicode="fl" horiz-adv-x="1341" 
d="M518 0h-266v809h-209v215h209v143q0 129 69 198t197 69h686v-1434h-266v1212h-307q-70 0 -91 -21q-22 -22 -22 -91v-76h242v-215h-242v-809zM1382 -317v-220h-1423v220h1423z" />
    <glyph glyph-name="f_f_i" unicode="ffi" horiz-adv-x="2027" 
d="M1614 1157v277h287v-277h-287zM518 0h-266v809h-209v215h209v143q0 129 69 198t197 69h293v-222h-180q-70 0 -91 -21q-22 -22 -22 -91v-76h420v143q0 129 69 198t197 69h293v-222h-180q-70 0 -91 -21q-22 -22 -22 -91v-76h686v-1024h-266v809h-420v-809h-266v809h-420
v-809zM2068 -317v-220h-2109v220h2109z" />
    <glyph glyph-name="f_f_l" unicode="ffl" horiz-adv-x="2027" 
d="M518 0h-266v809h-209v215h209v143q0 129 69 198t197 69h293v-222h-180q-70 0 -91 -21q-22 -22 -22 -91v-76h420v143q0 129 69 198t197 69h686v-1434h-266v1212h-307q-70 0 -91 -21q-22 -22 -22 -91v-76h242v-215h-242v-809h-266v809h-420v-809zM2068 -317v-220h-2109v220
h2109z" />
    <glyph glyph-name="W_W_W" unicode="www" horiz-adv-x="4212" 
d="M991 0l-180 717l-170 -717h-299l-313 1024h268l205 -760l166 760h284l178 -754l195 754h268l205 -760l166 760h285l178 -754l194 754h269l205 -760l165 760h285l178 -754l195 754h258l-293 -1024h-299l-180 717l-170 -717h-299l-180 588l-168 -588h-299l-181 717
l-170 -717h-299l-180 588l-168 -588h-299zM4254 -317v-220h-4295v220h4295z" />
    <glyph glyph-name="slash_slash" unicode="&#x2f;&#x2f;" horiz-adv-x="1587" 
d="M-147 -537l757 1971h277l-748 -1971h-286zM494 -537l757 1971h277l-664 -1751h764v-220h-1134z" />
    <glyph glyph-name="u.fina" unicode="&#x6c7;" horiz-adv-x="1177" arabic-form="final" 
d="M-41 -537v220h815v467q-45 -77 -124 -123q-80 -47 -175 -47q-179 0 -262 110q-84 111 -84 279v655h266v-625q0 -100 40 -152t112 -52h16q89 0 150 76t61 184v569h266v-1561h-1081z" />
    <glyph glyph-name="oe.fina" unicode="&#x6c6;" horiz-adv-x="1865" arabic-form="final" 
d="M1096 633h438q-5 92 -67 144t-146 52h-12q-85 0 -147 -52q-61 -51 -66 -144zM598 195q106 0 171 84q65 85 65 233t-65 233q-65 84 -171 84h-16q-106 0 -171 -84q-65 -85 -65 -233t65 -233q65 -84 171 -84h16zM-41 -537v220h1387v297q-111 0 -209 40t-168 119
q-65 -74 -165 -117q-98 -42 -214 -42q-119 0 -210 39q-97 42 -162 111q-65 70 -103 169q-37 98 -37 213t37 213q38 99 103 169q65 69 162 111q91 39 210 39t212 -40q95 -41 163 -113q63 74 152 113q90 40 208 40t203 -39q88 -40 146 -109q58 -68 88 -165q30 -96 30 -207
q0 -31 -1 -47q-1 -8 -2 -24.5t-1 -24.5h-692v-2v-2q7 -103 82 -167q72 -62 172 -62h262v-732h-1653z" />
    <glyph glyph-name="e.fina" unicode="&#x6d0;" horiz-adv-x="1107" arabic-form="final" 
d="M338 633h438q-5 93 -66 144q-62 52 -147 52h-12q-85 0 -147 -52q-61 -51 -66 -144zM-41 -537v220h629v297q-106 0 -196 35q-92 36 -162 104q-68 66 -109 167q-41 100 -41 226q0 114 33 213q33 100 95 169q64 72 153 111q88 39 206 39t203 -39q88 -40 146 -109
q59 -70 89 -165q29 -93 29 -207q0 -31 -1 -47q-1 -8 -2 -24.5t-1 -24.5h-692q7 -103 81 -169q71 -64 173 -64h262v-732h-895z" />
    <glyph glyph-name="e.init" unicode="&#x6d0;" horiz-adv-x="1107" arabic-form="initial" 
d="M338 633h438q-5 93 -66 144q-62 52 -147 52h-12q-85 0 -147 -52q-61 -51 -66 -144zM588 -537v517q-106 0 -196 35q-92 36 -162 104q-68 66 -109 167q-41 100 -41 226q0 114 33 213q33 100 95 169q64 72 153 111q88 39 206 39t203 -39q88 -40 146 -109q59 -70 89 -165
q29 -93 29 -207q0 -31 -1 -47q-1 -8 -2 -24.5t-1 -24.5h-692q7 -103 81 -169q71 -64 173 -64h262v-512h295v-220h-561z" />
    <glyph glyph-name=".notdef" horiz-adv-x="1310" 
d="M1167 0h-1024v1434h1024v-1434zM952 215v1004h-594v-1004h594z" />
    <glyph glyph-name=".null" horiz-adv-x="0" 
 />
    <glyph glyph-name="nonmarkingreturn" horiz-adv-x="682" 
 />
    <glyph glyph-name="space" unicode=" " horiz-adv-x="479" 
 />
    <glyph glyph-name="exclam" unicode="!" horiz-adv-x="567" 
d="M211 358l-64 584v492h273v-492l-64 -584h-145zM150 0v266h266v-266h-266zM608 -317v-220h-649v220h649z" />
    <glyph glyph-name="quotedbl" unicode="&#x22;" horiz-adv-x="796" 
d="M520 942l-65 277v215h235v-215l-65 -277h-105zM172 942l-66 277v215h236v-215l-66 -277h-104zM838 -317v-220h-879v220h879z" />
    <glyph glyph-name="numbersign" unicode="#" horiz-adv-x="1454" 
d="M809 563l65 307h-225l-65 -307h225zM688 0l70 328h-226l-69 -328h-246l70 328h-205v235h256l65 307h-233v236h285l69 328h246l-70 -328h226l69 328h246l-70 -328h203v-236h-254l-65 -307h231v-235h-282l-70 -328h-246zM1495 -317v-220h-1536v220h1536z" />
    <glyph glyph-name="dollar" unicode="$" horiz-adv-x="1296" 
d="M410 1034q0 -71 40 -108q41 -38 123 -54l58 347q-100 -7 -162 -62q-59 -52 -59 -123zM758 565l-60 -350q108 5 164 58q58 55 58 126q0 65 -34 105t-128 61zM1337 -317v-220h-463v220h463zM-41 -537v220h414l55 325q-177 50 -265 175q-89 127 -95 298h270q5 -71 37 -128
q33 -59 94 -93l59 352l-26 6q-188 39 -276 145q-87 105 -87 261q0 81 34 158q36 80 99 138q65 59 165 97q98 37 229 37h4l39 225h235l-45 -262q148 -50 231 -167q82 -115 82 -267h-270q-4 59 -27 104q-24 47 -59 74l-55 -334q187 -39 288 -137t101 -270q0 -91 -35 -173
q-34 -79 -101 -139q-68 -60 -167 -94t-230 -34l-86 -517h-612z" />
    <glyph glyph-name="percent" unicode="%" horiz-adv-x="1929" 
d="M422 614q-94 0 -162 36q-66 35 -110 93q-42 55 -64 133q-20 71 -20 152q0 82 20 153q21 75 64 133q44 59 110 94q68 36 162 36t162 -36q66 -35 110 -94q43 -58 64 -133q20 -71 20 -153q0 -81 -20 -152q-22 -78 -64 -133q-44 -58 -110 -93q-68 -36 -162 -36zM418 803h8
q63 0 97 59t34 166q0 108 -34 167q-34 60 -97 60h-8q-62 0 -97 -60q-34 -59 -34 -167q0 -107 34 -166t97 -59zM1505 -10q-95 0 -162 36q-66 35 -110 93q-43 56 -64 132q-20 71 -20 152q0 82 20 153q21 75 64 133q44 59 110 94q67 36 162 36t162 -36q68 -36 111 -94
q41 -56 63 -133q21 -75 21 -153q0 -77 -21 -152q-22 -78 -63 -132q-44 -57 -111 -93t-162 -36zM1501 178h8q63 0 98 60q33 57 33 165q0 110 -33 167q-35 61 -98 61h-8q-62 0 -97 -61q-34 -59 -34 -167q0 -106 34 -165q34 -60 97 -60zM1970 -317v-220h-1247v220h1247z
M-41 -537v220h258l1053 1751h239l-1183 -1971h-367z" />
    <glyph glyph-name="ampersand" unicode="&#x26;" horiz-adv-x="1361" 
d="M1100 0h-574q-82 0 -162 27q-81 27 -139 74q-58 46 -95 119q-36 70 -36 159q0 130 76 219q77 90 197 129q-111 39 -187 124t-76 214q0 89 34 157q34 69 91 115q60 49 133 72q80 25 160 25h309v-215h-227q-102 0 -167 -43q-66 -44 -66 -144t66 -148t167 -48h230v247h266
v-247h215v-215h-215v-621zM834 215v406h-230q-99 0 -172 -47q-72 -46 -72 -152q0 -108 72 -157q73 -50 172 -50h230zM1403 -317v-220h-1444v220h1444z" />
    <glyph glyph-name="quotesingle" unicode="'" horiz-adv-x="448" 
d="M172 942l-66 277v215h236v-215l-66 -277h-104zM489 -317v-220h-530v220h530z" />
    <glyph glyph-name="parenleft" unicode="(" horiz-adv-x="927" 
d="M784 -317h185v-220h-195q-167 0 -297 91q-131 91 -215 252q-87 166 -130 396q-44 235 -44 515q0 259 63 451q64 196 162 317q101 125 225 185q127 61 246 61v-226q-64 -7 -141 -51t-139 -134q-64 -92 -107 -239q-43 -145 -43 -364q0 -286 42 -484q41 -196 106 -320
q63 -122 140 -176q76 -54 142 -54z" />
    <glyph glyph-name="parenright" unicode=")" horiz-adv-x="927" 
d="M143 -317q67 0 143 54q77 54 140 176q63 121 105 320q42 198 42 484q0 219 -43 364q-44 149 -106 239t-139 134t-142 51v226q120 0 247 -61q122 -59 224 -185q99 -123 163 -317q63 -192 63 -451q0 -280 -44 -515q-44 -232 -132 -396q-87 -161 -219 -252t-302 -91h-184
v220h184z" />
    <glyph glyph-name="asterisk" unicode="*" horiz-adv-x="915" 
d="M737 924l-172 -95l-106 179l-109 -179l-172 95l109 178h-195v188h195l-109 178l172 95l109 -179l106 179l172 -95l-108 -178h194v-188h-194zM956 -317v-220h-997v220h997z" />
    <glyph glyph-name="plus" unicode="+" horiz-adv-x="1173" 
d="M1092 410h-369v-379h-272v379h-369v235h369v379h272v-379h369v-235zM1214 -317v-220h-1255v220h1255z" />
    <glyph glyph-name="comma" unicode="," horiz-adv-x="557" 
d="M147 -537h-188v220h178q72 0 99 39q28 40 28 94v184h-133v297h297v-557q0 -57 -20 -104q-21 -50 -59 -88q-36 -36 -89 -61q-51 -24 -113 -24z" />
    <glyph glyph-name="hyphen" unicode="-" horiz-adv-x="847" 
d="M127 512v215h594v-215h-594zM889 -317v-220h-930v220h930z" />
    <glyph glyph-name="period" unicode="." horiz-adv-x="550" 
d="M127 0v297h297v-297h-297zM592 -317v-220h-633v220h633z" />
    <glyph glyph-name="slash" unicode="/" horiz-adv-x="946" 
d="M-147 -537l757 1971h277l-748 -1971h-286zM987 -317v-220h-498v220h498z" />
    <glyph glyph-name="zero" unicode="0" horiz-adv-x="1372" 
d="M686 -20q-140 0 -251 53q-109 52 -183 149t-112 234q-38 138 -38 301q0 166 40 301q41 137 114 233q75 98 183 150q111 53 247 53t247 -53q108 -52 183 -150q73 -96 114 -233q40 -135 40 -301q0 -163 -38 -301q-38 -137 -112 -234t-183 -149q-111 -53 -251 -53zM678 215
h16q84 0 143 38q58 37 94 105q36 67 51 160q15 91 15 199q0 107 -15 198q-15 93 -51 160q-37 70 -94 106q-59 38 -143 38h-16q-83 0 -142 -38q-58 -37 -95 -106q-36 -67 -51 -160q-15 -91 -15 -198t15 -199q15 -93 51 -160t95 -105t142 -38zM1413 -317v-220h-1454v220h1454z
" />
    <glyph glyph-name="one" unicode="1" horiz-adv-x="821" 
d="M647 0h-260v1049l-317 -306v338l362 353h215v-1434zM862 -317v-220h-903v220h903z" />
    <glyph glyph-name="two" unicode="2" horiz-adv-x="1208" 
d="M1108 0h-1010v248l488 459q127 118 178 187t51 144t-53 128t-137 53h-21q-90 0 -154 -62t-65 -172h-272q0 107 38 197q37 87 104 148q66 60 159 92t198 32q212 0 344 -115q131 -114 131 -290q0 -138 -66 -240q-65 -101 -206 -231l-373 -342h666v-236zM1249 -317v-220
h-1290v220h1290z" />
    <glyph glyph-name="three" unicode="3" horiz-adv-x="1224" 
d="M596 -20q-226 0 -367 111t-141 304h272q7 -77 66 -129q57 -51 160 -51h20q123 0 177 63q55 64 55 132q0 92 -72 140t-182 48h-97v236h86q118 0 187 54t69 146q0 76 -60 130q-61 55 -153 55h-20q-79 0 -140 -49q-62 -49 -69 -136h-272q0 91 38 169q37 76 103 133t156 87
q93 31 194 31q115 0 207 -33q94 -34 156 -87q63 -54 98 -127t35 -152q0 -122 -70 -212t-182 -120q111 -30 187 -121q75 -90 75 -213q0 -101 -39 -177q-40 -78 -107 -128q-69 -51 -164 -78q-91 -26 -206 -26zM1266 -317v-220h-1307v220h1307z" />
    <glyph glyph-name="four" unicode="4" horiz-adv-x="1294" 
d="M1012 0h-260v291h-693v268l684 875h269v-908h215v-235h-215v-291zM752 526v543l-426 -543h426zM1335 -317v-220h-1376v220h1376z" />
    <glyph glyph-name="five" unicode="5" horiz-adv-x="1216" 
d="M594 -20q-224 0 -366 117q-145 119 -167 302h273q21 -86 88 -135t168 -49h12q100 0 168 60t68 167q0 106 -68 163t-168 57h-12q-53 0 -117 -23q-62 -22 -113 -76h-249l176 871h809v-236h-602l-82 -391q39 38 110 64q70 26 140 26q198 0 323 -125t125 -319
q0 -209 -139 -341t-377 -132zM1257 -317v-220h-1298v220h1298z" />
    <glyph glyph-name="six" unicode="6" horiz-adv-x="1292" 
d="M1174 471q0 -97 -34 -186q-34 -90 -101 -158q-66 -68 -163 -108q-94 -39 -225 -39q-260 0 -404 181q-145 183 -145 509q0 173 51 323q49 144 137 247q86 101 205 158q116 56 250 56q181 0 309 -105q127 -105 150 -284h-272q-7 60 -56 107t-143 47h-16q-55 0 -119 -25
q-62 -24 -113 -80q-52 -57 -89 -145q-38 -91 -50 -221q46 88 146 141t219 53q94 0 178 -33t147 -93q64 -61 101 -148t37 -197zM391 461q0 -104 71 -175t183 -71h17q104 0 172 72q67 71 67 174t-67 174q-68 72 -172 72h-17q-108 0 -181 -70t-73 -176zM1333 -317v-220h-1374
v220h1374z" />
    <glyph glyph-name="seven" unicode="7" horiz-adv-x="1142" 
d="M569 0h-284v133q0 211 41 381q40 167 108 295q66 124 154 220q84 92 176 159h-713v246h1034v-226q-109 -73 -203 -168q-96 -98 -164 -226q-69 -130 -109 -299q-40 -167 -40 -382v-133zM1184 -317v-220h-1225v220h1225z" />
    <glyph glyph-name="eight" unicode="8" horiz-adv-x="1204" 
d="M602 -20q-116 0 -203 31q-86 31 -146 86q-59 54 -89 125q-31 73 -31 147q0 128 70 210q68 80 172 115q-107 39 -189 132q-82 92 -82 239q0 70 32 142t94 125t156 88q92 34 216 34t216 -34q94 -35 156 -88t94 -125t32 -142q0 -147 -82 -239q-82 -93 -189 -132
q104 -35 172 -115q70 -82 70 -210q0 -74 -31 -147q-30 -71 -89 -125q-60 -55 -146 -86q-87 -31 -203 -31zM592 1219q-88 0 -152 -56q-63 -55 -63 -143q0 -87 63 -144t152 -57h20q89 0 152 57t63 144q0 88 -63 143q-64 56 -152 56h-20zM799 399q0 85 -56 136t-131 51h-20
q-76 0 -131 -51t-55 -136t55 -134q56 -50 131 -50h20q75 0 131 50t56 134zM1245 -317v-220h-1286v220h1286z" />
    <glyph glyph-name="nine" unicode="9" horiz-adv-x="1292" 
d="M901 973q0 104 -71 175t-183 71h-16q-105 0 -172 -72q-68 -73 -68 -174t68 -174q67 -72 172 -72h16q108 0 181 70t73 176zM119 963q0 97 34 186q35 92 100 158q64 65 164 107q96 40 224 40q260 0 404 -181q145 -183 145 -509q0 -177 -50 -324q-48 -140 -138 -246
q-87 -102 -204 -158q-116 -56 -251 -56q-181 0 -308 105q-129 106 -151 284h272q7 -60 57 -108q47 -46 142 -46h16q55 0 119 25q63 25 113 79q52 56 89 146q38 91 50 221q-47 -89 -145 -141q-100 -53 -219 -53q-98 0 -179 32q-84 33 -147 93q-62 59 -100 149q-37 87 -37 197
zM1333 -317v-220h-1374v220h1374z" />
    <glyph glyph-name="colon" unicode=":" horiz-adv-x="555" 
d="M129 727v297h297v-297h-297zM129 0v297h297v-297h-297zM596 -317v-220h-637v220h637z" />
    <glyph glyph-name="semicolon" unicode=";" horiz-adv-x="593" 
d="M154 727v297h297v-297h-297zM172 -537h-213v220h203q71 0 98 39q29 41 29 94v184h-133v297h297v-557q0 -54 -21 -104q-22 -52 -58 -88t-89 -61q-51 -24 -113 -24z" />
    <glyph glyph-name="less" unicode="&#x3c;" horiz-adv-x="1081" 
d="M952 53l-870 348v246l870 348v-262l-534 -201l534 -202v-277zM1122 -317v-220h-1163v220h1163z" />
    <glyph glyph-name="equal" unicode="=" horiz-adv-x="1286" 
d="M137 614v236h1012v-236h-1012zM137 205v235h1012v-235h-1012zM1327 -317v-220h-1368v220h1368z" />
    <glyph glyph-name="greater" unicode="&#x3e;" horiz-adv-x="1081" 
d="M129 53v260l541 205l-541 203v274l870 -348v-246zM1122 -317v-220h-1163v220h1163z" />
    <glyph glyph-name="question" unicode="?" horiz-adv-x="1005" 
d="M514 391h-252v316q0 76 43 119q44 44 119 44h55q85 0 137 36q54 37 54 128q0 75 -54 120q-53 44 -137 44h-409v236h446q184 0 304 -108t120 -292q0 -75 -26 -145q-26 -71 -72 -121q-47 -52 -117 -82q-71 -31 -158 -31q-31 0 -42 -10t-11 -41v-213zM254 0v266h266v-266
h-266zM1047 -317v-220h-1088v220h1088z" />
    <glyph glyph-name="at" unicode="@" horiz-adv-x="1933" 
d="M530 610q0 87 27 167q26 77 75 138q48 60 115 95q65 34 146 34q86 0 148 -36q66 -39 100 -97v113h235v-645h8q77 2 140 80t63 278q0 118 -43 216q-44 101 -120 172q-79 75 -187 114q-112 41 -244 41q-134 0 -253 -46q-123 -47 -209 -131q-89 -85 -141 -207
q-52 -120 -52 -271q0 -227 81 -402q82 -178 224 -296q142 -119 343 -182q196 -62 437 -62h551v-220h-571q-279 0 -520 72q-244 73 -416 215q-173 143 -274 363t-101 512q0 201 77 364q77 162 202 274q127 113 287 172q164 60 335 60q174 0 326 -58q154 -59 267 -160
q114 -102 180 -241q67 -142 67 -299q0 -138 -37 -239q-38 -104 -97 -170q-61 -68 -138 -101q-76 -32 -158 -32h-262v112q-33 -57 -100 -96q-64 -37 -148 -37q-81 0 -147 36q-67 37 -114 95q-49 61 -75 138q-27 79 -27 167zM956 377h11q82 0 123 74q40 73 40 159q0 43 -10 83
q-11 46 -30 75q-19 30 -52 53q-30 21 -71 21h-11q-70 0 -117 -66q-46 -65 -46 -166q0 -105 46 -169t117 -64zM293 -317v-220h-334v220h334z" />
    <glyph glyph-name="A" unicode="A" horiz-adv-x="1460" 
d="M932 584l-207 542l-207 -542h414zM4 0l567 1434h324l553 -1434h-293l-129 338h-602l-129 -338h-291zM1522 -317v-220h-1583v220h1583z" />
    <glyph glyph-name="B" unicode="B" horiz-adv-x="1366" 
d="M823 0h-655v1434h635q103 0 185 -30q83 -30 139 -79q56 -48 86 -118q30 -69 30 -144q0 -130 -68 -217q-70 -89 -174 -119q110 -22 192 -112q81 -89 81 -234q0 -159 -126 -270t-325 -111zM444 846h318q99 0 152 44t53 128q0 83 -53 127q-52 43 -152 43h-318v-342zM444 246
h338q101 0 158 45t57 137t-57 136q-58 44 -158 44h-338v-362zM1407 -317v-220h-1448v220h1448z" />
    <glyph glyph-name="C" unicode="C" horiz-adv-x="1456" 
d="M1102 471h276q-7 -104 -50 -195q-41 -88 -117 -155t-184 -104t-251 -37q-163 0 -293 53q-128 52 -216 149q-86 95 -132 234q-45 136 -45 301t45 301q45 137 132 233q89 98 216 150q130 53 293 53q142 0 251 -39t184 -105q74 -65 117 -157q43 -91 50 -190h-276
q-24 115 -106 181q-80 64 -210 64h-20q-177 0 -288 -131t-111 -360q0 -231 111 -361q111 -131 288 -131h20q128 0 210 64t106 182zM1497 -317v-220h-1538v220h1538z" />
    <glyph glyph-name="D" unicode="D" horiz-adv-x="1476" 
d="M168 0v1434h491q161 0 295 -46q137 -47 231 -137q96 -91 148 -224q53 -135 53 -310q0 -178 -52 -310q-54 -137 -145 -225q-92 -89 -226 -136q-132 -46 -293 -46h-502zM444 246h195q208 0 339 101q132 102 132 370q0 267 -132 369t-339 102h-195v-942zM1518 -317v-220
h-1559v220h1559z" />
    <glyph glyph-name="E" unicode="E" horiz-adv-x="1353" 
d="M168 0v1434h1085v-246h-809v-330h686v-246h-686v-366h830v-246h-1106zM1395 -317v-220h-1436v220h1436z" />
    <glyph glyph-name="F" unicode="F" horiz-adv-x="1261" 
d="M168 0v1434h1044v-246h-768v-369h666v-246h-666v-573h-276zM1303 -317v-220h-1344v220h1344z" />
    <glyph glyph-name="G" unicode="G" horiz-adv-x="1525" 
d="M1182 139q-61 -65 -161 -113q-96 -46 -228 -46q-163 0 -291 56q-135 59 -223 154q-95 103 -143 235q-50 138 -50 292t50 292q47 130 143 234q89 97 223 155q128 56 291 56q137 0 248 -39q114 -40 190 -106q78 -67 123 -162q46 -96 53 -205h-277q-15 115 -94 191
q-78 75 -233 75h-21q-198 0 -309 -135t-111 -356q0 -222 111 -357t309 -135h21q133 0 243 73q106 71 140 204h-393v246h450q83 0 129 -46q45 -45 45 -129v-573h-235v139zM1567 -317v-220h-1608v220h1608z" />
    <glyph glyph-name="H" unicode="H" horiz-adv-x="1513" 
d="M168 0v1434h276v-594h625v594h277v-1434h-277v594h-625v-594h-276zM1554 -317v-220h-1595v220h1595z" />
    <glyph glyph-name="I" unicode="I" horiz-adv-x="612" 
d="M168 0v1434h276v-1434h-276zM653 -317v-220h-694v220h694z" />
    <glyph glyph-name="J" unicode="J" horiz-adv-x="878" 
d="M432 0h-375v266h262q70 0 97 27q26 26 26 96v1045h277v-1147q0 -129 -79 -208t-208 -79zM920 -317v-220h-961v220h961z" />
    <glyph glyph-name="K" unicode="K" horiz-adv-x="1404" 
d="M1065 0l-432 631l-189 -199v-432h-276v1434h276v-643l609 643h342l-564 -594l576 -840h-342zM1446 -317v-220h-1487v220h1487z" />
    <glyph glyph-name="L" unicode="L" horiz-adv-x="1290" 
d="M168 0v1434h276v-1188h809v-246h-1085zM1331 -317v-220h-1372v220h1372z" />
    <glyph glyph-name="M" unicode="M" horiz-adv-x="1902" 
d="M805 0l-367 1133v-1133h-270v1434h430l360 -1127l349 1127h428v-1434h-271v1130l-356 -1130h-303zM1944 -317v-220h-1985v220h1985z" />
    <glyph glyph-name="N" unicode="N" horiz-adv-x="1533" 
d="M1008 0l-564 1055v-1055h-276v1434h358l564 -1051v1051h276v-1434h-358zM1575 -317v-220h-1616v220h1616z" />
    <glyph glyph-name="O" unicode="O" horiz-adv-x="1568" 
d="M784 -20q-152 0 -281 50q-128 50 -220 145q-93 96 -144 233q-51 136 -51 309t51 309t144 232q94 97 220 146q129 50 281 50q153 0 282 -50q126 -49 220 -146q93 -96 144 -232t51 -309t-51 -309q-51 -137 -144 -233q-92 -95 -220 -145q-129 -50 -282 -50zM774 225h21
q190 0 300 131q109 130 109 361q0 230 -109 360q-110 131 -300 131h-21q-190 0 -300 -131q-109 -130 -109 -360q0 -231 109 -361q110 -131 300 -131zM1610 -317v-220h-1651v220h1651z" />
    <glyph glyph-name="P" unicode="P" horiz-adv-x="1335" 
d="M168 0v1434h645q206 0 334 -119q127 -118 127 -332q0 -213 -127 -333t-334 -120h-369v-530h-276zM444 776h338q106 0 161 58q54 57 54 149t-54 149q-53 56 -161 56h-338v-412zM1376 -317v-220h-1417v220h1417z" />
    <glyph glyph-name="Q" unicode="Q" horiz-adv-x="1568" 
d="M1610 -537h-688q-129 0 -198 69t-69 198v260q-126 18 -232 77q-107 59 -179 151q-75 95 -115 219q-41 128 -41 280q0 173 51 309t144 232q94 97 220 146q129 50 281 50q153 0 282 -50q126 -49 220 -146q93 -96 144 -232t51 -309q0 -150 -41 -278q-40 -124 -114 -218
q-71 -91 -177 -151q-103 -59 -229 -80v-195q0 -70 21 -91t91 -21h578v-220zM774 225h21q190 0 300 131q109 130 109 361q0 230 -109 360q-110 131 -300 131h-21q-190 0 -300 -131q-109 -130 -109 -360q0 -231 109 -361q110 -131 300 -131zM391 -317v-220h-432v220h432z" />
    <glyph glyph-name="R" unicode="R" horiz-adv-x="1396" 
d="M444 784h308q121 0 184 54q61 52 61 153t-61 149q-62 48 -184 48h-308v-404zM168 0v1434h666q92 0 173 -30q80 -30 139 -81q58 -51 93 -123q35 -73 35 -156q0 -133 -61 -226q-60 -91 -183 -136q117 0 170 -53t53 -150v-479h-276v410q0 75 -29 104t-104 29h-400v-543h-276
zM1438 -317v-220h-1479v220h1479z" />
    <glyph glyph-name="S" unicode="S" horiz-adv-x="1298" 
d="M940 983q-7 110 -82 168q-73 57 -184 57h-21q-115 0 -180 -52t-65 -122q0 -68 41 -106t133 -56l215 -43q184 -37 290 -136q107 -99 107 -273q0 -93 -37 -173q-37 -81 -106 -139q-70 -60 -172 -94q-101 -34 -236 -34q-294 0 -434 140q-143 143 -150 361h277
q7 -105 88 -181q80 -75 240 -75h20q113 0 174 53q60 53 60 121q0 63 -34 100t-128 58l-256 53q-192 39 -280 147q-89 109 -89 267q0 80 36 158q36 79 103 138q66 59 170 97q101 37 234 37q129 0 231 -36q104 -37 171 -98q69 -63 105 -149t36 -188h-277zM1339 -317v-220
h-1380v220h1380z" />
    <glyph glyph-name="T" unicode="T" horiz-adv-x="1343" 
d="M532 0v1188h-495v246h1270v-246h-498v-1188h-277zM1384 -317v-220h-1425v220h1425z" />
    <glyph glyph-name="U" unicode="U" horiz-adv-x="1437" 
d="M719 -20q-291 0 -427 139t-136 383v932h276v-891q0 -167 70 -243q69 -75 207 -75h20q138 0 207 75q70 76 70 243v891h276v-932q0 -244 -136 -383t-427 -139zM1479 -317v-220h-1520v220h1520z" />
    <glyph glyph-name="V" unicode="V" horiz-adv-x="1466" 
d="M915 0h-358l-549 1434h309l424 -1143l408 1143h303zM1507 -317v-220h-1548v220h1548z" />
    <glyph glyph-name="W" unicode="W" horiz-adv-x="1945" 
d="M1192 0l-219 1044l-221 -1044h-359l-352 1434h285l256 -1137l225 1137h338l225 -1137l248 1137h287l-355 -1434h-358zM1987 -317v-220h-2028v220h2028z" />
    <glyph glyph-name="X" unicode="X" horiz-adv-x="1314" 
d="M987 0l-334 502l-340 -502h-311l496 735l-465 699h325l304 -457l309 457h311l-465 -689l496 -745h-326zM1356 -317v-220h-1397v220h1397z" />
    <glyph glyph-name="Y" unicode="Y" horiz-adv-x="1357" 
d="M817 0h-276v573l-533 861h314l366 -603l361 603h303l-535 -861v-573zM1399 -317v-220h-1440v220h1440z" />
    <glyph glyph-name="Z" unicode="Z" horiz-adv-x="1300" 
d="M1219 0h-1137v236l795 952h-775v246h1096v-236l-795 -952h816v-246zM1341 -317v-220h-1382v220h1382z" />
    <glyph glyph-name="bracketleft" unicode="[" horiz-adv-x="718" 
d="M162 -537v2268h491v-215h-225v-1833h332v-220h-598z" />
    <glyph glyph-name="backslash" unicode="\" horiz-adv-x="946" 
d="M1094 -537h-287l-748 1971h277zM457 -317v-220h-498v220h498z" />
    <glyph glyph-name="bracketright" unicode="]" horiz-adv-x="718" 
d="M557 1731v-2268h-598v220h332v1833h-225v215h491z" />
    <glyph glyph-name="asciicircum" unicode="^" horiz-adv-x="1105" 
d="M754 584l-203 503l-203 -503h-280l358 850h254l358 -850h-284zM1147 -317v-220h-1188v220h1188z" />
    <glyph glyph-name="underscore" unicode="_" horiz-adv-x="1085" 
d="M61 0v215h963v-215h-963z" />
    <glyph glyph-name="grave" unicode="`" horiz-adv-x="399" 
d="M328 1434l51 -308h-154l-205 308h308z" />
    <glyph glyph-name="a" unicode="a" horiz-adv-x="1093" 
d="M465 195h10q94 0 162 61q70 62 70 162v28l-222 -22q-50 -4 -100 -33q-49 -28 -49 -92q0 -48 37 -76t92 -28zM713 125q-45 -66 -124 -106q-77 -39 -179 -39q-140 0 -237 81q-99 83 -99 220q0 84 29 143q30 62 81 102q53 42 120 64t145 28l258 23v25q0 70 -45 116
q-45 47 -121 47h-13q-77 0 -119 -38q-45 -40 -49 -84h-266q15 144 132 240q118 97 309 97q189 0 310 -95q120 -95 120 -273v-451q0 -66 1 -108q2 -65 9 -117h-250q-4 19 -7 56q-4 46 -5 69zM1135 -317v-220h-1176v220h1176z" />
    <glyph glyph-name="b" unicode="b" horiz-adv-x="1230" 
d="M1153 512q0 -102 -30 -200t-87 -171q-57 -74 -142 -117q-86 -44 -196 -44q-105 0 -185 50q-79 49 -110 103v-133h-266v1434h266v-543q31 54 110 103q80 50 185 50q110 0 196 -44q85 -43 142 -117q57 -73 87 -171t30 -200zM403 512q0 -145 71 -231t163 -86h16
q101 0 167 87q67 88 67 232q0 143 -67 230q-66 85 -167 85h-16q-92 0 -163 -86t-71 -231zM1272 -317v-220h-1313v220h1313z" />
    <glyph glyph-name="c" unicode="c" horiz-adv-x="1103" 
d="M766 358h266q-15 -191 -138 -284q-124 -94 -323 -94q-106 0 -192 36q-91 38 -157 107q-67 70 -104 168q-38 100 -38 221t38 221q37 98 104 168q66 69 157 107q86 36 192 36q199 0 323 -94q123 -93 138 -284h-266q-12 76 -58 119q-47 44 -130 44h-13q-115 0 -167 -94
t-52 -223t52 -223t167 -94h13q83 0 130 44q46 43 58 119zM1145 -317v-220h-1186v220h1186z" />
    <glyph glyph-name="d" unicode="d" horiz-adv-x="1230" 
d="M594 195q92 0 163 86q70 85 70 231t-70 231q-71 86 -163 86h-16q-101 0 -167 -85q-67 -87 -67 -230q0 -144 67 -232q66 -87 167 -87h16zM532 -20q-109 0 -195 44q-85 43 -142 117q-57 73 -87 171t-30 200t30 200t87 171q57 74 142 117q86 44 195 44q106 0 186 -50
q78 -48 109 -103v543h267v-1434h-267v133q-31 -55 -109 -103q-80 -50 -186 -50zM1272 -317v-220h-1313v220h1313z" />
    <glyph glyph-name="e" unicode="e" horiz-adv-x="1107" 
d="M1030 324q-38 -151 -154 -247q-118 -97 -309 -97q-98 0 -184 35q-88 36 -156 104q-65 65 -107 167q-40 98 -40 226q0 114 33 213q33 100 95 169q64 72 153 111q88 39 206 39t203 -39q88 -40 146 -109q59 -70 89 -165q29 -93 29 -207q0 -31 -1 -47q-1 -8 -2 -24.5
t-1 -24.5h-692q7 -103 79 -169q70 -64 154 -64h13q77 0 122 38q44 37 60 91h264zM338 633h438q-5 93 -66 144q-62 52 -147 52h-12q-85 0 -147 -52q-61 -51 -66 -144zM1212 -317v-220h-1253v220h1253z" />
    <glyph glyph-name="f" unicode="f" horiz-adv-x="811" 
d="M252 0v809h-209v215h209v143q0 129 69 198t197 69h293v-222h-180q-70 0 -91 -21q-22 -22 -22 -91v-76h242v-215h-242v-809h-266zM852 -317v-220h-893v220h893z" />
    <glyph glyph-name="g" unicode="g" horiz-adv-x="1214" 
d="M575 215h17q93 0 156 81t63 226q0 146 -63 227q-62 80 -156 80h-17q-97 0 -162 -80q-67 -82 -67 -227q0 -144 67 -226q66 -81 162 -81zM571 -317q102 0 170 56q70 58 70 179v225q-43 -74 -125 -109q-78 -34 -164 -34q-89 0 -169 34q-82 35 -141 100q-60 66 -96 164
t-36 224t36 224t96 164q61 67 141 101q77 33 169 33q88 0 164 -33q81 -35 125 -110v123h266v-1139q0 -79 -33 -156q-34 -78 -99 -136q-64 -57 -166 -94q-99 -36 -232 -36h-588v220h612z" />
    <glyph glyph-name="h" unicode="h" horiz-adv-x="1196" 
d="M403 569v-569h-266v1434h266v-560q45 77 127 123q83 47 183 47q185 0 270 -110q86 -112 86 -279v-655h-266v625q0 100 -43 152t-119 52h-16q-93 0 -157 -76q-65 -77 -65 -184zM1237 -317v-220h-1278v220h1278z" />
    <glyph glyph-name="i" unicode="i" horiz-adv-x="540" 
d="M127 1157v277h287v-277h-287zM137 0v1024h266v-1024h-266zM582 -317v-220h-623v220h623z" />
    <glyph glyph-name="j" unicode="j" horiz-adv-x="557" 
d="M141 1157v277h287v-277h-287zM420 1024v-1305q0 -122 -67 -189t-189 -67h-332v220h209q62 0 87 25q26 26 26 87v1229h266z" />
    <glyph glyph-name="k" unicode="k" horiz-adv-x="1128" 
d="M807 0l-285 426l-119 -121v-305h-266v1434h266v-791l371 381h326l-393 -408l413 -616h-313zM1169 -317v-220h-1210v220h1210z" />
    <glyph glyph-name="l" unicode="l" horiz-adv-x="540" 
d="M137 0v1434h266v-1434h-266zM582 -317v-220h-623v220h623z" />
    <glyph glyph-name="m" unicode="m" horiz-adv-x="1851" 
d="M403 569v-569h-266v1024h266v-145q51 86 137 127q80 38 169 38q105 0 188 -44q81 -43 125 -132q58 96 149 136q90 40 189 40q101 0 170 -30q66 -29 112 -84q43 -52 63 -127q19 -72 19 -158v-645h-266v614q0 100 -38 153q-37 52 -122 52h-12q-96 0 -158 -71
q-63 -72 -63 -179v-569h-266v614q0 100 -39 153q-39 52 -123 52h-12q-96 0 -158 -71q-64 -73 -64 -179zM1892 -317v-220h-1933v220h1933z" />
    <glyph glyph-name="n" unicode="n" horiz-adv-x="1196" 
d="M403 569v-569h-266v1024h266v-150q45 77 127 123q83 47 183 47q185 0 270 -110q86 -112 86 -279v-655h-266v625q0 100 -43 152t-119 52h-16q-93 0 -157 -76q-65 -77 -65 -184zM1237 -317v-220h-1278v220h1278z" />
    <glyph glyph-name="o" unicode="o" horiz-adv-x="1179" 
d="M590 -20q-119 0 -210 39q-97 42 -162 111q-65 70 -103 169q-37 98 -37 213t37 213q38 99 103 169q65 69 162 111q91 39 210 39t210 -39q97 -42 162 -111q65 -70 103 -169q37 -98 37 -213t-37 -213q-38 -99 -103 -169q-65 -69 -162 -111q-91 -39 -210 -39zM598 195
q106 0 171 84q65 85 65 233t-65 233q-65 84 -171 84h-16q-106 0 -171 -84q-65 -85 -65 -233t65 -233q65 -84 171 -84h16zM1221 -317v-220h-1262v220h1262z" />
    <glyph glyph-name="p" unicode="p" horiz-adv-x="1230" 
d="M637 829q-92 0 -163 -86t-71 -231t71 -231t163 -86h16q101 0 167 85q67 87 67 230q0 144 -67 232q-66 87 -167 87h-16zM1272 -317v-220h-602v220h602zM-41 -537v220h178v1341h266v-133q31 54 110 103q80 50 185 50q110 0 196 -44q85 -43 142 -117q57 -73 87 -171t30 -200
t-30 -200t-87 -171q-57 -74 -142 -117q-86 -44 -196 -44q-105 0 -185 50q-79 49 -110 103v-670h-444z" />
    <glyph glyph-name="q" unicode="q" horiz-adv-x="1232" 
d="M596 829h-16q-101 0 -167 -87q-67 -88 -67 -232q0 -143 67 -230q66 -85 167 -85h16q92 0 163 86q70 85 70 231t-70 231q-71 86 -163 86zM-41 -317h602v-220h-602v220zM829 -537v670q-31 -55 -109 -103q-80 -50 -185 -50q-110 0 -196 44q-85 43 -142 117q-57 73 -87 171
t-30 200t30 200t87 171q57 74 142 117q86 44 196 44q105 0 185 -50q78 -48 109 -103v133h267v-1341h178v-220h-445z" />
    <glyph glyph-name="r" unicode="r" horiz-adv-x="792" 
d="M137 0v1024h266v-205q30 101 107 158q76 57 190 57h52v-246h-93q-129 0 -192 -63q-64 -64 -64 -193v-532h-266zM834 -317v-220h-875v220h875z" />
    <glyph glyph-name="s" unicode="s" horiz-adv-x="1017" 
d="M508 -20q-206 0 -325 95q-117 93 -117 263h272q0 -70 48 -112t124 -42h16q60 0 99 28q37 27 37 73q0 38 -25 63q-24 24 -80 39l-133 33q-160 39 -239 112t-79 197q0 137 112 226t302 89q198 0 308 -95t110 -263h-266q-7 72 -46 114q-37 40 -108 40h-16q-52 0 -91 -28
q-38 -27 -38 -73q0 -41 34 -65q35 -24 97 -39l137 -35q148 -38 217 -111q70 -75 70 -194q0 -129 -107 -222t-313 -93zM1059 -317v-220h-1100v220h1100z" />
    <glyph glyph-name="t" unicode="t" horiz-adv-x="833" 
d="M772 225v-225h-260q-129 0 -198 69q-68 68 -68 197v543h-211v215h211v332h266v-332h229v-215h-229v-471q0 -69 22 -91t91 -22h147zM874 -317v-220h-915v220h915z" />
    <glyph glyph-name="u" unicode="u" horiz-adv-x="1177" 
d="M1040 1024v-1024h-266v150q-45 -77 -124 -123q-80 -47 -175 -47q-179 0 -262 110q-84 111 -84 279v655h266v-625q0 -100 40 -152t112 -52h16q89 0 150 76t61 184v569h266zM1219 -317v-220h-1260v220h1260z" />
    <glyph glyph-name="v" unicode="v" horiz-adv-x="1144" 
d="M766 0h-387l-354 1024h282l271 -827l268 827h274zM1186 -317v-220h-1227v220h1227z" />
    <glyph glyph-name="w" unicode="w" horiz-adv-x="1619" 
d="M991 0l-180 717l-170 -717h-299l-313 1024h268l205 -760l166 760h284l178 -754l195 754h258l-293 -1024h-299zM1661 -317v-220h-1702v220h1702z" />
    <glyph glyph-name="x" unicode="x" horiz-adv-x="1075" 
d="M758 0l-223 313l-226 -313h-289l371 516l-360 508h297l213 -299l215 299h288l-360 -502l371 -522h-297zM1116 -317v-220h-1157v220h1157z" />
    <glyph glyph-name="y" unicode="y" horiz-adv-x="1171" 
d="M461 -537h-502v220h401q71 0 92 21t21 91v285l-446 944h299l276 -623l266 623h295l-436 -934v-360q0 -129 -69 -198t-197 -69zM1212 -317v-220h-233v220h233z" />
    <glyph glyph-name="z" unicode="z" horiz-adv-x="1042" 
d="M971 0h-891v205l528 583h-518v236h850v-205l-528 -583h559v-236zM1083 -317v-220h-1124v220h1124z" />
    <glyph glyph-name="braceleft" unicode="{" horiz-adv-x="747" 
d="M330 739v-45q70 0 116 -43q48 -45 48 -143v-672q0 -86 23 -119q24 -34 99 -34h172v-220h-284q-138 0 -207 79q-70 81 -70 239v659q0 78 -20 105q-21 28 -82 28h-51v287h51q61 0 82 29q20 27 20 104v420q0 158 70 239q69 79 207 79h176v-215h-64q-75 0 -99 -35
q-23 -33 -23 -119v-436q0 -99 -48 -144q-46 -43 -116 -43z" />
    <glyph glyph-name="bar" unicode="|" horiz-adv-x="595" 
d="M637 -537h-678v220h203v1925h272v-1925h203v-220z" />
    <glyph glyph-name="braceright" unicode="}" horiz-adv-x="747" 
d="M418 694v45q-71 0 -117 43q-47 44 -47 144v436q0 84 -24 119t-99 35h-63v215h176q138 0 207 -79q69 -80 69 -239v-420q0 -76 21 -104q21 -29 82 -29h51v-287h-51q-61 0 -82 -28q-21 -29 -21 -105v-659q0 -159 -69 -239q-69 -79 -207 -79h-285v220h172q75 0 99 34t24 119
v672q0 99 47 143q46 43 117 43z" />
    <glyph glyph-name="asciitilde" unicode="~" horiz-adv-x="1030" 
d="M659 901q33 0 48 24q14 22 14 58h194v-53q0 -95 -54 -164q-55 -70 -171 -70q-35 0 -79 13q-39 12 -85 36l-37 21q-22 14 -46 24q-21 9 -46 9q-33 1 -48 -23t-15 -59h-195v53q0 94 67 164t163 70q55 0 91 -14q42 -16 62 -27l37 -21q27 -14 50 -27q24 -14 50 -14z" />
    <glyph glyph-name="exclamdown" unicode="&#xa1;" horiz-adv-x="546" 
d="M139 758v266h267v-266h-267zM137 -537v619l64 584h145l64 -584v-399h178v-220h-451z" />
    <glyph glyph-name="cent" unicode="&#xa2;" horiz-adv-x="1110" 
d="M348 512q0 -70 21 -131q21 -62 61 -105l90 527q-85 -27 -129 -110q-43 -82 -43 -181zM1337 -317v-220h-530v220h530zM-41 -537v220h371l57 333q-146 57 -226 191q-79 133 -79 305q0 108 32 204q32 95 92 166q58 68 149 113q87 43 204 49l39 226h211l-43 -252
q111 -39 184 -131q72 -91 84 -221h-264q-5 28 -16 52q-12 25 -31 44l-92 -549q55 7 94 49q37 40 45 96h264q-17 -174 -136 -276q-120 -102 -304 -102h-2l-88 -517h-545z" />
    <glyph glyph-name="sterling" unicode="&#xa3;" horiz-adv-x="1214" 
d="M1147 0h-1057v236h88q65 0 95 31q29 31 34 95l12 179l-229 -56v226l248 59l16 234q15 208 128 318q115 112 327 112h235v-236h-241q-88 0 -130 -43q-43 -44 -50 -162l-13 -157l228 53v-225l-244 -58l-16 -203q-5 -55 -22 -94q-18 -40 -69 -73h660v-236zM1255 -317v-220
h-1296v220h1296z" />
    <glyph glyph-name="currency" unicode="&#xa4;" horiz-adv-x="1517" 
d="M1235 -10l-182 174q-65 -40 -141 -61t-158 -21q-86 0 -156 20q-74 21 -137 60l-178 -172l-185 184l178 170q-33 60 -55 132q-20 67 -20 149q0 75 18 143t51 125l-172 172l185 184l176 -170q61 37 138 58q71 20 157 20q81 0 159 -21q77 -21 142 -61l180 174l184 -184
l-180 -180q31 -54 50 -123q18 -66 18 -137q0 -75 -20 -146t-52 -129l184 -176zM745 317h17q119 0 196 86q76 85 76 222q0 132 -76 214q-77 83 -196 83h-17q-119 0 -196 -83q-76 -82 -76 -214q0 -137 76 -222q77 -86 196 -86zM1559 -317v-220h-1600v220h1600z" />
    <glyph glyph-name="yen" unicode="&#xa5;" horiz-adv-x="1415" 
d="M844 0h-273v215l-272 -61v225l272 61v127l-333 -73v225l225 49l-408 666h293l367 -600l360 600h287l-330 -539l150 33v-226l-310 -67l-28 -47v-88l276 61v-225l-276 -62v-274zM1456 -317v-220h-1497v220h1497z" />
    <glyph glyph-name="brokenbar" unicode="&#xa6;" horiz-adv-x="591" 
d="M160 850v758h272v-758h-272zM633 -537h-674v220h201v921h272v-921h201v-220z" />
    <glyph glyph-name="section" unicode="&#xa7;" horiz-adv-x="1107" 
d="M590 -123h-428v215h420q55 0 81 23q25 22 25 61q0 34 -20 55q-22 23 -72 41l-285 107q-119 45 -176 111q-57 65 -55 169q1 76 50 144q48 67 136 112q-54 40 -81 98q-27 59 -27 128q0 143 94 218t272 75h385v-215h-368q-53 0 -85 -21t-32 -61q0 -34 19 -57q18 -23 69 -38
l186 -61q150 -51 241 -115q93 -66 93 -196q0 -86 -51 -160t-139 -117q50 -40 85 -93q34 -52 34 -128q0 -58 -21 -111q-22 -55 -64 -94q-44 -41 -115 -65q-73 -25 -171 -25zM473 565l180 -67q59 22 82 61q25 42 25 72q0 51 -39 81q-37 29 -88 44l-178 57q-58 -24 -80 -63
q-23 -40 -23 -74q0 -48 36 -70q39 -24 85 -41zM1149 -317v-220h-1190v220h1190z" />
    <glyph glyph-name="dieresis" unicode="&#xa8;" horiz-adv-x="696" 
d="M430 1157v266h246v-266h-246zM20 1157v266h246v-266h-246z" />
    <glyph glyph-name="copyright" unicode="&#xa9;" horiz-adv-x="1781" 
d="M891 -80q-161 0 -309 64q-145 63 -254 172t-172 254q-64 148 -64 309t64 310q61 143 172 254q108 108 254 171q148 64 309 64t310 -64q145 -62 254 -171t171 -254q64 -149 64 -310t-64 -309q-63 -146 -171 -254q-110 -111 -254 -172q-149 -64 -310 -64zM891 98
q126 0 236 49q113 50 195 134q84 86 131 197q48 114 48 241q0 126 -48 240q-48 113 -131 198q-80 82 -195 133q-110 49 -236 49q-127 0 -237 -49q-113 -50 -194 -133q-83 -85 -131 -198q-48 -114 -48 -240q0 -127 48 -241q47 -111 131 -197q83 -84 194 -134q110 -49 237 -49
zM891 303q-94 0 -163 36t-112 94q-41 56 -63 133q-21 75 -21 153q0 77 21 152q22 79 63 134q43 58 112 94t163 36q177 0 260 -92q82 -91 82 -214h-221q-7 56 -37 87q-29 30 -80 30h-8q-63 0 -97 -52t-34 -175t34 -175t97 -52h8q51 0 81 31q31 32 38 91h219q0 -126 -82 -218
q-83 -93 -260 -93zM1823 -317v-220h-1864v220h1864z" />
    <glyph glyph-name="ordfeminine" unicode="&#xaa;" horiz-adv-x="778" 
d="M293 1036q0 -25 15 -37t42 -12h8q35 0 66 26t31 74v21l-113 -21q-21 -5 -35 -17q-14 -13 -14 -34zM473 850q0 3 -1 8.5t-2 11.5t-1 11q0 3 -1.5 18.5t-2.5 24.5q-35 -43 -77 -63q-43 -21 -101 -21q-82 0 -136 48q-55 49 -55 130q0 87 67 127q65 38 154 49l134 16v19
q0 31 -18 49t-48 18h-8q-27 0 -45 -9q-19 -10 -25 -36h-190q5 89 72 140q70 53 196 53q116 0 189 -58t73 -145v-262q0 -15 2 -63q1 -36 6 -66h-182zM819 -317v-220h-860v220h860z" />
    <glyph glyph-name="guillemotleft" unicode="&#xab;" horiz-adv-x="1232" 
d="M670 143h-308l-296 441l296 440h308l-297 -440zM1161 143h-307l-297 441l297 440h307l-297 -440zM1274 -317v-220h-1315v220h1315z" />
    <glyph glyph-name="logicalnot" unicode="&#xac;" horiz-adv-x="1263" 
d="M1118 236h-272v276h-715v236h987v-512zM1305 -317v-220h-1346v220h1346z" />
    <glyph glyph-name="registered" unicode="&#xae;" horiz-adv-x="1781" 
d="M891 -80q-161 0 -309 64q-145 63 -254 172t-172 254q-64 148 -64 309t64 310q61 143 172 254q108 108 254 171q148 64 309 64t310 -64q145 -62 254 -171t171 -254q64 -149 64 -310t-64 -309q-63 -146 -171 -254q-110 -111 -254 -172q-149 -64 -310 -64zM891 98
q126 0 236 49q113 50 195 134q84 86 131 197q48 114 48 241q0 126 -48 240q-48 113 -131 198q-80 82 -195 133q-110 49 -236 49q-127 0 -237 -49q-113 -50 -194 -133q-83 -85 -131 -198q-48 -114 -48 -240q0 -127 48 -241q47 -111 131 -197q83 -84 194 -134q110 -49 237 -49
zM803 774h129q44 0 65 21t21 59t-23 58t-67 20h-125v-158zM590 324v790h381q129 0 194 -62q66 -63 66 -155q0 -93 -48 -142q-48 -50 -118 -65q75 0 116 -27q40 -27 40 -96v-243h-213v202q0 40 -15 56t-57 16h-133v-274h-213zM1823 -317v-220h-1864v220h1864z" />
    <glyph glyph-name="macron" unicode="&#xaf;" horiz-adv-x="665" 
d="M20 1157v215h625v-215h-625z" />
    <glyph glyph-name="degree" unicode="&#xb0;" horiz-adv-x="917" 
d="M459 696q-160 0 -270 110q-109 109 -109 269q0 161 109 270t270 109q160 0 269 -109q110 -110 110 -270q0 -159 -110 -269t-269 -110zM459 918q61 0 103 45t42 112q0 64 -42 106t-103 42q-62 0 -104 -42t-42 -106q0 -67 42 -112t104 -45zM958 -317v-220h-999v220h999z
" />
    <glyph glyph-name="plusminus" unicode="&#xb1;" horiz-adv-x="1269" 
d="M1141 563h-371v-215h-272v215h-369v236h369v225h272v-225h371v-236zM129 0v233h1012v-233h-1012zM1311 -317v-220h-1352v220h1352z" />
    <glyph glyph-name="twosuperior" unicode="&#xb2;" horiz-adv-x="765" 
d="M684 850h-606v172l305 276q18 16 52 54q26 29 26 63q0 30 -22 52t-54 22h-8q-34 0 -58 -27q-25 -28 -26 -61h-219q8 123 99 195q93 73 220 73q68 0 122 -21q52 -20 91 -56t57 -76q19 -42 19 -86q0 -74 -36 -123q-36 -50 -83 -95l-194 -178h315v-184zM807 -317v-220h-848
v220h848z" />
    <glyph glyph-name="threesuperior" unicode="&#xb3;" horiz-adv-x="774" 
d="M375 840q-124 0 -216 61q-93 61 -93 178h221q1 -26 27 -44q24 -17 59 -17h10q39 0 64 22q26 23 26 58q0 34 -26 54q-25 19 -62 19h-76v172h76q37 0 59 21q23 21 23 53q0 31 -21 52q-22 22 -57 22h-10q-32 0 -53 -17q-24 -19 -25 -40h-221q0 115 91 175q92 60 214 60
q60 0 114 -15q53 -15 96 -44q42 -28 68 -73q25 -43 25 -99q0 -59 -28 -107q-27 -47 -85 -71q60 -28 89 -78q30 -51 30 -113q0 -57 -27 -100q-26 -42 -72 -72q-42 -28 -102 -43q-55 -14 -118 -14zM815 -317v-220h-856v220h856z" />
    <glyph glyph-name="acute" unicode="&#xb4;" horiz-adv-x="399" 
d="M20 1126l52 308h307l-205 -308h-154z" />
    <glyph glyph-name="paragraph" unicode="&#xb6;" horiz-adv-x="1398" 
d="M-41 -537v220h535v878h-9q-86 1 -166 37q-77 34 -136 93q-57 57 -92 138q-34 78 -34 168q0 89 35 170t93 139t139 93t170 35h809v-215h-144v-1536h281v-220h-547v1756h-133v-1756h-801z" />
    <glyph glyph-name="periodcentered" unicode="&#xb7;" horiz-adv-x="550" 
d="M127 565v297h297v-297h-297zM592 -317v-220h-633v220h633z" />
    <glyph glyph-name="cedilla" unicode="&#xb8;" horiz-adv-x="491" 
d="M-41 -537v220h256q39 0 60 12q22 13 22 39q0 21 -16 36q-17 15 -56 15h-112v256h143v-123q76 0 135 -49q60 -49 60 -156q0 -122 -70 -186t-176 -64h-246z" />
    <glyph glyph-name="onesuperior" unicode="&#xb9;" horiz-adv-x="616" 
d="M500 850h-215v524l-224 -184v258l256 211h183v-809zM657 -317v-220h-698v220h698z" />
    <glyph glyph-name="ordmasculine" unicode="&#xba;" horiz-adv-x="802" 
d="M401 1444q148 0 232 -88t84 -215t-84 -214t-232 -87q-147 0 -231 87t-84 214t84 215t231 88zM406 1280h-9q-47 0 -74 -37q-28 -39 -28 -102q0 -65 28 -102q26 -35 74 -35h9q48 0 74 35q28 37 28 102q0 63 -28 102q-27 37 -74 37zM844 -317v-220h-885v220h885z" />
    <glyph glyph-name="guillemotright" unicode="&#xbb;" horiz-adv-x="1232" 
d="M870 143h-307l297 441l-297 440h307l297 -440zM379 143h-307l297 441l-297 440h307l297 -440zM1274 -317v-220h-1315v220h1315z" />
    <glyph glyph-name="onequarter" unicode="&#xbc;" horiz-adv-x="1863" 
d="M504 625h-215v524l-223 -184v258l256 211h182v-809zM1690 0h-199v127h-401v223l356 459h244v-510h108v-172h-108v-127zM1491 580l-215 -281h215v281zM1905 -317v-220h-1225v220h1225zM-41 -537v220h213l1053 1751h239l-1183 -1971h-322z" />
    <glyph glyph-name="onehalf" unicode="&#xbd;" horiz-adv-x="1906" 
d="M504 625h-215v524l-223 -184v258l256 211h182v-809zM1825 0h-606v172l305 277q22 20 52 53q26 29 26 63q0 30 -22 52t-54 22h-8q-34 0 -58 -27q-25 -28 -26 -61h-220q7 122 100 195t220 73q68 0 122 -21q52 -20 91 -56q37 -34 56 -76q20 -45 20 -86q0 -74 -36 -123
q-36 -50 -83 -95l-195 -178h316v-184zM1948 -317v-220h-1268v220h1268zM-41 -537v220h213l1053 1751h239l-1183 -1971h-322z" />
    <glyph glyph-name="threequarters" unicode="&#xbe;" horiz-adv-x="1968" 
d="M379 614q-122 0 -216 62q-93 62 -93 178h221q1 -26 27 -44q24 -17 59 -17h10q40 0 65 22t25 57q0 36 -25 55t-63 19h-76v172h76q37 0 60 21q22 21 22 53t-20 52q-22 22 -58 22h-10q-31 0 -53 -18q-24 -19 -25 -40h-221q0 115 91 175q93 61 214 61q56 0 114 -16
q53 -15 96 -44t68 -72t25 -100q0 -60 -27 -106q-28 -48 -85 -72q58 -28 88 -78q30 -51 30 -112q0 -58 -27 -101q-25 -40 -72 -71q-42 -28 -102 -43q-58 -15 -118 -15zM1794 0h-199v127h-401v223l356 459h244v-510h109v-172h-109v-127zM1595 580l-215 -281h215v281z
M2009 -317v-220h-1227v220h1227zM-41 -537v220h315l1053 1751h240l-1184 -1971h-424z" />
    <glyph glyph-name="questiondown" unicode="&#xbf;" horiz-adv-x="993" 
d="M745 1024v-266h-266v266h266zM485 633h252v-316q0 -76 -43 -119q-44 -44 -119 -44h-55q-84 0 -137 -50t-53 -176q0 -113 53 -180q52 -65 137 -65h514v-220h-551q-184 0 -304 126t-120 339q0 86 26 169q25 79 73 141q45 58 116 95q69 36 158 36q31 0 42 10t11 41v213z" />
    <glyph glyph-name="Agrave" unicode="&#xc0;" horiz-adv-x="1460" 
d="M760 1823l82 -297h-185l-215 297h318zM932 584l-207 542l-207 -542h414zM4 0l567 1434h324l553 -1434h-293l-129 338h-602l-129 -338h-291zM1522 -317v-220h-1583v220h1583z" />
    <glyph glyph-name="Aacute" unicode="&#xc1;" horiz-adv-x="1460" 
d="M627 1526l82 297h317l-215 -297h-184zM932 584l-207 542l-207 -542h414zM4 0l567 1434h324l553 -1434h-293l-129 338h-602l-129 -338h-291zM1522 -317v-220h-1583v220h1583z" />
    <glyph glyph-name="Acircumflex" unicode="&#xc2;" horiz-adv-x="1460" 
d="M561 1526h-225l246 297h286l246 -297h-225l-164 119zM932 584l-207 542l-207 -542h414zM4 0l567 1434h324l553 -1434h-293l-129 338h-602l-129 -338h-291zM1522 -317v-220h-1583v220h1583z" />
    <glyph glyph-name="Atilde" unicode="&#xc3;" horiz-adv-x="1460" 
d="M858 1741q33 0 47 23q15 24 15 59h194v-54q0 -94 -54 -163q-55 -70 -171 -70q-39 0 -79 12q-35 10 -85 37l-37 21q-17 10 -46 23q-21 9 -46 9q-33 2 -48 -22q-16 -26 -16 -60h-194v54q0 95 66 164t163 69q58 0 91 -13q38 -15 63 -28l37 -20q27 -14 50 -27q24 -14 50 -14z
M932 584l-207 542l-207 -542h414zM4 0l567 1434h324l553 -1434h-293l-129 338h-602l-129 -338h-291zM1522 -317v-220h-1583v220h1583z" />
    <glyph glyph-name="Adieresis" unicode="&#xc4;" horiz-adv-x="1460" 
d="M799 1567v245h256v-245h-256zM399 1567v245h256v-245h-256zM932 584l-207 542l-207 -542h414zM4 0l567 1434h324l553 -1434h-293l-129 338h-602l-129 -338h-291zM1522 -317v-220h-1583v220h1583z" />
    <glyph glyph-name="Aring" unicode="&#xc5;" horiz-adv-x="1460" 
d="M504 1720q0 89 68 157q69 69 157 69q97 0 161 -69q64 -68 64 -157q0 -96 -64 -160q-65 -65 -161 -65q-87 0 -157 65q-68 64 -68 160zM729 1802q-33 0 -57 -24q-25 -25 -25 -58q0 -32 25 -57t57 -25q31 0 56 25q24 24 24 57q0 34 -24 58t-56 24zM932 584l-207 542
l-207 -542h414zM4 0l567 1434h324l553 -1434h-293l-129 338h-602l-129 -338h-291zM1522 -317v-220h-1583v220h1583z" />
    <glyph glyph-name="AE" unicode="&#xc6;" horiz-adv-x="2029" 
d="M967 584l-84 587l-297 -587h381zM1051 0l-50 338h-540l-170 -338h-301l747 1434h1123v-246h-703l49 -330h592v-246h-561l53 -366h692v-246h-931zM2071 -317v-220h-2112v220h2112z" />
    <glyph glyph-name="Ccedilla" unicode="&#xc7;" horiz-adv-x="1456" 
d="M1006 -287q0 -122 -70 -186t-176 -64h-801v220h811q39 0 60 12q22 13 22 39q0 21 -16 36t-56 15h-112v201q-141 17 -248 76q-109 61 -181 155q-75 98 -111 221q-38 129 -38 279q0 165 45 301q45 137 132 233q89 98 216 150q130 53 293 53q142 0 251 -39t184 -105
q74 -65 117 -157q43 -91 50 -190h-276q-24 115 -106 181q-80 64 -210 64h-20q-177 0 -288 -131t-111 -360q0 -231 111 -361q111 -131 288 -131h20q128 0 210 64t106 182h276q-7 -100 -47 -190t-110 -153t-174 -104q-99 -39 -236 -44v-62q76 0 135 -49q60 -49 60 -156z
M1497 -317v-220h-227v220h227z" />
    <glyph glyph-name="Egrave" unicode="&#xc8;" horiz-adv-x="1353" 
d="M772 1823l82 -297h-184l-215 297h317zM168 0v1434h1085v-246h-809v-330h686v-246h-686v-366h830v-246h-1106zM1395 -317v-220h-1436v220h1436z" />
    <glyph glyph-name="Eacute" unicode="&#xc9;" horiz-adv-x="1353" 
d="M598 1526l82 297h317l-215 -297h-184zM168 0v1434h1085v-246h-809v-330h686v-246h-686v-366h830v-246h-1106zM1395 -317v-220h-1436v220h1436z" />
    <glyph glyph-name="Ecircumflex" unicode="&#xca;" horiz-adv-x="1353" 
d="M549 1526h-225l245 297h287l246 -297h-225l-164 119zM168 0v1434h1085v-246h-809v-330h686v-246h-686v-366h830v-246h-1106zM1395 -317v-220h-1436v220h1436z" />
    <glyph glyph-name="Edieresis" unicode="&#xcb;" horiz-adv-x="1353" 
d="M786 1567v245h256v-245h-256zM387 1567v245h256v-245h-256zM168 0v1434h1085v-246h-809v-330h686v-246h-686v-366h830v-246h-1106zM1395 -317v-220h-1436v220h1436z" />
    <glyph glyph-name="Igrave" unicode="&#xcc;" horiz-adv-x="612" 
d="M326 1823l82 -297h-185l-215 297h318zM168 0v1434h276v-1434h-276zM653 -317v-220h-694v220h694z" />
    <glyph glyph-name="Iacute" unicode="&#xcd;" horiz-adv-x="612" 
d="M215 1526l82 297h317l-215 -297h-184zM168 0v1434h276v-1434h-276zM653 -317v-220h-694v220h694z" />
    <glyph glyph-name="Icircumflex" unicode="&#xce;" horiz-adv-x="612" 
d="M143 1526h-225l246 297h287l245 -297h-225l-164 119zM168 0v1434h276v-1434h-276zM737 -317v-220h-860v220h860z" />
    <glyph glyph-name="Idieresis" unicode="&#xcf;" horiz-adv-x="612" 
d="M379 1567v245h256v-245h-256zM-20 1567v245h256v-245h-256zM168 0v1434h276v-1434h-276zM676 -317v-220h-737v220h737z" />
    <glyph glyph-name="Eth" unicode="&#xd0;" horiz-adv-x="1540" 
d="M733 0h-502v594h-204v246h204v594h492q161 0 295 -46q135 -46 230 -137q97 -93 149 -224q53 -135 53 -310q0 -178 -52 -310q-53 -135 -146 -225q-92 -89 -226 -136q-132 -46 -293 -46zM508 246h194q208 0 339 101q133 103 133 370q0 266 -133 369q-132 102 -339 102h-194
v-348h256v-246h-256v-348zM1581 -317v-220h-1622v220h1622z" />
    <glyph glyph-name="Ntilde" unicode="&#xd1;" horiz-adv-x="1533" 
d="M924 1741q33 0 47 23q14 22 14 59h195v-54q0 -93 -55 -163t-171 -70q-38 0 -78 12q-35 10 -85 37l-37 21q-17 10 -46 23q-21 9 -46 9q-34 2 -49 -22t-15 -60h-195v54q0 94 67 164q66 69 163 69q58 0 91 -13q34 -13 62 -28l37 -20q27 -14 50 -27q24 -14 51 -14zM1008 0
l-564 1055v-1055h-276v1434h358l564 -1051v1051h276v-1434h-358zM1575 -317v-220h-1616v220h1616z" />
    <glyph glyph-name="Ograve" unicode="&#xd2;" horiz-adv-x="1568" 
d="M813 1823l82 -297h-184l-215 297h317zM784 -20q-152 0 -281 50q-128 50 -220 145q-93 96 -144 233q-51 136 -51 309t51 309t144 232q94 97 220 146q129 50 281 50q153 0 282 -50q126 -49 220 -146q93 -96 144 -232t51 -309t-51 -309q-51 -137 -144 -233
q-92 -95 -220 -145q-129 -50 -282 -50zM774 225h21q190 0 300 131q109 130 109 361q0 230 -109 360q-110 131 -300 131h-21q-190 0 -300 -131q-109 -130 -109 -360q0 -231 109 -361q110 -131 300 -131zM1610 -317v-220h-1651v220h1651z" />
    <glyph glyph-name="Oacute" unicode="&#xd3;" horiz-adv-x="1568" 
d="M696 1526l82 297h318l-215 -297h-185zM784 -20q-152 0 -281 50q-128 50 -220 145q-93 96 -144 233q-51 136 -51 309t51 309t144 232q94 97 220 146q129 50 281 50q153 0 282 -50q126 -49 220 -146q93 -96 144 -232t51 -309t-51 -309q-51 -137 -144 -233
q-92 -95 -220 -145q-129 -50 -282 -50zM774 225h21q190 0 300 131q109 130 109 361q0 230 -109 360q-110 131 -300 131h-21q-190 0 -300 -131q-109 -130 -109 -360q0 -231 109 -361q110 -131 300 -131zM1610 -317v-220h-1651v220h1651z" />
    <glyph glyph-name="Ocircumflex" unicode="&#xd4;" horiz-adv-x="1568" 
d="M621 1526h-226l246 297h287l246 -297h-226l-164 119zM784 -20q-152 0 -281 50q-128 50 -220 145q-93 96 -144 233q-51 136 -51 309t51 309t144 232q94 97 220 146q129 50 281 50q153 0 282 -50q126 -49 220 -146q93 -96 144 -232t51 -309t-51 -309q-51 -137 -144 -233
q-92 -95 -220 -145q-129 -50 -282 -50zM774 225h21q190 0 300 131q109 130 109 361q0 230 -109 360q-110 131 -300 131h-21q-190 0 -300 -131q-109 -130 -109 -360q0 -231 109 -361q110 -131 300 -131zM1610 -317v-220h-1651v220h1651z" />
    <glyph glyph-name="Otilde" unicode="&#xd5;" horiz-adv-x="1568" 
d="M918 1741q33 0 47 23q14 22 14 59h195v-54q0 -93 -55 -163t-171 -70q-38 0 -79 12q-35 10 -85 37l-36 21q-15 9 -47 23q-21 9 -46 9q-33 2 -48 -22t-15 -60h-195v54q0 94 67 164q66 69 163 69q58 0 91 -13q34 -13 62 -28l37 -20q27 -14 50 -27q24 -14 51 -14zM784 -20
q-152 0 -281 50q-128 50 -220 145q-93 96 -144 233q-51 136 -51 309t51 309t144 232q94 97 220 146q129 50 281 50q153 0 282 -50q126 -49 220 -146q93 -96 144 -232t51 -309t-51 -309q-51 -137 -144 -233q-92 -95 -220 -145q-129 -50 -282 -50zM774 225h21q190 0 300 131
q109 130 109 361q0 230 -109 360q-110 131 -300 131h-21q-190 0 -300 -131q-109 -130 -109 -360q0 -231 109 -361q110 -131 300 -131zM1610 -317v-220h-1651v220h1651z" />
    <glyph glyph-name="Odieresis" unicode="&#xd6;" horiz-adv-x="1568" 
d="M856 1567v245h256v-245h-256zM457 1567v245h256v-245h-256zM784 -20q-152 0 -281 50q-128 50 -220 145q-93 96 -144 233q-51 136 -51 309t51 309t144 232q94 97 220 146q129 50 281 50q153 0 282 -50q126 -49 220 -146q93 -96 144 -232t51 -309t-51 -309
q-51 -137 -144 -233q-92 -95 -220 -145q-129 -50 -282 -50zM774 225h21q190 0 300 131q109 130 109 361q0 230 -109 360q-110 131 -300 131h-21q-190 0 -300 -131q-109 -130 -109 -360q0 -231 109 -361q110 -131 300 -131zM1610 -317v-220h-1651v220h1651z" />
    <glyph glyph-name="multiply" unicode="&#xd7;" horiz-adv-x="1122" 
d="M856 63l-295 297l-297 -297l-166 168l295 295l-297 297l170 170l297 -297l295 295l166 -168l-293 -293l295 -297zM1163 -317v-220h-1204v220h1204z" />
    <glyph glyph-name="Oslash" unicode="&#xd8;" horiz-adv-x="1574" 
d="M367 717q0 -73 12 -138q12 -66 33 -118l563 710q-43 20 -84 28q-45 9 -94 9h-21q-190 0 -300 -131q-109 -130 -109 -360zM776 225h21q190 0 300 131q109 130 109 361q0 72 -12 136q-12 65 -33 116l-559 -709q42 -18 82 -26q44 -9 92 -9zM786 -20q-99 0 -182 19
q-87 20 -162 58l-125 -157l-215 168l131 168q-68 90 -105 211q-38 123 -38 270q0 173 51 309t144 232q94 97 220 146q129 50 281 50q101 0 185 -20q89 -21 162 -60l127 160l215 -168l-134 -170q67 -90 105 -212q37 -120 37 -267q0 -173 -51 -309q-51 -137 -144 -233
q-92 -95 -220 -145q-129 -50 -282 -50zM1616 -317v-220h-1657v220h1657z" />
    <glyph glyph-name="Ugrave" unicode="&#xd9;" horiz-adv-x="1437" 
d="M745 1823l82 -297h-184l-215 297h317zM719 -20q-291 0 -427 139t-136 383v932h276v-891q0 -167 70 -243q69 -75 207 -75h20q138 0 207 75q70 76 70 243v891h276v-932q0 -244 -136 -383t-427 -139zM1479 -317v-220h-1520v220h1520z" />
    <glyph glyph-name="Uacute" unicode="&#xda;" horiz-adv-x="1437" 
d="M612 1526l82 297h318l-215 -297h-185zM719 -20q-291 0 -427 139t-136 383v932h276v-891q0 -167 70 -243q69 -75 207 -75h20q138 0 207 75q70 76 70 243v891h276v-932q0 -244 -136 -383t-427 -139zM1479 -317v-220h-1520v220h1520z" />
    <glyph glyph-name="Ucircumflex" unicode="&#xdb;" horiz-adv-x="1437" 
d="M555 1526h-225l245 297h287l246 -297h-225l-164 119zM719 -20q-291 0 -427 139t-136 383v932h276v-891q0 -167 70 -243q69 -75 207 -75h20q138 0 207 75q70 76 70 243v891h276v-932q0 -244 -136 -383t-427 -139zM1479 -317v-220h-1520v220h1520z" />
    <glyph glyph-name="Udieresis" unicode="&#xdc;" horiz-adv-x="1437" 
d="M791 1567v245h256v-245h-256zM391 1567v245h256v-245h-256zM719 -20q-291 0 -427 139t-136 383v932h276v-891q0 -167 70 -243q69 -75 207 -75h20q138 0 207 75q70 76 70 243v891h276v-932q0 -244 -136 -383t-427 -139zM1479 -317v-220h-1520v220h1520z" />
    <glyph glyph-name="Yacute" unicode="&#xdd;" horiz-adv-x="1357" 
d="M573 1526l82 297h318l-215 -297h-185zM817 0h-276v573l-533 861h314l366 -603l361 603h303l-535 -861v-573zM1399 -317v-220h-1440v220h1440z" />
    <glyph glyph-name="Thorn" unicode="&#xde;" horiz-adv-x="1335" 
d="M168 0v1434h276v-256h359q208 0 339 -121q132 -122 132 -340q0 -219 -132 -340q-131 -121 -339 -121h-359v-256h-276zM444 502h338q107 0 161 60t54 155t-54 155t-161 60h-338v-430zM1376 -317v-220h-1417v220h1417z" />
    <glyph glyph-name="germandbls" unicode="&#xdf;" horiz-adv-x="1134" 
d="M1176 -317v-220h-506v220h506zM-41 -537v220h178v1347q0 190 118 307t325 117q94 0 175 -29q77 -28 135 -78q56 -49 87 -118q31 -70 31 -144q0 -127 -68 -209q-68 -81 -170 -122q115 -21 202 -116t87 -232q0 -97 -36 -173t-97 -127q-62 -51 -147 -78q-89 -28 -185 -28
h-98v215h36q123 0 192 57t69 164t-77 155q-76 48 -184 48h-36v215h36q84 0 152 50t68 151q0 91 -49 138q-47 46 -117 46h-13q-70 0 -119 -52q-51 -54 -51 -167v-1557h-444z" />
    <glyph glyph-name="agrave" unicode="&#xe0;" horiz-adv-x="1093" 
d="M580 1434l51 -308h-154l-205 308h308zM465 195h10q94 0 162 61q70 62 70 162v28l-222 -22q-50 -4 -100 -33q-49 -28 -49 -92q0 -48 37 -76t92 -28zM713 125q-45 -66 -124 -106q-77 -39 -179 -39q-140 0 -237 81q-99 83 -99 220q0 84 29 143q30 62 81 102q53 42 120 64
t145 28l258 23v25q0 70 -45 116q-45 47 -121 47h-13q-77 0 -119 -38q-45 -40 -49 -84h-266q15 144 132 240q118 97 309 97q189 0 310 -95q120 -95 120 -273v-451q0 -66 1 -108q2 -65 9 -117h-250q-4 19 -7 56q-4 46 -5 69zM1135 -317v-220h-1176v220h1176z" />
    <glyph glyph-name="aacute" unicode="&#xe1;" horiz-adv-x="1093" 
d="M446 1126l52 308h307l-205 -308h-154zM465 195h10q94 0 162 61q70 62 70 162v28l-222 -22q-50 -4 -100 -33q-49 -28 -49 -92q0 -48 37 -76t92 -28zM713 125q-45 -66 -124 -106q-77 -39 -179 -39q-140 0 -237 81q-99 83 -99 220q0 84 29 143q30 62 81 102q53 42 120 64
t145 28l258 23v25q0 70 -45 116q-45 47 -121 47h-13q-77 0 -119 -38q-45 -40 -49 -84h-266q15 144 132 240q118 97 309 97q189 0 310 -95q120 -95 120 -273v-451q0 -66 1 -108q2 -65 9 -117h-250q-4 19 -7 56q-4 46 -5 69zM1135 -317v-220h-1176v220h1176z" />
    <glyph glyph-name="acircumflex" unicode="&#xe2;" horiz-adv-x="1093" 
d="M739 1126l-204 148l-205 -148h-164l205 308h327l205 -308h-164zM465 195h10q94 0 162 61q70 62 70 162v28l-222 -22q-50 -4 -100 -33q-49 -28 -49 -92q0 -48 37 -76t92 -28zM713 125q-45 -66 -124 -106q-77 -39 -179 -39q-140 0 -237 81q-99 83 -99 220q0 84 29 143
q30 62 81 102q53 42 120 64t145 28l258 23v25q0 70 -45 116q-45 47 -121 47h-13q-77 0 -119 -38q-45 -40 -49 -84h-266q15 144 132 240q118 97 309 97q189 0 310 -95q120 -95 120 -273v-451q0 -66 1 -108q2 -65 9 -117h-250q-4 19 -7 56q-4 46 -5 69zM1135 -317v-220h-1176
v220h1176z" />
    <glyph glyph-name="atilde" unicode="&#xe3;" horiz-adv-x="1093" 
d="M682 1341q26 0 44 24q17 23 17 58h195v-53q0 -94 -68 -164q-68 -69 -157 -69q-39 0 -79 12q-35 10 -85 37l-37 20q-20 12 -43 24q-18 9 -43 9q-27 0 -48 -24q-22 -25 -22 -58h-194v53q0 95 66 164q67 70 163 70q58 0 91 -13q38 -15 63 -28l37 -21q39 -19 50 -26
q26 -15 50 -15zM465 195h10q94 0 162 61q70 62 70 162v28l-222 -22q-50 -4 -100 -33q-49 -28 -49 -92q0 -48 37 -76t92 -28zM713 125q-45 -66 -124 -106q-77 -39 -179 -39q-140 0 -237 81q-99 83 -99 220q0 84 29 143q30 62 81 102q53 42 120 64t145 28l258 23v25
q0 70 -45 116q-45 47 -121 47h-13q-77 0 -119 -38q-45 -40 -49 -84h-266q15 144 132 240q118 97 309 97q189 0 310 -95q120 -95 120 -273v-451q0 -66 1 -108q2 -65 9 -117h-250q-4 19 -7 56q-4 46 -5 69zM1135 -317v-220h-1176v220h1176z" />
    <glyph glyph-name="adieresis" unicode="&#xe4;" horiz-adv-x="1093" 
d="M614 1157v266h246v-266h-246zM205 1157v266h246v-266h-246zM465 195h10q94 0 162 61q70 62 70 162v28l-222 -22q-50 -4 -100 -33q-49 -28 -49 -92q0 -48 37 -76t92 -28zM713 125q-45 -66 -124 -106q-77 -39 -179 -39q-140 0 -237 81q-99 83 -99 220q0 84 29 143
q30 62 81 102q53 42 120 64t145 28l258 23v25q0 70 -45 116q-45 47 -121 47h-13q-77 0 -119 -38q-45 -40 -49 -84h-266q15 144 132 240q118 97 309 97q189 0 310 -95q120 -95 120 -273v-451q0 -66 1 -108q2 -65 9 -117h-250q-4 19 -7 56q-4 46 -5 69zM1135 -317v-220h-1176
v220h1176z" />
    <glyph glyph-name="aring" unicode="&#xe5;" horiz-adv-x="1093" 
d="M334 1321q0 84 65 149q66 66 150 66q91 0 153 -66q62 -67 62 -149q0 -92 -62 -154q-61 -61 -153 -61q-85 0 -150 61t-65 154zM549 1411q-37 0 -64 -27q-26 -26 -26 -63q0 -38 26 -64t64 -26q37 0 62 26q26 28 26 64q0 35 -26 63q-25 27 -62 27zM465 195h10q94 0 162 61
q70 62 70 162v28l-222 -22q-50 -4 -100 -33q-49 -28 -49 -92q0 -48 37 -76t92 -28zM713 125q-45 -66 -124 -106q-77 -39 -179 -39q-140 0 -237 81q-99 83 -99 220q0 84 29 143q30 62 81 102q53 42 120 64t145 28l258 23v25q0 70 -45 116q-45 47 -121 47h-13q-77 0 -119 -38
q-45 -40 -49 -84h-266q15 144 132 240q118 97 309 97q189 0 310 -95q120 -95 120 -273v-451q0 -66 1 -108q2 -65 9 -117h-250q-4 19 -7 56q-4 46 -5 69zM1135 -317v-220h-1176v220h1176z" />
    <glyph glyph-name="ae" unicode="&#xe6;" horiz-adv-x="1732" 
d="M1192 -20q-112 0 -215 50q-104 50 -172 144q-48 -81 -151 -138q-100 -56 -224 -56q-155 0 -255 81q-101 82 -101 220q0 84 29 143q30 62 81 102q53 42 120 64t145 28l258 23v25q0 70 -45 116q-45 47 -121 47h-13q-77 0 -119 -38q-45 -40 -49 -84h-266q15 144 132 240
q118 97 309 97q106 0 190 -28q85 -28 143 -86q64 55 143 84q81 30 181 30q118 0 203 -39q88 -40 146 -109q58 -68 88 -165q30 -96 30 -207q0 -31 -1 -47q0 -8 -1 -24.5t-2 -24.5h-690v-18q15 -99 83 -157t148 -58h12q77 0 122 38t61 91h264q-38 -150 -155 -247
q-118 -97 -308 -97zM1176 829q-79 0 -140 -47q-59 -46 -71 -129v-20h436q-5 92 -67 144t-146 52h-12zM465 195h10q94 0 162 61q70 62 70 162v28l-222 -22q-50 -4 -100 -33q-49 -28 -49 -92q0 -48 37 -76t92 -28zM1837 -317v-220h-1878v220h1878z" />
    <glyph glyph-name="ccedilla" unicode="&#xe7;" horiz-adv-x="1103" 
d="M834 -287q0 -122 -70 -186t-176 -64h-629v220h639q39 0 60 12q22 13 22 39q0 21 -16 36t-56 15h-112v201q-178 24 -297 165q-119 142 -119 361q0 121 38 221q37 98 104 168q66 69 157 107q86 36 192 36q199 0 323 -94q123 -93 138 -284h-266q-12 76 -58 119
q-47 44 -130 44h-13q-115 0 -167 -94t-52 -223t52 -223t167 -94h13q83 0 130 44q46 43 58 119h266q-15 -174 -119 -268q-103 -93 -274 -108v-64q76 0 135 -49q60 -49 60 -156z" />
    <glyph glyph-name="egrave" unicode="&#xe8;" horiz-adv-x="1107" 
d="M594 1434l51 -308h-153l-205 308h307zM1030 324q-38 -151 -154 -247q-118 -97 -309 -97q-98 0 -184 35q-88 36 -156 104q-65 65 -107 167q-40 98 -40 226q0 114 33 213q33 100 95 169q64 72 153 111q88 39 206 39t203 -39q88 -40 146 -109q59 -70 89 -165q29 -93 29 -207
q0 -31 -1 -47q-1 -8 -2 -24.5t-1 -24.5h-692q7 -103 79 -169q70 -64 154 -64h13q77 0 122 38q44 37 60 91h264zM338 633h438q-5 93 -66 144q-62 52 -147 52h-12q-85 0 -147 -52q-61 -51 -66 -144zM1149 -317v-220h-1190v220h1190z" />
    <glyph glyph-name="eacute" unicode="&#xe9;" horiz-adv-x="1107" 
d="M465 1126l51 308h307l-205 -308h-153zM1030 324q-38 -151 -154 -247q-118 -97 -309 -97q-98 0 -184 35q-88 36 -156 104q-65 65 -107 167q-40 98 -40 226q0 114 33 213q33 100 95 169q64 72 153 111q88 39 206 39t203 -39q88 -40 146 -109q59 -70 89 -165q29 -93 29 -207
q0 -31 -1 -47q-1 -8 -2 -24.5t-1 -24.5h-692q7 -103 79 -169q70 -64 154 -64h13q77 0 122 38q44 37 60 91h264zM338 633h438q-5 93 -66 144q-62 52 -147 52h-12q-85 0 -147 -52q-61 -51 -66 -144zM1149 -317v-220h-1190v220h1190z" />
    <glyph glyph-name="ecircumflex" unicode="&#xea;" horiz-adv-x="1107" 
d="M764 1126l-205 148l-205 -148h-164l205 308h328l205 -308h-164zM1030 324q-38 -151 -154 -247q-118 -97 -309 -97q-98 0 -184 35q-88 36 -156 104q-65 65 -107 167q-40 98 -40 226q0 114 33 213q33 100 95 169q64 72 153 111q88 39 206 39t203 -39q88 -40 146 -109
q59 -70 89 -165q29 -93 29 -207q0 -31 -1 -47q-1 -8 -2 -24.5t-1 -24.5h-692q7 -103 79 -169q70 -64 154 -64h13q77 0 122 38q44 37 60 91h264zM338 633h438q-5 93 -66 144q-62 52 -147 52h-12q-85 0 -147 -52q-61 -51 -66 -144zM1149 -317v-220h-1190v220h1190z" />
    <glyph glyph-name="edieresis" unicode="&#xeb;" horiz-adv-x="1107" 
d="M631 1157v266h246v-266h-246zM221 1157v266h246v-266h-246zM1030 324q-38 -151 -154 -247q-118 -97 -309 -97q-98 0 -184 35q-88 36 -156 104q-65 65 -107 167q-40 98 -40 226q0 114 33 213q33 100 95 169q64 72 153 111q88 39 206 39t203 -39q88 -40 146 -109
q59 -70 89 -165q29 -93 29 -207q0 -31 -1 -47q-1 -8 -2 -24.5t-1 -24.5h-692q7 -103 79 -169q70 -64 154 -64h13q77 0 122 38q44 37 60 91h264zM338 633h438q-5 93 -66 144q-62 52 -147 52h-12q-85 0 -147 -52q-61 -51 -66 -144zM1149 -317v-220h-1190v220h1190z" />
    <glyph glyph-name="igrave" unicode="&#xec;" horiz-adv-x="540" 
d="M301 1434l51 -308h-153l-205 308h307zM137 0v1024h266v-1024h-266zM582 -317v-220h-623v220h623z" />
    <glyph glyph-name="iacute" unicode="&#xed;" horiz-adv-x="540" 
d="M188 1126l52 308h307l-205 -308h-154zM137 0v1024h266v-1024h-266zM582 -317v-220h-623v220h623z" />
    <glyph glyph-name="icircumflex" unicode="&#xee;" horiz-adv-x="540" 
d="M469 1126l-205 148l-205 -148h-163l204 308h328l205 -308h-164zM137 0v1024h266v-1024h-266zM674 -317v-220h-819v220h819z" />
    <glyph glyph-name="idieresis" unicode="&#xef;" horiz-adv-x="540" 
d="M352 1157v266h246v-266h-246zM-57 1157v266h245v-266h-245zM137 0v1024h266v-1024h-266zM639 -317v-220h-737v220h737z" />
    <glyph glyph-name="eth" unicode="&#xf0;" horiz-adv-x="1187" 
d="M580 -20q-117 0 -208 38q-94 39 -158 108q-63 68 -100 164q-36 95 -36 204q0 100 33 187q33 88 93 152q60 65 148 102q90 38 197 38q63 0 127 -23t125 -69q-11 65 -34 113q-25 52 -58 89l-131 -88l-115 162l51 35q-34 7 -74 12q-35 4 -82 4v226q116 0 217 -19
q97 -18 175 -63l155 104l115 -162l-115 -77q94 -113 141 -276q46 -159 46 -343q0 -121 -32 -237q-31 -111 -95 -197q-63 -84 -160 -134t-225 -50zM575 195h17q117 0 180 88q64 90 64 209q0 108 -66 187t-182 79h-17q-111 0 -169 -79t-58 -185q0 -123 58 -211t173 -88z
M1229 -317v-220h-1270v220h1270z" />
    <glyph glyph-name="ntilde" unicode="&#xf1;" horiz-adv-x="1196" 
d="M737 1341q26 0 44 24t18 58h194v-53q0 -96 -67 -164q-68 -69 -158 -69q-38 0 -79 12q-35 10 -85 37l-37 20q-20 12 -43 24q-18 9 -43 9q-27 0 -48 -24t-21 -58h-195v53q0 94 67 164t162 70q59 0 92 -13q34 -13 62 -28l37 -21q39 -19 50 -26q25 -15 50 -15zM403 569v-569
h-266v1024h266v-150q45 77 127 123q83 47 183 47q185 0 270 -110q86 -112 86 -279v-655h-266v625q0 100 -43 152t-119 52h-16q-93 0 -157 -76q-65 -77 -65 -184zM1237 -317v-220h-1278v220h1278z" />
    <glyph glyph-name="ograve" unicode="&#xf2;" horiz-adv-x="1179" 
d="M635 1434l51 -308h-154l-204 308h307zM590 -20q-119 0 -210 39q-97 42 -162 111q-65 70 -103 169q-37 98 -37 213t37 213q38 99 103 169q65 69 162 111q91 39 210 39t210 -39q97 -42 162 -111q65 -70 103 -169q37 -98 37 -213t-37 -213q-38 -99 -103 -169
q-65 -69 -162 -111q-91 -39 -210 -39zM598 195q106 0 171 84q65 85 65 233t-65 233q-65 84 -171 84h-16q-106 0 -171 -84q-65 -85 -65 -233t65 -233q65 -84 171 -84h16zM1221 -317v-220h-1262v220h1262z" />
    <glyph glyph-name="oacute" unicode="&#xf3;" horiz-adv-x="1179" 
d="M496 1126l51 308h307l-205 -308h-153zM590 -20q-119 0 -210 39q-97 42 -162 111q-65 70 -103 169q-37 98 -37 213t37 213q38 99 103 169q65 69 162 111q91 39 210 39t210 -39q97 -42 162 -111q65 -70 103 -169q37 -98 37 -213t-37 -213q-38 -99 -103 -169
q-65 -69 -162 -111q-91 -39 -210 -39zM598 195q106 0 171 84q65 85 65 233t-65 233q-65 84 -171 84h-16q-106 0 -171 -84q-65 -85 -65 -233t65 -233q65 -84 171 -84h16zM1221 -317v-220h-1262v220h1262z" />
    <glyph glyph-name="ocircumflex" unicode="&#xf4;" horiz-adv-x="1179" 
d="M795 1126l-205 148l-205 -148h-164l205 308h328l204 -308h-163zM590 -20q-119 0 -210 39q-97 42 -162 111q-65 70 -103 169q-37 98 -37 213t37 213q38 99 103 169q65 69 162 111q91 39 210 39t210 -39q97 -42 162 -111q65 -70 103 -169q37 -98 37 -213t-37 -213
q-38 -99 -103 -169q-65 -69 -162 -111q-91 -39 -210 -39zM598 195q106 0 171 84q65 85 65 233t-65 233q-65 84 -171 84h-16q-106 0 -171 -84q-65 -85 -65 -233t65 -233q65 -84 171 -84h16zM1221 -317v-220h-1262v220h1262z" />
    <glyph glyph-name="otilde" unicode="&#xf5;" horiz-adv-x="1179" 
d="M731 1341q26 0 44 24t18 58h194v-53q0 -96 -67 -164q-68 -69 -158 -69q-38 0 -79 12q-35 10 -85 37l-37 20q-20 12 -43 24q-18 9 -43 9q-27 0 -48 -24t-21 -58h-195v53q0 94 67 164t162 70q58 0 91 -13q38 -15 63 -28l37 -21q39 -19 50 -26q25 -15 50 -15zM590 -20
q-119 0 -210 39q-97 42 -162 111q-65 70 -103 169q-37 98 -37 213t37 213q38 99 103 169q65 69 162 111q91 39 210 39t210 -39q97 -42 162 -111q65 -70 103 -169q37 -98 37 -213t-37 -213q-38 -99 -103 -169q-65 -69 -162 -111q-91 -39 -210 -39zM598 195q106 0 171 84
q65 85 65 233t-65 233q-65 84 -171 84h-16q-106 0 -171 -84q-65 -85 -65 -233t65 -233q65 -84 171 -84h16zM1221 -317v-220h-1262v220h1262z" />
    <glyph glyph-name="odieresis" unicode="&#xf6;" horiz-adv-x="1179" 
d="M672 1157v266h246v-266h-246zM262 1157v266h246v-266h-246zM590 -20q-119 0 -210 39q-97 42 -162 111q-65 70 -103 169q-37 98 -37 213t37 213q38 99 103 169q65 69 162 111q91 39 210 39t210 -39q97 -42 162 -111q65 -70 103 -169q37 -98 37 -213t-37 -213
q-38 -99 -103 -169q-65 -69 -162 -111q-91 -39 -210 -39zM598 195q106 0 171 84q65 85 65 233t-65 233q-65 84 -171 84h-16q-106 0 -171 -84q-65 -85 -65 -233t65 -233q65 -84 171 -84h16zM1221 -317v-220h-1262v220h1262z" />
    <glyph glyph-name="divide" unicode="&#xf7;" horiz-adv-x="1212" 
d="M463 737v277h287v-277h-287zM100 410v235h1012v-235h-1012zM463 41v276h287v-276h-287zM1253 -317v-220h-1294v220h1294z" />
    <glyph glyph-name="oslash" unicode="&#xf8;" horiz-adv-x="1183" 
d="M348 512q0 -32 3 -61t9 -56l322 420q-20 8 -39 11q-21 3 -43 3h-16q-106 0 -171 -84q-65 -85 -65 -233zM584 195h16q106 0 171 84q65 85 65 233q0 32 -3 61q-3 24 -10 54l-321 -418q19 -8 40 -11t42 -3zM592 -20q-64 0 -121 12q-55 12 -109 37l-102 -133l-172 143
l100 131q-50 66 -79 155t-29 187q0 115 37 213q38 99 103 169q65 69 162 111q91 39 210 39q64 0 121 -12q53 -11 108 -37l99 129l182 -135l-105 -135q52 -70 79 -156q28 -89 28 -186q0 -115 -37 -213q-38 -99 -103 -169q-65 -69 -162 -111q-91 -39 -210 -39zM1225 -317v-220
h-1266v220h1266z" />
    <glyph glyph-name="ugrave" unicode="&#xf9;" horiz-adv-x="1177" 
d="M616 1434l52 -308h-154l-205 308h307zM1040 1024v-1024h-266v150q-45 -77 -124 -123q-80 -47 -175 -47q-179 0 -262 110q-84 111 -84 279v655h266v-625q0 -100 40 -152t112 -52h16q89 0 150 76t61 184v569h266zM1219 -317v-220h-1260v220h1260z" />
    <glyph glyph-name="uacute" unicode="&#xfa;" horiz-adv-x="1177" 
d="M498 1126l51 308h307l-205 -308h-153zM1040 1024v-1024h-266v150q-45 -77 -124 -123q-80 -47 -175 -47q-179 0 -262 110q-84 111 -84 279v655h266v-625q0 -100 40 -152t112 -52h16q89 0 150 76t61 184v569h266zM1219 -317v-220h-1260v220h1260z" />
    <glyph glyph-name="ucircumflex" unicode="&#xfb;" horiz-adv-x="1177" 
d="M786 1126l-204 148l-205 -148h-164l205 308h327l205 -308h-164zM1040 1024v-1024h-266v150q-45 -77 -124 -123q-80 -47 -175 -47q-179 0 -262 110q-84 111 -84 279v655h266v-625q0 -100 40 -152t112 -52h16q89 0 150 76t61 184v569h266zM1219 -317v-220h-1260v220h1260z
" />
    <glyph glyph-name="udieresis" unicode="&#xfc;" horiz-adv-x="1177" 
d="M664 1157v266h245v-266h-245zM254 1157v266h246v-266h-246zM1040 1024v-1024h-266v150q-45 -77 -124 -123q-80 -47 -175 -47q-179 0 -262 110q-84 111 -84 279v655h266v-625q0 -100 40 -152t112 -52h16q89 0 150 76t61 184v569h266zM1219 -317v-220h-1260v220h1260z" />
    <glyph glyph-name="yacute" unicode="&#xfd;" horiz-adv-x="1171" 
d="M496 1126l51 308h307l-205 -308h-153zM461 -537h-502v220h401q71 0 92 21t21 91v285l-446 944h299l276 -623l266 623h295l-436 -934v-360q0 -129 -69 -198t-197 -69zM1212 -317v-220h-233v220h233z" />
    <glyph glyph-name="thorn" unicode="&#xfe;" horiz-adv-x="1230" 
d="M637 829q-92 0 -163 -86t-71 -231t71 -231t163 -86h16q101 0 167 85q67 87 67 230q0 144 -67 232q-66 87 -167 87h-16zM1272 -317v-220h-602v220h602zM-41 -537v220h178v1751h266v-543q31 54 110 103q80 50 185 50q110 0 196 -44q85 -43 142 -117q57 -73 87 -171t30 -200
t-30 -200t-87 -171q-57 -74 -142 -117q-86 -44 -196 -44q-105 0 -185 50q-79 49 -110 103v-670h-444z" />
    <glyph glyph-name="ydieresis" unicode="&#xff;" horiz-adv-x="1171" 
d="M668 1157v266h245v-266h-245zM258 1157v266h246v-266h-246zM461 -537h-502v220h401q71 0 92 21t21 91v285l-446 944h299l276 -623l266 623h295l-436 -934v-360q0 -129 -69 -198t-197 -69zM1212 -317v-220h-233v220h233z" />
    <glyph glyph-name="Amacron" unicode="&#x100;" horiz-adv-x="1460" 
d="M383 1567v225h686v-225h-686zM932 584l-207 542l-207 -542h414zM4 0l567 1434h324l553 -1434h-293l-129 338h-602l-129 -338h-291zM1522 -317v-220h-1583v220h1583z" />
    <glyph glyph-name="amacron" unicode="&#x101;" horiz-adv-x="1093" 
d="M223 1157v215h625v-215h-625zM465 195h10q94 0 162 61q70 62 70 162v28l-222 -22q-50 -4 -100 -33q-49 -28 -49 -92q0 -48 37 -76t92 -28zM713 125q-45 -66 -124 -106q-77 -39 -179 -39q-140 0 -237 81q-99 83 -99 220q0 84 29 143q30 62 81 102q53 42 120 64t145 28
l258 23v25q0 70 -45 116q-45 47 -121 47h-13q-77 0 -119 -38q-45 -40 -49 -84h-266q15 144 132 240q118 97 309 97q189 0 310 -95q120 -95 120 -273v-451q0 -66 1 -108q2 -65 9 -117h-250q-4 19 -7 56q-4 46 -5 69zM1135 -317v-220h-1176v220h1176z" />
    <glyph glyph-name="Abreve" unicode="&#x102;" horiz-adv-x="1460" 
d="M725 1710q44 0 81 28q36 27 42 85h225q-2 -140 -100 -224q-98 -83 -248 -83t-248 83q-98 84 -100 224h225q6 -58 42 -85q37 -28 81 -28zM932 584l-207 542l-207 -542h414zM4 0l567 1434h324l553 -1434h-293l-129 338h-602l-129 -338h-291zM1522 -317v-220h-1583v220h1583
z" />
    <glyph glyph-name="abreve" unicode="&#x103;" horiz-adv-x="1093" 
d="M528 1106q-148 0 -247 90t-101 238h226q1 -59 33 -97q31 -37 89 -37t89 37q33 39 34 97h226q-2 -148 -101 -238t-248 -90zM465 195h10q94 0 162 61q70 62 70 162v28l-222 -22q-50 -4 -100 -33q-49 -28 -49 -92q0 -48 37 -76t92 -28zM713 125q-45 -66 -124 -106
q-77 -39 -179 -39q-140 0 -237 81q-99 83 -99 220q0 84 29 143q30 62 81 102q53 42 120 64t145 28l258 23v25q0 70 -45 116q-45 47 -121 47h-13q-77 0 -119 -38q-45 -40 -49 -84h-266q15 144 132 240q118 97 309 97q189 0 310 -95q120 -95 120 -273v-451q0 -66 1 -108
q2 -65 9 -117h-250q-4 19 -7 56q-4 46 -5 69zM1135 -317v-220h-1176v220h1176z" />
    <glyph glyph-name="Aogonek" unicode="&#x104;" horiz-adv-x="1460" 
d="M932 584l-207 542l-207 -542h414zM1530 -317v-220h-184q-108 0 -177 75t-69 186q0 100 49 168q51 71 108 108h-102l-129 338h-602l-129 -338h-291l567 1434h324l553 -1434q-51 -30 -108 -87q-56 -56 -56 -128q0 -54 32 -78q31 -24 70 -24h144zM836 -317v-220h-897v220
h897z" />
    <glyph glyph-name="aogonek" unicode="&#x105;" horiz-adv-x="1093" 
d="M465 195h10q94 0 162 61q70 62 70 162v28l-222 -22q-50 -4 -100 -33q-49 -28 -49 -92q0 -48 37 -76t92 -28zM1135 -317v-220h-263q-107 0 -176 75t-69 186q0 100 49 168q51 71 108 108h-59q-4 19 -7 56q-4 46 -5 69q-45 -66 -124 -106q-77 -39 -179 -39q-140 0 -237 81
q-99 83 -99 220q0 84 29 143q30 62 81 102q53 42 120 64t145 28l258 23v25q0 70 -45 116q-45 47 -121 47h-13q-77 0 -119 -38q-45 -40 -49 -84h-266q15 144 132 240q118 97 309 97q189 0 310 -95q120 -95 120 -273v-451q0 -66 1 -108q2 -65 9 -117q-51 -30 -108 -87
q-56 -56 -56 -128q0 -54 32 -78q31 -24 70 -24h222zM362 -317v-220h-403v220h403z" />
    <glyph glyph-name="Cacute" unicode="&#x106;" horiz-adv-x="1456" 
d="M688 1526l82 297h317l-215 -297h-184zM1102 471h276q-7 -104 -50 -195q-41 -88 -117 -155t-184 -104t-251 -37q-163 0 -293 53q-128 52 -216 149q-86 95 -132 234q-45 136 -45 301t45 301q45 137 132 233q89 98 216 150q130 53 293 53q142 0 251 -39t184 -105
q74 -65 117 -157q43 -91 50 -190h-276q-24 115 -106 181q-80 64 -210 64h-20q-177 0 -288 -131t-111 -360q0 -231 111 -361q111 -131 288 -131h20q128 0 210 64t106 182zM1497 -317v-220h-1538v220h1538z" />
    <glyph glyph-name="cacute" unicode="&#x107;" horiz-adv-x="1103" 
d="M492 1126l51 308h307l-205 -308h-153zM766 358h266q-15 -191 -138 -284q-124 -94 -323 -94q-106 0 -192 36q-91 38 -157 107q-67 70 -104 168q-38 100 -38 221t38 221q37 98 104 168q66 69 157 107q86 36 192 36q199 0 323 -94q123 -93 138 -284h-266q-12 76 -58 119
q-47 44 -130 44h-13q-115 0 -167 -94t-52 -223t52 -223t167 -94h13q83 0 130 44q46 43 58 119zM1145 -317v-220h-1186v220h1186z" />
    <glyph glyph-name="Ccircumflex" unicode="&#x108;" horiz-adv-x="1456" 
d="M621 1526h-226l246 297h287l246 -297h-226l-164 119zM1102 471h276q-7 -104 -50 -195q-41 -88 -117 -155t-184 -104t-251 -37q-163 0 -293 53q-128 52 -216 149q-86 95 -132 234q-45 136 -45 301t45 301q45 137 132 233q89 98 216 150q130 53 293 53q142 0 251 -39
t184 -105q74 -65 117 -157q43 -91 50 -190h-276q-24 115 -106 181q-80 64 -210 64h-20q-177 0 -288 -131t-111 -360q0 -231 111 -361q111 -131 288 -131h20q128 0 210 64t106 182zM1497 -317v-220h-1538v220h1538z" />
    <glyph glyph-name="ccircumflex" unicode="&#x109;" horiz-adv-x="1103" 
d="M782 1126l-204 148l-205 -148h-164l205 308h327l205 -308h-164zM766 358h266q-15 -191 -138 -284q-124 -94 -323 -94q-106 0 -192 36q-91 38 -157 107q-67 70 -104 168q-38 100 -38 221t38 221q37 98 104 168q66 69 157 107q86 36 192 36q199 0 323 -94q123 -93 138 -284
h-266q-12 76 -58 119q-47 44 -130 44h-13q-115 0 -167 -94t-52 -223t52 -223t167 -94h13q83 0 130 44q46 43 58 119zM1145 -317v-220h-1186v220h1186z" />
    <glyph glyph-name="Cdotaccent" unicode="&#x10a;" horiz-adv-x="1456" 
d="M662 1567v276h286v-276h-286zM1102 471h276q-7 -104 -50 -195q-41 -88 -117 -155t-184 -104t-251 -37q-163 0 -293 53q-128 52 -216 149q-86 95 -132 234q-45 136 -45 301t45 301q45 137 132 233q89 98 216 150q130 53 293 53q142 0 251 -39t184 -105q74 -65 117 -157
q43 -91 50 -190h-276q-24 115 -106 181q-80 64 -210 64h-20q-177 0 -288 -131t-111 -360q0 -231 111 -361q111 -131 288 -131h20q128 0 210 64t106 182zM1497 -317v-220h-1538v220h1538z" />
    <glyph glyph-name="cdotaccent" unicode="&#x10b;" horiz-adv-x="1103" 
d="M442 1157v277h287v-277h-287zM766 358h266q-15 -191 -138 -284q-124 -94 -323 -94q-106 0 -192 36q-91 38 -157 107q-67 70 -104 168q-38 100 -38 221t38 221q37 98 104 168q66 69 157 107q86 36 192 36q199 0 323 -94q123 -93 138 -284h-266q-12 76 -58 119
q-47 44 -130 44h-13q-115 0 -167 -94t-52 -223t52 -223t167 -94h13q83 0 130 44q46 43 58 119zM1145 -317v-220h-1186v220h1186z" />
    <glyph glyph-name="Ccaron" unicode="&#x10c;" horiz-adv-x="1456" 
d="M408 1823h225l164 -119l164 119h225l-246 -297h-287zM1102 471h276q-7 -104 -50 -195q-41 -88 -117 -155t-184 -104t-251 -37q-163 0 -293 53q-128 52 -216 149q-86 95 -132 234q-45 136 -45 301t45 301q45 137 132 233q89 98 216 150q130 53 293 53q142 0 251 -39
t184 -105q74 -65 117 -157q43 -91 50 -190h-276q-24 115 -106 181q-80 64 -210 64h-20q-177 0 -288 -131t-111 -360q0 -231 111 -361q111 -131 288 -131h20q128 0 210 64t106 182zM1497 -317v-220h-1538v220h1538z" />
    <glyph glyph-name="ccaron" unicode="&#x10d;" horiz-adv-x="1103" 
d="M414 1126l-205 308h164l205 -148l204 148h164l-205 -308h-327zM766 358h266q-15 -191 -138 -284q-124 -94 -323 -94q-106 0 -192 36q-91 38 -157 107q-67 70 -104 168q-38 100 -38 221t38 221q37 98 104 168q66 69 157 107q86 36 192 36q199 0 323 -94q123 -93 138 -284
h-266q-12 76 -58 119q-47 44 -130 44h-13q-115 0 -167 -94t-52 -223t52 -223t167 -94h13q83 0 130 44q46 43 58 119zM1145 -317v-220h-1186v220h1186z" />
    <glyph glyph-name="Dcaron" unicode="&#x10e;" horiz-adv-x="1476" 
d="M285 1823h225l164 -119l164 119h225l-246 -297h-287zM168 0v1434h491q161 0 295 -46q137 -47 231 -137q96 -91 148 -224q53 -135 53 -310q0 -178 -52 -310q-54 -137 -145 -225q-92 -89 -226 -136q-132 -46 -293 -46h-502zM444 246h195q208 0 339 101q132 102 132 370
q0 267 -132 369t-339 102h-195v-942zM1518 -317v-220h-1559v220h1559z" />
    <glyph glyph-name="dcaron" unicode="&#x10f;" horiz-adv-x="1419" 
d="M1176 932v153h47q56 0 84 23q26 22 26 57v2h-106v267h266v-267q0 -102 -73 -169q-72 -66 -187 -66h-57zM594 195q92 0 163 86q70 85 70 231t-70 231q-71 86 -163 86h-16q-101 0 -167 -85q-67 -87 -67 -230q0 -144 67 -232q66 -87 167 -87h16zM532 -20q-109 0 -195 44
q-85 43 -142 117q-57 73 -87 171t-30 200t30 200t87 171q57 74 142 117q86 44 195 44q106 0 186 -50q78 -48 109 -103v543h267v-1434h-267v133q-31 -55 -109 -103q-80 -50 -186 -50zM1534 -317v-220h-1575v220h1575z" />
    <glyph glyph-name="Dcroat" unicode="&#x110;" horiz-adv-x="1540" 
d="M733 0h-502v594h-204v246h204v594h492q161 0 295 -46q135 -46 230 -137q97 -93 149 -224q53 -135 53 -310q0 -178 -52 -310q-53 -135 -146 -225q-92 -89 -226 -136q-132 -46 -293 -46zM508 246h194q208 0 339 101q133 103 133 370q0 266 -133 369q-132 102 -339 102h-194
v-348h256v-246h-256v-348zM1581 -317v-220h-1622v220h1622z" />
    <glyph glyph-name="dcroat" unicode="&#x111;" horiz-adv-x="1232" 
d="M596 195q92 0 163 86q70 85 70 231t-70 231q-71 86 -163 86h-16q-101 0 -167 -85q-67 -87 -67 -230q0 -144 67 -232q66 -87 167 -87h16zM829 133q-31 -55 -109 -103q-80 -50 -185 -50q-110 0 -196 44q-85 43 -142 117q-57 73 -87 171t-30 200t30 200t87 171
q57 74 142 117q86 44 196 44q105 0 185 -50q78 -48 109 -103v246h-245v184h245v113h267v-113h153v-184h-153v-1137h-267v133zM1290 -317v-220h-1331v220h1331z" />
    <glyph glyph-name="Emacron" unicode="&#x112;" horiz-adv-x="1353" 
d="M373 1567v225h686v-225h-686zM168 0v1434h1085v-246h-809v-330h686v-246h-686v-366h830v-246h-1106zM1395 -317v-220h-1436v220h1436z" />
    <glyph glyph-name="emacron" unicode="&#x113;" horiz-adv-x="1107" 
d="M258 1157v215h625v-215h-625zM1030 324q-38 -151 -154 -247q-118 -97 -309 -97q-98 0 -184 35q-88 36 -156 104q-65 65 -107 167q-40 98 -40 226q0 114 33 213q33 100 95 169q64 72 153 111q88 39 206 39t203 -39q88 -40 146 -109q59 -70 89 -165q29 -93 29 -207
q0 -31 -1 -47q-1 -8 -2 -24.5t-1 -24.5h-692q7 -103 79 -169q70 -64 154 -64h13q77 0 122 38q44 37 60 91h264zM338 633h438q-5 93 -66 144q-62 52 -147 52h-12q-85 0 -147 -52q-61 -51 -66 -144zM1149 -317v-220h-1190v220h1190z" />
    <glyph glyph-name="Ebreve" unicode="&#x114;" horiz-adv-x="1353" 
d="M719 1710q44 0 81 28q36 27 42 85h225q-2 -140 -100 -224q-98 -83 -248 -83t-248 83q-98 84 -100 224h225q6 -58 42 -85q37 -28 81 -28zM168 0v1434h1085v-246h-809v-330h686v-246h-686v-366h830v-246h-1106zM1395 -317v-220h-1436v220h1436z" />
    <glyph glyph-name="ebreve" unicode="&#x115;" horiz-adv-x="1107" 
d="M557 1106q-149 0 -248 90q-98 90 -100 238h225q1 -58 34 -97q31 -37 89 -37t89 37q33 39 34 97h225q-2 -148 -100 -238q-99 -90 -248 -90zM1030 324q-38 -151 -154 -247q-118 -97 -309 -97q-98 0 -184 35q-88 36 -156 104q-65 65 -107 167q-40 98 -40 226q0 114 33 213
q33 100 95 169q64 72 153 111q88 39 206 39t203 -39q88 -40 146 -109q59 -70 89 -165q29 -93 29 -207q0 -31 -1 -47q-1 -8 -2 -24.5t-1 -24.5h-692q7 -103 79 -169q70 -64 154 -64h13q77 0 122 38q44 37 60 91h264zM338 633h438q-5 93 -66 144q-62 52 -147 52h-12
q-85 0 -147 -52q-61 -51 -66 -144zM1149 -317v-220h-1190v220h1190z" />
    <glyph glyph-name="Edotaccent" unicode="&#x116;" horiz-adv-x="1353" 
d="M584 1567v276h286v-276h-286zM168 0v1434h1085v-246h-809v-330h686v-246h-686v-366h830v-246h-1106zM1395 -317v-220h-1436v220h1436z" />
    <glyph glyph-name="edotaccent" unicode="&#x117;" horiz-adv-x="1107" 
d="M420 1157v277h287v-277h-287zM1030 324q-38 -151 -154 -247q-118 -97 -309 -97q-98 0 -184 35q-88 36 -156 104q-65 65 -107 167q-40 98 -40 226q0 114 33 213q33 100 95 169q64 72 153 111q88 39 206 39t203 -39q88 -40 146 -109q59 -70 89 -165q29 -93 29 -207
q0 -31 -1 -47q-1 -8 -2 -24.5t-1 -24.5h-692q7 -103 79 -169q70 -64 154 -64h13q77 0 122 38q44 37 60 91h264zM338 633h438q-5 93 -66 144q-62 52 -147 52h-12q-85 0 -147 -52q-61 -51 -66 -144zM1149 -317v-220h-1190v220h1190z" />
    <glyph glyph-name="Eogonek" unicode="&#x118;" horiz-adv-x="1353" 
d="M1395 -317v-220h-224q-107 0 -176 75t-69 186q0 100 49 168q51 71 108 108h-915v1434h1085v-246h-809v-330h686v-246h-686v-366h830v-246q-51 -30 -108 -87q-56 -56 -56 -128q0 -54 32 -78t70 -24h183zM662 -317v-220h-703v220h703z" />
    <glyph glyph-name="eogonek" unicode="&#x119;" horiz-adv-x="1107" 
d="M1149 -537h-528q-108 0 -177 75t-69 186q0 89 41 154q41 66 92 106q-89 11 -164 50q-79 41 -136 107q-58 67 -93 161t-35 210q0 114 33 213q33 100 95 169q64 72 153 111q88 39 206 39t203 -39q88 -40 146 -109q59 -70 89 -165q29 -93 29 -207q0 -31 -1 -47
q-1 -8 -2 -24.5t-1 -24.5h-692q7 -103 79 -169q70 -64 154 -64h13q77 0 122 38q44 37 60 91h264q-29 -118 -106 -204q-78 -87 -201 -120q-51 -30 -108 -87q-56 -56 -56 -128q0 -54 32 -78q31 -24 71 -24h487v-220zM338 633h438q-5 93 -66 144q-62 52 -147 52h-12
q-85 0 -147 -52q-61 -51 -66 -144zM111 -317v-220h-152v220h152z" />
    <glyph glyph-name="Ecaron" unicode="&#x11a;" horiz-adv-x="1353" 
d="M326 1823h225l164 -119l164 119h225l-246 -297h-287zM168 0v1434h1085v-246h-809v-330h686v-246h-686v-366h830v-246h-1106zM1395 -317v-220h-1436v220h1436z" />
    <glyph glyph-name="ecaron" unicode="&#x11b;" horiz-adv-x="1107" 
d="M397 1126l-204 308h163l205 -148l205 148h164l-205 -308h-328zM1030 324q-38 -151 -154 -247q-118 -97 -309 -97q-98 0 -184 35q-88 36 -156 104q-65 65 -107 167q-40 98 -40 226q0 114 33 213q33 100 95 169q64 72 153 111q88 39 206 39t203 -39q88 -40 146 -109
q59 -70 89 -165q29 -93 29 -207q0 -31 -1 -47q-1 -8 -2 -24.5t-1 -24.5h-692q7 -103 79 -169q70 -64 154 -64h13q77 0 122 38q44 37 60 91h264zM338 633h438q-5 93 -66 144q-62 52 -147 52h-12q-85 0 -147 -52q-61 -51 -66 -144zM1149 -317v-220h-1190v220h1190z" />
    <glyph glyph-name="Gcircumflex" unicode="&#x11c;" horiz-adv-x="1525" 
d="M614 1526h-225l246 297h287l245 -297h-225l-164 119zM1182 139q-61 -65 -161 -113q-96 -46 -228 -46q-163 0 -291 56q-135 59 -223 154q-95 103 -143 235q-50 138 -50 292t50 292q47 130 143 234q89 97 223 155q128 56 291 56q137 0 248 -39q114 -40 190 -106
q78 -67 123 -162q46 -96 53 -205h-277q-15 115 -94 191q-78 75 -233 75h-21q-198 0 -309 -135t-111 -356q0 -222 111 -357t309 -135h21q133 0 243 73q106 71 140 204h-393v246h450q83 0 129 -46q45 -45 45 -129v-573h-235v139zM1567 -317v-220h-1608v220h1608z" />
    <glyph glyph-name="gcircumflex" unicode="&#x11d;" horiz-adv-x="1214" 
d="M803 1126l-205 148l-205 -148h-164l205 308h328l205 -308h-164zM575 215h17q93 0 156 81t63 226q0 146 -63 227q-62 80 -156 80h-17q-97 0 -162 -80q-67 -82 -67 -227q0 -144 67 -226q66 -81 162 -81zM571 -317q102 0 170 56q70 58 70 179v225q-43 -74 -125 -109
q-78 -34 -164 -34q-89 0 -169 34q-82 35 -141 100q-60 66 -96 164t-36 224t36 224t96 164q61 67 141 101q77 33 169 33q88 0 164 -33q81 -35 125 -110v123h266v-1139q0 -79 -33 -156q-34 -78 -99 -136q-64 -57 -166 -94q-99 -36 -232 -36h-588v220h612z" />
    <glyph glyph-name="Gbreve" unicode="&#x11e;" horiz-adv-x="1525" 
d="M778 1710q44 0 81 28q36 27 42 85h225q-2 -140 -100 -224q-98 -83 -248 -83t-248 83q-98 84 -100 224h225q6 -58 42 -85q37 -28 81 -28zM1182 139q-61 -65 -161 -113q-96 -46 -228 -46q-163 0 -291 56q-135 59 -223 154q-95 103 -143 235q-50 138 -50 292t50 292
q47 130 143 234q89 97 223 155q128 56 291 56q137 0 248 -39q114 -40 190 -106q78 -67 123 -162q46 -96 53 -205h-277q-15 115 -94 191q-78 75 -233 75h-21q-198 0 -309 -135t-111 -356q0 -222 111 -357t309 -135h21q133 0 243 73q106 71 140 204h-393v246h450q83 0 129 -46
q45 -45 45 -129v-573h-235v139zM1567 -317v-220h-1608v220h1608z" />
    <glyph glyph-name="gbreve" unicode="&#x11f;" horiz-adv-x="1214" 
d="M582 1106q-149 0 -248 90t-101 238h226q1 -58 34 -97q31 -37 89 -37t89 37q33 39 34 97h225q-2 -148 -101 -238t-247 -90zM575 215h17q93 0 156 81t63 226q0 146 -63 227q-62 80 -156 80h-17q-97 0 -162 -80q-67 -82 -67 -227q0 -144 67 -226q66 -81 162 -81zM571 -317
q102 0 170 56q70 58 70 179v225q-43 -74 -125 -109q-78 -34 -164 -34q-89 0 -169 34q-82 35 -141 100q-60 66 -96 164t-36 224t36 224t96 164q61 67 141 101q77 33 169 33q88 0 164 -33q81 -35 125 -110v123h266v-1139q0 -79 -33 -156q-34 -78 -99 -136q-64 -57 -166 -94
q-99 -36 -232 -36h-588v220h612z" />
    <glyph glyph-name="Gdotaccent" unicode="&#x120;" horiz-adv-x="1525" 
d="M664 1567v276h286v-276h-286zM1182 139q-61 -65 -161 -113q-96 -46 -228 -46q-163 0 -291 56q-135 59 -223 154q-95 103 -143 235q-50 138 -50 292t50 292q47 130 143 234q89 97 223 155q128 56 291 56q137 0 248 -39q114 -40 190 -106q78 -67 123 -162q46 -96 53 -205
h-277q-15 115 -94 191q-78 75 -233 75h-21q-198 0 -309 -135t-111 -356q0 -222 111 -357t309 -135h21q133 0 243 73q106 71 140 204h-393v246h450q83 0 129 -46q45 -45 45 -129v-573h-235v139zM1567 -317v-220h-1608v220h1608z" />
    <glyph glyph-name="gdotaccent" unicode="&#x121;" horiz-adv-x="1214" 
d="M457 1157v277h286v-277h-286zM575 215h17q93 0 156 81t63 226q0 146 -63 227q-62 80 -156 80h-17q-97 0 -162 -80q-67 -82 -67 -227q0 -144 67 -226q66 -81 162 -81zM571 -317q102 0 170 56q70 58 70 179v225q-43 -74 -125 -109q-78 -34 -164 -34q-89 0 -169 34
q-82 35 -141 100q-60 66 -96 164t-36 224t36 224t96 164q61 67 141 101q77 33 169 33q88 0 164 -33q81 -35 125 -110v123h266v-1139q0 -79 -33 -156q-34 -78 -99 -136q-64 -57 -166 -94q-99 -36 -232 -36h-588v220h612z" />
    <glyph glyph-name="Gcommaaccent" unicode="&#x122;" horiz-adv-x="1525" 
d="M1182 139q-61 -65 -161 -113q-96 -46 -228 -46q-163 0 -291 56q-135 59 -223 154q-95 103 -143 235q-50 138 -50 292t50 292q47 130 143 234q89 97 223 155q128 56 291 56q137 0 248 -39q114 -40 190 -106q78 -67 123 -162q46 -96 53 -205h-277q-15 115 -94 191
q-78 75 -233 75h-21q-198 0 -309 -135t-111 -356q0 -222 111 -357t309 -135h21q133 0 243 73q106 71 140 204h-393v246h450q83 0 129 -46q45 -45 45 -129v-573h-235v139zM1567 -317v-220h-400v220h400zM641 -772h-57v154h47q58 0 84 22t26 57v2h-782v220h942v-220
q0 -102 -73 -169q-72 -66 -187 -66z" />
    <glyph glyph-name="gcommaaccent" unicode="&#x123;" horiz-adv-x="1214" 
d="M784 1669v-153h-47q-56 0 -84 -23q-26 -22 -26 -57v-2h106v-267h-266v267q0 102 73 169q72 66 187 66h57zM575 215h17q93 0 156 81t63 226q0 146 -63 227q-62 80 -156 80h-17q-97 0 -162 -80q-67 -82 -67 -227q0 -144 67 -226q66 -81 162 -81zM571 -317q102 0 170 56
q70 58 70 179v225q-43 -74 -125 -109q-78 -34 -164 -34q-89 0 -169 34q-82 35 -141 100q-60 66 -96 164t-36 224t36 224t96 164q61 67 141 101q77 33 169 33q88 0 164 -33q81 -35 125 -110v123h266v-1139q0 -79 -33 -156q-34 -78 -99 -136q-64 -57 -166 -94
q-99 -36 -232 -36h-588v220h612z" />
    <glyph glyph-name="Hcircumflex" unicode="&#x124;" horiz-adv-x="1513" 
d="M592 1526h-225l245 297h287l246 -297h-225l-164 119zM168 0v1434h276v-594h625v594h277v-1434h-277v594h-625v-594h-276zM1554 -317v-220h-1595v220h1595z" />
    <glyph glyph-name="hcircumflex" unicode="&#x125;" horiz-adv-x="1196" 
d="M106 1526h-225l246 297h287l245 -297h-225l-164 119zM403 569v-569h-266v1434h266v-560q45 77 127 123q83 47 183 47q185 0 270 -110q86 -112 86 -279v-655h-266v625q0 100 -43 152t-119 52h-16q-93 0 -157 -76q-65 -77 -65 -184zM1237 -317v-220h-1397v220h1397z" />
    <glyph glyph-name="Hbar" unicode="&#x126;" horiz-adv-x="1529" 
d="M453 840h624v168h-624v-168zM453 594v-594h-277v1008h-123v235h123v191h277v-191h624v191h277v-191h123v-235h-123v-1008h-277v594h-624zM1571 -317v-220h-1612v220h1612z" />
    <glyph glyph-name="hbar" unicode="&#x127;" horiz-adv-x="1196" 
d="M403 569v-569h-266v1137h-143v184h143v113h266v-113h256v-184h-256v-263q45 77 127 123q83 47 183 47q185 0 270 -110q86 -112 86 -279v-655h-266v625q0 100 -43 152t-119 52h-16q-93 0 -157 -76q-65 -77 -65 -184zM1237 -317v-220h-1278v220h1278z" />
    <glyph glyph-name="Itilde" unicode="&#x128;" horiz-adv-x="612" 
d="M438 1741q33 0 47 23q15 24 15 59h194v-54q0 -94 -54 -163q-55 -70 -171 -70q-39 0 -79 12q-35 10 -85 37l-37 21q-17 10 -46 23q-21 9 -46 9q-33 2 -48 -22t-15 -60h-195v54q0 94 67 164q66 69 162 69q59 0 92 -13q34 -13 62 -28l37 -20q27 -14 50 -27q24 -14 50 -14z
M168 0v1434h276v-1434h-276zM735 -317v-220h-858v220h858z" />
    <glyph glyph-name="itilde" unicode="&#x129;" horiz-adv-x="540" 
d="M406 1341q26 0 44 24q17 23 17 58h195v-53q0 -94 -68 -164q-68 -69 -158 -69q-38 0 -79 12q-35 10 -85 37l-36 20q-20 12 -43 24q-18 9 -43 9q-28 0 -49 -24t-21 -58h-195v53q0 94 67 164t163 70q58 0 91 -13q34 -13 62 -28l37 -21q39 -19 50 -26q25 -15 51 -15zM137 0
v1024h266v-1024h-266zM702 -317v-220h-858v220h858z" />
    <glyph glyph-name="Imacron" unicode="&#x12a;" horiz-adv-x="612" 
d="M-37 1567v225h686v-225h-686zM168 0v1434h276v-1434h-276zM690 -317v-220h-768v220h768z" />
    <glyph glyph-name="imacron" unicode="&#x12b;" horiz-adv-x="540" 
d="M-41 1157v215h625v-215h-625zM137 0v1024h266v-1024h-266zM625 -317v-220h-707v220h707z" />
    <glyph glyph-name="Ibreve" unicode="&#x12c;" horiz-adv-x="612" 
d="M307 1710q44 0 81 28q36 27 42 85h225q-2 -140 -100 -224q-98 -83 -248 -83t-248 83q-98 84 -100 224h225q6 -58 42 -85q37 -28 81 -28zM168 0v1434h276v-1434h-276zM696 -317v-220h-778v220h778z" />
    <glyph glyph-name="ibreve" unicode="&#x12d;" horiz-adv-x="540" 
d="M272 1106q-148 0 -247 90t-101 238h226q1 -59 33 -97q31 -37 89 -37t89 37q33 39 34 97h226q-2 -148 -101 -238t-248 -90zM137 0v1024h266v-1024h-266zM662 -317v-220h-779v220h779z" />
    <glyph glyph-name="Iogonek" unicode="&#x12e;" horiz-adv-x="612" 
d="M653 -317v-220h-311q-107 0 -176 75q-70 76 -70 186q0 100 49 168q50 70 109 108h-86v1434h276v-1434q-49 -29 -107 -87q-56 -56 -56 -128q0 -54 31 -78t71 -24h270z" />
    <glyph glyph-name="iogonek" unicode="&#x12f;" horiz-adv-x="540" 
d="M127 1157v277h287v-277h-287zM485 -317v-220h-184q-107 0 -176 75q-70 76 -70 186q0 100 49 168q50 70 109 108h-76v1024h266v-1024q-49 -29 -107 -87q-56 -56 -56 -128q0 -54 31 -78t71 -24h143z" />
    <glyph glyph-name="Idotaccent" unicode="&#x130;" horiz-adv-x="612" 
d="M162 1567v276h287v-276h-287zM168 0v1434h276v-1434h-276zM653 -317v-220h-694v220h694z" />
    <glyph glyph-name="dotlessi" unicode="&#x131;" horiz-adv-x="540" 
d="M137 0v1024h266v-1024h-266zM582 -317v-220h-623v220h623z" />
    <glyph glyph-name="IJ" unicode="&#x132;" horiz-adv-x="1118" 
d="M541 0h-389v266h358q100 0 137 45q37 44 37 150v973h277v-1004q0 -220 -100 -326q-98 -104 -320 -104zM152 422v1012h276v-1012h-276zM1159 -317v-220h-1200v220h1200z" />
    <glyph glyph-name="ij" unicode="&#x133;" horiz-adv-x="1038" 
d="M623 1157v277h286v-277h-286zM127 1157v277h287v-277h-287zM901 1024v-1305q0 -123 -66 -189q-67 -67 -190 -67h-686v220h563q62 0 87 25q26 26 26 87v1229h266zM137 0v1024h266v-1024h-266z" />
    <glyph glyph-name="Jcircumflex" unicode="&#x134;" horiz-adv-x="878" 
d="M416 1526h-226l246 297h287l246 -297h-226l-163 119zM432 0h-375v266h262q70 0 97 27q26 26 26 96v1045h277v-1147q0 -129 -79 -208t-208 -79zM1010 -317v-220h-1051v220h1051z" />
    <glyph glyph-name="jcircumflex" unicode="&#x135;" horiz-adv-x="557" 
d="M487 1126l-204 148l-205 -148h-164l205 308h327l205 -308h-164zM420 1024v-1305q0 -122 -67 -189t-189 -67h-332v220h209q62 0 87 25q26 26 26 87v1229h266z" />
    <glyph glyph-name="Kcommaaccent" unicode="&#x136;" horiz-adv-x="1404" 
d="M1065 0l-432 631l-189 -199v-432h-276v1434h276v-643l609 643h342l-564 -594l576 -840h-342zM1446 -317v-220h-328v220h328zM592 -772h-57v154h47q58 0 84 22t26 57v2h-733v220h893v-220q0 -102 -73 -169q-72 -66 -187 -66z" />
    <glyph glyph-name="kcommaaccent" unicode="&#x137;" horiz-adv-x="1128" 
d="M807 0l-285 426l-119 -121v-305h-266v1434h266v-791l371 381h326l-393 -408l413 -616h-313zM1169 -317v-220h-182v220h182zM461 -772h-58v154h48q58 0 84 22t26 57v2h-602v220h762v-220q0 -102 -73 -169q-72 -66 -187 -66z" />
    <glyph glyph-name="Lacute" unicode="&#x139;" horiz-adv-x="1290" 
d="M201 1526l82 297h317l-215 -297h-184zM168 0v1434h276v-1188h809v-246h-1085zM1331 -317v-220h-1372v220h1372z" />
    <glyph glyph-name="lacute" unicode="&#x13a;" horiz-adv-x="540" 
d="M178 1526l82 297h318l-216 -297h-184zM137 0v1434h266v-1434h-266zM582 -317v-220h-623v220h623z" />
    <glyph glyph-name="Lcommaaccent" unicode="&#x13b;" horiz-adv-x="1290" 
d="M168 0v1434h276v-1188h809v-246h-1085zM1331 -317v-220h-250v220h250zM555 -772h-57v154h47q58 0 84 22t26 57v2h-696v220h856v-220q0 -102 -73 -169q-72 -66 -187 -66z" />
    <glyph glyph-name="lcommaaccent" unicode="&#x13c;" horiz-adv-x="540" 
d="M137 0v1434h266v-1434h-266zM84 -772v154h47q58 0 84 22q27 22 27 57v2h-107v220h266v-220q0 -103 -72 -169t-188 -66h-57z" />
    <glyph glyph-name="Lcaron" unicode="&#x13d;" horiz-adv-x="1290" 
d="M670 932v153h47q56 0 84 23q26 22 26 57v2h-106v267h266v-267q0 -102 -73 -169q-72 -66 -187 -66h-57zM168 0v1434h276v-1188h809v-246h-1085zM1331 -317v-220h-1372v220h1372z" />
    <glyph glyph-name="lcaron" unicode="&#x13e;" horiz-adv-x="729" 
d="M137 0v1434h266v-1434h-266zM485 932v153h47q56 0 84 23q27 22 27 57v2h-106v267h266v-267q0 -102 -73 -169q-72 -66 -187 -66h-58zM844 -317v-220h-885v220h885z" />
    <glyph glyph-name="Ldot" unicode="&#x13f;" horiz-adv-x="1290" 
d="M168 0v1434h276v-1188h809v-246h-1085zM772 625v276h287v-276h-287zM1331 -317v-220h-1372v220h1372z" />
    <glyph glyph-name="ldot" unicode="&#x140;" horiz-adv-x="839" 
d="M137 0v1434h266v-1434h-266zM537 553v276h286v-276h-286zM881 -317v-220h-922v220h922z" />
    <glyph glyph-name="Lslash" unicode="&#x141;" horiz-adv-x="1392" 
d="M1356 0h-1086v481l-194 -108v276l194 109v676h277v-521l348 195v-274l-348 -197v-391h809v-246zM1434 -317v-220h-1475v220h1475z" />
    <glyph glyph-name="lslash" unicode="&#x142;" horiz-adv-x="681" 
d="M479 0h-266v621l-164 -93v246l164 92v568h266v-416l164 92v-246l-164 -92v-772zM723 -317v-220h-764v220h764z" />
    <glyph glyph-name="Nacute" unicode="&#x143;" horiz-adv-x="1533" 
d="M647 1526l82 297h318l-216 -297h-184zM1008 0l-564 1055v-1055h-276v1434h358l564 -1051v1051h276v-1434h-358zM1575 -317v-220h-1616v220h1616z" />
    <glyph glyph-name="nacute" unicode="&#x144;" horiz-adv-x="1196" 
d="M496 1126l51 308h307l-205 -308h-153zM403 569v-569h-266v1024h266v-150q45 77 127 123q83 47 183 47q185 0 270 -110q86 -112 86 -279v-655h-266v625q0 100 -43 152t-119 52h-16q-93 0 -157 -76q-65 -77 -65 -184zM1237 -317v-220h-1278v220h1278z" />
    <glyph glyph-name="Ncommaaccent" unicode="&#x145;" horiz-adv-x="1533" 
d="M1008 0l-564 1055v-1055h-276v1434h358l564 -1051v1051h276v-1434h-358zM1575 -317v-220h-406v220h406zM643 -772h-57v154h47q58 0 84 22t26 57v2h-784v220h944v-220q0 -102 -73 -169q-72 -66 -187 -66z" />
    <glyph glyph-name="ncommaaccent" unicode="&#x146;" horiz-adv-x="1196" 
d="M403 569v-569h-266v1024h266v-150q45 77 127 123q83 47 183 47q185 0 270 -110q86 -112 86 -279v-655h-266v625q0 100 -43 152t-119 52h-16q-93 0 -157 -76q-65 -77 -65 -184zM1237 -317v-220h-240v220h240zM471 -772h-57v154h47q58 0 84 22t26 57v2h-612v220h772v-220
q0 -102 -73 -169q-72 -66 -187 -66z" />
    <glyph glyph-name="Ncaron" unicode="&#x147;" horiz-adv-x="1533" 
d="M367 1823h225l164 -119l164 119h225l-246 -297h-287zM1008 0l-564 1055v-1055h-276v1434h358l564 -1051v1051h276v-1434h-358zM1575 -317v-220h-1616v220h1616z" />
    <glyph glyph-name="ncaron" unicode="&#x148;" horiz-adv-x="1196" 
d="M436 1126l-205 308h164l205 -148l205 148h164l-205 -308h-328zM403 569v-569h-266v1024h266v-150q45 77 127 123q83 47 183 47q185 0 270 -110q86 -112 86 -279v-655h-266v625q0 100 -43 152t-119 52h-16q-93 0 -157 -76q-65 -77 -65 -184zM1237 -317v-220h-1278v220
h1278z" />
    <glyph glyph-name="Eng" unicode="&#x14a;" horiz-adv-x="1533" 
d="M1366 -270q0 -123 -72 -195t-194 -72h-1141v220h1018q62 0 87 25q26 26 26 87v205h-82l-564 1055v-1055h-276v1434h358l564 -1051v1051h276v-1704z" />
    <glyph glyph-name="eng" unicode="&#x14b;" horiz-adv-x="1196" 
d="M1069 -281q0 -122 -67 -189t-189 -67h-854v220h731q62 0 87 25q26 26 26 87v830q0 100 -43 152t-119 52h-16q-93 0 -157 -76q-65 -77 -65 -184v-569h-266v1024h266v-150q45 77 127 123q83 47 183 47q185 0 270 -110q86 -112 86 -279v-936z" />
    <glyph glyph-name="Omacron" unicode="&#x14c;" horiz-adv-x="1568" 
d="M442 1567v225h686v-225h-686zM784 -20q-152 0 -281 50q-128 50 -220 145q-93 96 -144 233q-51 136 -51 309t51 309t144 232q94 97 220 146q129 50 281 50q153 0 282 -50q126 -49 220 -146q93 -96 144 -232t51 -309t-51 -309q-51 -137 -144 -233q-92 -95 -220 -145
q-129 -50 -282 -50zM774 225h21q190 0 300 131q109 130 109 361q0 230 -109 360q-110 131 -300 131h-21q-190 0 -300 -131q-109 -130 -109 -360q0 -231 109 -361q110 -131 300 -131zM1610 -317v-220h-1651v220h1651z" />
    <glyph glyph-name="omacron" unicode="&#x14d;" horiz-adv-x="1179" 
d="M279 1157v215h624v-215h-624zM590 -20q-119 0 -210 39q-97 42 -162 111q-65 70 -103 169q-37 98 -37 213t37 213q38 99 103 169q65 69 162 111q91 39 210 39t210 -39q97 -42 162 -111q65 -70 103 -169q37 -98 37 -213t-37 -213q-38 -99 -103 -169q-65 -69 -162 -111
q-91 -39 -210 -39zM598 195q106 0 171 84q65 85 65 233t-65 233q-65 84 -171 84h-16q-106 0 -171 -84q-65 -85 -65 -233t65 -233q65 -84 171 -84h16zM1221 -317v-220h-1262v220h1262z" />
    <glyph glyph-name="Obreve" unicode="&#x14e;" horiz-adv-x="1568" 
d="M784 1710q44 0 81 28q36 27 42 85h226q-2 -140 -101 -224q-98 -83 -248 -83q-149 0 -247 83q-99 84 -101 224h226q6 -59 41 -85q37 -28 81 -28zM784 -20q-152 0 -281 50q-128 50 -220 145q-93 96 -144 233q-51 136 -51 309t51 309t144 232q94 97 220 146q129 50 281 50
q153 0 282 -50q126 -49 220 -146q93 -96 144 -232t51 -309t-51 -309q-51 -137 -144 -233q-92 -95 -220 -145q-129 -50 -282 -50zM774 225h21q190 0 300 131q109 130 109 361q0 230 -109 360q-110 131 -300 131h-21q-190 0 -300 -131q-109 -130 -109 -360q0 -231 109 -361
q110 -131 300 -131zM1610 -317v-220h-1651v220h1651z" />
    <glyph glyph-name="obreve" unicode="&#x14f;" horiz-adv-x="1179" 
d="M592 1106q-149 0 -248 90q-98 90 -100 238h225q1 -58 34 -97q31 -37 89 -37t89 37q33 39 34 97h225q-2 -148 -100 -238q-99 -90 -248 -90zM590 -20q-119 0 -210 39q-97 42 -162 111q-65 70 -103 169q-37 98 -37 213t37 213q38 99 103 169q65 69 162 111q91 39 210 39
t210 -39q97 -42 162 -111q65 -70 103 -169q37 -98 37 -213t-37 -213q-38 -99 -103 -169q-65 -69 -162 -111q-91 -39 -210 -39zM598 195q106 0 171 84q65 85 65 233t-65 233q-65 84 -171 84h-16q-106 0 -171 -84q-65 -85 -65 -233t65 -233q65 -84 171 -84h16zM1221 -317v-220
h-1262v220h1262z" />
    <glyph glyph-name="Ohungarumlaut" unicode="&#x150;" horiz-adv-x="1568" 
d="M866 1526l82 297h318l-215 -297h-185zM479 1526l82 297h318l-215 -297h-185zM784 -20q-152 0 -281 50q-128 50 -220 145q-93 96 -144 233q-51 136 -51 309t51 309t144 232q94 97 220 146q129 50 281 50q153 0 282 -50q126 -49 220 -146q93 -96 144 -232t51 -309t-51 -309
q-51 -137 -144 -233q-92 -95 -220 -145q-129 -50 -282 -50zM774 225h21q190 0 300 131q109 130 109 361q0 230 -109 360q-110 131 -300 131h-21q-190 0 -300 -131q-109 -130 -109 -360q0 -231 109 -361q110 -131 300 -131zM1610 -317v-220h-1651v220h1651z" />
    <glyph glyph-name="ohungarumlaut" unicode="&#x151;" horiz-adv-x="1179" 
d="M672 1126l51 308h307l-205 -308h-153zM346 1126l51 308h308l-205 -308h-154zM590 -20q-119 0 -210 39q-97 42 -162 111q-65 70 -103 169q-37 98 -37 213t37 213q38 99 103 169q65 69 162 111q91 39 210 39t210 -39q97 -42 162 -111q65 -70 103 -169q37 -98 37 -213
t-37 -213q-38 -99 -103 -169q-65 -69 -162 -111q-91 -39 -210 -39zM598 195q106 0 171 84q65 85 65 233t-65 233q-65 84 -171 84h-16q-106 0 -171 -84q-65 -85 -65 -233t65 -233q65 -84 171 -84h16zM1221 -317v-220h-1262v220h1262z" />
    <glyph glyph-name="OE" unicode="&#x152;" horiz-adv-x="2390" 
d="M774 225h21q190 0 300 131q109 130 109 361q0 230 -109 360q-110 131 -300 131h-21q-190 0 -300 -131q-109 -130 -109 -360q0 -231 109 -361q110 -131 300 -131zM1204 0v143q-82 -79 -188 -121t-232 -42q-152 0 -281 50q-128 50 -220 145q-93 96 -144 233
q-51 136 -51 309t51 309t144 232q94 97 220 146q129 50 281 50q126 0 232 -42q104 -41 188 -122v144h1086v-246h-809v-330h686v-246h-686v-366h829v-246h-1106zM2431 -317v-220h-2472v220h2472z" />
    <glyph glyph-name="oe" unicode="&#x153;" horiz-adv-x="1865" 
d="M1325 -20q-104 0 -196 40t-160 117q-67 -73 -165 -115t-214 -42q-119 0 -210 39q-97 42 -162 111q-65 70 -103 169q-37 98 -37 213t37 213q38 99 103 169q65 69 162 111q91 39 210 39t212 -40q95 -41 163 -113q63 74 152 113q90 40 208 40t203 -39q88 -40 146 -109
q58 -68 88 -165q30 -96 30 -207q0 -31 -1 -47q-1 -8 -2 -24.5t-1 -24.5h-692v-2v-2q7 -103 80 -167q71 -62 153 -62h12q77 0 122 38t61 91h264q-38 -150 -155 -247q-118 -97 -308 -97zM598 195q106 0 171 84q65 85 65 233t-65 233q-65 84 -171 84h-16q-106 0 -171 -84
q-65 -85 -65 -233t65 -233q65 -84 171 -84h16zM1096 633h438q-5 92 -67 144t-146 52h-12q-85 0 -147 -52q-61 -51 -66 -144zM1970 -317v-220h-2011v220h2011z" />
    <glyph glyph-name="Racute" unicode="&#x154;" horiz-adv-x="1396" 
d="M592 1526l82 297h317l-215 -297h-184zM444 784h308q121 0 184 54q61 52 61 153t-61 149q-62 48 -184 48h-308v-404zM168 0v1434h666q92 0 173 -30q80 -30 139 -81q58 -51 93 -123q35 -73 35 -156q0 -133 -61 -226q-60 -91 -183 -136q117 0 170 -53t53 -150v-479h-276v410
q0 75 -29 104t-104 29h-400v-543h-276zM1438 -317v-220h-1479v220h1479z" />
    <glyph glyph-name="racute" unicode="&#x155;" horiz-adv-x="792" 
d="M301 1126l51 308h307l-204 -308h-154zM137 0v1024h266v-205q30 101 107 158q76 57 190 57h52v-246h-93q-129 0 -192 -63q-64 -64 -64 -193v-532h-266zM834 -317v-220h-875v220h875z" />
    <glyph glyph-name="Rcommaaccent" unicode="&#x156;" horiz-adv-x="1396" 
d="M444 784h308q121 0 184 54q61 52 61 153t-61 149q-62 48 -184 48h-308v-404zM168 0v1434h666q92 0 173 -30q80 -30 139 -81q58 -51 93 -123q35 -73 35 -156q0 -133 -61 -226q-60 -91 -183 -136q117 0 170 -53t53 -150v-479h-276v410q0 75 -29 104t-104 29h-400v-543h-276
zM1438 -317v-220h-340v220h340zM571 -772h-57v154h47q58 0 84 22q27 22 27 57v2h-713v220h872v-220q0 -103 -72 -169t-188 -66z" />
    <glyph glyph-name="rcommaaccent" unicode="&#x157;" horiz-adv-x="792" 
d="M137 0v1024h266v-205q30 101 107 158q76 57 190 57h52v-246h-93q-129 0 -192 -63q-64 -64 -64 -193v-532h-266zM834 -317v-220h-164v220h164zM143 -772h-57v154h47q58 0 84 22q27 22 27 57v2h-285v220h444v-220q0 -103 -72 -169t-188 -66z" />
    <glyph glyph-name="Rcaron" unicode="&#x158;" horiz-adv-x="1396" 
d="M311 1823h226l163 -119l164 119h226l-246 -297h-287zM444 784h308q121 0 184 54q61 52 61 153t-61 149q-62 48 -184 48h-308v-404zM168 0v1434h666q92 0 173 -30q80 -30 139 -81q58 -51 93 -123q35 -73 35 -156q0 -133 -61 -226q-60 -91 -183 -136q117 0 170 -53t53 -150
v-479h-276v410q0 75 -29 104t-104 29h-400v-543h-276zM1438 -317v-220h-1479v220h1479z" />
    <glyph glyph-name="rcaron" unicode="&#x159;" horiz-adv-x="792" 
d="M231 1126l-204 308h163l205 -148l205 148h164l-205 -308h-328zM137 0v1024h266v-205q30 101 107 158q76 57 190 57h52v-246h-93q-129 0 -192 -63q-64 -64 -64 -193v-532h-266zM834 -317v-220h-875v220h875z" />
    <glyph glyph-name="Sacute" unicode="&#x15a;" horiz-adv-x="1298" 
d="M586 1526l82 297h317l-215 -297h-184zM940 983q-7 110 -82 168q-73 57 -184 57h-21q-115 0 -180 -52t-65 -122q0 -68 41 -106t133 -56l215 -43q184 -37 290 -136q107 -99 107 -273q0 -93 -37 -173q-37 -81 -106 -139q-70 -60 -172 -94q-101 -34 -236 -34q-294 0 -434 140
q-143 143 -150 361h277q7 -105 88 -181q80 -75 240 -75h20q113 0 174 53q60 53 60 121q0 63 -34 100t-128 58l-256 53q-192 39 -280 147q-89 109 -89 267q0 80 36 158q36 79 103 138q66 59 170 97q101 37 234 37q129 0 231 -36q104 -37 171 -98q69 -63 105 -149t36 -188
h-277zM1339 -317v-220h-1380v220h1380z" />
    <glyph glyph-name="sacute" unicode="&#x15b;" horiz-adv-x="1017" 
d="M424 1126l51 308h307l-204 -308h-154zM508 -20q-206 0 -325 95q-117 93 -117 263h272q0 -70 48 -112t124 -42h16q60 0 99 28q37 27 37 73q0 38 -25 63q-24 24 -80 39l-133 33q-160 39 -239 112t-79 197q0 137 112 226t302 89q198 0 308 -95t110 -263h-266q-7 72 -46 114
q-37 40 -108 40h-16q-52 0 -91 -28q-38 -27 -38 -73q0 -41 34 -65q35 -24 97 -39l137 -35q148 -38 217 -111q70 -75 70 -194q0 -129 -107 -222t-313 -93zM1059 -317v-220h-1100v220h1100z" />
    <glyph glyph-name="Scircumflex" unicode="&#x15c;" horiz-adv-x="1298" 
d="M520 1536h-225l246 297h286l246 -297h-225l-164 119zM940 983q-7 110 -82 168q-73 57 -184 57h-21q-115 0 -180 -52t-65 -122q0 -68 41 -106t133 -56l215 -43q184 -37 290 -136q107 -99 107 -273q0 -93 -37 -173q-37 -81 -106 -139q-70 -60 -172 -94q-101 -34 -236 -34
q-294 0 -434 140q-143 143 -150 361h277q7 -105 88 -181q80 -75 240 -75h20q113 0 174 53q60 53 60 121q0 63 -34 100t-128 58l-256 53q-192 39 -280 147q-89 109 -89 267q0 80 36 158q36 79 103 138q66 59 170 97q101 37 234 37q129 0 231 -36q104 -37 171 -98
q69 -63 105 -149t36 -188h-277zM1339 -317v-220h-1380v220h1380z" />
    <glyph glyph-name="scircumflex" unicode="&#x15d;" horiz-adv-x="1017" 
d="M717 1126l-205 148l-205 -148h-164l205 308h328l205 -308h-164zM508 -20q-206 0 -325 95q-117 93 -117 263h272q0 -70 48 -112t124 -42h16q60 0 99 28q37 27 37 73q0 38 -25 63q-24 24 -80 39l-133 33q-160 39 -239 112t-79 197q0 137 112 226t302 89q198 0 308 -95
t110 -263h-266q-7 72 -46 114q-37 40 -108 40h-16q-52 0 -91 -28q-38 -27 -38 -73q0 -41 34 -65q35 -24 97 -39l137 -35q148 -38 217 -111q70 -75 70 -194q0 -129 -107 -222t-313 -93zM1059 -317v-220h-1100v220h1100z" />
    <glyph glyph-name="Scedilla" unicode="&#x15e;" horiz-adv-x="1298" 
d="M664 -537h-705v220h715q39 0 60 12q22 13 22 39q0 21 -17 36t-55 15h-113v197q-255 18 -380 155q-124 136 -132 344h277q7 -105 88 -181q80 -75 240 -75h20q113 0 174 53q60 53 60 121q0 63 -34 100t-128 58l-256 53q-192 39 -280 147q-89 109 -89 267q0 80 36 158
q36 79 103 138q66 59 170 97q101 37 234 37q129 0 231 -36q104 -37 171 -98q69 -63 105 -149t36 -188h-277q-7 110 -82 168q-73 57 -184 57h-21q-115 0 -180 -52t-65 -122q0 -68 41 -106t133 -56l215 -43q184 -37 290 -136q107 -99 107 -273q0 -172 -124 -296t-355 -142v-64
q76 0 135 -49t59 -156q0 -123 -69 -186q-70 -64 -176 -64zM1339 -317v-220h-165v220h165z" />
    <glyph glyph-name="scedilla" unicode="&#x15f;" horiz-adv-x="1017" 
d="M514 -537h-575v220h585q40 0 61 12t21 39q0 21 -16 36t-55 15h-113v199q-168 21 -262 112t-94 242h272q0 -70 48 -112t124 -42h16q60 0 99 28q37 27 37 73q0 38 -25 63q-24 24 -80 39l-133 33q-160 39 -239 112t-79 197q0 137 112 226t302 89q198 0 308 -95t110 -263
h-266q-7 72 -46 114q-37 40 -108 40h-16q-52 0 -91 -28q-38 -27 -38 -73q0 -41 34 -65q35 -24 97 -39l137 -35q148 -38 217 -111q70 -75 70 -194q0 -121 -92 -210q-91 -88 -271 -103v-64q76 0 135 -49q60 -49 60 -156q0 -122 -70 -186t-176 -64z" />
    <glyph glyph-name="Scaron" unicode="&#x160;" horiz-adv-x="1298" 
d="M289 1823h225l164 -119l164 119h225l-246 -297h-286zM940 983q-7 110 -82 168q-73 57 -184 57h-21q-115 0 -180 -52t-65 -122q0 -68 41 -106t133 -56l215 -43q184 -37 290 -136q107 -99 107 -273q0 -93 -37 -173q-37 -81 -106 -139q-70 -60 -172 -94q-101 -34 -236 -34
q-294 0 -434 140q-143 143 -150 361h277q7 -105 88 -181q80 -75 240 -75h20q113 0 174 53q60 53 60 121q0 63 -34 100t-128 58l-256 53q-192 39 -280 147q-89 109 -89 267q0 80 36 158q36 79 103 138q66 59 170 97q101 37 234 37q129 0 231 -36q104 -37 171 -98
q69 -63 105 -149t36 -188h-277zM1339 -317v-220h-1380v220h1380z" />
    <glyph glyph-name="scaron" unicode="&#x161;" horiz-adv-x="1017" 
d="M354 1126l-204 308h163l205 -148l205 148h164l-205 -308h-328zM508 -20q-206 0 -325 95q-117 93 -117 263h272q0 -70 48 -112t124 -42h16q60 0 99 28q37 27 37 73q0 38 -25 63q-24 24 -80 39l-133 33q-160 39 -239 112t-79 197q0 137 112 226t302 89q198 0 308 -95
t110 -263h-266q-7 72 -46 114q-37 40 -108 40h-16q-52 0 -91 -28q-38 -27 -38 -73q0 -41 34 -65q35 -24 97 -39l137 -35q148 -38 217 -111q70 -75 70 -194q0 -129 -107 -222t-313 -93zM1059 -317v-220h-1100v220h1100z" />
    <glyph glyph-name="uni0162" unicode="&#x162;" horiz-adv-x="1343" 
d="M870 -287q0 -123 -69 -186q-70 -64 -176 -64h-666v220h676q39 0 60 12q22 13 22 39q0 21 -17 36q-16 15 -55 15h-113v1403h-495v246h1270v-246h-498v-1188h-133v-82q76 0 135 -49t59 -156zM1384 -317v-220h-249v220h249z" />
    <glyph glyph-name="uni0163" unicode="&#x163;" horiz-adv-x="833" 
d="M707 -287q0 -122 -70 -186t-176 -64h-502v220h512q39 0 60 12q22 13 22 39q0 21 -16 36q-17 15 -56 15h-112v244q-59 28 -91 89t-32 148v543h-211v215h211v332h266v-332h229v-215h-229v-471q0 -69 22 -91t91 -22h147v-225h-260v-82q76 0 135 -49q60 -49 60 -156z" />
    <glyph glyph-name="Tcaron" unicode="&#x164;" horiz-adv-x="1343" 
d="M281 1823h225l164 -119l164 119h225l-246 -297h-287zM532 0v1188h-495v246h1270v-246h-498v-1188h-277zM1384 -317v-220h-1425v220h1425z" />
    <glyph glyph-name="tcaron" unicode="&#x165;" horiz-adv-x="1054" 
d="M823 932v153h47q56 0 84 23q27 22 27 57v2h-107v267h267v-267q0 -102 -73 -169q-72 -66 -187 -66h-58zM772 225v-225h-260q-129 0 -198 69q-68 68 -68 197v543h-211v215h211v332h266v-332h229v-215h-229v-471q0 -69 22 -91t91 -22h147zM1182 -317v-220h-1223v220h1223z
" />
    <glyph glyph-name="Tbar" unicode="&#x166;" horiz-adv-x="1384" 
d="M1178 662h-349v-662h-276v662h-348v235h348v291h-496v246h1270v-246h-498v-291h349v-235zM1425 -317v-220h-1466v220h1466z" />
    <glyph glyph-name="tbar" unicode="&#x167;" horiz-adv-x="849" 
d="M786 225v-225h-260q-128 0 -197 69t-69 197v174h-211v215h211v154h-211v215h211v332h266v-332h230v-215h-230v-154h230v-215h-230v-102q0 -69 22 -91t91 -22h147zM891 -317v-220h-932v220h932z" />
    <glyph glyph-name="Utilde" unicode="&#x168;" horiz-adv-x="1437" 
d="M852 1741q33 0 47 23q14 22 14 59h195v-54q0 -94 -54 -163q-55 -70 -171 -70q-39 0 -79 12q-35 10 -85 37l-37 21q-17 10 -46 23q-21 9 -46 9q-33 2 -48 -22q-16 -26 -16 -60h-194v54q0 95 66 164t163 69q58 0 91 -13q38 -15 63 -28l37 -20q27 -14 50 -27q24 -14 50 -14z
M719 -20q-291 0 -427 139t-136 383v932h276v-891q0 -167 70 -243q69 -75 207 -75h20q138 0 207 75q70 76 70 243v891h276v-932q0 -244 -136 -383t-427 -139zM1479 -317v-220h-1520v220h1520z" />
    <glyph glyph-name="utilde" unicode="&#x169;" horiz-adv-x="1177" 
d="M713 1341q26 0 44 24q17 23 17 58h195v-53q0 -94 -68 -164q-67 -69 -158 -69q-37 0 -78 12q-35 10 -85 37l-37 20q-20 12 -43 24q-18 9 -43 9q-27 0 -48 -24q-22 -25 -22 -58h-194v53q0 95 66 164q67 70 163 70q58 0 91 -13q34 -13 62 -28l37 -21q45 -23 51 -26
q25 -15 50 -15zM1040 1024v-1024h-266v150q-45 -77 -124 -123q-80 -47 -175 -47q-179 0 -262 110q-84 111 -84 279v655h266v-625q0 -100 40 -152t112 -52h16q89 0 150 76t61 184v569h266zM1219 -317v-220h-1260v220h1260z" />
    <glyph glyph-name="Umacron" unicode="&#x16a;" horiz-adv-x="1437" 
d="M377 1567v225h686v-225h-686zM719 -20q-291 0 -427 139t-136 383v932h276v-891q0 -167 70 -243q69 -75 207 -75h20q138 0 207 75q70 76 70 243v891h276v-932q0 -244 -136 -383t-427 -139zM1479 -317v-220h-1520v220h1520z" />
    <glyph glyph-name="umacron" unicode="&#x16b;" horiz-adv-x="1177" 
d="M264 1157v215h625v-215h-625zM1040 1024v-1024h-266v150q-45 -77 -124 -123q-80 -47 -175 -47q-179 0 -262 110q-84 111 -84 279v655h266v-625q0 -100 40 -152t112 -52h16q89 0 150 76t61 184v569h266zM1219 -317v-220h-1260v220h1260z" />
    <glyph glyph-name="Ubreve" unicode="&#x16c;" horiz-adv-x="1437" 
d="M719 1710q44 0 81 28q36 27 42 85h225q-2 -140 -100 -224q-98 -83 -248 -83t-248 83q-98 84 -100 224h225q6 -58 42 -85q37 -28 81 -28zM719 -20q-291 0 -427 139t-136 383v932h276v-891q0 -167 70 -243q69 -75 207 -75h20q138 0 207 75q70 76 70 243v891h276v-932
q0 -244 -136 -383t-427 -139zM1479 -317v-220h-1520v220h1520z" />
    <glyph glyph-name="ubreve" unicode="&#x16d;" horiz-adv-x="1177" 
d="M584 1106q-149 0 -248 90q-98 90 -100 238h225q1 -58 34 -97q31 -37 89 -37t89 37q33 39 34 97h225q-2 -148 -101 -238t-247 -90zM1040 1024v-1024h-266v150q-45 -77 -124 -123q-80 -47 -175 -47q-179 0 -262 110q-84 111 -84 279v655h266v-625q0 -100 40 -152t112 -52
h16q89 0 150 76t61 184v569h266zM1219 -317v-220h-1260v220h1260z" />
    <glyph glyph-name="Uring" unicode="&#x16e;" horiz-adv-x="1437" 
d="M494 1720q0 89 68 157q69 69 157 69q97 0 161 -69q64 -68 64 -157q0 -96 -64 -160q-65 -65 -161 -65q-87 0 -157 65q-68 64 -68 160zM719 1802q-33 0 -57 -24q-25 -25 -25 -58q0 -32 25 -57t57 -25q31 0 56 25q24 24 24 57q0 34 -24 58t-56 24zM719 -20q-291 0 -427 139
t-136 383v932h276v-891q0 -167 70 -243q69 -75 207 -75h20q138 0 207 75q70 76 70 243v891h276v-932q0 -244 -136 -383t-427 -139zM1479 -317v-220h-1520v220h1520z" />
    <glyph glyph-name="uring" unicode="&#x16f;" horiz-adv-x="1177" 
d="M369 1321q0 84 65 149q66 66 150 66q92 0 153 -66q62 -67 62 -149q0 -92 -62 -154q-61 -61 -153 -61q-85 0 -150 61t-65 154zM584 1411q-37 0 -64 -27q-26 -26 -26 -63q0 -38 26 -64t64 -26q37 0 62 26q26 28 26 64q0 35 -26 63q-26 27 -62 27zM1040 1024v-1024h-266v150
q-45 -77 -124 -123q-80 -47 -175 -47q-179 0 -262 110q-84 111 -84 279v655h266v-625q0 -100 40 -152t112 -52h16q89 0 150 76t61 184v569h266zM1219 -317v-220h-1260v220h1260z" />
    <glyph glyph-name="Uhungarumlaut" unicode="&#x170;" horiz-adv-x="1437" 
d="M784 1526l82 297h318l-215 -297h-185zM397 1526l82 297h318l-215 -297h-185zM719 -20q-291 0 -427 139t-136 383v932h276v-891q0 -167 70 -243q69 -75 207 -75h20q138 0 207 75q70 76 70 243v891h276v-932q0 -244 -136 -383t-427 -139zM1479 -317v-220h-1520v220h1520z
" />
    <glyph glyph-name="uhungarumlaut" unicode="&#x171;" horiz-adv-x="1177" 
d="M653 1126l52 308h307l-205 -308h-154zM328 1126l51 308h307l-205 -308h-153zM1040 1024v-1024h-266v150q-45 -77 -124 -123q-80 -47 -175 -47q-179 0 -262 110q-84 111 -84 279v655h266v-625q0 -100 40 -152t112 -52h16q89 0 150 76t61 184v569h266zM1219 -317v-220
h-1260v220h1260z" />
    <glyph glyph-name="Uogonek" unicode="&#x172;" horiz-adv-x="1437" 
d="M1479 -537h-666q-107 0 -176 75q-70 76 -70 186q0 88 39 152q40 65 90 104q-278 6 -409 144q-131 139 -131 378v932h276v-891q0 -167 70 -243q69 -75 207 -75h20q138 0 207 75q70 76 70 243v891h276v-932q0 -198 -89 -329q-88 -129 -278 -173q-49 -29 -107 -87
q-56 -56 -56 -128q0 -54 31 -78t71 -24h625v-220zM303 -317v-220h-344v220h344z" />
    <glyph glyph-name="uogonek" unicode="&#x173;" horiz-adv-x="1177" 
d="M1219 -317v-220h-281q-107 0 -176 75q-70 76 -70 186q0 100 49 168q50 70 109 108h-76v150q-45 -77 -124 -123q-80 -47 -175 -47q-179 0 -262 110q-84 111 -84 279v655h266v-625q0 -100 40 -152t112 -52h16q89 0 150 76t61 184v569h266v-1024q-49 -29 -107 -87
q-56 -56 -56 -128q0 -54 31 -78q32 -24 71 -24h240zM428 -317v-220h-469v220h469z" />
    <glyph glyph-name="Wcircumflex" unicode="&#x174;" horiz-adv-x="1945" 
d="M809 1526h-225l245 297h287l246 -297h-225l-164 119zM1192 0l-219 1044l-221 -1044h-359l-352 1434h285l256 -1137l225 1137h338l225 -1137l248 1137h287l-355 -1434h-358zM1987 -317v-220h-2028v220h2028z" />
    <glyph glyph-name="wcircumflex" unicode="&#x175;" horiz-adv-x="1619" 
d="M1016 1126l-205 148l-205 -148h-164l205 308h328l205 -308h-164zM991 0l-180 717l-170 -717h-299l-313 1024h268l205 -760l166 760h284l178 -754l195 754h258l-293 -1024h-299zM1661 -317v-220h-1702v220h1702z" />
    <glyph glyph-name="Ycircumflex" unicode="&#x176;" horiz-adv-x="1357" 
d="M520 1526h-225l246 297h286l246 -297h-225l-164 119zM817 0h-276v573l-533 861h314l366 -603l361 603h303l-535 -861v-573zM1399 -317v-220h-1440v220h1440z" />
    <glyph glyph-name="ycircumflex" unicode="&#x177;" horiz-adv-x="1171" 
d="M795 1126l-205 148l-205 -148h-164l205 308h328l204 -308h-163zM461 -537h-502v220h401q71 0 92 21t21 91v285l-446 944h299l276 -623l266 623h295l-436 -934v-360q0 -129 -69 -198t-197 -69zM1212 -317v-220h-233v220h233z" />
    <glyph glyph-name="Ydieresis" unicode="&#x178;" horiz-adv-x="1357" 
d="M758 1567v245h256v-245h-256zM358 1567v245h256v-245h-256zM817 0h-276v573l-533 861h314l366 -603l361 603h303l-535 -861v-573zM1399 -317v-220h-1440v220h1440z" />
    <glyph glyph-name="Zacute" unicode="&#x179;" horiz-adv-x="1300" 
d="M522 1536l82 297h318l-215 -297h-185zM1219 0h-1137v236l795 952h-775v246h1096v-236l-795 -952h816v-246zM1341 -317v-220h-1382v220h1382z" />
    <glyph glyph-name="zacute" unicode="&#x17a;" horiz-adv-x="1042" 
d="M432 1126l51 308h308l-205 -308h-154zM971 0h-891v205l528 583h-518v236h850v-205l-528 -583h559v-236zM1083 -317v-220h-1124v220h1124z" />
    <glyph glyph-name="Zdotaccent" unicode="&#x17b;" horiz-adv-x="1300" 
d="M526 1577v276h287v-276h-287zM1219 0h-1137v236l795 952h-775v246h1096v-236l-795 -952h816v-246zM1341 -317v-220h-1382v220h1382z" />
    <glyph glyph-name="zdotaccent" unicode="&#x17c;" horiz-adv-x="1042" 
d="M395 1157v277h287v-277h-287zM971 0h-891v205l528 583h-518v236h850v-205l-528 -583h559v-236zM1083 -317v-220h-1124v220h1124z" />
    <glyph glyph-name="Zcaron" unicode="&#x17d;" horiz-adv-x="1300" 
d="M287 1823h225l164 -119l164 119h225l-246 -297h-287zM1219 0h-1137v236l795 952h-775v246h1096v-236l-795 -952h816v-246zM1341 -317v-220h-1382v220h1382z" />
    <glyph glyph-name="zcaron" unicode="&#x17e;" horiz-adv-x="1042" 
d="M367 1126l-205 308h164l204 -148l205 148h164l-205 -308h-327zM971 0h-891v205l528 583h-518v236h850v-205l-528 -583h559v-236zM1083 -317v-220h-1124v220h1124z" />
    <glyph glyph-name="florin" unicode="&#x192;" horiz-adv-x="923" 
d="M424 -147q-33 -207 -124 -298q-92 -92 -275 -92h-150v220h121q88 0 122 33q36 34 46 110l137 903h-199v229h236l12 86q33 206 119 298t268 92h152v-236h-123q-83 0 -114 -34q-32 -36 -44 -109l-14 -97h237v-229h-272zM965 -317v-220h-318v220h318z" />
    <glyph glyph-name="AEmacron" unicode="&#x1e2;" horiz-adv-x="2029" 
d="M954 1567v225h686v-225h-686zM967 584l-84 587l-297 -587h381zM1051 0l-50 338h-540l-170 -338h-301l747 1434h1123v-246h-703l49 -330h592v-246h-561l53 -366h692v-246h-931zM2071 -317v-220h-2112v220h2112z" />
    <glyph glyph-name="aemacron" unicode="&#x1e3;" horiz-adv-x="1732" 
d="M563 1157v215h625v-215h-625zM1192 -20q-112 0 -215 50q-104 50 -172 144q-48 -81 -151 -138q-100 -56 -224 -56q-155 0 -255 81q-101 82 -101 220q0 84 29 143q30 62 81 102q53 42 120 64t145 28l258 23v25q0 70 -45 116q-45 47 -121 47h-13q-77 0 -119 -38
q-45 -40 -49 -84h-266q15 144 132 240q118 97 309 97q106 0 190 -28q85 -28 143 -86q64 55 143 84q81 30 181 30q118 0 203 -39q88 -40 146 -109q58 -68 88 -165q30 -96 30 -207q0 -31 -1 -47q0 -8 -1 -24.5t-2 -24.5h-690v-18q15 -99 83 -157t148 -58h12q77 0 122 38t61 91
h264q-38 -150 -155 -247q-118 -97 -308 -97zM1176 829q-79 0 -140 -47q-59 -46 -71 -129v-20h436q-5 92 -67 144t-146 52h-12zM465 195h10q94 0 162 61q70 62 70 162v28l-222 -22q-50 -4 -100 -33q-49 -28 -49 -92q0 -48 37 -76t92 -28zM1837 -317v-220h-1878v220h1878z" />
    <glyph glyph-name="Aringacute" unicode="&#x1fa;" horiz-adv-x="1460" 
d="M664 1901l32 180h256l-127 -180h-161zM555 1675q0 78 52 130q53 53 130 53t130 -53t53 -130t-53 -130q-52 -52 -130 -52t-130 52t-52 130zM737 1745q-26 0 -48 -22q-21 -21 -21 -48t21 -48t48 -21q26 0 47 21t21 48t-21 48q-22 22 -47 22zM932 584l-207 542l-207 -542
h414zM4 0l567 1434h324l553 -1434h-293l-129 338h-602l-129 -338h-291zM1522 -317v-220h-1583v220h1583z" />
    <glyph glyph-name="aringacute" unicode="&#x1fb;" horiz-adv-x="1093" 
d="M612 1569h-161l51 276h307zM524 1085q-82 0 -149 62q-66 61 -66 153q0 84 66 150t149 66q92 0 154 -66q61 -65 61 -150q0 -92 -61 -153q-62 -62 -154 -62zM528 1391q-36 0 -63 -27t-27 -64q0 -36 27 -63t63 -27q38 0 63 27q25 26 25 63q0 38 -25 64q-25 27 -63 27z
M465 195h10q94 0 162 61q70 62 70 162v28l-222 -22q-50 -4 -100 -33q-49 -28 -49 -92q0 -48 37 -76t92 -28zM713 125q-45 -66 -124 -106q-77 -39 -179 -39q-140 0 -237 81q-99 83 -99 220q0 84 29 143q30 62 81 102q53 42 120 64t145 28l258 23v25q0 70 -45 116
q-45 47 -121 47h-13q-77 0 -119 -38q-45 -40 -49 -84h-266q15 144 132 240q118 97 309 97q189 0 310 -95q120 -95 120 -273v-451q0 -66 1 -108q2 -65 9 -117h-250q-4 19 -7 56q-4 46 -5 69zM1135 -317v-220h-1176v220h1176z" />
    <glyph glyph-name="AEacute" unicode="&#x1fc;" horiz-adv-x="2029" 
d="M1128 1526l82 297h318l-215 -297h-185zM967 584l-84 587l-297 -587h381zM1051 0l-50 338h-540l-170 -338h-301l747 1434h1123v-246h-703l49 -330h592v-246h-561l53 -366h692v-246h-931zM2071 -317v-220h-2112v220h2112z" />
    <glyph glyph-name="aeacute" unicode="&#x1fd;" horiz-adv-x="1732" 
d="M788 1126l52 308h307l-205 -308h-154zM1192 -20q-112 0 -215 50q-104 50 -172 144q-48 -81 -151 -138q-100 -56 -224 -56q-155 0 -255 81q-101 82 -101 220q0 84 29 143q30 62 81 102q53 42 120 64t145 28l258 23v25q0 70 -45 116q-45 47 -121 47h-13q-77 0 -119 -38
q-45 -40 -49 -84h-266q15 144 132 240q118 97 309 97q106 0 190 -28q85 -28 143 -86q64 55 143 84q81 30 181 30q118 0 203 -39q88 -40 146 -109q58 -68 88 -165q30 -96 30 -207q0 -31 -1 -47q0 -8 -1 -24.5t-2 -24.5h-690v-18q15 -99 83 -157t148 -58h12q77 0 122 38t61 91
h264q-38 -150 -155 -247q-118 -97 -308 -97zM1176 829q-79 0 -140 -47q-59 -46 -71 -129v-20h436q-5 92 -67 144t-146 52h-12zM465 195h10q94 0 162 61q70 62 70 162v28l-222 -22q-50 -4 -100 -33q-49 -28 -49 -92q0 -48 37 -76t92 -28zM1837 -317v-220h-1878v220h1878z" />
    <glyph glyph-name="Oslashacute" unicode="&#x1fe;" horiz-adv-x="1574" 
d="M711 1526l82 297h317l-215 -297h-184zM369 719q0 -73 12 -138q12 -66 33 -118l563 711q-39 18 -84 27t-94 9h-21q-190 0 -300 -131q-109 -130 -109 -360zM778 227h21q190 0 300 131q109 130 109 361q0 71 -12 136t-33 116l-559 -709q37 -16 82 -25q48 -10 92 -10z
M788 -18q-99 0 -182 19q-87 20 -162 58l-125 -157l-215 168l132 168q-69 92 -106 212q-38 123 -38 269q0 173 51 309q51 137 144 233q92 95 220 145q129 50 281 50q101 0 185 -20q89 -21 162 -60l127 160l215 -168l-134 -170q67 -90 105 -212q37 -120 37 -267
q0 -173 -51 -309q-51 -137 -144 -233q-92 -95 -220 -145q-129 -50 -282 -50zM1616 -317v-220h-1657v220h1657z" />
    <glyph glyph-name="oslashacute" unicode="&#x1ff;" horiz-adv-x="1183" 
d="M549 1126l51 308h307l-205 -308h-153zM348 512q0 -32 3 -61t9 -56l322 420q-20 8 -39 11q-21 3 -43 3h-16q-106 0 -171 -84q-65 -85 -65 -233zM584 195h16q106 0 171 84q65 85 65 233q0 32 -3 61q-3 24 -10 54l-321 -418q19 -8 40 -11t42 -3zM592 -20q-64 0 -121 12
q-55 12 -109 37l-102 -133l-172 143l100 131q-50 66 -79 155t-29 187q0 115 37 213q38 99 103 169q65 69 162 111q91 39 210 39q64 0 121 -12q53 -11 108 -37l99 129l182 -135l-105 -135q52 -70 79 -156q28 -89 28 -186q0 -115 -37 -213q-38 -99 -103 -169
q-65 -69 -162 -111q-91 -39 -210 -39zM1225 -317v-220h-1266v220h1266z" />
    <glyph glyph-name="Scommaaccent" unicode="&#x218;" horiz-adv-x="1298" 
d="M940 983q-7 110 -82 168q-73 57 -184 57h-21q-115 0 -180 -52t-65 -122q0 -68 41 -106t133 -56l215 -43q184 -37 290 -136q107 -99 107 -273q0 -93 -37 -173q-37 -81 -106 -139q-70 -60 -172 -94q-101 -34 -236 -34q-294 0 -434 140q-143 143 -150 361h277
q7 -105 88 -181q80 -75 240 -75h20q113 0 174 53q60 53 60 121q0 63 -34 100t-128 58l-256 53q-192 39 -280 147q-89 109 -89 267q0 80 36 158q36 79 103 138q66 59 170 97q101 37 234 37q129 0 231 -36q104 -37 171 -98q69 -63 105 -149t36 -188h-277zM1339 -317v-220h-305
v220h305zM508 -772h-57v154h47q58 0 84 22t26 57v2h-649v220h809v-220q0 -102 -73 -169q-72 -66 -187 -66z" />
    <glyph glyph-name="scommaaccent" unicode="&#x219;" horiz-adv-x="1017" 
d="M508 -20q-206 0 -325 95q-117 93 -117 263h272q0 -70 48 -112t124 -42h16q60 0 99 28q37 27 37 73q0 38 -25 63q-24 24 -80 39l-133 33q-160 39 -239 112t-79 197q0 137 112 226t302 89q198 0 308 -95t110 -263h-266q-7 72 -46 114q-37 40 -108 40h-16q-52 0 -91 -28
q-38 -27 -38 -73q0 -41 34 -65q35 -24 97 -39l137 -35q148 -38 217 -111q70 -75 70 -194q0 -129 -107 -222t-313 -93zM1059 -317v-220h-146v220h146zM387 -772h-57v154h47q58 0 84 22t26 57v2h-528v220h688v-220q0 -102 -73 -169q-72 -66 -187 -66z" />
    <glyph glyph-name="uni021A" unicode="&#x21a;" horiz-adv-x="1343" 
d="M532 0v1188h-495v246h1270v-246h-498v-1188h-277zM1384 -317v-220h-315v220h315zM543 -772h-58v154h47q58 0 84 22q27 22 27 57v2h-684v220h844v-220q0 -102 -73 -169q-72 -66 -187 -66z" />
    <glyph glyph-name="uni021B" unicode="&#x21b;" horiz-adv-x="833" 
d="M772 225v-225h-260q-129 0 -198 69q-68 68 -68 197v543h-211v215h211v332h266v-332h229v-215h-229v-471q0 -69 22 -91t91 -22h147zM358 -772h-57v154h47q58 0 84 22q27 22 27 57v2h-500v220h659v-220q0 -103 -72 -169t-188 -66z" />
    <glyph glyph-name="uni0226" unicode="&#x226;" horiz-adv-x="1460" 
d="M592 1567v276h287v-276h-287zM932 584l-207 542l-207 -542h414zM4 0l567 1434h324l553 -1434h-293l-129 338h-602l-129 -338h-291zM1522 -317v-220h-1583v220h1583z" />
    <glyph glyph-name="uni0227" unicode="&#x227;" horiz-adv-x="1093" 
d="M399 1157v277h287v-277h-287zM465 195h10q94 0 162 61q70 62 70 162v28l-222 -22q-50 -4 -100 -33q-49 -28 -49 -92q0 -48 37 -76t92 -28zM713 125q-45 -66 -124 -106q-77 -39 -179 -39q-140 0 -237 81q-99 83 -99 220q0 84 29 143q30 62 81 102q53 42 120 64t145 28
l258 23v25q0 70 -45 116q-45 47 -121 47h-13q-77 0 -119 -38q-45 -40 -49 -84h-266q15 144 132 240q118 97 309 97q189 0 310 -95q120 -95 120 -273v-451q0 -66 1 -108q2 -65 9 -117h-250q-4 19 -7 56q-4 46 -5 69zM1135 -317v-220h-1176v220h1176z" />
    <glyph glyph-name="Ymacron" unicode="&#x232;" horiz-adv-x="1357" 
d="M342 1567v225h686v-225h-686zM817 0h-276v573l-533 861h314l366 -603l361 603h303l-535 -861v-573zM1399 -317v-220h-1440v220h1440z" />
    <glyph glyph-name="ymacron" unicode="&#x233;" horiz-adv-x="1171" 
d="M283 1157v215h624v-215h-624zM461 -537h-502v220h401q71 0 92 21t21 91v285l-446 944h299l276 -623l266 623h295l-436 -934v-360q0 -129 -69 -198t-197 -69zM1212 -317v-220h-233v220h233z" />
    <glyph glyph-name="dotlessj" unicode="&#x237;" horiz-adv-x="557" 
d="M420 1024v-1305q0 -122 -67 -189t-189 -67h-332v220h209q62 0 87 25q26 26 26 87v1229h266z" />
    <glyph glyph-name="circumflex" unicode="&#x2c6;" horiz-adv-x="778" 
d="M594 1126l-205 148l-205 -148h-164l205 308h328l205 -308h-164z" />
    <glyph glyph-name="caron" unicode="&#x2c7;" horiz-adv-x="778" 
d="M225 1126l-205 308h164l205 -148l205 148h164l-205 -308h-328z" />
    <glyph glyph-name="breve" unicode="&#x2d8;" horiz-adv-x="737" 
d="M369 1106q-149 0 -248 90t-101 238h226q1 -58 34 -97q31 -37 89 -37t89 37q33 39 34 97h225q-2 -148 -101 -238t-247 -90z" />
    <glyph glyph-name="dotaccent" unicode="&#x2d9;" horiz-adv-x="327" 
d="M20 1157v277h287v-277h-287z" />
    <glyph glyph-name="ring" unicode="&#x2da;" horiz-adv-x="471" 
d="M20 1321q0 83 66 149t150 66q92 0 153 -66q62 -67 62 -149q0 -92 -62 -154q-61 -61 -153 -61q-85 0 -150 61q-66 61 -66 154zM236 1411q-37 0 -64 -27t-27 -63q0 -37 27 -64q26 -26 64 -26q37 0 62 26q26 28 26 64q0 35 -26 63q-26 27 -62 27z" />
    <glyph glyph-name="ogonek" unicode="&#x2db;" horiz-adv-x="430" 
d="M287 -537q-107 0 -176 75q-70 76 -70 186q0 64 20 111q21 50 53 88q35 41 69 66q36 26 73 42l133 -31q-49 -29 -107 -87q-57 -57 -57 -128q0 -54 32 -78q31 -24 71 -24h143v-220h-184z" />
    <glyph glyph-name="tilde" unicode="&#x2dc;" horiz-adv-x="817" 
d="M541 1341q26 0 44 24q17 23 17 58h195v-53q0 -94 -68 -164q-67 -69 -158 -69q-37 0 -78 12q-35 10 -85 37l-37 20q-20 12 -43 24q-18 9 -43 9q-27 0 -48 -24q-22 -25 -22 -58h-195v53q0 94 67 164t163 70q58 0 91 -13q34 -13 62 -28l37 -21q39 -19 50 -26q26 -15 51 -15z
" />
    <glyph glyph-name="hungarumlaut" unicode="&#x2dd;" horiz-adv-x="724" 
d="M346 1126l51 308h308l-205 -308h-154zM20 1126l52 308h307l-205 -308h-154z" />
    <glyph glyph-name="Delta" unicode="&#x394;" horiz-adv-x="1439" 
d="M45 0v184l522 1250h305l523 -1250v-184h-1350zM1100 246l-379 903l-381 -903h760zM1481 -317v-220h-1522v220h1522z" />
    <glyph glyph-name="mu" unicode="&#x3bc;" horiz-adv-x="1185" 
d="M1227 -317v-220h-557v220h557zM-41 -537v220h178v1341h266v-625q0 -100 40 -152t112 -52h16q89 0 150 76t61 184v569h267v-1024h-267v150q-45 -77 -124 -123q-80 -47 -175 -47q-13 0 -41 2q-8 1 -21 2.5t-18 1.5v-523h-444z" />
    <glyph glyph-name="pi" unicode="&#x3c0;" horiz-adv-x="1437" 
d="M539 0h-267v803h-235v221h1311v-221h-236v-500q0 -45 18 -63q19 -19 64 -19h154v-221h-287q-107 0 -161 54t-54 161v588h-307v-803zM1479 -317v-220h-1520v220h1520z" />
    <glyph glyph-name="Wgrave" unicode="&#x1e80;" horiz-adv-x="1945" 
d="M993 1823l82 -297h-184l-215 297h317zM1192 0l-219 1044l-221 -1044h-359l-352 1434h285l256 -1137l225 1137h338l225 -1137l248 1137h287l-355 -1434h-358zM1987 -317v-220h-2028v220h2028z" />
    <glyph glyph-name="wgrave" unicode="&#x1e81;" horiz-adv-x="1619" 
d="M834 1434l51 -308h-154l-205 308h308zM991 0l-180 717l-170 -717h-299l-313 1024h268l205 -760l166 760h284l178 -754l195 754h258l-293 -1024h-299zM1661 -317v-220h-1702v220h1702z" />
    <glyph glyph-name="Wacute" unicode="&#x1e82;" horiz-adv-x="1945" 
d="M881 1526l82 297h317l-215 -297h-184zM1192 0l-219 1044l-221 -1044h-359l-352 1434h285l256 -1137l225 1137h338l225 -1137l248 1137h287l-355 -1434h-358zM1987 -317v-220h-2028v220h2028z" />
    <glyph glyph-name="wacute" unicode="&#x1e83;" horiz-adv-x="1619" 
d="M739 1126l52 308h307l-205 -308h-154zM991 0l-180 717l-170 -717h-299l-313 1024h268l205 -760l166 760h284l178 -754l195 754h258l-293 -1024h-299zM1661 -317v-220h-1702v220h1702z" />
    <glyph glyph-name="Wdieresis" unicode="&#x1e84;" horiz-adv-x="1945" 
d="M1049 1567v245h256v-245h-256zM649 1567v245h256v-245h-256zM1192 0l-219 1044l-221 -1044h-359l-352 1434h285l256 -1137l225 1137h338l225 -1137l248 1137h287l-355 -1434h-358zM1987 -317v-220h-2028v220h2028z" />
    <glyph glyph-name="wdieresis" unicode="&#x1e85;" horiz-adv-x="1619" 
d="M905 1157v266h246v-266h-246zM496 1157v266h245v-266h-245zM991 0l-180 717l-170 -717h-299l-313 1024h268l205 -760l166 760h284l178 -754l195 754h258l-293 -1024h-299zM1661 -317v-220h-1702v220h1702z" />
    <glyph glyph-name="uni1EA0" unicode="&#x1ea0;" horiz-adv-x="1460" 
d="M932 584l-207 542l-207 -542h414zM4 0l567 1434h324l553 -1434h-293l-129 338h-602l-129 -338h-291zM618 -537v267h267v-267h-267zM1522 -317v-220h-371v220h371zM352 -317v-220h-413v220h413z" />
    <glyph glyph-name="uni1EA1" unicode="&#x1ea1;" horiz-adv-x="1093" 
d="M465 195h10q94 0 162 61q70 62 70 162v28l-222 -22q-50 -4 -100 -33q-49 -28 -49 -92q0 -48 37 -76t92 -28zM713 125q-45 -66 -124 -106q-77 -39 -179 -39q-140 0 -237 81q-99 83 -99 220q0 84 29 143q30 62 81 102q53 42 120 64t145 28l258 23v25q0 70 -45 116
q-45 47 -121 47h-13q-77 0 -119 -38q-45 -40 -49 -84h-266q15 144 132 240q118 97 309 97q189 0 310 -95q120 -95 120 -273v-451q0 -66 1 -108q2 -65 9 -117h-250q-4 19 -7 56q-4 46 -5 69zM391 -537v267h266v-267h-266zM1135 -317v-220h-211v220h211zM125 -317v-220h-166
v220h166z" />
    <glyph glyph-name="uni1EB8" unicode="&#x1eb8;" horiz-adv-x="1353" 
d="M168 0v1434h1085v-246h-809v-330h686v-246h-686v-366h830v-246h-1106zM588 -537v267h266v-267h-266zM1395 -317v-220h-275v220h275zM322 -317v-220h-363v220h363z" />
    <glyph glyph-name="uni1EB9" unicode="&#x1eb9;" horiz-adv-x="1107" 
d="M1030 324q-38 -151 -154 -247q-118 -97 -309 -97q-98 0 -184 35q-88 36 -156 104q-65 65 -107 167q-40 98 -40 226q0 114 33 213q33 100 95 169q64 72 153 111q88 39 206 39t203 -39q88 -40 146 -109q59 -70 89 -165q29 -93 29 -207q0 -31 -1 -47q-1 -8 -2 -24.5
t-1 -24.5h-692q7 -103 79 -169q70 -64 154 -64h13q77 0 122 38q44 37 60 91h264zM338 633h438q-5 93 -66 144q-62 52 -147 52h-12q-85 0 -147 -52q-61 -51 -66 -144zM424 -537v267h266v-267h-266zM1149 -317v-220h-193v220h193zM158 -317v-220h-199v220h199z" />
    <glyph glyph-name="uni1ECA" unicode="&#x1eca;" horiz-adv-x="612" 
d="M168 0v1434h276v-1434h-276zM172 -537v267h266v-267h-266z" />
    <glyph glyph-name="uni1ECB" unicode="&#x1ecb;" horiz-adv-x="540" 
d="M127 1157v277h287v-277h-287zM137 0v1024h266v-1024h-266zM137 -537v267h266v-267h-266z" />
    <glyph glyph-name="uni1ECC" unicode="&#x1ecc;" horiz-adv-x="1568" 
d="M784 -20q-152 0 -281 50q-128 50 -220 145q-93 96 -144 233q-51 136 -51 309t51 309t144 232q94 97 220 146q129 50 281 50q153 0 282 -50q126 -49 220 -146q93 -96 144 -232t51 -309t-51 -309q-51 -137 -144 -233q-92 -95 -220 -145q-129 -50 -282 -50zM774 225h21
q190 0 300 131q109 130 109 361q0 230 -109 360q-110 131 -300 131h-21q-190 0 -300 -131q-109 -130 -109 -360q0 -231 109 -361q110 -131 300 -131zM651 -537v267h267v-267h-267zM1610 -317v-220h-426v220h426zM385 -317v-220h-426v220h426z" />
    <glyph glyph-name="uni1ECD" unicode="&#x1ecd;" horiz-adv-x="1179" 
d="M590 -20q-119 0 -210 39q-97 42 -162 111q-65 70 -103 169q-37 98 -37 213t37 213q38 99 103 169q65 69 162 111q91 39 210 39t210 -39q97 -42 162 -111q65 -70 103 -169q37 -98 37 -213t-37 -213q-38 -99 -103 -169q-65 -69 -162 -111q-91 -39 -210 -39zM598 195
q106 0 171 84q65 85 65 233t-65 233q-65 84 -171 84h-16q-106 0 -171 -84q-65 -85 -65 -233t65 -233q65 -84 171 -84h16zM463 -537v267h266v-267h-266zM1221 -317v-220h-226v220h226zM197 -317v-220h-238v220h238z" />
    <glyph glyph-name="uni1EE4" unicode="&#x1ee4;" horiz-adv-x="1437" 
d="M719 -20q-291 0 -427 139t-136 383v932h276v-891q0 -167 70 -243q69 -75 207 -75h20q138 0 207 75q70 76 70 243v891h276v-932q0 -244 -136 -383t-427 -139zM584 -537v267h266v-267h-266zM1479 -317v-220h-363v220h363zM317 -317v-220h-358v220h358z" />
    <glyph glyph-name="uni1EE5" unicode="&#x1ee5;" horiz-adv-x="1177" 
d="M1040 1024v-1024h-266v150q-45 -77 -124 -123q-80 -47 -175 -47q-179 0 -262 110q-84 111 -84 279v655h266v-625q0 -100 40 -152t112 -52h16q89 0 150 76t61 184v569h266zM457 -537v267h266v-267h-266zM1219 -317v-220h-230v220h230zM190 -317v-220h-231v220h231z" />
    <glyph glyph-name="Ygrave" unicode="&#x1ef2;" horiz-adv-x="1357" 
d="M715 1823l82 -297h-185l-215 297h318zM817 0h-276v573l-533 861h314l366 -603l361 603h303l-535 -861v-573zM1399 -317v-220h-1440v220h1440z" />
    <glyph glyph-name="ygrave" unicode="&#x1ef3;" horiz-adv-x="1171" 
d="M643 1434l51 -308h-153l-205 308h307zM461 -537h-502v220h401q71 0 92 21t21 91v285l-446 944h299l276 -623l266 623h295l-436 -934v-360q0 -129 -69 -198t-197 -69zM1212 -317v-220h-233v220h233z" />
    <glyph glyph-name="enspace" unicode="&#x2002;" horiz-adv-x="942" 
 />
    <glyph glyph-name="emspace" unicode="&#x2003;" horiz-adv-x="1966" 
 />
    <glyph glyph-name="thinspace" unicode="&#x2009;" horiz-adv-x="174" 
d="M215 -317v-220h-256v220h256z" />
    <glyph glyph-name="endash" unicode="&#x2013;" horiz-adv-x="1216" 
d="M127 512v215h963v-215h-963z" />
    <glyph glyph-name="emdash" unicode="&#x2014;" horiz-adv-x="1871" 
d="M127 512v215h1618v-215h-1618z" />
    <glyph glyph-name="quoteleft" unicode="&#x2018;" horiz-adv-x="579" 
d="M401 1434h84v-154h-73q-71 0 -99 -40t-28 -93v-21h133v-297h-297v328q0 57 20 104q21 50 59 88q36 36 89 61q51 24 112 24z" />
    <glyph glyph-name="quoteright" unicode="&#x2019;" horiz-adv-x="573" 
d="M188 829h-84v154h74q70 0 98 40q29 41 29 93v21h-133v297h297v-328q0 -57 -20 -104q-21 -50 -59 -88q-36 -36 -89 -61q-51 -24 -113 -24zM614 -317v-220h-655v220h655z" />
    <glyph glyph-name="quotesinglbase" unicode="&#x201a;" horiz-adv-x="557" 
d="M147 -307h-84v153h74q71 0 99 40t28 94v20h-133v297h297v-328q0 -56 -20 -103q-21 -50 -59 -88t-89 -62q-49 -23 -113 -23z" />
    <glyph glyph-name="quotedblleft" unicode="&#x201c;" horiz-adv-x="999" 
d="M821 1432h84v-154h-74q-70 0 -98 -40t-28 -93v-21h133v-297h-297v328q0 56 20 103q22 52 59 89q36 36 89 61q51 24 112 24zM401 1432h84v-154h-73q-71 0 -99 -40t-28 -93v-21h133v-297h-297v328q0 57 20 104q21 50 59 88q36 36 89 61q51 24 112 24z" />
    <glyph glyph-name="quotedblright" unicode="&#x201d;" horiz-adv-x="993" 
d="M188 829h-84v154h74q70 0 98 40q29 41 29 93v21h-133v297h297v-328q0 -57 -20 -104q-21 -50 -59 -88q-36 -36 -89 -61q-51 -24 -113 -24zM608 829h-84v154h74q70 0 98 40q29 41 29 93v21h-133v297h297v-328q0 -54 -21 -104q-22 -52 -58 -88t-89 -61q-51 -24 -113 -24z
" />
    <glyph glyph-name="quotedblbase" unicode="&#x201e;" horiz-adv-x="976" 
d="M567 -307h-84v153h74q70 0 98 40q29 41 29 94v20h-133v297h297v-328q0 -53 -21 -103q-22 -52 -58 -88q-38 -38 -89 -62q-49 -23 -113 -23zM147 -307h-84v153h74q71 0 99 40t28 94v20h-133v297h297v-328q0 -56 -20 -103q-21 -50 -59 -88t-89 -62q-49 -23 -113 -23z" />
    <glyph glyph-name="dagger" unicode="&#x2020;" horiz-adv-x="1085" 
d="M1126 -537h-1167v220h451v1249h-312v225h312v451h266v-451h311v-225h-311v-1249h450v-220z" />
    <glyph glyph-name="daggerdbl" unicode="&#x2021;" horiz-adv-x="1085" 
d="M1274 -537h-1315v220h451v593h-312v226h312v430h-312v225h312v451h266v-451h311v-225h-311v-430h311v-226h-311v-593h598v-220z" />
    <glyph glyph-name="bullet" unicode="&#x2022;" horiz-adv-x="1122" 
d="M561 297q-87 0 -163 33q-77 33 -134 90t-90 134q-33 76 -33 163t33 163q33 77 90 134t134 90t163 33q87 0 163 -33q77 -33 134 -90t90 -134t33 -163q0 -87 -33 -163q-33 -77 -90 -134t-134 -90q-76 -33 -163 -33zM1163 -317v-220h-1204v220h1204z" />
    <glyph glyph-name="ellipsis" unicode="&#x2026;" horiz-adv-x="1595" 
d="M1171 0v297h297v-297h-297zM649 0v297h297v-297h-297zM127 0v297h297v-297h-297zM1636 -317v-220h-1677v220h1677z" />
    <glyph glyph-name="perthousand" unicode="&#x2030;" horiz-adv-x="2412" 
d="M422 614q-94 0 -162 36q-66 35 -110 93q-42 55 -64 133q-20 71 -20 152q0 82 20 153q21 75 64 133q44 59 110 94q68 36 162 36t162 -36q66 -35 110 -94q43 -58 64 -133q20 -71 20 -153q0 -81 -20 -152q-22 -78 -64 -133q-44 -58 -110 -93q-68 -36 -162 -36zM418 803h8
q63 0 97 59t34 166q0 108 -34 167q-34 60 -97 60h-8q-62 0 -97 -60q-34 -59 -34 -167q0 -107 34 -166t97 -59zM1997 -10q-84 0 -143 25q-58 25 -103 71q-45 -46 -103 -71q-59 -25 -143 -25q-95 0 -162 36q-66 35 -110 93q-43 56 -64 132q-20 71 -20 152q0 82 20 153
q21 75 64 133q44 59 110 94q67 36 162 36q85 0 143 -26q59 -27 103 -72q44 45 103 72q58 26 143 26q95 0 162 -36q66 -35 110 -94q43 -58 64 -133q20 -71 20 -153q0 -81 -20 -152q-21 -76 -64 -132q-44 -58 -110 -93q-67 -36 -162 -36zM1501 178h8q63 0 98 60q33 57 33 165
q0 110 -33 167q-35 61 -98 61h-8q-62 0 -97 -61q-34 -59 -34 -167q0 -106 34 -165q34 -60 97 -60zM1993 178h8q63 0 97 60q34 59 34 165q0 108 -34 167q-35 61 -97 61h-8q-63 0 -98 -61q-33 -57 -33 -167q0 -108 33 -165q35 -60 98 -60zM2454 -317v-220h-1731v220h1731z
M-41 -537v220h258l1053 1751h239l-1183 -1971h-367z" />
    <glyph glyph-name="guilsinglleft" unicode="&#x2039;" horiz-adv-x="741" 
d="M670 143h-308l-296 441l296 440h308l-297 -440zM782 -317v-220h-823v220h823z" />
    <glyph glyph-name="guilsinglright" unicode="&#x203a;" horiz-adv-x="741" 
d="M379 143h-307l297 441l-297 440h307l297 -440zM782 -317v-220h-823v220h823z" />
    <glyph glyph-name="fraction" unicode="&#x2044;" horiz-adv-x="409" 
d="M-430 -537h-240l1182 1971h240zM793 -317v-220h-824v220h824z" />
    <glyph glyph-name="zero.superior" unicode="&#x2070;" horiz-adv-x="860" 
d="M430 840q-94 0 -162 36q-66 35 -110 93q-43 56 -64 132q-20 71 -20 152q0 82 20 153q21 75 64 133q44 59 110 94q68 36 162 36t162 -36q66 -35 110 -94q43 -58 64 -133q20 -71 20 -153q0 -81 -20 -152q-21 -76 -64 -132q-44 -58 -110 -93q-68 -36 -162 -36zM426 1028h8
q63 0 97 59t34 166q0 108 -34 167q-35 61 -97 61h-8q-62 0 -97 -61q-34 -59 -34 -167q0 -107 34 -166t97 -59zM901 -317v-220h-942v220h942z" />
    <glyph glyph-name="i.superior" unicode="&#x2071;" horiz-adv-x="405" 
d="M92 1505v154h221v-154h-221zM98 850v584h209v-584h-209zM446 -317v-220h-487v220h487z" />
    <glyph glyph-name="four.superior" unicode="&#x2074;" horiz-adv-x="831" 
d="M657 850h-198v127h-402v223l357 459h243v-510h109v-172h-109v-127zM459 1430l-215 -281h215v281zM872 -317v-220h-913v220h913z" />
    <glyph glyph-name="five.superior" unicode="&#x2075;" horiz-adv-x="780" 
d="M373 840q-129 0 -219 69q-92 70 -99 187h230q8 -32 33 -54t61 -22h8q41 0 69 31q27 30 27 69q0 42 -25 67t-67 25h-8q-21 0 -42 -9q-22 -9 -36 -25h-221l90 481h516v-180h-356l-29 -138q28 23 63 35q39 13 85 13q42 0 88 -17t80 -48q35 -32 57 -81q22 -48 22 -113
q0 -131 -92 -211q-91 -79 -235 -79zM821 -317v-220h-862v220h862z" />
    <glyph glyph-name="six.superior" unicode="&#x2076;" horiz-adv-x="808" 
d="M725 1122q0 -122 -87 -202q-88 -80 -224 -80q-155 0 -247 101q-93 102 -93 273q0 210 104 332q105 123 277 123q126 0 204 -70q77 -69 78 -174h-213q-6 28 -26 45q-22 19 -54 19h-12q-64 0 -104 -58q-42 -60 -49 -137q31 40 77 61t109 21q111 0 185 -71q75 -72 75 -183z
M307 1112q0 -37 28 -65q27 -27 68 -27h9q40 0 68 28t28 66q0 39 -28 64q-27 24 -68 24h-9q-39 0 -67 -25q-29 -26 -29 -65zM850 -317v-220h-891v220h891z" />
    <glyph glyph-name="seven.superior" unicode="&#x2077;" horiz-adv-x="704" 
d="M416 850h-232v27q0 163 61 320q60 154 173 278h-369v184h613v-160q-121 -121 -184 -280q-62 -156 -62 -332v-37zM745 -317v-220h-786v220h786z" />
    <glyph glyph-name="eight.superior" unicode="&#x2078;" horiz-adv-x="786" 
d="M395 840q-135 0 -219 62q-86 63 -86 159q0 67 39 116q38 49 102 70q-64 23 -109 73q-44 49 -44 128q0 99 94 160t223 61q130 0 222 -61q94 -62 94 -160q0 -79 -44 -128t-112 -73q64 -21 102 -70q39 -49 39 -116q0 -96 -84 -159q-83 -62 -217 -62zM494 1413q0 36 -29 56
t-66 20h-10q-36 0 -65 -20t-29 -56t29 -56t65 -20h10q37 0 66 20t29 56zM389 1165q-34 0 -57 -20q-25 -22 -25 -53q0 -33 25 -53q23 -19 57 -19h10q34 0 57 19t23 53q0 33 -23 53t-57 20h-10zM827 -317v-220h-868v220h868z" />
    <glyph glyph-name="nine.superior" unicode="&#x2079;" horiz-adv-x="811" 
d="M504 1397q0 37 -28 65q-27 27 -68 27h-9q-40 0 -68 -28t-28 -66q0 -39 28 -64q27 -24 68 -24h9q39 0 67 25q29 26 29 65zM86 1386q0 124 87 203q88 80 224 80q155 0 247 -101q93 -102 93 -274q0 -209 -104 -331q-105 -123 -277 -123q-128 0 -204 69t-78 174h213
q6 -28 26 -45q21 -18 54 -18h12q64 0 104 58q42 60 49 136q-30 -39 -77 -60q-46 -21 -109 -21q-111 0 -185 71q-75 72 -75 182zM852 -317v-220h-893v220h893z" />
    <glyph glyph-name="n.superior" unicode="&#x207f;" horiz-adv-x="790" 
d="M98 850v584h209v-82q30 52 81 72t95 20q116 0 166 -70q49 -68 49 -170v-354h-209v346q0 43 -20 64q-21 22 -55 22h-8q-39 0 -69 -27t-30 -73v-332h-209zM831 -317v-220h-872v220h872z" />
    <glyph glyph-name="zero.inferior" unicode="&#x2080;" horiz-adv-x="860" 
d="M430 -10q-94 0 -162 36q-66 35 -110 93q-43 56 -64 132q-20 71 -20 152q0 82 20 153q21 75 64 133q44 59 110 94q68 36 162 36t162 -36q66 -35 110 -94q43 -58 64 -133q20 -71 20 -153q0 -81 -20 -152q-21 -76 -64 -132q-44 -58 -110 -93q-68 -36 -162 -36zM426 178h8
q63 0 97 60q34 59 34 165q0 108 -34 167q-35 61 -97 61h-8q-62 0 -97 -61q-34 -59 -34 -167q0 -106 34 -165q35 -60 97 -60zM901 -317v-220h-942v220h942z" />
    <glyph glyph-name="one.inferior" unicode="&#x2081;" horiz-adv-x="616" 
d="M500 0h-215v524l-224 -184v258l256 211h183v-809zM657 -317v-220h-698v220h698z" />
    <glyph glyph-name="two.inferior" unicode="&#x2082;" horiz-adv-x="765" 
d="M684 0h-606v172l305 277q22 20 52 53q26 29 26 63q0 30 -22 52t-54 22h-8q-34 0 -58 -27q-25 -28 -26 -61h-219q8 123 99 195q93 73 220 73q68 0 122 -21q52 -20 91 -56t57 -76q19 -42 19 -86q0 -74 -36 -123q-36 -50 -83 -95l-194 -178h315v-184zM807 -317v-220h-848
v220h848z" />
    <glyph glyph-name="three.inferior" unicode="&#x2083;" horiz-adv-x="774" 
d="M375 -10q-124 0 -216 61q-93 61 -93 178h221q1 -26 27 -44q24 -17 59 -17h10q39 0 64 22q26 23 26 58q0 34 -26 54t-62 20h-76v172h76q38 0 59 20q23 21 23 53t-21 53t-57 21h-10q-32 0 -53 -17q-24 -19 -25 -40h-221q0 115 91 175q92 60 214 60q60 0 114 -15
q53 -15 96 -44q42 -28 68 -73q25 -43 25 -99q0 -59 -28 -107q-27 -47 -85 -71q60 -28 89 -78q30 -51 30 -113q0 -57 -27 -100q-26 -42 -72 -72q-42 -28 -102 -43q-55 -14 -118 -14zM815 -317v-220h-856v220h856z" />
    <glyph glyph-name="four.inferior" unicode="&#x2084;" horiz-adv-x="831" 
d="M657 0h-198v127h-402v223l357 459h243v-510h109v-172h-109v-127zM459 580l-215 -281h215v281zM872 -317v-220h-913v220h913z" />
    <glyph glyph-name="five.inferior" unicode="&#x2085;" horiz-adv-x="780" 
d="M373 -12q-129 0 -219 69q-92 70 -99 187h230q8 -32 33 -54t61 -22h8q41 0 69 31q27 30 27 69q0 42 -25 67t-67 25h-8q-21 0 -42 -9q-22 -9 -36 -25h-221l90 481h516v-180h-356l-29 -138q28 23 63 35q39 13 85 13q42 0 88 -17t80 -48q35 -32 57 -81q22 -48 22 -112
q0 -132 -92 -212q-91 -79 -235 -79zM821 -317v-220h-862v220h862z" />
    <glyph glyph-name="six.inferior" unicode="&#x2086;" horiz-adv-x="808" 
d="M725 272q0 -123 -87 -202q-88 -80 -224 -80q-155 0 -247 101q-93 102 -93 274q0 209 104 331q105 123 277 123q127 0 204 -69q76 -69 78 -175h-213q-7 29 -26 46q-21 18 -54 18h-12q-64 0 -104 -58q-42 -60 -49 -137q31 40 77 61t109 21q111 0 185 -71q75 -72 75 -183z
M307 262q0 -37 28 -65q27 -27 68 -27h9q40 0 68 28t28 66q0 39 -28 64q-27 24 -68 24h-9q-39 0 -67 -25q-29 -26 -29 -65zM850 -317v-220h-891v220h891z" />
    <glyph glyph-name="seven.inferior" unicode="&#x2087;" horiz-adv-x="704" 
d="M416 0h-232v27q0 163 61 320q60 154 173 278h-369v184h613v-160q-121 -121 -184 -280q-62 -156 -62 -332v-37zM745 -317v-220h-786v220h786z" />
    <glyph glyph-name="eight.inferior" unicode="&#x2088;" horiz-adv-x="786" 
d="M395 -14q-135 0 -219 62q-86 63 -86 159q0 67 39 116q38 49 102 70q-64 23 -109 73q-44 49 -44 128q0 99 94 160t223 61q130 0 222 -61q94 -62 94 -160q0 -79 -44 -128t-112 -73q64 -21 102 -70q39 -49 39 -116q0 -96 -84 -159q-83 -62 -217 -62zM494 559q0 36 -29 56
t-66 20h-10q-36 0 -65 -20t-29 -56t29 -56t65 -20h10q37 0 66 20t29 56zM389 311q-34 0 -57 -20q-25 -22 -25 -53q0 -33 25 -53q23 -19 57 -19h10q34 0 57 19t23 53q0 33 -23 53t-57 20h-10zM827 -317v-220h-868v220h868z" />
    <glyph glyph-name="nine.inferior" unicode="&#x2089;" horiz-adv-x="811" 
d="M504 545q0 37 -28 65q-27 27 -68 27h-9q-40 0 -68 -28t-28 -66q0 -39 28 -64q27 -24 68 -24h9q39 0 67 25q29 26 29 65zM86 535q0 123 87 202q88 80 224 80q155 0 247 -101q93 -102 93 -274q0 -209 -104 -331q-105 -123 -277 -123q-128 0 -204 69t-78 174h213
q6 -28 26 -45q21 -18 54 -18h12q64 0 104 58q42 60 49 136q-30 -39 -77 -60t-109 -21q-111 0 -185 71q-75 72 -75 183zM852 -317v-220h-893v220h893z" />
    <glyph glyph-name="a.inferior" unicode="&#x2090;" horiz-adv-x="702" 
d="M254 186q0 -24 15 -36q16 -13 42 -13h8q35 0 66 26t31 75v20l-113 -20q-20 -4 -35 -18q-14 -13 -14 -34zM434 0l-2 12q-1 12 -2 19q0 3 -1.5 18.5t-2.5 24.5q-35 -43 -77 -63q-43 -21 -101 -21q-82 0 -136 48q-55 49 -55 130q0 87 67 127q65 38 155 49l133 16v19
q0 31 -18 49t-48 18h-8q-27 0 -45 -9q-19 -10 -25 -36h-190q5 88 73 140q70 53 195 53q118 0 190 -57t72 -146v-262q0 -14 2 -62q2 -37 6 -67h-182zM743 -317v-220h-784v220h784z" />
    <glyph glyph-name="e.inferior" unicode="&#x2091;" horiz-adv-x="722" 
d="M256 250q4 -51 33 -81t76 -30h8q38 0 62 15t28 36h194q-7 -83 -87 -142q-79 -58 -201 -58q-134 0 -222 82t-88 215q0 135 84 221t219 86q136 0 217 -86q80 -84 80 -213v-27q0 -8 -2 -18h-401zM256 346h205q-2 48 -29 72t-65 24h-9q-38 0 -68 -24q-29 -23 -34 -72z
M764 -317v-220h-805v220h805z" />
    <glyph glyph-name="o.inferior" unicode="&#x2092;" horiz-adv-x="749" 
d="M375 594q147 0 231 -88q84 -89 84 -215q0 -127 -84 -214t-231 -87q-148 0 -232 87t-84 214t84 215t232 88zM379 430h-8q-48 0 -75 -37q-28 -39 -28 -102q0 -65 28 -102q26 -35 75 -35h8q49 0 75 35q27 36 27 102q0 65 -27 102t-75 37zM791 -317v-220h-832v220h832z" />
    <glyph glyph-name="x.inferior" unicode="&#x2093;" horiz-adv-x="718" 
d="M469 0l-111 147l-110 -147h-217l219 293l-217 291h219l108 -146l109 146h217l-217 -289l219 -295h-219zM760 -317v-220h-801v220h801z" />
    <glyph glyph-name="h.inferior" unicode="&#x2095;" horiz-adv-x="790" 
d="M307 332v-332h-209v809h209v-307q30 52 81 72t95 20q116 0 166 -70q49 -68 49 -170v-354h-209v346q0 43 -20 64q-21 22 -55 22h-8q-40 0 -69 -26q-30 -27 -30 -74zM831 -317v-220h-872v220h872z" />
    <glyph glyph-name="k.inferior" unicode="&#x2096;" horiz-adv-x="761" 
d="M500 0l-138 211l-59 -61v-150h-205v809h205v-399l166 174h256l-223 -230l235 -354h-237zM803 -317v-220h-844v220h844z" />
    <glyph glyph-name="l.inferior" unicode="&#x2097;" horiz-adv-x="405" 
d="M98 0v809h209v-809h-209zM446 -317v-220h-487v220h487z" />
    <glyph glyph-name="m.inferior" unicode="&#x2098;" horiz-adv-x="1185" 
d="M98 0v584h209v-78q30 44 76 66q47 22 109 22q58 0 108 -26q49 -25 76 -76q32 50 86 76t123 26q102 0 155 -62q54 -63 54 -155v-377h-209v334q0 48 -22 73q-20 23 -58 23h-8q-43 0 -70 -27t-27 -71v-332h-208v334q0 48 -22 73q-20 23 -58 23h-9q-42 0 -69 -27t-27 -71
v-332h-209zM1227 -317v-220h-1268v220h1268z" />
    <glyph glyph-name="n.inferior" unicode="&#x2099;" horiz-adv-x="790" 
d="M98 0v584h209v-82q30 52 81 72t95 20q116 0 166 -70q49 -68 49 -170v-354h-209v346q0 43 -20 64q-21 22 -55 22h-8q-40 0 -69 -26q-30 -27 -30 -74v-332h-209zM831 -317v-220h-872v220h872z" />
    <glyph glyph-name="p.inferior" unicode="&#x209a;" horiz-adv-x="808" 
d="M301 293q0 -62 34 -100q35 -39 89 -39q49 0 82 39t33 100t-33 99t-82 38q-54 0 -89 -38q-34 -37 -34 -99zM483 594q107 0 186 -78t79 -223t-79 -224t-186 -79q-70 0 -114 25t-68 57v-297h-203v809h209v-72q23 30 65 56q43 26 111 26zM-41 -537v220h891v-220h-891z" />
    <glyph glyph-name="s.inferior" unicode="&#x209b;" horiz-adv-x="686" 
d="M55 197h203q1 -28 22 -50q19 -20 58 -20h8q27 0 45 12q19 13 19 33q0 18 -12 29q-11 10 -31 14l-138 29q-59 12 -105 49t-46 113q0 101 82 144q83 44 182 44q148 0 212 -55q65 -56 73 -148h-199q-1 33 -19 49q-19 17 -53 17h-10q-23 0 -45 -11q-20 -10 -20 -30
q0 -15 11 -25q12 -11 27 -12l148 -33q70 -15 107 -49q38 -35 38 -111q0 -53 -23 -89t-62 -61q-34 -22 -88 -35q-45 -11 -101 -11q-136 0 -206 50q-69 50 -77 157zM727 -317v-220h-768v220h768z" />
    <glyph glyph-name="t.inferior" unicode="&#x209c;" horiz-adv-x="575" 
d="M512 172v-172h-176q-92 0 -137 45t-45 137v234h-115v168h115v184h208v-184h132v-168h-132v-164q0 -50 16 -66q14 -14 66 -14h68zM616 -317v-220h-657v220h657z" />
    <glyph glyph-name="Euro" unicode="&#x20ac;" horiz-adv-x="1439" 
d="M1346 451q-27 -214 -170 -342q-144 -129 -351 -129q-179 0 -306 96q-128 97 -191 262l-236 -53v225l180 41q-1 17 -5 60q-4 41 -5 65l-170 -37v225l184 41q40 248 186 400q143 149 363 149q205 0 347 -129q144 -131 174 -342h-273q-16 104 -81 170q-64 66 -158 66h-17
q-93 0 -160 -67q-66 -66 -96 -183l352 78v-226l-381 -84v-10v-10q0 -18 2 -54q0 -9 1 -27.5t2 -27.5l290 66v-225l-241 -54q35 -87 93 -133q59 -47 138 -47h17q94 0 158 66q65 66 81 170h273zM1481 -317v-220h-1522v220h1522z" />
    <glyph glyph-name="uni2105" unicode="&#x2105;" horiz-adv-x="1492" 
d="M-129 -537l1182 1971h239l-1181 -1971h-240zM375 911q-135 0 -227 75q-91 75 -91 226q0 152 91 228t227 76q147 0 211 -73q63 -72 71 -159h-206q-5 28 -24 48q-20 20 -58 20h-9q-52 0 -73 -43t-21 -97q0 -53 21 -95t73 -42h9q38 0 58 17q19 16 24 45h206q-7 -84 -71 -155
q-63 -71 -211 -71zM1122 584q148 0 232 -88t84 -215t-84 -214t-232 -87q-147 0 -231 87t-84 214t84 215t231 88zM1126 420h-8q-48 0 -75 -37t-27 -102q0 -66 27 -102t75 -36h8q48 0 75 36q28 37 28 102q0 63 -28 102q-27 37 -75 37zM1534 -317v-220h-1026v220h1026z" />
    <glyph glyph-name="afii61289" unicode="&#x2113;" horiz-adv-x="944" 
d="M772 0h-317q-107 0 -161 54t-54 161v139l-154 -94v277l154 92v475q0 168 85 259t234 91q86 0 148 -34q63 -34 106 -88q44 -54 65 -124q21 -69 21 -141q0 -144 -84 -277q-86 -136 -231 -225l-78 -47v-201q0 -46 17 -63q18 -18 63 -18h186v-236zM506 1137v-349
q81 56 104 128t23 137q0 96 -22 132q-21 34 -56 34q-24 0 -37 -19q-12 -18 -12 -63zM985 -317v-220h-1026v220h1026z" />
    <glyph glyph-name="afii61352" unicode="&#x2116;" horiz-adv-x="2248" 
d="M1841 1444q148 0 232 -88t84 -215t-84 -214t-232 -87q-147 0 -231 87t-84 214t84 215t231 88zM1845 1280h-8q-48 0 -75 -37t-27 -102q0 -66 27 -102q26 -35 75 -35h8q49 0 75 35q28 37 28 102q0 63 -28 102q-27 37 -75 37zM1014 0l-563 1055v-1055h-277v1434h358
l564 -1051v1051h276v-1434h-358zM2146 553h-590v164h590v-164zM2290 -317v-220h-2331v220h2331z" />
    <glyph glyph-name="uni2117" unicode="&#x2117;" horiz-adv-x="1781" 
d="M891 -80q-161 0 -309 64q-145 63 -254 172t-172 254q-64 148 -64 309t64 310q61 143 172 254q108 108 254 171q148 64 309 64t310 -64q145 -62 254 -171t171 -254q64 -149 64 -310t-64 -309q-63 -146 -171 -254q-110 -111 -254 -172q-149 -64 -310 -64zM891 98
q126 0 236 49q113 50 195 134q84 86 131 197q48 114 48 241q0 126 -48 240q-48 113 -131 198q-80 82 -195 133q-110 49 -236 49q-127 0 -237 -49q-113 -50 -194 -133q-83 -85 -131 -198q-48 -114 -48 -240q0 -127 48 -241q47 -111 131 -197q83 -84 194 -134q110 -49 237 -49
zM629 334v780h375q128 0 197 -77q69 -76 69 -187q0 -110 -69 -184t-197 -74h-160v-258h-215zM844 768h137q31 0 53 22q21 21 21 60t-23 60q-24 22 -55 22h-133v-164zM1823 -317v-220h-1864v220h1864z" />
    <glyph glyph-name="trademark" unicode="&#x2122;" horiz-adv-x="1994" 
d="M330 655v574h-256v205h747v-205h-256v-574h-235zM1327 655l-164 428v-428h-231v779h311l148 -396l143 396h311v-779h-231v414l-156 -414h-131zM2036 -317v-220h-2077v220h2077z" />
    <glyph glyph-name="onethird" unicode="&#x2153;" horiz-adv-x="1880" 
d="M504 625h-215v524l-223 -184v258l256 211h182v-809zM1485 -10q-124 0 -216 61q-93 61 -93 178h221q1 -26 27 -44q24 -17 59 -17h10q40 0 65 22t25 58q0 35 -25 54q-26 20 -63 20h-76v172h76q38 0 59 20q23 21 23 53t-21 53t-57 21h-10q-32 0 -53 -17q-24 -19 -25 -40
h-221q0 115 91 175t214 60q60 0 114 -15q53 -15 96 -44q42 -28 68 -73q25 -43 25 -99q0 -59 -28 -107q-27 -47 -84 -71q58 -28 88 -78q30 -51 30 -113q0 -57 -27 -100q-26 -42 -72 -72q-42 -28 -102 -43q-55 -14 -118 -14zM1921 -317v-220h-1251v220h1251zM-41 -537v220h203
l1052 1751h240l-1184 -1971h-311z" />
    <glyph glyph-name="twothirds" unicode="&#x2154;" horiz-adv-x="1966" 
d="M698 625h-606v172l305 276q27 24 53 53q25 28 25 64q0 31 -21 52q-22 22 -55 22h-8q-33 0 -57 -27q-26 -29 -27 -61h-219q8 123 99 195q93 73 221 73q64 0 121 -22q56 -22 92 -55q37 -34 56 -77q19 -42 19 -86q0 -74 -36 -123t-82 -94l-195 -178h315v-184zM1573 -10
q-124 0 -216 61q-93 61 -93 178h221q1 -26 27 -44q24 -17 59 -17h10q40 0 65 22t25 58q0 35 -25 54q-26 20 -63 20h-76v172h76q38 0 59 20q23 21 23 53q0 33 -20 53q-21 21 -58 21h-10q-32 0 -53 -17q-24 -19 -25 -40h-221q0 115 91 175t214 60q60 0 114 -15q53 -15 96 -44
q42 -28 68 -73q25 -43 25 -99q0 -60 -27 -107t-85 -71q58 -28 88 -78q30 -51 30 -113q0 -57 -27 -100q-26 -42 -72 -72q-42 -28 -102 -43q-55 -14 -118 -14zM2007 -317v-220h-1229v220h1229zM-41 -537v220h311l1053 1751h240l-1184 -1971h-420z" />
    <glyph glyph-name="uni2155" unicode="&#x2155;" horiz-adv-x="1894" 
d="M504 625h-215v524l-223 -184v258l256 211h182v-809zM1477 -10q-130 0 -220 69t-98 187h230q8 -31 33 -53q26 -23 61 -23h8q41 0 69 31q27 30 27 69q0 42 -25 67t-67 25h-8q-21 0 -42 -9q-22 -9 -36 -25h-221l90 481h516v-180h-356l-29 -137q27 22 62 34q39 13 85 13
q43 0 89 -17q44 -16 79 -48q36 -33 58 -81t22 -112q0 -132 -92 -212q-91 -79 -235 -79zM1935 -317v-220h-1251v220h1251zM-41 -537v220h217l1053 1751h239l-1183 -1971h-326z" />
    <glyph glyph-name="uni2156" unicode="&#x2156;" horiz-adv-x="1996" 
d="M698 627h-606v172l305 276q27 24 53 53q25 28 25 64q0 31 -21 52q-22 22 -55 22h-8q-33 0 -57 -27q-26 -29 -27 -61h-219q8 123 99 195q93 73 221 73q64 0 121 -22q56 -22 92 -55q37 -34 56 -77q19 -42 19 -86q0 -74 -36 -123t-82 -94l-195 -178h315v-184zM1581 -10
q-129 0 -219 69t-98 187h229q7 -30 34 -53q26 -23 60 -23h8q41 0 69 31t28 69q0 41 -26 67q-25 25 -67 25h-8q-21 0 -42 -9q-22 -9 -36 -25h-221l90 481h516v-180h-356l-29 -137q26 22 63 34q39 13 85 13q42 0 88 -17t80 -48q35 -32 57 -81q23 -51 23 -112q0 -132 -92 -212
q-91 -79 -236 -79zM2038 -317v-220h-1250v220h1250zM-41 -537v220h322l1052 1751h240l-1184 -1971h-430z" />
    <glyph glyph-name="uni2157" unicode="&#x2157;" horiz-adv-x="2000" 
d="M377 614q-122 0 -216 62q-93 62 -93 178h221q1 -26 27 -44q24 -17 59 -17h10q40 0 65 22t25 57q0 36 -25 55t-63 19h-76v172h76q37 0 59 21q23 21 23 53t-20 52q-22 22 -58 22h-10q-31 0 -53 -18q-24 -19 -25 -40h-221q0 115 91 175q93 61 214 61q56 0 114 -16
q53 -15 96 -44t68 -72t25 -100q0 -60 -27 -106q-28 -48 -85 -72q58 -28 88 -78q30 -51 30 -112q0 -58 -27 -101q-25 -40 -72 -71q-42 -28 -102 -43q-59 -15 -118 -15zM1585 -10q-129 0 -219 69t-98 187h229q7 -30 34 -53q26 -23 60 -23h8q41 0 69 31t28 69q0 41 -26 67
q-25 25 -66 25h-9q-21 0 -42 -9q-20 -9 -35 -25h-222l90 481h517v-180h-357l-28 -137q27 22 62 34q39 13 85 13q42 0 88 -17t80 -48q35 -32 57 -81q23 -51 23 -112q0 -132 -92 -212q-91 -79 -236 -79zM2042 -317v-220h-1249v220h1249zM-41 -537v220h326l1052 1751h240
l-1184 -1971h-434z" />
    <glyph glyph-name="uni2158" unicode="&#x2158;" horiz-adv-x="2050" 
d="M664 627h-199v127h-402v223l357 459h244v-510h108v-172h-108v-127zM465 1206l-215 -280h215v280zM1632 -10q-129 0 -219 69t-98 187h229q7 -30 34 -53q26 -23 60 -23h9q40 0 68 31t28 69q0 41 -26 67q-25 25 -66 25h-9q-20 0 -41 -9q-22 -9 -36 -25h-222l91 481h516v-180
h-357l-28 -137q27 22 62 34q39 13 85 13q42 0 88 -17t80 -48q34 -32 57 -81q23 -51 23 -112q0 -132 -92 -212q-91 -79 -236 -79zM2091 -317v-220h-1251v220h1251zM-41 -537v220h373l1052 1751h240l-1184 -1971h-481z" />
    <glyph glyph-name="uni2159" unicode="&#x2159;" horiz-adv-x="1878" 
d="M504 625h-215v524l-223 -184v258l256 211h182v-809zM1794 272q0 -123 -87 -202q-88 -80 -224 -80q-155 0 -247 101q-93 102 -93 274q0 209 104 331q105 123 277 123q128 0 205 -69q75 -68 77 -175h-213q-7 29 -26 46q-21 18 -54 18h-12q-64 0 -104 -58q-42 -60 -49 -137
q31 40 77 61q47 21 109 21q111 0 185 -71q75 -72 75 -183zM1376 262q0 -37 28 -65q27 -27 69 -27h8q40 0 68 28t28 66q0 39 -28 64q-27 24 -68 24h-8q-40 0 -68 -25q-29 -26 -29 -65zM1919 -317v-220h-1245v220h1245zM-41 -537v220h207l1053 1751h239l-1184 -1971h-315z" />
    <glyph glyph-name="uni215A" unicode="&#x215a;" horiz-adv-x="1970" 
d="M379 612q-128 0 -219 70q-92 70 -99 186h230q7 -30 34 -53q25 -22 60 -22h8q42 0 69 30t27 70q0 41 -25 66q-26 26 -67 26h-8q-21 0 -42 -9q-20 -9 -36 -26h-221l90 482h516v-181h-356l-29 -137q28 23 63 35q36 12 85 12q44 0 88 -16q46 -17 80 -48q35 -31 57 -81
q23 -51 23 -113q0 -131 -93 -212q-91 -79 -235 -79zM1884 272q0 -123 -87 -202q-88 -80 -224 -80q-155 0 -247 101q-93 102 -93 274q0 209 104 331q105 123 277 123q128 0 205 -69q75 -68 77 -175h-213q-7 29 -26 46q-21 18 -53 18h-13q-64 0 -104 -58q-42 -60 -49 -137
q30 39 78 61q46 21 108 21q111 0 185 -71q75 -72 75 -183zM1466 262q0 -37 28 -65q27 -27 69 -27h8q40 0 68 28t28 66q0 39 -28 64q-27 24 -68 24h-8q-40 0 -68 -25q-29 -26 -29 -65zM2011 -317v-220h-1247v220h1247zM-41 -537v220h297l1053 1751h239l-1183 -1971h-406z" />
    <glyph glyph-name="oneeighth" unicode="&#x215b;" horiz-adv-x="1898" 
d="M504 625h-215v524l-223 -184v258l256 211h182v-809zM1511 -20q-135 0 -219 62q-86 63 -86 159q0 65 39 115t103 71q-65 24 -110 73q-44 49 -44 128q0 99 94 160t223 61q131 0 223 -61q93 -62 93 -160q0 -79 -44 -128t-112 -73q64 -21 103 -71q38 -48 38 -115
q0 -97 -83 -159t-218 -62zM1610 553q0 36 -29 56t-65 20h-11q-36 0 -65 -20t-29 -56t29 -56t65 -20h11q36 0 65 20t29 56zM1505 305q-34 0 -57 -20q-25 -22 -25 -54t25 -52q23 -19 57 -19h11q33 0 56 19t23 52q0 34 -23 54t-56 20h-11zM1939 -317v-220h-1265v220h1265z
M-41 -537v220h207l1053 1751h239l-1184 -1971h-315z" />
    <glyph glyph-name="threeeighths" unicode="&#x215c;" horiz-adv-x="2002" 
d="M377 614q-122 0 -216 62q-93 62 -93 178h221q1 -26 27 -44q24 -17 59 -17h10q40 0 65 22t25 57q0 36 -25 55t-63 19h-76v172h76q37 0 59 21q23 21 23 53t-20 52q-22 22 -58 22h-10q-31 0 -53 -18q-24 -19 -25 -40h-221q0 115 91 175q93 61 214 61q56 0 114 -16
q53 -15 96 -44t68 -72t25 -100q0 -60 -27 -106q-28 -48 -85 -72q58 -28 88 -78q30 -51 30 -112q0 -58 -27 -101q-25 -40 -72 -71q-42 -28 -102 -43q-59 -15 -118 -15zM1618 -20q-135 0 -219 62q-86 63 -86 159q0 65 39 115q40 50 102 71q-64 23 -109 73t-45 128q0 98 95 160
q94 61 223 61q130 0 222 -61q93 -62 93 -160q0 -79 -44 -128q-45 -49 -111 -73q62 -21 102 -71q39 -49 39 -115q0 -96 -84 -159q-83 -62 -217 -62zM1716 553q0 37 -28 56q-29 20 -66 20h-10q-37 0 -66 -20q-28 -19 -28 -56t28 -56q29 -20 66 -20h10q37 0 66 20q28 19 28 56z
M1612 305q-35 0 -58 -20q-24 -21 -24 -54t24 -52q23 -19 58 -19h10q33 0 56 19q24 20 24 52q0 33 -24 54q-23 20 -56 20h-10zM2044 -317v-220h-1264v220h1264zM-41 -537v220h313l1053 1751h240l-1184 -1971h-422z" />
    <glyph glyph-name="fiveeighths" unicode="&#x215d;" horiz-adv-x="2007" 
d="M381 612q-128 0 -219 70q-92 70 -99 186h230q7 -30 34 -53q25 -22 60 -22h8q42 0 69 30q28 31 28 70q0 40 -26 66t-67 26h-8q-21 0 -42 -9q-20 -9 -36 -26h-221l90 482h516v-181h-356l-29 -137q28 23 63 35q36 12 85 12q44 0 88 -16q46 -17 80 -48q35 -31 57 -81
q23 -51 23 -113q0 -131 -93 -212q-91 -79 -235 -79zM1616 -20q-135 0 -219 62q-86 63 -86 159q0 65 39 115q40 50 102 71q-65 24 -110 73q-44 49 -44 128q0 98 95 160q94 61 223 61q130 0 222 -61q93 -62 93 -160q0 -79 -44 -128q-45 -49 -111 -73q62 -21 102 -71
q39 -49 39 -115q0 -96 -84 -159q-83 -62 -217 -62zM1714 553q0 36 -29 56t-65 20h-10q-37 0 -66 -20q-28 -19 -28 -56t28 -56q29 -20 66 -20h10q36 0 65 20t29 56zM1610 305q-35 0 -58 -20q-24 -21 -24 -54t24 -52q23 -19 58 -19h10q33 0 56 19q24 20 24 52q0 33 -24 54
q-23 20 -56 20h-10zM2048 -317v-220h-1270v220h1270zM-41 -537v220h311l1053 1751h240l-1184 -1971h-420z" />
    <glyph glyph-name="seveneighths" unicode="&#x215e;" horiz-adv-x="1843" 
d="M428 627h-231v26q0 167 60 321q59 153 173 277h-369v185h613v-160q-120 -120 -184 -281q-62 -156 -62 -331v-37zM1452 -20q-135 0 -219 62q-86 63 -86 159q0 65 39 115q40 50 102 71q-64 23 -109 73q-44 49 -44 128q0 99 94 160t223 61q130 0 222 -61q93 -62 93 -160
q0 -79 -44 -128q-45 -49 -111 -73q62 -21 102 -71q39 -49 39 -115q0 -96 -84 -159q-83 -62 -217 -62zM1550 553q0 37 -28 56q-29 20 -66 20h-10q-37 0 -66 -20q-28 -19 -28 -56t28 -56q29 -20 66 -20h10q37 0 66 20q28 19 28 56zM1446 305q-34 0 -57 -20q-25 -22 -25 -54
t25 -52q23 -19 57 -19h10q33 0 56 19q24 20 24 52q0 33 -24 54q-23 20 -56 20h-10zM1884 -317v-220h-1270v220h1270zM-41 -537v220h147l1053 1751h240l-1184 -1971h-256z" />
    <glyph glyph-name="uni215F" unicode="&#x215f;" horiz-adv-x="1427" 
d="M487 625h-215v524l-223 -184v258l256 211h182v-809zM1481 -317v-220h-826v220h826zM-41 -537v220h188l1053 1751h240l-1184 -1971h-297z" />
    <glyph glyph-name="uni2160" unicode="&#x2160;" horiz-adv-x="1024" 
d="M98 0v215h281v1004h-281v215h828v-215h-281v-1004h281v-215h-828zM1065 -317v-220h-1106v220h1106z" />
    <glyph glyph-name="uni2161" unicode="&#x2161;" horiz-adv-x="1607" 
d="M98 0v215h281v1004h-281v215h1411v-215h-280v-1004h280v-215h-1411zM645 215h318v1004h-318v-1004zM1649 -317v-220h-1690v220h1690z" />
    <glyph glyph-name="uni2162" unicode="&#x2162;" horiz-adv-x="2191" 
d="M98 0v215h281v1004h-281v215h1995v-215h-281v-1004h281v-215h-1995zM645 215h318v1004h-318v-1004zM1229 215h317v1004h-317v-1004zM2232 -317v-220h-2273v220h2273z" />
    <glyph glyph-name="uni2163" unicode="&#x2163;" horiz-adv-x="2217" 
d="M653 215h477l-303 1004h-174v-1004zM106 0v215h281v1004h-281v215h1182v-215h-194l292 -994l316 994h-201v215h656v-215h-195l-326 -1004h254v-215h-1784zM2259 -317v-220h-2300v220h2300z" />
    <glyph glyph-name="uni2164" unicode="&#x2164;" horiz-adv-x="1648" 
d="M1321 0h-1014v215h254l-303 1004h-197v215h658v-215h-195l293 -994l316 994h-201v215h655v-215h-194l-326 -1004h254v-215zM1690 -317v-220h-1731v220h1731z" />
    <glyph glyph-name="uni2165" unicode="&#x2165;" horiz-adv-x="2215" 
d="M1563 215v1004h-170l-326 -1004h496zM307 0v215h254l-303 1004h-197v215h658v-215h-195l293 -994l316 994h-201v215h1177v-215h-280v-1004h280v-215h-1802zM2257 -317v-220h-2298v220h2298z" />
    <glyph glyph-name="uni2166" unicode="&#x2166;" horiz-adv-x="2799" 
d="M1563 215v1004h-170l-326 -1004h496zM1829 215h317v1004h-317v-1004zM307 0v215h254l-303 1004h-197v215h658v-215h-195l293 -994l316 994h-201v215h1761v-215h-280v-1004h280v-215h-2386zM2841 -317v-220h-2882v220h2882z" />
    <glyph glyph-name="uni2167" unicode="&#x2167;" horiz-adv-x="3383" 
d="M1563 215v1004h-170l-326 -1004h496zM1829 215h317v1004h-317v-1004zM2413 215h317v1004h-317v-1004zM307 0v215h254l-303 1004h-197v215h658v-215h-195l293 -994l316 994h-201v215h2345v-215h-281v-1004h281v-215h-2970zM3424 -317v-220h-3465v220h3465z" />
    <glyph glyph-name="uni2168" unicode="&#x2168;" horiz-adv-x="2113" 
d="M645 215h123l387 506l-381 498h-129v-1004zM1303 911l233 308h-469zM1542 215l-246 322l-245 -322h491zM98 0v215h281v1004h-281v215h1905v-215h-184l-375 -492l391 -512h188v-215h-1925zM2154 -317v-220h-2195v220h2195z" />
    <glyph glyph-name="uni2169" unicode="&#x2169;" horiz-adv-x="1634" 
d="M1544 0h-1454v215h199l387 506l-381 498h-184v215h1413v-215h-185l-374 -492l391 -512h188v-215zM823 911l234 308h-469zM1063 215l-246 322l-246 -322h492zM1675 -317v-220h-1716v220h1716z" />
    <glyph glyph-name="uni216C" unicode="&#x216c;" horiz-adv-x="1429" 
d="M98 0v215h281v1004h-281v215h828v-215h-281v-1004h440v338h267v-553h-1254zM1470 -317v-220h-1511v220h1511z" />
    <glyph glyph-name="uni216D" unicode="&#x216d;" horiz-adv-x="1542" 
d="M1145 0v139q-77 -85 -187 -122t-221 -37q-138 0 -256 50q-113 48 -201 145q-86 95 -133 233t-47 309t53 309q53 139 142 232q93 97 212 146q123 50 261 50q107 0 209 -36q104 -37 178 -111v127h256v-471h-244q-18 68 -57 121q-38 51 -88 86q-49 34 -103 52
q-51 17 -106 17h-20q-195 0 -311 -138q-115 -137 -115 -376q0 -250 112 -390t309 -140h21q107 0 203 69q95 68 145 207h244v-471h-256zM1583 -317v-220h-1624v220h1624z" />
    <glyph glyph-name="uni216E" unicode="&#x216e;" horiz-adv-x="1642" 
d="M379 215v1004h-281v215h746q152 0 282 -50q133 -51 222 -140q93 -93 143 -223q51 -132 51 -298q0 -170 -51 -305q-52 -137 -143 -228t-222 -141q-128 -49 -282 -49h-746v215h281zM645 215h178q217 0 335 121t118 389q0 258 -118 376t-335 118h-178v-1004zM1683 -317v-220
h-1724v220h1724z" />
    <glyph glyph-name="uni216F" unicode="&#x216f;" horiz-adv-x="2275" 
d="M778 215v-215h-680v215h281v1004h-281v215h711l338 -1084l334 1084h696v-215h-281v-1004h281v-215h-680v215h137v909l-362 -1124h-271l-360 1143v-928h137zM2316 -317v-220h-2357v220h2357z" />
    <glyph glyph-name="uni2190" unicode="&#x2190;" horiz-adv-x="1648" 
d="M872 262l-178 -180l-637 637l637 633l178 -181l-327 -319h1026v-270h-1026zM1690 -317v-220h-1731v220h1731z" />
    <glyph glyph-name="uni2191" unicode="&#x2191;" horiz-adv-x="1404" 
d="M248 698l-180 179l637 636l632 -636l-180 -179l-319 328v-1026h-271v1026zM1446 -317v-220h-1487v220h1487z" />
    <glyph glyph-name="uni2192" unicode="&#x2192;" horiz-adv-x="1648" 
d="M950 82l-178 180l328 320h-1026v270h1026l-328 319l178 181l637 -633zM1690 -317v-220h-1731v220h1731z" />
    <glyph glyph-name="uni2193" unicode="&#x2193;" horiz-adv-x="1404" 
d="M1157 735l180 -178l-637 -637l-632 637l180 178l319 -327v1026h271v-1026zM1446 -317v-220h-1487v220h1487z" />
    <glyph glyph-name="uni2196" unicode="&#x2196;" horiz-adv-x="1361" 
d="M1030 1434v-254h-455l723 -719l-192 -193l-719 723v-454h-254v897h897zM1403 -317v-220h-1444v220h1444z" />
    <glyph glyph-name="uni2197" unicode="&#x2197;" horiz-adv-x="1361" 
d="M332 1180v254h897v-897h-254v454l-719 -723l-193 193l723 719h-454zM1403 -317v-220h-1444v220h1444z" />
    <glyph glyph-name="uni2198" unicode="&#x2198;" horiz-adv-x="1361" 
d="M332 -2v254h454l-723 719l193 192l719 -723v455h254v-897h-897zM1403 -317v-220h-1444v220h1444z" />
    <glyph glyph-name="uni2199" unicode="&#x2199;" horiz-adv-x="1361" 
d="M1030 252v-254h-897v897h254v-455l719 723l192 -192l-723 -719h455zM1403 -317v-220h-1444v220h1444z" />
    <glyph glyph-name="uni21A4" unicode="&#x21a4;" horiz-adv-x="1751" 
d="M700 82l-637 637l637 633l179 -181l-328 -319h756v379h270v-1028h-270v379h-756l328 -320zM1792 -317v-220h-1833v220h1833z" />
    <glyph glyph-name="uni21A5" unicode="&#x21a5;" horiz-adv-x="1445" 
d="M1237 0h-1028v270h379v756l-320 -328l-180 179l633 636l637 -636l-180 -179l-320 328v-756h379v-270zM1487 -317v-220h-1528v220h1528z" />
    <glyph glyph-name="uni21A6" unicode="&#x21a6;" horiz-adv-x="1751" 
d="M1051 82l-179 180l328 320h-756v-379h-270v1028h270v-379h756l-328 319l179 181l637 -633zM1792 -317v-220h-1833v220h1833z" />
    <glyph glyph-name="uni21A7" unicode="&#x21a7;" horiz-adv-x="1445" 
d="M721 -80l-633 637l180 178l320 -327v755h-379v271h1028v-271h-379v-755l320 327l180 -178zM1487 -317v-220h-1528v220h1528z" />
    <glyph glyph-name="uni21B0" unicode="&#x21b0;" horiz-adv-x="1699" 
d="M1538 0h-270v582h-756l328 -320l-178 -180l-637 637l637 633l178 -181l-328 -319h1026v-852zM1741 -317v-220h-1782v220h1782z" />
    <glyph glyph-name="uni21B1" unicode="&#x21b1;" horiz-adv-x="1699" 
d="M432 0h-270v852h1026l-328 319l178 181l637 -633l-637 -637l-178 180l328 320h-756v-582zM1741 -317v-220h-1782v220h1782z" />
    <glyph glyph-name="uni21B2" unicode="&#x21b2;" horiz-adv-x="1699" 
d="M662 82l-637 633l637 637l178 -181l-328 -319h756v582h270v-852h-1026l328 -320zM1741 -317v-220h-1782v220h1782z" />
    <glyph glyph-name="uni21B3" unicode="&#x21b3;" horiz-adv-x="1699" 
d="M1038 82l-178 180l328 320h-1026v852h270v-582h756l-328 319l178 181l637 -637zM1741 -317v-220h-1782v220h1782z" />
    <glyph glyph-name="partialdiff" unicode="&#x2202;" horiz-adv-x="1191" 
d="M584 -20q-230 0 -368 141t-138 373q0 107 38 200t101 159q61 64 148 103q83 37 174 37q89 0 154 -28q67 -29 106 -74q-12 89 -48 152q-36 64 -85 102q-47 37 -108 56q-59 18 -116 18q-64 0 -130 -12q-73 -13 -101 -23v235q34 12 101 24q63 11 147 11q162 0 281 -64
q118 -64 198 -177q78 -112 116 -265q38 -155 38 -330q0 -151 -38 -273q-37 -117 -105 -201q-64 -79 -161 -122q-94 -42 -204 -42zM580 223h10q92 0 163 65q70 64 70 204q0 125 -67 196q-67 72 -166 72h-21q-87 0 -153 -69t-66 -197q0 -135 70 -203t160 -68zM1233 -317v-220
h-1274v220h1274z" />
    <glyph glyph-name="product" unicode="&#x220f;" horiz-adv-x="1490" 
d="M532 0h-270v1198h-190v236h1343v-236h-186v-1198h-271v1198h-426v-1198zM1532 -317v-220h-1573v220h1573z" />
    <glyph glyph-name="summation" unicode="&#x2211;" horiz-adv-x="1155" 
d="M1051 231v-231h-953v205l385 512l-385 522v195h953v-232h-627l369 -485l-377 -486h635zM1196 -317v-220h-1237v220h1237z" />
    <glyph glyph-name="minus" unicode="&#x2212;" horiz-adv-x="1286" 
d="M137 410v235h1012v-235h-1012zM1327 -317v-220h-1368v220h1368z" />
    <glyph glyph-name="radical" unicode="&#x221a;" horiz-adv-x="1409" 
d="M721 0h-350l-328 1024h270l222 -748l213 1158h628v-236h-413zM1450 -317v-220h-1491v220h1491z" />
    <glyph glyph-name="infinity" unicode="&#x221e;" horiz-adv-x="1783" 
d="M1290 348q-141 0 -230 50q-87 49 -165 151q-79 -98 -170 -150q-90 -51 -231 -51q-168 0 -282 111t-114 278q0 168 114 279q113 110 282 110q140 0 231 -53t170 -153q77 100 165 153q89 53 230 53q169 0 282 -110q114 -111 114 -279q0 -167 -114 -278t-282 -111zM1262 563
h10q58 0 107 45q51 46 51 129t-51 129q-49 45 -107 45h-10q-60 0 -112 -43q-55 -46 -106 -127q59 -93 108 -136q48 -42 110 -42zM502 563h10q60 0 116 43q54 41 111 129q-57 89 -111 132q-55 44 -116 44h-10q-58 0 -103 -45t-45 -129t45 -129t103 -45zM1825 -317v-220h-1866
v220h1866z" />
    <glyph glyph-name="integral" unicode="&#x222b;" horiz-adv-x="892" 
d="M582 -168q0 -198 -101 -284q-100 -85 -299 -85h-223v220h186q93 0 128 35q36 36 36 128v1219q0 198 101 284q100 85 299 85h147v-236h-111q-92 0 -128 -36q-35 -35 -35 -128v-1202zM934 -317v-220h-105v220h105z" />
    <glyph glyph-name="approxequal" unicode="&#x2248;" horiz-adv-x="1286" 
d="M885 903h266v-82q0 -107 -81 -179q-82 -73 -196 -73q-48 0 -109 16q-57 15 -108 33q-14 5 -46.5 17t-48.5 17q-46 16 -75 16q-38 0 -60 -20q-21 -20 -21 -58h-267v82q0 107 83 179q84 73 198 73q57 0 118 -16q45 -12 104 -34q8 -3 89 -33q43 -16 72 -16q38 0 60 20t22 58
zM885 457h266v-82q0 -107 -81 -179q-82 -73 -196 -73q-52 0 -109 15q-46 12 -108 34q-14 5 -46.5 17t-48.5 17q-44 15 -75 15q-40 0 -60 -19q-21 -20 -21 -59h-267v82q0 107 83 179q84 73 198 73q61 0 118 -15q45 -12 104 -34q15 -6 45 -17.5t44 -16.5q40 -15 72 -15
q40 0 60 19q22 20 22 59zM1327 -317v-220h-1368v220h1368z" />
    <glyph glyph-name="notequal" unicode="&#x2260;" horiz-adv-x="1286" 
d="M1149 205h-490l-53 -174h-252l54 174h-271v235h344l54 174h-398v236h471l54 174h251l-53 -174h289v-236h-363l-53 -174h416v-235zM1327 -317v-220h-1368v220h1368z" />
    <glyph glyph-name="lessequal" unicode="&#x2264;" horiz-adv-x="1267" 
d="M1135 268l-1012 240v328l1012 239v-256l-670 -145l670 -146v-260zM123 0v231h1012v-231h-1012zM1309 -317v-220h-1350v220h1350z" />
    <glyph glyph-name="greaterequal" unicode="&#x2265;" horiz-adv-x="1267" 
d="M133 268v256l670 146l-670 145v260l1012 -239v-328zM1145 231v-231h-1012v231h1012zM1309 -317v-220h-1350v220h1350z" />
    <glyph glyph-name="uni2460" unicode="&#x2460;" horiz-adv-x="1720" 
d="M860 -80q-161 0 -309 64q-145 63 -254 172t-172 254q-64 148 -64 309t64 310q62 143 172 254q108 108 254 171q148 64 309 64t310 -64q145 -62 254 -171t171 -254q64 -149 64 -310t-64 -309q-63 -146 -171 -254q-110 -111 -254 -172q-149 -64 -310 -64zM860 98
q127 0 237 49q111 50 194 134q84 86 131 197q48 114 48 241q0 126 -48 240q-48 113 -131 198q-81 83 -194 133q-110 49 -237 49q-126 0 -236 -49q-115 -51 -195 -133q-83 -85 -131 -198q-48 -114 -48 -240q0 -127 48 -241q47 -111 131 -197q82 -84 195 -134q110 -49 236 -49
zM1022 317h-215v525l-223 -185v258l256 211h182v-809zM1761 -317v-220h-1802v220h1802z" />
    <glyph glyph-name="uni2461" unicode="&#x2461;" horiz-adv-x="1720" 
d="M860 -80q-161 0 -309 64q-145 63 -254 172t-172 254q-64 148 -64 309t64 310q62 143 172 254q108 108 254 171q148 64 309 64t310 -64q145 -62 254 -171t171 -254q64 -149 64 -310t-64 -309q-63 -146 -171 -254q-110 -111 -254 -172q-149 -64 -310 -64zM860 98
q127 0 237 49q111 50 194 134q84 86 131 197q48 114 48 241q0 126 -48 240q-48 113 -131 198q-81 83 -194 133q-110 49 -237 49q-126 0 -236 -49q-115 -51 -195 -133q-83 -85 -131 -198q-48 -114 -48 -240q0 -127 48 -241q47 -111 131 -197q82 -84 195 -134q110 -49 236 -49
zM1176 317h-607v172l305 277q27 24 53 53q25 28 25 64q0 31 -21 52t-54 21h-9q-34 0 -57 -26q-26 -29 -27 -62h-219q8 123 100 196q93 73 220 73q65 0 122 -22q54 -21 91 -55t56 -77q20 -45 20 -86q0 -73 -36 -123q-34 -46 -83 -94l-195 -178h316v-185zM1761 -317v-220
h-1802v220h1802z" />
    <glyph glyph-name="uni2462" unicode="&#x2462;" horiz-adv-x="1720" 
d="M860 -80q-161 0 -309 64q-145 63 -254 172t-172 254q-64 148 -64 309t64 310q62 143 172 254q108 108 254 171q148 64 309 64t310 -64q145 -62 254 -171t171 -254q64 -149 64 -310t-64 -309q-63 -146 -171 -254q-110 -111 -254 -172q-149 -64 -310 -64zM860 98
q127 0 237 49q111 50 194 134q84 86 131 197q48 114 48 241q0 126 -48 240q-48 113 -131 198q-81 83 -194 133q-110 49 -237 49q-126 0 -236 -49q-115 -51 -195 -133q-83 -85 -131 -198q-48 -114 -48 -240q0 -127 48 -241q47 -111 131 -197q82 -84 195 -134q110 -49 236 -49
zM848 307q-122 0 -216 62q-93 61 -93 178h221q1 -26 27 -44q25 -18 59 -18h10q39 0 65 23q25 22 25 57q0 36 -25 55t-63 19h-76v172h76q39 0 60 20q22 21 22 54q0 32 -20 52q-21 21 -58 21h-10q-32 0 -53 -17q-24 -19 -25 -40h-221q0 115 91 175q93 61 214 61q56 0 114 -16
q53 -15 96 -44t68 -72t25 -100q0 -59 -27 -106q-28 -48 -85 -72q58 -28 88 -78q30 -51 30 -112q0 -57 -27 -101q-25 -40 -72 -71q-42 -28 -102 -43q-58 -15 -118 -15zM1761 -317v-220h-1802v220h1802z" />
    <glyph glyph-name="uni2463" unicode="&#x2463;" horiz-adv-x="1720" 
d="M860 -80q-161 0 -309 64q-145 63 -254 172t-172 254q-64 148 -64 309t64 310q62 143 172 254q108 108 254 171q148 64 309 64t310 -64q145 -62 254 -171t171 -254q64 -149 64 -310t-64 -309q-63 -146 -171 -254q-110 -111 -254 -172q-149 -64 -310 -64zM860 98
q127 0 237 49q111 50 194 134q84 86 131 197q48 114 48 241q0 126 -48 240q-48 113 -131 198q-81 83 -194 133q-110 49 -237 49q-126 0 -236 -49q-115 -51 -195 -133q-83 -85 -131 -198q-48 -114 -48 -240q0 -127 48 -241q47 -111 131 -197q82 -84 195 -134q110 -49 236 -49
zM1096 317h-199v127h-401v224l356 458h244v-510h108v-172h-108v-127zM897 897l-215 -281h215v281zM1761 -317v-220h-1802v220h1802z" />
    <glyph glyph-name="uni2464" unicode="&#x2464;" horiz-adv-x="1720" 
d="M860 -80q-161 0 -309 64q-145 63 -254 172t-172 254q-64 148 -64 309t64 310q62 143 172 254q108 108 254 171q148 64 309 64t310 -64q145 -62 254 -171t171 -254q64 -149 64 -310t-64 -309q-63 -146 -171 -254q-110 -111 -254 -172q-149 -64 -310 -64zM860 98
q127 0 237 49q111 50 194 134q84 86 131 197q48 114 48 241q0 126 -48 240q-48 113 -131 198q-81 83 -194 133q-110 49 -237 49q-126 0 -236 -49q-115 -51 -195 -133q-83 -85 -131 -198q-48 -114 -48 -240q0 -127 48 -241q47 -111 131 -197q82 -84 195 -134q110 -49 236 -49
zM844 307q-128 0 -219 70q-92 70 -99 186h230q7 -30 34 -53q26 -23 60 -23h8q41 0 69 31q27 30 27 70q0 41 -25 66q-26 26 -67 26h-8q-21 0 -42 -9q-20 -9 -36 -26h-221l90 481h516v-180h-356l-29 -137q28 23 63 35q36 12 85 12q44 0 88 -16q46 -17 80 -48q34 -32 57 -81
q22 -48 22 -113q0 -132 -92 -212q-91 -79 -235 -79zM1761 -317v-220h-1802v220h1802z" />
    <glyph glyph-name="uni2465" unicode="&#x2465;" horiz-adv-x="1720" 
d="M860 -80q-161 0 -309 64q-145 63 -254 172t-172 254q-64 148 -64 309t64 310q62 143 172 254q108 108 254 171q148 64 309 64t310 -64q145 -62 254 -171t171 -254q64 -149 64 -310t-64 -309q-63 -146 -171 -254q-110 -111 -254 -172q-149 -64 -310 -64zM860 98
q127 0 237 49q111 50 194 134q84 86 131 197q48 114 48 241q0 126 -48 240q-48 113 -131 198q-81 83 -194 133q-110 49 -237 49q-126 0 -236 -49q-115 -51 -195 -133q-83 -85 -131 -198q-48 -114 -48 -240q0 -127 48 -241q47 -111 131 -197q82 -84 195 -134q110 -49 236 -49
zM1159 590q0 -124 -87 -203q-88 -80 -224 -80q-154 0 -247 102t-93 273q0 210 104 332q105 123 277 123q127 0 205 -70q75 -68 77 -174h-213q-6 28 -26 45q-21 18 -53 18h-13q-64 0 -104 -58q-42 -60 -49 -136q29 38 78 60t108 22q110 0 185 -72t75 -182zM741 580
q0 -38 28 -66q27 -27 69 -27h8q40 0 68 28t28 67q0 38 -28 63t-68 25h-8q-39 0 -68 -26t-29 -64zM1761 -317v-220h-1802v220h1802z" />
    <glyph glyph-name="uni2466" unicode="&#x2466;" horiz-adv-x="1720" 
d="M860 -80q-161 0 -309 64q-145 63 -254 172t-172 254q-64 148 -64 309t64 310q62 143 172 254q108 108 254 171q148 64 309 64t310 -64q145 -62 254 -171t171 -254q64 -149 64 -310t-64 -309q-63 -146 -171 -254q-110 -111 -254 -172q-149 -64 -310 -64zM860 98
q127 0 237 49q111 50 194 134q84 86 131 197q48 114 48 241q0 126 -48 240q-48 113 -131 198q-81 83 -194 133q-110 49 -237 49q-126 0 -236 -49q-115 -51 -195 -133q-83 -85 -131 -198q-48 -114 -48 -240q0 -127 48 -241q47 -111 131 -197q82 -84 195 -134q110 -49 236 -49
zM934 317h-232v27q0 164 61 321q59 153 173 277h-369v184h613v-159q-120 -120 -184 -281q-62 -156 -62 -332v-37zM1761 -317v-220h-1802v220h1802z" />
    <glyph glyph-name="uni2467" unicode="&#x2467;" horiz-adv-x="1720" 
d="M860 -80q-161 0 -309 64q-145 63 -254 172t-172 254q-64 148 -64 309t64 310q62 143 172 254q108 108 254 171q148 64 309 64t310 -64q145 -62 254 -171t171 -254q64 -149 64 -310t-64 -309q-63 -146 -171 -254q-110 -111 -254 -172q-149 -64 -310 -64zM860 98
q127 0 237 49q111 50 194 134q84 86 131 197q48 114 48 241q0 126 -48 240q-48 113 -131 198q-81 83 -194 133q-110 49 -237 49q-126 0 -236 -49q-115 -51 -195 -133q-83 -85 -131 -198q-48 -114 -48 -240q0 -127 48 -241q47 -111 131 -197q82 -84 195 -134q110 -49 236 -49
zM864 307q-134 0 -219 63q-86 63 -86 158q0 66 39 116q40 50 102 71q-65 24 -109 72q-44 49 -44 128q0 99 94 160q95 62 223 62t222 -62t94 -160q0 -79 -44 -128q-43 -47 -112 -72q62 -21 102 -71q39 -49 39 -116q0 -95 -84 -158t-217 -63zM963 881q0 36 -29 56
q-28 19 -66 19h-10q-37 0 -65 -19q-29 -20 -29 -56q0 -37 29 -57q28 -19 65 -19h10q38 0 66 19q29 20 29 57zM858 633q-33 0 -57 -21q-25 -22 -25 -53q0 -32 25 -52t57 -20h10q32 0 57 20q23 19 23 52t-23 53q-24 21 -57 21h-10zM1761 -317v-220h-1802v220h1802z" />
    <glyph glyph-name="uni2468" unicode="&#x2468;" horiz-adv-x="1720" 
d="M860 -80q-161 0 -309 64q-145 63 -254 172t-172 254q-64 148 -64 309t64 310q62 143 172 254q108 108 254 171q148 64 309 64t310 -64q145 -62 254 -171t171 -254q64 -149 64 -310t-64 -309q-63 -146 -171 -254q-110 -111 -254 -172q-149 -64 -310 -64zM860 98
q127 0 237 49q111 50 194 134q84 86 131 197q48 114 48 241q0 126 -48 240q-48 113 -131 198q-81 83 -194 133q-110 49 -237 49q-126 0 -236 -49q-115 -51 -195 -133q-83 -85 -131 -198q-48 -114 -48 -240q0 -127 48 -241q47 -111 131 -197q82 -84 195 -134q110 -49 236 -49
zM983 864q0 38 -28 66q-26 26 -68 26h-8q-42 0 -69 -27q-28 -28 -28 -67q0 -38 28 -63t69 -25h8q38 0 67 26t29 64zM565 854q0 124 87 203q88 80 225 80q153 0 246 -102q94 -103 94 -273q0 -209 -105 -332t-276 -123q-127 0 -205 70q-77 69 -78 174h213q6 -27 27 -45
q22 -19 53 -19h12q64 0 105 59q42 60 49 136q-29 -38 -78 -60t-109 -22q-110 0 -185 72t-75 182zM1761 -317v-220h-1802v220h1802z" />
    <glyph glyph-name="uni24EA" unicode="&#x24ea;" horiz-adv-x="1720" 
d="M860 -80q-161 0 -309 64q-145 63 -254 172t-172 254q-64 148 -64 309t64 310q62 143 172 254q108 108 254 171q148 64 309 64t310 -64q145 -62 254 -171t171 -254q64 -149 64 -310t-64 -309q-63 -146 -171 -254q-110 -111 -254 -172q-149 -64 -310 -64zM860 98
q127 0 237 49q111 50 194 134q84 86 131 197q48 114 48 241q0 126 -48 240q-48 113 -131 198q-81 83 -194 133q-110 49 -237 49q-126 0 -236 -49q-115 -51 -195 -133q-83 -85 -131 -198q-48 -114 -48 -240q0 -127 48 -241q47 -111 131 -197q82 -84 195 -134q110 -49 236 -49
zM864 305q-94 0 -162 36q-66 35 -110 93q-43 56 -64 132q-20 71 -20 153q0 81 20 152q22 77 64 134q44 59 110 94q68 36 162 36t162 -36t111 -94q41 -55 63 -134q21 -75 21 -152q0 -78 -21 -153q-22 -78 -63 -132q-43 -57 -111 -93t-162 -36zM860 494h8q64 0 98 59
q33 57 33 166q0 110 -33 167q-34 60 -98 60h-8q-62 0 -97 -60q-34 -59 -34 -167q0 -107 34 -166t97 -59zM1761 -317v-220h-1802v220h1802z" />
    <glyph glyph-name="uni24FF" unicode="&#x24ff;" horiz-adv-x="1720" 
d="M1659 717q0 -161 -64 -309q-63 -146 -171 -254q-110 -111 -254 -172q-149 -64 -310 -64t-309 64q-145 63 -254 172t-172 254q-64 148 -64 309t64 310q62 144 172 254q108 108 254 171q148 64 309 64t310 -64q145 -62 254 -171t171 -254q64 -149 64 -310zM504 719
q0 -82 20 -153q21 -76 64 -132q44 -58 110 -93q68 -36 162 -36t162 36t111 93q41 54 63 132q21 75 21 153q0 77 -21 152q-22 79 -63 134q-43 58 -111 94t-162 36t-162 -36q-66 -35 -110 -94q-42 -57 -64 -134q-20 -71 -20 -152zM864 494h-8q-63 0 -97 59t-34 166
q0 108 34 167q35 60 97 60h8q64 0 98 -60q33 -57 33 -167q0 -109 -33 -166q-34 -59 -98 -59zM1761 -317v-220h-1802v220h1802z" />
    <glyph glyph-name="lozenge" unicode="&#x25ca;" horiz-adv-x="1267" 
d="M512 1434h254l471 -717l-471 -717h-254l-481 717zM639 248l311 461l-317 479l-311 -469zM1309 -317v-220h-1350v220h1350z" />
    <glyph glyph-name="uni278A" unicode="&#x278a;" horiz-adv-x="1720" 
d="M1659 717q0 -161 -64 -309q-63 -146 -171 -254q-110 -111 -254 -172q-149 -64 -310 -64t-309 64q-145 63 -254 172t-172 254q-64 148 -64 309t64 310q62 144 172 254q108 108 254 171q148 64 309 64t310 -64q145 -62 254 -171t171 -254q64 -149 64 -310zM780 317h215v809
h-182l-256 -211v-258l223 185v-525zM1761 -317v-220h-1802v220h1802z" />
    <glyph glyph-name="uni278B" unicode="&#x278b;" horiz-adv-x="1720" 
d="M1659 717q0 -161 -64 -309q-63 -146 -171 -254q-110 -111 -254 -172q-149 -64 -310 -64t-309 64q-145 63 -254 172t-172 254q-64 148 -64 309t64 310q62 144 172 254q108 108 254 171q148 64 309 64t310 -64q145 -62 254 -171t171 -254q64 -149 64 -310zM571 317h607v185
h-316l195 178q49 48 83 94q36 50 36 123q0 41 -20 86q-19 43 -56 77t-91 55q-57 22 -122 22q-127 0 -220 -73q-92 -73 -100 -196h219q1 33 27 62q23 26 57 26h9q33 0 54 -21t21 -52q0 -36 -25 -64q-30 -33 -52 -53l-306 -277v-172zM1761 -317v-220h-1802v220h1802z" />
    <glyph glyph-name="uni278C" unicode="&#x278c;" horiz-adv-x="1720" 
d="M1659 717q0 -161 -64 -309q-63 -146 -171 -254q-110 -111 -254 -172q-149 -64 -310 -64t-309 64q-145 63 -254 172t-172 254q-64 148 -64 309t64 310q62 144 172 254q108 108 254 171q148 64 309 64t310 -64q145 -62 254 -171t171 -254q64 -149 64 -310zM543 547
q0 -117 93 -178q94 -62 216 -62q60 0 118 15q60 15 102 43q47 31 72 71q27 44 27 101q0 61 -30 112q-30 50 -88 78q57 24 85 72q27 47 27 106q0 57 -25 100t-68 72t-96 44q-58 16 -114 16q-121 0 -214 -61q-91 -60 -91 -175h221q1 21 25 40q21 17 53 17h10q37 0 58 -21
q20 -20 20 -52q0 -33 -22 -54q-21 -20 -60 -20h-76v-172h76q38 0 63 -19t25 -55q0 -35 -25 -57q-26 -23 -65 -23h-10q-32 0 -58 18q-27 19 -28 44h-221zM1761 -317v-220h-1802v220h1802z" />
    <glyph glyph-name="uni278D" unicode="&#x278d;" horiz-adv-x="1720" 
d="M1659 717q0 -161 -64 -309q-63 -146 -171 -254q-110 -111 -254 -172q-149 -64 -310 -64t-309 64q-145 63 -254 172t-172 254q-64 148 -64 309t64 310q62 144 172 254q108 108 254 171q148 64 309 64t310 -64q145 -62 254 -171t171 -254q64 -149 64 -310zM868 317h199v127
h109v172h-109v510h-244l-356 -458v-224h401v-127zM653 616l215 281v-281h-215zM1761 -317v-220h-1802v220h1802z" />
    <glyph glyph-name="uni278E" unicode="&#x278e;" horiz-adv-x="1720" 
d="M1659 717q0 -161 -64 -309q-63 -146 -171 -254q-110 -111 -254 -172q-149 -64 -310 -64t-309 64q-145 63 -254 172t-172 254q-64 148 -64 309t64 310q62 144 172 254q108 108 254 171q148 64 309 64t310 -64q145 -62 254 -171t171 -254q64 -149 64 -310zM512 563
q7 -117 98 -186q91 -70 219 -70q145 0 236 79q92 80 92 212q0 65 -22 113t-58 81q-34 31 -80 48q-44 16 -88 16q-49 0 -85 -12q-33 -11 -62 -35l29 137h356v180h-516l-90 -481h221q16 17 36 26q21 9 42 9h8q40 0 66 -26t26 -66q0 -39 -28 -70t-68 -31h-8q-35 0 -61 23
q-27 23 -34 53h-229zM1761 -317v-220h-1802v220h1802z" />
    <glyph glyph-name="uni278F" unicode="&#x278f;" horiz-adv-x="1720" 
d="M1659 717q0 -161 -64 -309q-63 -146 -171 -254q-110 -111 -254 -172q-149 -64 -310 -64t-309 64q-145 63 -254 172t-172 254q-64 148 -64 309t64 310q62 144 172 254q108 108 254 171q148 64 309 64t310 -64q145 -62 254 -171t171 -254q64 -149 64 -310zM848 307
q136 0 224 80q87 80 87 203q0 110 -75 182t-185 72q-59 0 -108 -22t-78 -60q7 76 49 136q40 58 104 58h13q32 0 53 -18q20 -17 26 -45h213q-2 106 -77 174q-78 70 -205 70q-172 0 -277 -123q-104 -122 -104 -332q0 -171 93 -273t247 -102zM838 487q-42 0 -69 27
q-28 28 -28 66t29 64t68 26h8q40 0 68 -25t28 -63q0 -39 -28 -67t-68 -28h-8zM1761 -317v-220h-1802v220h1802z" />
    <glyph glyph-name="uni2790" unicode="&#x2790;" horiz-adv-x="1720" 
d="M1659 717q0 -161 -64 -309q-63 -146 -171 -254q-110 -111 -254 -172q-149 -64 -310 -64t-309 64q-145 63 -254 172t-172 254q-64 148 -64 309t64 310q62 144 172 254q108 108 254 171q148 64 309 64t310 -64q145 -62 254 -171t171 -254q64 -149 64 -310zM696 317h232v37
q0 176 62 332q64 161 184 281v159h-613v-184h369q-114 -124 -173 -277q-61 -157 -61 -321v-27zM1761 -317v-220h-1802v220h1802z" />
    <glyph glyph-name="uni2791" unicode="&#x2791;" horiz-adv-x="1720" 
d="M1659 717q0 -161 -64 -309q-63 -146 -171 -254q-110 -111 -254 -172q-149 -64 -310 -64t-309 64q-145 63 -254 172t-172 254q-64 148 -64 309t64 310q62 144 172 254q108 108 254 171q148 64 309 64t310 -64q145 -62 254 -171t171 -254q64 -149 64 -310zM557 528
q0 -95 86 -158q85 -63 219 -63q133 0 217 63t84 158q0 66 -39 116q-40 50 -102 71q69 25 112 72q44 49 44 128q0 98 -94 160t-222 62t-223 -62q-94 -61 -94 -160q0 -79 44 -128q44 -48 109 -72q-62 -21 -102 -71q-39 -50 -39 -116zM866 956q38 0 66 -19q29 -20 29 -56
q0 -37 -29 -57q-28 -19 -66 -19h-10q-37 0 -65 19q-29 20 -29 57q0 36 29 56q28 19 65 19h10zM774 559q0 31 25 53q24 21 57 21h10q33 0 57 -21q23 -20 23 -53t-23 -52q-25 -20 -57 -20h-10q-32 0 -57 20t-25 52zM1761 -317v-220h-1802v220h1802z" />
    <glyph glyph-name="uni2792" unicode="&#x2792;" horiz-adv-x="1720" 
d="M1659 717q0 -161 -64 -309q-63 -146 -171 -254q-110 -111 -254 -172q-149 -64 -310 -64t-309 64q-145 63 -254 172t-172 254q-64 148 -64 309t64 310q62 144 172 254q108 108 254 171q148 64 309 64t310 -64q145 -62 254 -171t171 -254q64 -149 64 -310zM887 956
q42 0 68 -26q28 -28 28 -66t-29 -64t-67 -26h-8q-41 0 -69 25t-28 63q0 39 28 67q27 27 69 27h8zM877 1137q-137 0 -225 -80q-87 -79 -87 -203q0 -110 75 -182t185 -72q60 0 109 22t78 60q-7 -76 -49 -136q-41 -59 -105 -59h-12q-31 0 -53 19q-21 18 -27 45h-213
q1 -105 78 -174q78 -70 205 -70q171 0 276 123t105 332q0 170 -94 273q-93 102 -246 102zM1761 -317v-220h-1802v220h1802z" />
    <glyph glyph-name="j.inferior" unicode="&#x2c7c;" horiz-adv-x="405" 
d="M92 655v154h221v-154h-221zM-84 -537v220h100q52 0 67 15t15 66v820h209v-938q0 -93 -45 -138t-137 -45h-209z" />
    <glyph glyph-name="Omega" unicode="&#xa7b6;" horiz-adv-x="1601" 
d="M719 225v-225h-604v231h262q-122 69 -198 205q-75 135 -75 322q0 152 53 281q54 131 144 221q92 92 220 143t280 51q151 0 279 -51t220 -143t145 -221q52 -126 52 -281q0 -189 -77 -323q-78 -135 -206 -204h273v-231h-604v225q150 39 244 170q94 132 94 322
q0 230 -110 361q-109 130 -300 130h-20q-192 0 -301 -130t-109 -361q0 -191 95 -322t243 -170zM1642 -317v-220h-1683v220h1683z" />
    <glyph glyph-name="Checkbox_one" unicode="&#xe000;" horiz-adv-x="1024" 
d="M102 307v819h820v-819h-820zM256 461h512v512h-512v-512zM1065 -317v-220h-1106v220h1106z" />
    <glyph glyph-name="Checkbox_two" unicode="&#xe001;" horiz-adv-x="1331" 
d="M1229 154h-1127v1126h1127v-1126zM256 1126v-819h819v819h-819zM1372 -317v-220h-1413v220h1413z" />
    <glyph glyph-name="Checkbox_three" unicode="&#xe002;" horiz-adv-x="1720" 
d="M143 0v1434h1434v-1434h-1434zM297 154h1126v1126h-1126v-1126zM1761 -317v-220h-1802v220h1802z" />
    <glyph glyph-name="circle_one" unicode="&#xe003;" horiz-adv-x="1105" 
d="M553 225q-101 0 -191 39q-88 38 -156 106t-106 156q-39 90 -39 191q0 100 39 190t106 157q66 66 156 105t191 39q100 0 190 -39q92 -40 157 -105q67 -67 106 -157q38 -88 38 -190q0 -103 -38 -191t-106 -156q-67 -67 -157 -106t-190 -39zM553 379q140 0 239 99t99 239
q0 139 -99 238q-100 100 -239 100t-239 -100q-99 -99 -99 -238q0 -140 99 -239t239 -99zM1147 -317v-220h-1188v220h1188z" />
    <glyph glyph-name="circle_two" unicode="&#xe004;" horiz-adv-x="1413" 
d="M1352 717q0 -130 -52 -251q-51 -118 -138 -205t-205 -138q-119 -51 -250 -51q-133 0 -251 51t-205 138t-138 205q-52 121 -52 251t52 251q50 116 138 204q89 89 205 139q118 51 251 51q131 0 250 -51q116 -50 205 -139q88 -88 138 -204q52 -121 52 -251zM215 717
q0 -101 39 -191t105 -156q67 -67 157 -106t191 -39q100 0 190 39t157 106q66 66 105 156t39 191q0 100 -39 190q-40 92 -105 157t-157 105q-90 39 -190 39q-101 0 -191 -39q-92 -40 -157 -105t-105 -157q-39 -90 -39 -190zM1454 -317v-220h-1495v220h1495z" />
    <glyph glyph-name="circle_three" unicode="&#xe005;" horiz-adv-x="1720" 
d="M860 -82q-161 0 -309 64q-145 63 -254 172t-172 254q-64 148 -64 309t64 310q62 144 172 254q108 108 254 171q148 64 309 64t310 -64q145 -62 254 -171t171 -254q64 -149 64 -310t-64 -309q-63 -146 -171 -254q-110 -111 -254 -172q-149 -64 -310 -64zM860 72
q132 0 251 51q118 51 205 138t138 205t51 251t-51 251q-50 116 -138 204q-89 89 -205 139q-119 51 -251 51q-133 0 -251 -51q-116 -50 -205 -139q-88 -88 -138 -204q-51 -118 -51 -251t51 -251t138 -205t205 -138t251 -51zM1761 -317v-220h-1802v220h1802z" />
    <glyph glyph-name="bullet_one" unicode="&#xe006;" 
d="M614 225q-100 0 -190 39t-157 106q-66 66 -105 156t-39 191q0 100 39 190q40 92 105 157t157 105q90 39 190 39q101 0 191 -39q92 -40 157 -105t105 -157q39 -90 39 -190q0 -101 -39 -191t-105 -156q-67 -67 -157 -106t-191 -39zM1270 -317v-220h-1311v220h1311z" />
    <glyph glyph-name="bullet_two" unicode="&#xe007;" horiz-adv-x="1351" 
d="M1290 717q0 -129 -49 -239q-50 -112 -132 -194q-81 -81 -195 -132q-112 -50 -238 -50q-127 0 -239 50t-194 132t-132 194t-50 239q0 126 50 238q51 114 132 195q82 82 194 132q110 49 239 49q128 0 238 -49q114 -51 195 -132t132 -195q49 -110 49 -238zM1393 -317v-220
h-1434v220h1434z" />
    <glyph glyph-name="bullet_three" unicode="&#xe008;" horiz-adv-x="1597" 
d="M799 -20q-153 0 -287 58t-234 158t-158 234q-59 136 -59 287t59 287q58 134 158 234t234 158t287 58q152 0 286 -58q136 -59 235 -158q100 -100 158 -234t58 -287t-58 -287t-158 -234q-99 -99 -235 -158q-134 -58 -286 -58zM1638 -317v-220h-1679v220h1679z" />
    <glyph glyph-name="Pyramide_one" unicode="&#xe009;" horiz-adv-x="1024" 
d="M102 307v819h820v-819h-820zM256 461h512v512h-512v-512zM410 614v205h204v-205h-204zM1065 -317v-220h-1106v220h1106z" />
    <glyph glyph-name="Pyramide_two" unicode="&#xe00a;" horiz-adv-x="1331" 
d="M1229 154h-1127v1126h1127v-1126zM256 1126v-819h819v819h-819zM922 461h-512v512h512v-512zM563 819v-205h205v205h-205zM1372 -317v-220h-1413v220h1413z" />
    <glyph glyph-name="Pyramide_three" unicode="&#xe00b;" horiz-adv-x="1720" 
d="M143 0v1434h1434v-1434h-1434zM297 154h1126v1126h-1126v-1126zM451 307v819h819v-819h-819zM604 461h512v512h-512v-512zM963 614h-205v205h205v-205zM1761 -317v-220h-1802v220h1802z" />
    <glyph glyph-name="Square_one" unicode="&#xe00c;" horiz-adv-x="1024" 
d="M102 307v819h820v-819h-820zM1065 -317v-220h-1106v220h1106z" />
    <glyph glyph-name="Square_two" unicode="&#xe00d;" horiz-adv-x="1331" 
d="M1229 154h-1127v1126h1127v-1126zM1372 -317v-220h-1413v220h1413z" />
    <glyph glyph-name="Square_three" unicode="&#xe00e;" horiz-adv-x="1720" 
d="M143 0v1434h1434v-1434h-1434zM1761 -317v-220h-1802v220h1802z" />
    <glyph glyph-name="Tower_one" unicode="&#xe010;" horiz-adv-x="1105" 
d="M553 225q-101 0 -191 39q-88 38 -156 106t-106 156q-39 90 -39 191q0 100 39 190t106 157q66 66 156 105t191 39q100 0 190 -39q92 -40 157 -105q67 -67 106 -157q38 -88 38 -190q0 -103 -38 -191t-106 -156q-67 -67 -157 -106t-190 -39zM553 379q140 0 239 99t99 239
q0 139 -99 238q-100 100 -239 100t-239 -100q-99 -99 -99 -238q0 -140 99 -239t239 -99zM553 532q-75 0 -130 55q-54 54 -54 130t54 130t130 54t130 -54t54 -130t-54 -130q-55 -55 -130 -55zM1147 -317v-220h-1188v220h1188z" />
    <glyph glyph-name="Tower_two" unicode="&#xe011;" horiz-adv-x="1413" 
d="M1352 717q0 -130 -52 -251q-51 -118 -138 -205t-205 -138q-119 -51 -250 -51q-133 0 -251 51t-205 138t-138 205q-52 121 -52 251t52 251q50 116 138 204q89 89 205 139q118 51 251 51q131 0 250 -51q116 -50 205 -139q88 -88 138 -204q52 -121 52 -251zM215 717
q0 -101 39 -191t105 -156q67 -67 157 -106t191 -39q100 0 190 39t157 106q66 66 105 156t39 191q0 100 -39 190q-40 92 -105 157t-157 105q-90 39 -190 39q-101 0 -191 -39q-92 -40 -157 -105t-105 -157q-39 -90 -39 -190zM1044 717q0 -140 -99 -239t-238 -99
q-140 0 -239 99t-99 239q0 139 99 238q100 100 239 100q138 0 238 -100q99 -99 99 -238zM522 717q0 -75 55 -130t130 -55t130 55q54 54 54 130t-54 130t-130 54t-130 -54q-55 -55 -55 -130zM1454 -317v-220h-1495v220h1495z" />
    <glyph glyph-name="Tower_three" unicode="&#xe012;" horiz-adv-x="1720" 
d="M860 -82q-161 0 -309 64q-145 63 -254 172t-172 254q-64 148 -64 309t64 310q62 144 172 254q108 108 254 171q148 64 309 64t310 -64q145 -62 254 -171t171 -254q64 -149 64 -310t-64 -309q-63 -146 -171 -254q-110 -111 -254 -172q-149 -64 -310 -64zM860 72
q132 0 251 51q118 51 205 138t138 205t51 251t-51 251q-50 116 -138 204q-89 89 -205 139q-119 51 -251 51q-133 0 -251 -51q-116 -50 -205 -139q-88 -88 -138 -204q-51 -118 -51 -251t51 -251t138 -205t205 -138t251 -51zM860 225q-100 0 -190 39t-157 106q-66 66 -105 156
t-39 191q0 100 39 190q40 92 105 157t157 105q90 39 190 39q101 0 191 -39t156 -105q67 -67 106 -157t39 -190q0 -101 -39 -191q-38 -88 -106 -156t-156 -106q-90 -39 -191 -39zM860 379q140 0 239 99t99 239q0 139 -99 238q-100 100 -239 100q-138 0 -238 -100t-100 -238
q0 -139 100 -239q99 -99 238 -99zM860 532q-75 0 -130 55q-54 54 -54 130t54 130t130 54t130 -54t54 -130t-54 -130q-55 -55 -130 -55zM1761 -317v-220h-1802v220h1802z" />
    <glyph glyph-name="commaaccent" unicode="&#xf6c3;" horiz-adv-x="382" 
d="M31 -635v154h47q58 0 84 22t26 58v2h-106v266h266v-266q0 -102 -73 -169t-187 -67h-57z" />
    <glyph glyph-name="A.fina" horiz-adv-x="1560" 
d="M932 584l-207 542l-207 -542h414zM-61 -537v220h1337l-250 655h-602l-129 -338h-291l567 1434h324l758 -1971h-1714z" />
    <glyph glyph-name="Agrave.fina" horiz-adv-x="1560" 
d="M760 1823l82 -297h-185l-215 297h318zM932 584l-207 542l-207 -542h414zM-61 -537v220h1337l-250 655h-602l-129 -338h-291l567 1434h324l758 -1971h-1714z" />
    <glyph glyph-name="Aacute.fina" horiz-adv-x="1560" 
d="M627 1526l82 297h317l-215 -297h-184zM932 584l-207 542l-207 -542h414zM-61 -537v220h1337l-250 655h-602l-129 -338h-291l567 1434h324l758 -1971h-1714z" />
    <glyph glyph-name="Acircumflex.fina" horiz-adv-x="1560" 
d="M561 1526h-225l246 297h286l246 -297h-225l-164 119zM932 584l-207 542l-207 -542h414zM-61 -537v220h1337l-250 655h-602l-129 -338h-291l567 1434h324l758 -1971h-1714z" />
    <glyph glyph-name="Atilde.fina" horiz-adv-x="1560" 
d="M858 1741q33 0 47 23q15 24 15 59h194v-54q0 -94 -54 -163q-55 -70 -171 -70q-39 0 -79 12q-35 10 -85 37l-37 21q-17 10 -46 23q-21 9 -46 9q-33 2 -48 -22q-16 -26 -16 -60h-194v54q0 95 66 164t163 69q58 0 91 -13q38 -15 63 -28l37 -20q27 -14 50 -27q24 -14 50 -14z
M932 584l-207 542l-207 -542h414zM-61 -537v220h1337l-250 655h-602l-129 -338h-291l567 1434h324l758 -1971h-1714z" />
    <glyph glyph-name="Adieresis.fina" horiz-adv-x="1560" 
d="M799 1567v245h256v-245h-256zM399 1567v245h256v-245h-256zM932 584l-207 542l-207 -542h414zM-61 -537v220h1337l-250 655h-602l-129 -338h-291l567 1434h324l758 -1971h-1714z" />
    <glyph glyph-name="Aring.fina" horiz-adv-x="1560" 
d="M504 1720q0 89 68 157q69 69 157 69q97 0 161 -69q64 -68 64 -157q0 -96 -64 -160q-65 -65 -161 -65q-87 0 -157 65q-68 64 -68 160zM729 1802q-33 0 -57 -24q-25 -25 -25 -58q0 -32 25 -57t57 -25q31 0 56 25q24 24 24 57q0 34 -24 58t-56 24zM932 584l-207 542
l-207 -542h414zM-61 -537v220h1337l-250 655h-602l-129 -338h-291l567 1434h324l758 -1971h-1714z" />
    <glyph glyph-name="Amacron.fina" horiz-adv-x="1560" 
d="M383 1567v225h686v-225h-686zM932 584l-207 542l-207 -542h414zM-61 -537v220h1337l-250 655h-602l-129 -338h-291l567 1434h324l758 -1971h-1714z" />
    <glyph glyph-name="Abreve.fina" horiz-adv-x="1560" 
d="M725 1710q44 0 81 28q36 27 42 85h225q-2 -140 -100 -224q-98 -83 -248 -83t-248 83q-98 84 -100 224h225q6 -58 42 -85q37 -28 81 -28zM932 584l-207 542l-207 -542h414zM-61 -537v220h1337l-250 655h-602l-129 -338h-291l567 1434h324l758 -1971h-1714z" />
    <glyph glyph-name="Aringacute.fina" horiz-adv-x="1560" 
d="M664 1901l32 180h256l-127 -180h-161zM555 1675q0 78 52 130q53 53 130 53t130 -53t53 -130t-53 -130q-52 -52 -130 -52t-130 52t-52 130zM737 1745q-26 0 -48 -22q-21 -21 -21 -48t21 -48t48 -21q26 0 47 21t21 48t-21 48q-22 22 -47 22zM932 584l-207 542l-207 -542
h414zM-61 -537v220h1337l-250 655h-602l-129 -338h-291l567 1434h324l758 -1971h-1714z" />
    <glyph glyph-name="uni0226.fina" horiz-adv-x="1560" 
d="M592 1567v276h287v-276h-287zM932 584l-207 542l-207 -542h414zM-61 -537v220h1337l-250 655h-602l-129 -338h-291l567 1434h324l758 -1971h-1714z" />
    <glyph glyph-name="uni1EA0.fina" horiz-adv-x="1560" 
d="M932 584l-207 542l-207 -542h414zM618 -537v267h267v-267h-267zM352 -317v-220h-413v220h413zM1151 -537v220h125l-250 655h-602l-129 -338h-291l567 1434h324l758 -1971h-502z" />
    <glyph glyph-name="C.fina" horiz-adv-x="1456" 
d="M-41 -537v220h848v297q-175 0 -310 53t-225 149q-88 94 -136 234q-46 135 -46 301q0 165 45 301q45 137 132 233q89 98 216 150q130 53 293 53q142 0 251 -39t184 -105q74 -65 117 -157q43 -91 50 -190h-276q-24 115 -106 181q-80 64 -210 64h-20q-177 0 -288 -131
t-111 -360q0 -232 116 -361q117 -131 314 -131h276v-762h-1114z" />
    <glyph glyph-name="Ccedilla.fina" horiz-adv-x="1456" 
d="M1006 -287q0 -122 -70 -186t-176 -64h-801v220h811q39 0 60 12q22 13 22 39q0 21 -16 36t-56 15h-112v201q-141 17 -248 76q-109 61 -181 155q-75 98 -111 221q-38 129 -38 279q0 165 45 301q45 137 132 233q89 98 216 150q130 53 293 53q142 0 251 -39t184 -105
q74 -65 117 -157q43 -91 50 -190h-276q-24 115 -106 181q-80 64 -210 64h-20q-177 0 -288 -131t-111 -360q0 -231 111 -361q111 -131 288 -131h20q128 0 210 64t106 182h276q-7 -100 -47 -190t-110 -153t-174 -104q-99 -39 -236 -44v-62q76 0 135 -49q60 -49 60 -156z" />
    <glyph glyph-name="Cacute.fina" horiz-adv-x="1456" 
d="M688 1526l82 297h317l-215 -297h-184zM-41 -537v220h848v297q-175 0 -310 53t-225 149q-88 94 -136 234q-46 135 -46 301q0 165 45 301q45 137 132 233q89 98 216 150q130 53 293 53q142 0 251 -39t184 -105q74 -65 117 -157q43 -91 50 -190h-276q-24 115 -106 181
q-80 64 -210 64h-20q-177 0 -288 -131t-111 -360q0 -232 116 -361q117 -131 314 -131h276v-762h-1114z" />
    <glyph glyph-name="Ccircumflex.fina" horiz-adv-x="1456" 
d="M621 1526h-226l246 297h287l246 -297h-226l-164 119zM-41 -537v220h848v297q-175 0 -310 53t-225 149q-88 94 -136 234q-46 135 -46 301q0 165 45 301q45 137 132 233q89 98 216 150q130 53 293 53q142 0 251 -39t184 -105q74 -65 117 -157q43 -91 50 -190h-276
q-24 115 -106 181q-80 64 -210 64h-20q-177 0 -288 -131t-111 -360q0 -232 116 -361q117 -131 314 -131h276v-762h-1114z" />
    <glyph glyph-name="Cdotaccent.fina" horiz-adv-x="1456" 
d="M662 1567v276h286v-276h-286zM-41 -537v220h848v297q-175 0 -310 53t-225 149q-88 94 -136 234q-46 135 -46 301q0 165 45 301q45 137 132 233q89 98 216 150q130 53 293 53q142 0 251 -39t184 -105q74 -65 117 -157q43 -91 50 -190h-276q-24 115 -106 181
q-80 64 -210 64h-20q-177 0 -288 -131t-111 -360q0 -232 116 -361q117 -131 314 -131h276v-762h-1114z" />
    <glyph glyph-name="Ccaron.fina" horiz-adv-x="1456" 
d="M408 1823h225l164 -119l164 119h225l-246 -297h-287zM-41 -537v220h848v297q-175 0 -310 53t-225 149q-88 94 -136 234q-46 135 -46 301q0 165 45 301q45 137 132 233q89 98 216 150q130 53 293 53q142 0 251 -39t184 -105q74 -65 117 -157q43 -91 50 -190h-276
q-24 115 -106 181q-80 64 -210 64h-20q-177 0 -288 -131t-111 -360q0 -232 116 -361q117 -131 314 -131h276v-762h-1114z" />
    <glyph glyph-name="E.fina" horiz-adv-x="1353" 
d="M-41 -537v220h1049v317h-840v1434h1085v-246h-809v-330h686v-246h-686v-366h830v-783h-1315z" />
    <glyph glyph-name="Egrave.fina" horiz-adv-x="1353" 
d="M772 1823l82 -297h-184l-215 297h317zM-41 -537v220h1049v317h-840v1434h1085v-246h-809v-330h686v-246h-686v-366h830v-783h-1315z" />
    <glyph glyph-name="Eacute.fina" horiz-adv-x="1353" 
d="M598 1526l82 297h317l-215 -297h-184zM-41 -537v220h1049v317h-840v1434h1085v-246h-809v-330h686v-246h-686v-366h830v-783h-1315z" />
    <glyph glyph-name="Ecircumflex.fina" horiz-adv-x="1353" 
d="M549 1526h-225l245 297h287l246 -297h-225l-164 119zM-41 -537v220h1049v317h-840v1434h1085v-246h-809v-330h686v-246h-686v-366h830v-783h-1315z" />
    <glyph glyph-name="Edieresis.fina" horiz-adv-x="1353" 
d="M786 1567v245h256v-245h-256zM387 1567v245h256v-245h-256zM-41 -537v220h1049v317h-840v1434h1085v-246h-809v-330h686v-246h-686v-366h830v-783h-1315z" />
    <glyph glyph-name="Emacron.fina" horiz-adv-x="1353" 
d="M373 1567v225h686v-225h-686zM-41 -537v220h1049v317h-840v1434h1085v-246h-809v-330h686v-246h-686v-366h830v-783h-1315z" />
    <glyph glyph-name="Ebreve.fina" horiz-adv-x="1353" 
d="M719 1710q44 0 81 28q36 27 42 85h225q-2 -140 -100 -224q-98 -83 -248 -83t-248 83q-98 84 -100 224h225q6 -58 42 -85q37 -28 81 -28zM-41 -537v220h1049v317h-840v1434h1085v-246h-809v-330h686v-246h-686v-366h830v-783h-1315z" />
    <glyph glyph-name="Edotaccent.fina" horiz-adv-x="1353" 
d="M584 1567v276h286v-276h-286zM-41 -537v220h1049v317h-840v1434h1085v-246h-809v-330h686v-246h-686v-366h830v-783h-1315z" />
    <glyph glyph-name="Ecaron.fina" horiz-adv-x="1353" 
d="M326 1823h225l164 -119l164 119h225l-246 -297h-287zM-41 -537v220h1049v317h-840v1434h1085v-246h-809v-330h686v-246h-686v-366h830v-783h-1315z" />
    <glyph glyph-name="F.fina" horiz-adv-x="1261" 
d="M-41 -537v220h209v1751h1044v-246h-768v-369h666v-246h-666v-1110h-485z" />
    <glyph glyph-name="G.fina" horiz-adv-x="1525" 
d="M-41 -537v220h1223v456q-61 -65 -161 -113q-96 -46 -228 -46q-163 0 -291 56q-135 59 -223 154q-95 103 -143 235q-50 138 -50 292t50 292q47 130 143 234q89 97 223 155q128 56 291 56q137 0 248 -39q114 -40 190 -106q78 -67 123 -162q46 -96 53 -205h-277
q-15 115 -94 191q-78 75 -233 75h-21q-198 0 -309 -135t-111 -356q0 -222 111 -357t309 -135h21q133 0 243 73q106 71 140 204h-393v246h450q83 0 129 -46q45 -45 45 -129v-1110h-1458z" />
    <glyph glyph-name="Gcircumflex.fina" horiz-adv-x="1525" 
d="M614 1526h-225l246 297h287l245 -297h-225l-164 119zM-41 -537v220h1223v456q-61 -65 -161 -113q-96 -46 -228 -46q-163 0 -291 56q-135 59 -223 154q-95 103 -143 235q-50 138 -50 292t50 292q47 130 143 234q89 97 223 155q128 56 291 56q137 0 248 -39
q114 -40 190 -106q78 -67 123 -162q46 -96 53 -205h-277q-15 115 -94 191q-78 75 -233 75h-21q-198 0 -309 -135t-111 -356q0 -222 111 -357t309 -135h21q133 0 243 73q106 71 140 204h-393v246h450q83 0 129 -46q45 -45 45 -129v-1110h-1458z" />
    <glyph glyph-name="Gbreve.fina" horiz-adv-x="1525" 
d="M778 1710q44 0 81 28q36 27 42 85h225q-2 -140 -100 -224q-98 -83 -248 -83t-248 83q-98 84 -100 224h225q6 -58 42 -85q37 -28 81 -28zM-41 -537v220h1223v456q-61 -65 -161 -113q-96 -46 -228 -46q-163 0 -291 56q-135 59 -223 154q-95 103 -143 235q-50 138 -50 292
t50 292q47 130 143 234q89 97 223 155q128 56 291 56q137 0 248 -39q114 -40 190 -106q78 -67 123 -162q46 -96 53 -205h-277q-15 115 -94 191q-78 75 -233 75h-21q-198 0 -309 -135t-111 -356q0 -222 111 -357t309 -135h21q133 0 243 73q106 71 140 204h-393v246h450
q83 0 129 -46q45 -45 45 -129v-1110h-1458z" />
    </font>
</defs>
</svg>
