<?xml version="1.0" standalone="no"?>
<!DOCTYPE svg PUBLIC "-//W3C//DTD SVG 1.1//EN" "http://www.w3.org/Graphics/SVG/1.1/DTD/svg11.dtd" >
<svg xmlns="http://www.w3.org/2000/svg" xmlns:xlink="http://www.w3.org/1999/xlink" version="1.1">
<metadata>
Created by FontForge 20170731 at Thu Feb 24 19:26:43 2022
 By Aleksey,,,
Copyright 2014 Dinamo (Johannes Breyer, Fabian Harb)
</metadata>
<defs>
<font id="Favorit-LightMono" horiz-adv-x="1228" >
  <font-face 
    font-family="Favorit Light Mono"
    font-weight="300"
    font-stretch="normal"
    units-per-em="2048"
    panose-1="2 1 3 3 3 2 1 8 2 3"
    ascent="1638"
    descent="-410"
    x-height="1024"
    cap-height="1434"
    bbox="-721 -512 3549 2081"
    underline-thickness="102"
    underline-position="-307"
    unicode-range="U+0020-FB02"
  />
<missing-glyph 
d="M184 0v1434h1024v-1434h-1024zM307 113h778v1208h-778v-1208z" />
    <glyph glyph-name="fi" unicode="fi" 
d="M1055 1024v-1024h-133v911h-523v-911h-133v911h-215v113h215v225q0 98 47 141.5t148 43.5h262v-113h-242q-46 0 -64 -18t-18 -64v-215h656zM911 1382h154v-174h-154v174z" />
    <glyph glyph-name="fl" unicode="fl" 
d="M1055 1434v-1434h-133v1321h-441q-46 0 -64 -18t-18 -64v-215h287v-113h-287v-911h-133v911h-215v113h215v225q0 98 47 141.5t148 43.5h594z" />
    <glyph glyph-name="f_f" unicode="ff" 
d="M1006 1321q-46 0 -64 -18t-18 -64v-215h243v-113h-243v-911h-133v911h-412v-911h-133v911h-215v113h215v225q0 99 46.5 142t147.5 43h234v-113h-213q-46 0 -64 -18t-18 -64v-215h412v225q0 99 46.5 142t147.5 43h234v-113h-213z" />
    <glyph glyph-name="f_f_i" unicode="ffi" horiz-adv-x="2457" 
d="M2109 1024v-1024h-133v911h-614v-911h-133v911h-615v-911h-133v911h-276v113h276v225q0 98 47 141.5t148 43.5h317v-113h-297q-46 0 -64 -18t-18 -64v-215h615v225q0 99 46.5 142t147.5 43h318v-113h-297q-46 0 -64 -18t-18 -64v-215h747zM1966 1382h154v-174h-154v174z
" />
    <glyph glyph-name="f_f_l" unicode="ffl" horiz-adv-x="2457" 
d="M2105 1434v-1434h-133v1321h-528q-46 0 -64 -18t-18 -64v-215h328v-113h-328v-911h-133v911h-606v-911h-134v911h-305v113h305v225q0 98 47 141.5t148 43.5h340v-113h-319q-46 0 -64 -18t-18 -64v-215h606v225q0 99 46.5 142t147.5 43h682z" />
    <glyph glyph-name=".notdef" 
d="M184 0v1434h1024v-1434h-1024zM307 113h778v1208h-778v-1208z" />
    <glyph glyph-name=".null" horiz-adv-x="0" 
 />
    <glyph glyph-name="nonmarkingreturn" horiz-adv-x="682" 
 />
    <glyph glyph-name="space" unicode=" " 
 />
    <glyph glyph-name="exclam" unicode="!" 
d="M584 420l-41 584v430h143v-430l-41 -584h-61zM537 0v174h153v-174h-153z" />
    <glyph glyph-name="quotedbl" unicode="&#x22;" 
d="M428 1004l-39 266v164h133v-164l-49 -266h-45zM745 1004l-38 266v164h133v-164l-49 -266h-46z" />
    <glyph glyph-name="numbersign" unicode="#" 
d="M1141 932h-209l-70 -430h193v-113h-213l-64 -389h-129l64 389h-301l-64 -389h-129l64 389h-189v113h209l70 430h-191v112h211l64 390h129l-64 -390h301l64 390h129l-64 -390h189v-112zM733 502l70 430h-301l-70 -430h301z" />
    <glyph glyph-name="dollar" unicode="$" 
d="M745 768q359 -75 359 -381q0 -183 -131.5 -295t-356.5 -112q-35 0 -51 2l-39 -228h-127l41 244q-173 39 -262.5 158t-89.5 295h143q11 -258 232 -320l88 528l-45 11q-179 39 -263.5 128t-84.5 246q0 173 130.5 291.5t342.5 118.5q37 0 53 -2l39 227h127l-41 -247
q146 -41 228.5 -151t88.5 -267h-143q-6 103 -57.5 175.5t-139.5 106.5l-88 -518zM545 811l30 -6l89 516h-25h-12q-143 0 -234.5 -78t-91.5 -196q0 -97 59 -153t185 -83zM635 113q155 0 240.5 75t85.5 191q0 100 -60.5 159.5t-193.5 88.5l-33 6l-88 -520h37h12z" />
    <glyph glyph-name="percent" unicode="%" 
d="M297 819q-120 0 -190 85t-70 226t70 226.5t190 85.5q122 0 192 -85.5t70 -226.5t-70 -226t-192 -85zM117 0l860 1434h133l-860 -1434h-133zM295 920h6q66 0 102.5 63t36.5 147q0 85 -36.5 147t-102.5 62h-6q-66 0 -102.5 -62t-36.5 -147q0 -84 36.5 -147t102.5 -63z
M928 -12q-120 0 -190 85t-70 226t70 226t190 85q122 0 192 -85t70 -226t-70 -226t-192 -85zM926 88h6q66 0 102.5 63.5t36.5 147.5q0 85 -36.5 147t-102.5 62h-6q-66 0 -103 -62t-37 -147q0 -84 37 -147.5t103 -63.5z" />
    <glyph glyph-name="ampersand" unicode="&#x26;" 
d="M553 0q-166 0 -275.5 102.5t-109.5 276.5q0 124 63 217.5t172 130.5q-103 42 -164 128.5t-61 209.5q0 169 113 269t280 100h170v-134h-155q-113 0 -191 -68.5t-78 -187.5q0 -113 80 -181t201 -68h188v258h140v-258h215v-133h-215v-662h-373zM600 133h186v529h-188
q-130 0 -210.5 -66.5t-80.5 -185.5q0 -133 80.5 -205t212.5 -72z" />
    <glyph glyph-name="quotesingle" unicode="'" 
d="M588 1004l-39 266v164h133v-164l-49 -266h-45z" />
    <glyph glyph-name="parenleft" unicode="(" 
d="M973 -297q-159 7 -283.5 140t-192 361.5t-67.5 512.5q0 285 67.5 513.5t191.5 361t284 139.5v-113q-121 -9 -214.5 -127t-144.5 -320t-51 -454t51 -454t144.5 -320t214.5 -127v-113z" />
    <glyph glyph-name="parenright" unicode=")" 
d="M256 1731q159 -7 283.5 -140t192 -361.5t67.5 -512.5q0 -285 -67.5 -513.5t-191.5 -361t-284 -139.5v113q121 9 214.5 127t144.5 320t51 454t-51 454t-144.5 320t-214.5 127v113z" />
    <glyph glyph-name="asterisk" unicode="*" 
d="M950 1247v-102h-245l122 -213l-90 -51l-123 213l-122 -213l-89 51l123 213h-245v102h245l-123 213l91 51l122 -213l123 213l88 -51l-122 -213h245z" />
    <glyph glyph-name="plus" unicode="+" 
d="M549 31v436h-440v123h440v434h133v-434h440v-123h-440v-436h-133z" />
    <glyph glyph-name="comma" unicode="," 
d="M440 -236v82h62q123 0 123 123v31h-133v225h225v-266q0 -93 -51 -144t-144 -51h-82z" />
    <glyph glyph-name="hyphen" unicode="-" 
d="M358 563v113h512v-113h-512z" />
    <glyph glyph-name="period" unicode="." 
d="M502 0v225h225v-225h-225z" />
    <glyph glyph-name="slash" unicode="/" 
d="M266 0l553 1434h144l-553 -1434h-144z" />
    <glyph glyph-name="zero" unicode="0" 
d="M614 1464q250 0 391.5 -190.5t141.5 -546.5t-141.5 -546.5t-391.5 -190.5q-254 0 -393 192l-4 -4v10q-135 196 -135 539q0 356 141 546.5t391 190.5zM604 1331q-55 0 -105.5 -16.5t-102.5 -60t-89.5 -109.5t-61.5 -173.5t-24 -244.5q0 -172 37 -301l666 717
q-55 99 -134.5 143.5t-164.5 44.5h-21zM625 123q55 0 105.5 16.5t102.5 60t89.5 109.5t61.5 173.5t24 244.5q0 157 -31 272l-658 -710q55 -87 130 -126.5t155 -39.5h21z" />
    <glyph glyph-name="one" unicode="1" 
d="M752 137h405v-137h-962v137h423v1092l-346 -328v168l375 365h105v-1297z" />
    <glyph glyph-name="two" unicode="2" 
d="M346 137h746v-137h-928v143l575 584q120 122 156.5 185t36.5 147q0 108 -83.5 185t-205.5 77h-20q-137 0 -220 -83t-86 -222h-139q2 194 127 316t324 122q195 0 318.5 -111t123.5 -284q0 -63 -14 -115.5t-47 -103t-63 -85t-87 -93.5z" />
    <glyph glyph-name="three" unicode="3" 
d="M621 -20q-206 0 -326.5 100t-142.5 285h139q23 -120 106 -186t213 -66h21q137 0 229 73t92 201q0 120 -88.5 191t-222.5 71h-92v133h110q127 0 205 75.5t78 186.5q0 127 -87.5 202t-221.5 75h-21q-121 0 -202.5 -72.5t-92.5 -183.5h-139q9 168 134 278.5t311 110.5
q130 0 232.5 -44t164 -134.5t61.5 -214.5q0 -115 -66.5 -208t-168.5 -136q106 -35 176 -122.5t70 -213.5q0 -97 -39 -174.5t-104.5 -126t-149.5 -74.5t-178 -26z" />
    <glyph glyph-name="four" unicode="4" 
d="M918 475h235v-129h-235v-346h-134v346h-714v152l692 936h156v-959zM201 475h583v795z" />
    <glyph glyph-name="five" unicode="5" 
d="M659 897q196 0 317.5 -124t121.5 -312q0 -210 -138.5 -345.5t-343.5 -135.5q-128 0 -233 43t-173.5 132.5t-78.5 213.5h139q17 -122 110 -189t226 -67h21q146 0 238.5 96t92.5 242q0 138 -86.5 225.5t-222.5 87.5h-20q-85 0 -171 -43t-136 -121h-138l172 834h727v-138
h-612l-111 -512q113 113 299 113z" />
    <glyph glyph-name="six" unicode="6" 
d="M655 942q203 0 333 -130.5t130 -332.5q0 -226 -134.5 -362.5t-338.5 -136.5q-247 0 -384.5 187t-137.5 513q0 226 72 402.5t201.5 274t293.5 97.5q179 0 297 -94t152 -264h-140q-26 101 -108.5 163t-190.5 62h-20q-180 0 -300.5 -176.5t-133.5 -460.5q51 128 164 193
t245 65zM653 113q140 0 233 99t93 249q0 152 -89.5 250t-236.5 98h-20q-146 0 -243 -98.5t-97 -247.5q0 -151 97 -250.5t243 -99.5h20z" />
    <glyph glyph-name="seven" unicode="7" 
d="M139 1434h953v-164q-276 -174 -413.5 -471.5t-137.5 -757.5v-41h-140v59q0 452 148.5 771t402.5 466h-813v138z" />
    <glyph glyph-name="eight" unicode="8" 
d="M614 -20q-190 0 -309 104.5t-119 275.5q0 126 71 216t171 124q-109 33 -189.5 131.5t-80.5 223.5q0 179 126.5 289t329.5 110t330 -110t127 -289q0 -125 -80.5 -223.5t-189.5 -131.5q100 -34 170.5 -123.5t70.5 -216.5q0 -171 -119 -275.5t-309 -104.5zM604 776h21
q129 0 218 77.5t89 190.5q0 121 -87 199t-220 78h-21q-133 0 -220 -78t-87 -199q0 -113 89 -190.5t218 -77.5zM604 113h21q121 0 200.5 72.5t79.5 185.5q0 110 -80.5 186t-199.5 76h-21q-119 0 -199.5 -76t-80.5 -186q0 -113 79.5 -185.5t200.5 -72.5z" />
    <glyph glyph-name="nine" unicode="9" 
d="M584 1454q247 0 384.5 -187t137.5 -513q0 -226 -72 -402.5t-201.5 -274t-293.5 -97.5q-179 0 -297 94t-152 264h139q26 -101 108.5 -163t190.5 -62h21q180 0 300.5 176.5t133.5 460.5q-35 -86 -102 -146t-145 -86t-163 -26q-203 0 -332.5 130t-129.5 332q0 226 134.5 363
t338.5 137zM596 625q146 0 243 98.5t97 247.5q0 151 -97 250.5t-243 99.5h-21q-140 0 -232.5 -99t-92.5 -249q0 -152 89 -250t236 -98h21z" />
    <glyph glyph-name="colon" unicode=":" 
d="M502 819v225h225v-225h-225zM502 0v225h225v-225h-225z" />
    <glyph glyph-name="semicolon" unicode=";" 
d="M502 799v225h225v-225h-225zM440 -236v82h62q123 0 123 123v31h-133v225h225v-266q0 -93 -51 -144t-144 -51h-82z" />
    <glyph glyph-name="less" unicode="&#x3c;" 
d="M1044 944v-149l-675 -267l675 -268v-156l-870 363v115z" />
    <glyph glyph-name="equal" unicode="=" 
d="M109 645v133h1011v-133h-1011zM109 274v134h1011v-134h-1011z" />
    <glyph glyph-name="greater" unicode="&#x3e;" 
d="M184 944l871 -362v-115l-871 -363v150l676 268l-676 266v156z" />
    <glyph glyph-name="question" unicode="?" 
d="M455 420v260q0 92 35.5 128t127.5 36h41q110 0 168 67t58 166q0 97 -64 160t-182 63h-391v134h420q154 0 255 -100.5t101 -254.5q0 -164 -99 -266t-241 -102h-27q-40 0 -54.5 -15t-14.5 -55v-221h-133zM438 0v174h154v-174h-154z" />
    <glyph glyph-name="at" unicode="@" 
d="M895 -256q-396 0 -602.5 233t-206.5 658q0 258 62 449t192.5 301t318.5 110q213 0 337 -131t124 -328v-841h-133v131q-42 -73 -100 -112.5t-146 -39.5q-161 0 -249.5 123.5t-88.5 314.5q0 190 89.5 311t248.5 121q92 0 148 -38.5t98 -106.5v113q0 160 -84.5 265
t-234.5 105h-21q-139 0 -237.5 -98.5t-144.5 -263.5t-46 -381q0 -384 167.5 -583t508.5 -199h225v-113h-225zM762 287h10q101 0 158 91t57 234q0 139 -57 229.5t-158 90.5h-10q-108 0 -166.5 -91t-58.5 -227q0 -144 57 -235.5t168 -91.5z" />
    <glyph glyph-name="A" unicode="A" 
d="M1026 0l-125 395h-577l-125 -395h-133l456 1434h189l452 -1434h-137zM367 528h491l-246 779z" />
    <glyph glyph-name="B" unicode="B" 
d="M195 0v1434h495q183 0 284 -99t101 -276q0 -127 -63 -212.5t-166 -119.5q107 -21 183.5 -107t76.5 -225q0 -185 -109.5 -290t-302.5 -105h-499zM338 793h328q119 0 192.5 67t73.5 187q0 253 -266 253h-328v-507zM338 133h326q299 0 299 264q0 127 -81 194.5t-216 67.5
h-328v-526z" />
    <glyph glyph-name="C" unicode="C" 
d="M662 -20q-271 0 -415.5 195.5t-144.5 541.5q0 222 62 386.5t189.5 257.5t308.5 93q205 0 326.5 -127t129.5 -334h-143q-5 142 -83 235t-220 93h-21q-199 0 -302 -161.5t-103 -442.5q0 -286 101.5 -445t303.5 -159h21q147 0 221 88.5t82 238.5h143q-4 -100 -34.5 -183.5
t-86 -145.5t-141.5 -96.5t-194 -34.5z" />
    <glyph glyph-name="D" unicode="D" 
d="M184 0v1434h355q268 0 427.5 -193t159.5 -528q0 -334 -159 -523.5t-428 -189.5h-355zM328 133h209q223 0 334.5 149.5t111.5 434.5q0 283 -113.5 433t-332.5 150h-209v-1167z" />
    <glyph glyph-name="E" unicode="E" 
d="M195 0v1434h870v-134h-727v-495h616v-133h-616v-539h747v-133h-890z" />
    <glyph glyph-name="F" unicode="F" 
d="M215 0v1434h870v-134h-727v-538h666v-133h-666v-629h-143z" />
    <glyph glyph-name="G" unicode="G" 
d="M639 -20q-253 0 -395 199t-142 538q0 163 33.5 295.5t100 232t174 154.5t247.5 55q215 0 330.5 -131.5t124.5 -349.5h-143q-12 170 -90.5 259t-216.5 89h-13q-196 0 -299.5 -157t-103.5 -447q0 -134 23.5 -242.5t71 -190.5t126 -126.5t182.5 -44.5h13q143 0 237 93
t94 263v115h-325v133h325q133 0 133 -133v-584h-133v162q-111 -182 -354 -182z" />
    <glyph glyph-name="H" unicode="H" 
d="M164 0v1434h143v-650h615v650h143v-1434h-143v651h-615v-651h-143z" />
    <glyph glyph-name="I" unicode="I" 
d="M993 1300h-305v-1167h305v-133h-757v133h309v1167h-309v134h757v-134z" />
    <glyph glyph-name="J" unicode="J" 
d="M225 0v133h410q184 0 184 236v1065h144v-1059q0 -185 -84.5 -280t-241.5 -95h-412z" />
    <glyph glyph-name="K" unicode="K" 
d="M1001 0l-458 725l-205 -248v-477h-143v1434h143v-762l618 762h174l-489 -590l526 -844h-166z" />
    <glyph glyph-name="L" unicode="L" 
d="M174 0v1434h143v-1301h777v-133h-920z" />
    <glyph glyph-name="M" unicode="M" 
d="M893 1434h190v-1434h-133v1237l-258 -827h-153l-258 827v-1237h-134v1434h189l278 -897z" />
    <glyph glyph-name="N" unicode="N" 
d="M928 1434h143v-1434h-168l-602 1221v-1221h-143v1434h178l592 -1196v1196z" />
    <glyph glyph-name="O" unicode="O" 
d="M614 -20q-238 0 -375 194.5t-137 542.5t137 542.5t375 194.5t375 -194.5t137 -542.5t-137 -542.5t-375 -194.5zM610 113h8q171 0 268 161t97 443t-97 443t-268 161h-8q-171 0 -267.5 -161t-96.5 -443t96.5 -443t267.5 -161z" />
    <glyph glyph-name="P" unicode="P" 
d="M199 0v1434h469q194 0 315 -111.5t121 -312.5q0 -134 -60 -230.5t-158.5 -143t-223.5 -46.5h-320v-590h-143zM342 723h293q155 0 240.5 72t85.5 215q0 144 -83.5 217t-240.5 73h-295v-577z" />
    <glyph glyph-name="Q" unicode="Q" 
d="M686 -123q0 -54 24 -78t78 -24h304v-133h-334q-215 0 -215 217v125q-206 30 -323.5 222t-117.5 511q0 348 137 542.5t375 194.5t375 -194.5t137 -542.5q0 -320 -117 -511.5t-323 -221.5v-107zM246 717q0 -282 96.5 -443t267.5 -161h8q171 0 268 161t97 443t-97 443
t-268 161h-8q-171 0 -267.5 -161t-96.5 -443z" />
    <glyph glyph-name="R" unicode="R" 
d="M872 707q98 0 140.5 -47t42.5 -148v-512h-144v512q0 92 -92 92h-481v-604h-143v1434h442q189 0 313.5 -108.5t124.5 -274.5q0 -122 -58.5 -213t-158.5 -131h14zM616 737q128 0 222 81.5t94 211.5q0 127 -84 198.5t-232 71.5h-278v-563h278z" />
    <glyph glyph-name="S" unicode="S" 
d="M616 -20q-259 0 -393.5 127t-134.5 344h143q14 -338 392 -338h12q155 0 240.5 75t85.5 191q0 100 -60.5 159.5t-193.5 88.5l-201 43q-179 39 -263.5 128t-84.5 246q0 173 130.5 291.5t342.5 118.5q225 0 356 -119t139 -321h-143q-7 142 -100.5 224.5t-243.5 82.5h-12
q-143 0 -234.5 -78t-91.5 -196q0 -97 59 -153t185 -83l200 -43q359 -75 359 -381q0 -183 -131.5 -295t-356.5 -112z" />
    <glyph glyph-name="T" unicode="T" 
d="M543 0v1300h-420v134h983v-134h-420v-1300h-143z" />
    <glyph glyph-name="U" unicode="U" 
d="M614 -20q-222 0 -341 131t-119 366v957h143v-936q0 -385 313 -385h8q314 0 314 385v936h143v-957q0 -235 -119.5 -366t-341.5 -131z" />
    <glyph glyph-name="V" unicode="V" 
d="M991 1434h152l-434 -1434h-189l-434 1434h152l376 -1287z" />
    <glyph glyph-name="W" unicode="W" 
d="M993 1434h137l-122 -1434h-179l-213 887l-229 -887h-184l-103 1434h133l82 -1266l215 856h177l196 -846z" />
    <glyph glyph-name="X" unicode="X" 
d="M1155 0h-158l-381 618l-389 -618h-153l461 733l-437 701h158l358 -580l365 580h154l-439 -697z" />
    <glyph glyph-name="Y" unicode="Y" 
d="M971 1434h155l-442 -863v-571h-143v571l-439 863h158l354 -723z" />
    <glyph glyph-name="Z" unicode="Z" 
d="M297 133h778v-133h-921v152l751 1148h-731v134h881v-142z" />
    <glyph glyph-name="bracketleft" unicode="[" 
d="M522 -297v2028h410v-113h-277v-1802h277v-113h-410z" />
    <glyph glyph-name="backslash" unicode="\" 
d="M266 1434h144l553 -1434h-144z" />
    <glyph glyph-name="bracketright" unicode="]" 
d="M707 1731v-2028h-410v113h276v1802h-276v113h410z" />
    <glyph glyph-name="asciicircum" unicode="^" 
d="M1059 584h-137l-310 729l-309 -729h-133l362 850h162z" />
    <glyph glyph-name="underscore" unicode="_" 
d="M174 -113v113h881v-113h-881z" />
    <glyph glyph-name="grave" unicode="`" 
d="M655 1167l-180 267h164l117 -267h-101z" />
    <glyph glyph-name="a" unicode="a" 
d="M1016 225q0 -153 10 -225h-123q-10 56 -10 164q-33 -75 -133.5 -129.5t-229.5 -54.5q-136 0 -229.5 86.5t-93.5 216.5q0 65 22 117t56.5 85t82 56.5t94 34t97.5 14.5l324 24v41q0 131 -68.5 204t-187.5 73h-11q-103 0 -174.5 -51t-81.5 -144h-133q9 136 119 221.5
t275 85.5q97 0 173.5 -31t124 -85t72.5 -123.5t25 -149.5v-430zM565 92q71 0 144.5 37t123.5 102t50 138v137l-297 -21q-111 -8 -178.5 -59.5t-67.5 -134.5q0 -85 58.5 -142t146.5 -57h20z" />
    <glyph glyph-name="b" unicode="b" 
d="M317 1434v-574q45 83 142 133.5t200 50.5q202 0 329.5 -144.5t127.5 -387.5t-127.5 -387.5t-329.5 -144.5q-103 0 -200 50.5t-142 133.5v-164h-133v1434h133zM655 932h-10q-80 0 -144 -34.5t-103.5 -93t-60 -133.5t-20.5 -159t20.5 -159t60 -133.5t103.5 -93t144 -34.5
h10q80 0 143 34.5t102.5 93t60 133.5t20.5 159t-20.5 159t-60 133.5t-102.5 93t-143 34.5z" />
    <glyph glyph-name="c" unicode="c" 
d="M649 -20q-148 0 -256 70.5t-161.5 190t-53.5 271.5t53.5 271.5t161.5 190t256 70.5q167 0 276 -94t124 -254h-134q-18 105 -86.5 170.5t-169.5 65.5h-20q-107 0 -183 -59.5t-110.5 -152.5t-34.5 -208t34.5 -208t110.5 -152.5t183 -59.5h20q99 0 167 66.5t89 169.5h134
q-28 -161 -132.5 -254.5t-267.5 -93.5z" />
    <glyph glyph-name="d" unicode="d" 
d="M1034 1434v-1434h-133v164q-45 -83 -142 -133.5t-200 -50.5q-202 0 -329.5 144.5t-127.5 387.5t127.5 387.5t329.5 144.5q103 0 200 -50.5t142 -133.5v574h133zM573 932h-10q-105 0 -180.5 -60t-110 -153t-34.5 -207t34.5 -207t110 -153t180.5 -60h10q80 0 144 34.5
t103.5 93t60 133.5t20.5 159t-20.5 159t-60 133.5t-103.5 93t-144 34.5z" />
    <glyph glyph-name="e" unicode="e" 
d="M1049 584v-82h-738q1 -105 28 -185.5t72 -128.5t101 -72t121 -24h12q96 0 168 51t100 150h134q-33 -151 -142.5 -232t-269.5 -81q-97 0 -179.5 34.5t-144.5 100.5t-97.5 168.5t-35.5 230.5q0 130 38 233t102.5 167t145.5 97t171 33q185 0 299.5 -130.5t114.5 -329.5z
M623 932q-52 0 -99 -16t-91.5 -51t-76 -99t-41.5 -152h600q-5 139 -79 228.5t-193 89.5h-20z" />
    <glyph glyph-name="f" unicode="f" 
d="M489 0v911h-346v113h346v225q0 98 47 141.5t148 43.5h381v-113h-360q-46 0 -64 -18t-18 -64v-215h391v-113h-391v-911h-134z" />
    <glyph glyph-name="g" unicode="g" 
d="M586 -451q-214 0 -330.5 84t-132.5 224h133q20 -95 103.5 -145t215.5 -50h21q68 0 125.5 20t104.5 61.5t73.5 111.5t26.5 163v166q-47 -87 -133.5 -135.5t-206.5 -48.5q-197 0 -320 136t-123 376q0 242 124 387t319 145q120 0 206.5 -48.5t133.5 -135.5v164h133v-1016
q0 -204 -127 -331.5t-346 -127.5zM590 113h20q141 0 228.5 105.5t87.5 293.5q0 190 -88 305t-228 115h-20q-139 0 -226.5 -115t-87.5 -305q0 -188 86.5 -293.5t227.5 -105.5z" />
    <glyph glyph-name="h" unicode="h" 
d="M696 1044q166 0 257 -101t91 -267v-676h-133v635q0 297 -245 297h-21q-126 0 -221.5 -104.5t-95.5 -274.5v-553h-133v1434h133v-584q54 93 147.5 143.5t220.5 50.5z" />
    <glyph glyph-name="i" unicode="i" 
d="M768 1413v-205h-184v205h184zM743 113h367v-113h-877v113h377v798h-346v113h479v-911z" />
    <glyph glyph-name="j" unicode="j" 
d="M643 1413h184v-205h-184v205zM803 1024v-1178q0 -98 -47 -141t-148 -43h-409v113h389q46 0 64 18t18 64v1054h-346v113h479z" />
    <glyph glyph-name="k" unicode="k" 
d="M930 0l-375 524l-176 -168v-356h-133v1434h133v-910l514 500h182l-426 -408l447 -616h-166z" />
    <glyph glyph-name="l" unicode="l" 
d="M680 113h367v-113h-877v113h377v1208h-326v113h459v-1321z" />
    <glyph glyph-name="m" unicode="m" 
d="M877 1044q101 0 161 -67t60 -205v-772h-133v768q0 80 -27.5 122t-79.5 42h-4q-70 0 -119 -70.5t-49 -181.5v-680h-133v768q0 80 -27.5 122t-79.5 42h-4q-70 0 -119 -70.5t-49 -181.5v-680h-133v1024h133v-106q64 126 191 126q72 0 124.5 -34.5t76.5 -104.5
q78 139 211 139z" />
    <glyph glyph-name="n" unicode="n" 
d="M195 0v1024h133v-172q45 87 140 139.5t218 52.5q159 0 258.5 -97.5t99.5 -276.5v-670h-133v629q0 303 -245 303h-13q-106 0 -181.5 -60t-109.5 -153t-34 -207v-512h-133z" />
    <glyph glyph-name="o" unicode="o" 
d="M614 -20q-205 0 -342 148.5t-137 383.5t137 383.5t342 148.5t342.5 -148.5t137.5 -383.5t-137.5 -383.5t-342.5 -148.5zM604 92h21q142 0 237.5 114.5t95.5 305.5t-95.5 305.5t-237.5 114.5h-21q-142 0 -238 -114.5t-96 -305.5t96 -305.5t238 -114.5z" />
    <glyph glyph-name="p" unicode="p" 
d="M195 -410v1434h133v-164q45 83 142 133.5t200 50.5q202 0 329 -144.5t127 -387.5t-127 -387.5t-329 -144.5q-103 0 -200 50.5t-142 133.5v-574h-133zM655 92h11q105 0 180.5 60t110 153t34.5 207t-34.5 207t-110 153t-180.5 60h-11q-106 0 -182 -60t-110.5 -153
t-34.5 -207t34.5 -207t110.5 -153t182 -60z" />
    <glyph glyph-name="q" unicode="q" 
d="M911 -410v574q-45 -83 -142 -133.5t-200 -50.5q-202 0 -329 144.5t-127 387.5t127 387.5t329 144.5q103 0 200 -50.5t142 -133.5v164h133v-1434h-133zM573 92h11q106 0 182 60t110.5 153t34.5 207t-34.5 207t-110.5 153t-182 60h-11q-105 0 -180.5 -60t-110 -153
t-34.5 -207t34.5 -207t110 -153t180.5 -60z" />
    <glyph glyph-name="r" unicode="r" 
d="M338 0v1024h123v-199q47 209 327 209h216v-123h-218q-315 0 -315 -393v-518h-133z" />
    <glyph glyph-name="s" unicode="s" 
d="M623 -20q-191 0 -295.5 90t-112.5 237h133q10 -103 82.5 -159t181.5 -56h21q107 0 169 49.5t62 134.5q0 62 -40 99.5t-140 58.5l-149 31q-62 13 -110 33.5t-87.5 52.5t-60.5 80.5t-21 111.5q0 140 106.5 220.5t260.5 80.5q95 0 169 -27t119 -74t69 -104t28 -122h-134
q-9 89 -75 152t-166 63h-21q-103 0 -163 -54t-60 -133q0 -56 44.5 -94t141.5 -59l160 -35q59 -13 103 -31.5t81 -49.5t57 -78.5t21 -110.5q1 -144 -101 -225.5t-273 -81.5z" />
    <glyph glyph-name="t" unicode="t" 
d="M684 0q-101 0 -148 43t-47 141v727h-346v113h346v332h134v-332h385v-113h-385v-716q0 -46 18 -64t64 -18h350v-113h-371z" />
    <glyph glyph-name="u" unicode="u" 
d="M891 1024h133v-1024h-133v193q-40 -102 -128.5 -157.5t-213.5 -55.5q-167 0 -260.5 101.5t-93.5 266.5v676h133v-635q0 -297 245 -297h21q119 0 208 104t89 275v553z" />
    <glyph glyph-name="v" unicode="v" 
d="M950 1024h140l-394 -1024h-166l-391 1024h142l333 -903z" />
    <glyph glyph-name="w" unicode="w" 
d="M981 1024h131l-172 -1024h-154l-172 647l-174 -647h-151l-172 1024h135l125 -864l160 614h157l160 -616z" />
    <glyph glyph-name="x" unicode="x" 
d="M1085 0h-155l-318 420l-319 -420h-150l396 520l-381 504h155l303 -401l306 401h149l-381 -500z" />
    <glyph glyph-name="y" unicode="y" 
d="M1106 1024l-418 -989v-195q0 -93 -47 -135.5t-147 -42.5h-312v113h291q46 0 64 18t18 64v172l-430 995h145l348 -829l349 829h139z" />
    <glyph glyph-name="z" unicode="z" 
d="M350 113h670v-113h-809v125l635 786h-625v113h768v-121z" />
    <glyph glyph-name="braceleft" unicode="{" 
d="M799 -297q-126 0 -181 76.5t-55 240.5v420q0 84 -20.5 114t-81.5 30h-51v266h51q61 0 81.5 29.5t20.5 113.5v420q0 164 55 241t181 77h133v-113h-113q-74 0 -98.5 -35t-24.5 -129v-543q0 -174 -164 -174v-41q164 0 164 -174v-542q0 -94 24.5 -129t98.5 -35h113v-113h-133
z" />
    <glyph glyph-name="bar" unicode="|" 
d="M547 -174v1782h133v-1782h-133z" />
    <glyph glyph-name="braceright" unicode="}" 
d="M430 1731q126 0 181 -77t55 -241v-420q0 -84 20.5 -113.5t81.5 -29.5h51v-266h-51q-61 0 -81.5 -30t-20.5 -114v-420q0 -164 -55 -240.5t-181 -76.5h-133v113h113q74 0 98 35t24 129v542q0 174 164 174v41q-164 0 -164 174v543q0 94 -24 129t-98 35h-113v113h133z" />
    <glyph glyph-name="asciitilde" unicode="~" 
d="M780 711q-11 0 -23.5 1.5t-22 4t-22 7t-20 7t-19.5 9t-16.5 8.5t-16.5 8.5t-13 7.5l-78 45q-66 41 -96 41q-84 0 -84 -129h-103v20q0 106 52.5 160.5t138.5 54.5q58 0 145 -53l82 -49q3 -2 12.5 -7.5t12.5 -7t11 -6t11.5 -6t10.5 -4t11.5 -3.5t10.5 -2t12 -1q84 0 84 129
h103v-20q0 -101 -50 -158t-133 -57z" />
    <glyph glyph-name="uni00A0" unicode="&#xa0;" 
 />
    <glyph glyph-name="exclamdown" unicode="&#xa1;" 
d="M516 1024h154v-174h-154v174zM563 604h62l41 -584v-430h-144v430z" />
    <glyph glyph-name="cent" unicode="&#xa2;" 
d="M911 328h140q-28 -161 -133 -254.5t-269 -93.5q-25 0 -35 2l-39 -228h-124l43 248q-151 50 -233.5 187t-82.5 323q0 152 53.5 271.5t161.5 190t256 70.5h19l39 226h124l-40 -246q109 -34 176.5 -119.5t79.5 -208.5h-140q-10 66 -46.5 116.5t-92.5 76.5l-131 -776h2h20
q98 0 165.5 60.5t86.5 154.5zM317 512q0 -132 50.5 -233.5t148.5 -141.5l129 774h-6q-80 0 -142.5 -32t-101 -88t-58.5 -127t-20 -152z" />
    <glyph glyph-name="sterling" unicode="&#xa3;" 
d="M373 133h729v-133h-973v133h41q154 0 166 184l20 283l-227 -51v123l238 53l20 281q15 212 115.5 320t298.5 108h198v-134h-204q-134 0 -196 -77.5t-73 -227.5l-18 -237l287 63v-123l-297 -67l-23 -295q-6 -80 -28 -126t-74 -77z" />
    <glyph glyph-name="currency" unicode="&#xa4;" 
d="M1073 625q0 -149 -86 -269l154 -145l-86 -86l-154 145q-123 -96 -285 -96q-159 0 -288 98l-156 -147l-86 86l158 149q-84 117 -84 265q0 138 76 254l-150 151l86 86l150 -143q124 102 294 102q166 0 291 -98l148 139l86 -86l-146 -147q78 -115 78 -258zM627 307
q131 0 219 92.5t88 225.5q0 135 -87.5 226t-219.5 91h-21q-132 0 -219.5 -91t-87.5 -226q0 -132 92.5 -225t224.5 -93h11z" />
    <glyph glyph-name="yen" unicode="&#xa5;" 
d="M1126 1434l-352 -689l273 62v-123l-345 -78l-18 -35v-135l301 68v-123l-301 -68v-313h-143v281l-297 -66v123l297 65v166l-359 -80v123l303 68l-383 754h158l354 -723l357 723h155z" />
    <glyph glyph-name="brokenbar" unicode="&#xa6;" 
d="M547 881v727h133v-727h-133zM547 -174v747h133v-747h-133z" />
    <glyph glyph-name="section" unicode="&#xa7;" 
d="M260 -123v133h406q87 0 129.5 39t42.5 109q0 51 -44 87.5t-141 73.5l-284 107q-95 35 -143 97t-48 136q0 78 50.5 149.5t142.5 127.5q-61 52 -91 104t-30 117q0 134 85.5 205.5t239.5 71.5h351v-134h-348q-89 0 -139 -35.5t-50 -107.5q0 -57 41.5 -93t138.5 -67l187 -61
q72 -23 121 -46.5t90.5 -57t61.5 -78.5t20 -103q0 -164 -193 -278q62 -49 91.5 -97.5t29.5 -117.5q0 -56 -18.5 -104.5t-56 -89t-103 -64t-152.5 -23.5h-387zM731 436q104 45 141 93.5t37 101.5q0 31 -14 57t-34 43.5t-55.5 35t-63.5 28t-72 24.5l-178 58
q-86 -35 -130.5 -90.5t-44.5 -110.5q0 -18 5.5 -34.5t13 -28t24 -24t27.5 -20t36.5 -18t38 -15.5t44.5 -16t45 -16z" />
    <glyph glyph-name="dieresis" unicode="&#xa8;" 
d="M358 1208v164h154v-164h-154zM717 1208v164h153v-164h-153z" />
    <glyph glyph-name="copyright" unicode="&#xa9;" 
d="M618 102q-166 0 -307.5 82.5t-224 224.5t-82.5 308t82.5 307.5t224 224t307.5 82.5t308 -82.5t224.5 -224t82.5 -307.5q0 -124 -49 -238t-131.5 -196.5t-196.5 -131.5t-238 -49zM618 190q142 0 262.5 71t190.5 192.5t70 263.5t-70 263.5t-190.5 192t-262.5 70.5
q-106 0 -203 -42t-166.5 -112.5t-111 -167.5t-41.5 -204q0 -142 69.5 -263.5t190 -192.5t262.5 -71zM623 356q-144 0 -240 94.5t-96 266.5q0 167 92.5 269t243.5 101q119 -2 197 -65t91 -176h-112q-12 62 -59.5 104.5t-114.5 42.5h-11q-91 0 -152 -77t-61 -199
q0 -121 60.5 -193.5t152.5 -72.5h11q69 0 119.5 40.5t62.5 106.5h115q-20 -112 -103.5 -177t-195.5 -65z" />
    <glyph glyph-name="ordfeminine" unicode="&#xaa;" 
d="M547 840q-76 0 -125 47t-49 127q0 84 48.5 130t129.5 56l184 21v18q0 51 -34 82t-83 31h-6q-46 0 -82 -28.5t-36 -76.5h-113q4 93 72.5 145t164.5 52q95 0 162.5 -56.5t67.5 -152.5v-258q0 -84 6 -127h-102q-11 60 -11 102q-21 -55 -73 -83.5t-121 -28.5zM578 932h6
q64 0 107 37.5t44 105.5v66l-151 -17q-42 -5 -70.5 -31.5t-28.5 -70.5q0 -43 26.5 -66.5t66.5 -23.5z" />
    <glyph glyph-name="guillemotleft" unicode="&#xab;" 
d="M643 1024l-295 -438l299 -443h-155l-297 441l297 440h151zM725 586l299 -443h-156l-297 441l297 440h152z" />
    <glyph glyph-name="logicalnot" unicode="&#xac;" 
d="M922 266v297h-772v133h911v-430h-139z" />
    <glyph glyph-name="uni00AD" unicode="&#xad;" 
d="M358 563v113h512v-113h-512z" />
    <glyph glyph-name="registered" unicode="&#xae;" 
d="M618 102q-166 0 -307.5 82.5t-224 224.5t-82.5 308t82.5 307.5t224 224t307.5 82.5t308 -82.5t224.5 -224t82.5 -307.5q0 -124 -49 -238t-131.5 -196.5t-196.5 -131.5t-238 -49zM618 190q142 0 262.5 71t190.5 192.5t70 263.5t-70 263.5t-190.5 192t-262.5 70.5
q-106 0 -203 -42t-166.5 -112.5t-111 -167.5t-41.5 -204q0 -142 69.5 -263.5t190 -192.5t262.5 -71zM381 383v688h303q103 0 161 -52t58 -136q0 -73 -39 -119.5t-100 -54.5q71 -2 101 -34t30 -114v-178h-113v180q0 88 -98 88h-190v-268h-113zM494 739h143q72 0 113 30t41 89
q0 67 -38 94t-116 27h-143v-240z" />
    <glyph glyph-name="macron" unicode="&#xaf;" 
d="M334 1208v113h563v-113h-563z" />
    <glyph glyph-name="degree" unicode="&#xb0;" 
d="M473 696q-164 0 -271.5 108.5t-107.5 270.5t107.5 270.5t271.5 108.5q162 0 270.5 -108.5t108.5 -270.5t-108.5 -270.5t-270.5 -108.5zM473 815q104 0 178 76.5t74 183.5t-74 183.5t-178 76.5t-178 -76.5t-74 -183.5t74 -183.5t178 -76.5z" />
    <glyph glyph-name="plusminus" unicode="&#xb1;" 
d="M680 727h440v-133h-440v-287h-131v287h-440v133h440v297h131v-297zM109 0v133h1011v-133h-1011z" />
    <glyph glyph-name="uni00B2" unicode="&#xb2;" 
d="M342 850v139l258 225q96 84 125 123.5t29 96.5q0 59 -38 96t-95 37h-11q-51 0 -95 -39t-44 -103h-125q0 110 80 177t192 67q114 0 187.5 -63t73.5 -172q0 -44 -12 -81t-40.5 -72t-48 -54t-61.5 -56l-252 -219h422v-102h-545z" />
    <glyph glyph-name="uni00B3" unicode="&#xb3;" 
d="M610 840q-114 0 -194 62t-80 171h125q3 -60 42 -95.5t101 -35.5h10q67 0 111.5 38t44.5 103q0 60 -39 93.5t-98 33.5h-90v97h94q58 0 92.5 32.5t34.5 92.5q0 66 -38.5 100.5t-104.5 34.5h-11q-61 0 -97.5 -33.5t-39.5 -89.5h-125q0 107 79 166t194 59q113 0 190.5 -59.5
t77.5 -165.5q0 -63 -30.5 -112.5t-82.5 -74.5q57 -23 88 -72t31 -114q0 -105 -85.5 -168t-199.5 -63z" />
    <glyph glyph-name="acute" unicode="&#xb4;" 
d="M502 1167l116 267h164l-180 -267h-100z" />
    <glyph glyph-name="uni00B5" unicode="&#xb5;" 
d="M901 1024h133v-1024h-133v193q-40 -102 -128.5 -157.5t-213.5 -55.5q-131 0 -221 65v-455h-133v1434h133v-635q0 -297 246 -297h20q119 0 208 104t89 275v553z" />
    <glyph glyph-name="paragraph" unicode="&#xb6;" 
d="M498 -410v1076h-41q-173 0 -284.5 112.5t-111.5 272.5t109 271.5t274 111.5h709v-113h-123v-1731h-133v1731h-266v-1731h-133z" />
    <glyph glyph-name="periodcentered" unicode="&#xb7;" 
d="M502 614v226h225v-226h-225z" />
    <glyph glyph-name="cedilla" unicode="&#xb8;" 
d="M467 -461v113h129q44 0 72 23t28 67t-28 66t-72 22h-57v201h92v-123q68 2 118 -45t50 -121q0 -88 -54.5 -145.5t-150.5 -57.5h-127z" />
    <glyph glyph-name="uni00B9" unicode="&#xb9;" 
d="M614 850v655l-239 -192v121l278 225h78v-809h-117z" />
    <glyph glyph-name="ordmasculine" unicode="&#xba;" 
d="M614 840q-123 0 -195.5 81.5t-72.5 219.5t72.5 220.5t195.5 82.5t196 -82.5t73 -220.5t-73 -219.5t-196 -81.5zM616 932q72 0 111 57t39 152q0 94 -40.5 152.5t-111.5 58.5t-111 -58.5t-40 -152.5t41 -151.5t112 -57.5z" />
    <glyph glyph-name="guillemotright" unicode="&#xbb;" 
d="M360 1024l297 -440l-297 -441h-151l295 439l-299 442h155zM737 1024l297 -440l-297 -441h-151l295 439l-299 442h155z" />
    <glyph glyph-name="onequarter" unicode="&#xbc;" 
d="M258 827v453l-176 -147v133l203 168h88v-607h-115zM117 0l860 1434h133l-860 -1434h-133zM946 0v133h-287v100l279 373h123v-373h86v-100h-86v-133h-115zM772 233h174v236z" />
    <glyph glyph-name="onehalf" unicode="&#xbd;" 
d="M258 827v453l-176 -147v133l203 168h88v-607h-115zM117 0l860 1434h133l-860 -1434h-133zM735 0v127l205 178q5 4 21.5 19t24.5 22t21.5 21.5t20 24.5t11.5 23t5 25q-1 32 -26 50t-64 18h-6q-38 0 -63.5 -22.5t-28.5 -63.5h-119q4 88 65.5 140t153.5 52q87 0 147 -48
t60 -128q0 -32 -10.5 -60t-37 -57t-41.5 -43t-54 -47l-152 -125h301v-106h-434z" />
    <glyph glyph-name="threequarters" unicode="&#xbe;" 
d="M295 819q-90 0 -153.5 50t-63.5 135h119q-1 -37 26 -60.5t68 -23.5h8q44 0 74 21.5t30 59.5q0 37 -25.5 58.5t-64.5 21.5h-59v107h61q36 0 60 21t24 55t-27.5 54.5t-68.5 20.5h-8q-38 0 -64 -20.5t-26 -54.5h-117q0 84 61.5 131t153.5 47q90 0 151.5 -44.5t61.5 -125.5
q0 -47 -26.5 -83.5t-71.5 -53.5q104 -53 104 -146q0 -82 -66 -126t-161 -44zM117 0l860 1434h133l-860 -1434h-133zM946 0v133h-287v100l279 373h123v-373h86v-100h-86v-133h-115zM772 233h174v236z" />
    <glyph glyph-name="questiondown" unicode="&#xbf;" 
d="M791 1024v-174h-154v174h154zM774 604v-260q0 -92 -36 -128t-128 -36h-41q-110 0 -167.5 -67t-57.5 -166q0 -97 64 -160t182 -63h391v-134h-420q-154 0 -255 100.5t-101 254.5q0 164 99 266t241 102h26q40 0 55 15t15 55v221h133z" />
    <glyph glyph-name="Agrave" unicode="&#xc0;" 
d="M705 1567h-123l-170 256h184zM1026 0l-125 395h-577l-125 -395h-133l456 1434h189l452 -1434h-137zM367 528h491l-246 779z" />
    <glyph glyph-name="Aacute" unicode="&#xc1;" 
d="M866 1823l-170 -256h-123l109 256h184zM1026 0l-125 395h-577l-125 -395h-133l456 1434h189l452 -1434h-137zM367 528h491l-246 779z" />
    <glyph glyph-name="Acircumflex" unicode="&#xc2;" 
d="M618 1714l-188 -147h-139l235 256h185l235 -256h-139zM1026 0l-125 395h-577l-125 -395h-133l456 1434h189l452 -1434h-137zM367 528h491l-246 779z" />
    <glyph glyph-name="Atilde" unicode="&#xc3;" 
d="M469 1710q-84 0 -84 -133h-102v47q0 85 51 142t127 57q37 0 67 -13.5t80 -48.5l15 -10q10 -7 32.5 -24t32.5 -24t26.5 -17t30 -13.5t27.5 -3.5q82 0 82 133h102v-47q0 -85 -51.5 -142t-126.5 -57q-40 0 -75.5 17.5t-84.5 54.5l-16 12q-5 4 -27 20.5t-34 24.5t-32.5 16.5
t-39.5 8.5zM1026 0l-125 395h-577l-125 -395h-133l456 1434h189l452 -1434h-137zM367 528h491l-246 779z" />
    <glyph glyph-name="Adieresis" unicode="&#xc4;" 
d="M510 1761v-164h-164v164h164zM891 1761v-164h-164v164h164zM1026 0l-125 395h-577l-125 -395h-133l456 1434h189l452 -1434h-137zM367 528h491l-246 779z" />
    <glyph glyph-name="Aring" unicode="&#xc5;" 
d="M618 1554q-64 0 -112.5 47t-48.5 115t48.5 115t112.5 47t113 -47t49 -115t-49 -115t-113 -47zM621 1786q-28 0 -49 -21t-21 -49t21 -48.5t49 -20.5q27 0 46 20.5t19 48.5t-19 49t-46 21zM1026 0l-125 395h-577l-125 -395h-133l456 1434h189l452 -1434h-137zM367 528h491
l-246 779z" />
    <glyph glyph-name="AE" unicode="&#xc6;" 
d="M721 133h436v-133h-579v395h-285l-129 -395h-137l475 1434h635v-134h-416v-495h340v-133h-340v-539zM336 528h242v742z" />
    <glyph glyph-name="Ccedilla" unicode="&#xc7;" 
d="M672 113q147 0 221 88.5t82 238.5h143q-8 -195 -112.5 -319t-294.5 -139v-74q68 2 118 -45t50 -121q0 -88 -54.5 -145.5t-150.5 -57.5h-127v113h129q44 0 72 23t28 67t-28 66t-72 22h-58v152q-250 15 -383 209t-133 526q0 222 62 386.5t189.5 257.5t308.5 93
q205 0 326.5 -127t129.5 -334h-143q-5 142 -83 235t-220 93h-21q-199 0 -302 -161.5t-103 -442.5q0 -286 101.5 -445t303.5 -159h21z" />
    <glyph glyph-name="Egrave" unicode="&#xc8;" 
d="M733 1567h-123l-170 256h185zM195 0v1434h870v-134h-727v-495h616v-133h-616v-539h747v-133h-890z" />
    <glyph glyph-name="Eacute" unicode="&#xc9;" 
d="M602 1567l109 256h184l-170 -256h-123zM195 0v1434h870v-134h-727v-495h616v-133h-616v-539h747v-133h-890z" />
    <glyph glyph-name="Ecircumflex" unicode="&#xca;" 
d="M647 1714l-188 -147h-140l236 256h184l236 -256h-139zM338 133h747v-133h-890v1434h870v-134h-727v-495h616v-133h-616v-539z" />
    <glyph glyph-name="Edieresis" unicode="&#xcb;" 
d="M375 1597v164h164v-164h-164zM756 1597v164h164v-164h-164zM195 0v1434h870v-134h-727v-495h616v-133h-616v-539h747v-133h-890z" />
    <glyph glyph-name="Igrave" unicode="&#xcc;" 
d="M713 1567h-123l-170 256h184zM993 1300h-305v-1167h305v-133h-757v133h309v1167h-309v134h757v-134z" />
    <glyph glyph-name="Iacute" unicode="&#xcd;" 
d="M874 1823l-169 -256h-123l108 256h184zM993 1300h-305v-1167h305v-133h-757v133h309v1167h-309v134h757v-134z" />
    <glyph glyph-name="Icircumflex" unicode="&#xce;" 
d="M627 1714l-189 -147h-139l236 256h184l235 -256h-139zM993 1300h-305v-1167h305v-133h-757v133h309v1167h-309v134h757v-134z" />
    <glyph glyph-name="Idieresis" unicode="&#xcf;" 
d="M518 1761v-164h-164v164h164zM899 1761v-164h-164v164h164zM993 1300h-305v-1167h305v-133h-757v133h309v1167h-309v134h757v-134z" />
    <glyph glyph-name="Eth" unicode="&#xd0;" 
d="M563 1434q268 0 428 -193t160 -528q0 -334 -159.5 -523.5t-428.5 -189.5h-354v657h-191v123h191v654h354zM561 133q223 0 335 149.5t112 434.5q0 283 -114 433t-333 150h-209v-520h322v-123h-322v-524h209z" />
    <glyph glyph-name="Ntilde" unicode="&#xd1;" 
d="M475 1710q-84 0 -84 -133h-102v47q0 85 51 142t127 57q37 0 67 -13.5t80 -48.5l15 -10q10 -7 32.5 -24t32.5 -24t26.5 -17t30 -13.5t27.5 -3.5q82 0 82 133h103v-47q0 -84 -52 -141.5t-127 -57.5q-40 0 -74.5 17.5t-84.5 54.5l-17 12q-5 4 -27 20.5t-34 24.5t-32.5 16.5
t-39.5 8.5zM928 1434h143v-1434h-168l-602 1221v-1221h-143v1434h178l592 -1196v1196z" />
    <glyph glyph-name="Ograve" unicode="&#xd2;" 
d="M715 1567h-123l-170 256h184zM614 -20q-238 0 -375 194.5t-137 542.5t137 542.5t375 194.5t375 -194.5t137 -542.5t-137 -542.5t-375 -194.5zM610 113h8q171 0 268 161t97 443t-97 443t-268 161h-8q-171 0 -267.5 -161t-96.5 -443t96.5 -443t267.5 -161z" />
    <glyph glyph-name="Oacute" unicode="&#xd3;" 
d="M584 1567l108 256h185l-170 -256h-123zM614 -20q-238 0 -375 194.5t-137 542.5t137 542.5t375 194.5t375 -194.5t137 -542.5t-137 -542.5t-375 -194.5zM610 113h8q171 0 268 161t97 443t-97 443t-268 161h-8q-171 0 -267.5 -161t-96.5 -443t96.5 -443t267.5 -161z" />
    <glyph glyph-name="Ocircumflex" unicode="&#xd4;" 
d="M629 1714l-189 -147h-139l236 256h184l235 -256h-139zM614 1454q238 0 375 -194.5t137 -542.5t-137 -542.5t-375 -194.5t-375 194.5t-137 542.5t137 542.5t375 194.5zM618 113q171 0 268 161t97 443t-97 443t-268 161h-8q-171 0 -267.5 -161t-96.5 -443t96.5 -443
t267.5 -161h8z" />
    <glyph glyph-name="Otilde" unicode="&#xd5;" 
d="M788 1556q-40 0 -74.5 17.5t-84.5 54.5l-17 12q-5 4 -27 20.5t-34 24.5t-32.5 16.5t-39.5 8.5q-84 0 -84 -133h-102v47q0 85 51 142t127 57q37 0 67 -13.5t80 -48.5l15 -10q10 -7 32.5 -24t32.5 -24t26.5 -17t30 -13.5t27.5 -3.5q82 0 82 133h103v-47q0 -84 -52 -141.5
t-127 -57.5zM614 -20q-238 0 -375 194.5t-137 542.5t137 542.5t375 194.5t375 -194.5t137 -542.5t-137 -542.5t-375 -194.5zM610 113h8q171 0 268 161t97 443t-97 443t-268 161h-8q-171 0 -267.5 -161t-96.5 -443t96.5 -443t267.5 -161z" />
    <glyph glyph-name="Odieresis" unicode="&#xd6;" 
d="M356 1597v164h164v-164h-164zM737 1597v164h164v-164h-164zM614 -20q-238 0 -375 194.5t-137 542.5t137 542.5t375 194.5t375 -194.5t137 -542.5t-137 -542.5t-375 -194.5zM610 113h8q171 0 268 161t97 443t-97 443t-268 161h-8q-171 0 -267.5 -161t-96.5 -443t96.5 -443
t267.5 -161z" />
    <glyph glyph-name="multiply" unicode="&#xd7;" 
d="M1040 858l-329 -330l329 -331l-96 -97l-330 332l-331 -332l-97 97l332 331l-332 330l97 96l331 -329l330 329z" />
    <glyph glyph-name="Oslash" unicode="&#xd8;" 
d="M1147 1425l-131 -202q112 -194 112 -506q0 -348 -137 -542.5t-375 -194.5q-195 0 -323 131l-109 -168l-100 65l133 205q-113 188 -113 504q0 348 137 542.5t375 194.5q194 0 322 -131l109 168zM248 717q0 -219 59 -367l553 852q-93 119 -239 119h-9q-171 0 -267.5 -161
t-96.5 -443zM985 717q0 220 -59 368l-553 -852q91 -120 239 -120h9q171 0 267.5 161t96.5 443z" />
    <glyph glyph-name="Ugrave" unicode="&#xd9;" 
d="M670 1567h-123l-170 256h184zM614 -20q-222 0 -341 131t-119 366v957h143v-936q0 -385 313 -385h8q314 0 314 385v936h143v-957q0 -235 -119.5 -366t-341.5 -131z" />
    <glyph glyph-name="Uacute" unicode="&#xda;" 
d="M539 1567l108 256h184l-169 -256h-123zM614 -20q-222 0 -341 131t-119 366v957h143v-936q0 -385 313 -385h8q314 0 314 385v936h143v-957q0 -235 -119.5 -366t-341.5 -131z" />
    <glyph glyph-name="Ucircumflex" unicode="&#xdb;" 
d="M584 1714l-189 -147h-139l236 256h184l235 -256h-139zM932 1434h143v-957q0 -235 -119.5 -366t-341.5 -131t-341 131t-119 366v957h143v-936q0 -385 313 -385h8q314 0 314 385v936z" />
    <glyph glyph-name="Udieresis" unicode="&#xdc;" 
d="M311 1597v164h164v-164h-164zM692 1597v164h164v-164h-164zM614 -20q-222 0 -341 131t-119 366v957h143v-936q0 -385 313 -385h8q314 0 314 385v936h143v-957q0 -235 -119.5 -366t-341.5 -131z" />
    <glyph glyph-name="Yacute" unicode="&#xdd;" 
d="M862 1823l-170 -256h-123l109 256h184zM971 1434h155l-442 -863v-571h-143v571l-439 863h158l354 -723z" />
    <glyph glyph-name="Thorn" unicode="&#xde;" 
d="M199 0v1434h143v-308h332q195 0 311.5 -106.5t116.5 -300.5q0 -195 -117 -303.5t-311 -108.5h-332v-307h-143zM342 440h291q325 0 325 279q0 143 -83 208.5t-242 65.5h-291v-553z" />
    <glyph glyph-name="germandbls" unicode="&#xdf;" 
d="M225 -379v1409q0 214 104 319t298 105q170 0 278.5 -103.5t108.5 -263.5q0 -127 -63 -211.5t-144 -109.5q44 -7 88 -32.5t83 -68t63 -107.5t24 -142q0 -206 -114 -311t-320 -105h-119v123h131q151 0 220 79.5t69 215.5q0 131 -84 206.5t-213 75.5h-123v113h102
q66 0 119 24.5t84 64t47.5 84.5t16.5 91q0 111 -67.5 187.5t-176.5 76.5h-21q-52 0 -96.5 -17.5t-82 -54t-58.5 -102t-21 -153.5v-1393h-133z" />
    <glyph glyph-name="agrave" unicode="&#xe0;" 
d="M711 1167h-101l-180 267h164zM1016 225q0 -153 10 -225h-123q-10 56 -10 164q-33 -75 -133.5 -129.5t-229.5 -54.5q-136 0 -229.5 86.5t-93.5 216.5q0 65 22 117t56.5 85t82 56.5t94 34t97.5 14.5l324 24v41q0 131 -68.5 204t-187.5 73h-11q-103 0 -174.5 -51t-81.5 -144
h-133q9 136 119 221.5t275 85.5q97 0 173.5 -31t124 -85t72.5 -123.5t25 -149.5v-430zM565 92q71 0 144.5 37t123.5 102t50 138v137l-297 -21q-111 -8 -178.5 -59.5t-67.5 -134.5q0 -85 58.5 -142t146.5 -57h20z" />
    <glyph glyph-name="aacute" unicode="&#xe1;" 
d="M844 1434l-180 -267h-101l117 267h164zM1016 225q0 -153 10 -225h-123q-10 56 -10 164q-33 -75 -133.5 -129.5t-229.5 -54.5q-136 0 -229.5 86.5t-93.5 216.5q0 65 22 117t56.5 85t82 56.5t94 34t97.5 14.5l324 24v41q0 131 -68.5 204t-187.5 73h-11q-103 0 -174.5 -51
t-81.5 -144h-133q9 136 119 221.5t275 85.5q97 0 173.5 -31t124 -85t72.5 -123.5t25 -149.5v-430zM565 92q71 0 144.5 37t123.5 102t50 138v137l-297 -21q-111 -8 -178.5 -59.5t-67.5 -134.5q0 -85 58.5 -142t146.5 -57h20z" />
    <glyph glyph-name="acircumflex" unicode="&#xe2;" 
d="M618 1321l-204 -154h-123l260 267h135l260 -267h-123zM1016 225q0 -153 10 -225h-123q-10 56 -10 164q-33 -75 -133.5 -129.5t-229.5 -54.5q-136 0 -229.5 86.5t-93.5 216.5q0 65 22 117t56.5 85t82 56.5t94 34t97.5 14.5l324 24v41q0 131 -68.5 204t-187.5 73h-11
q-103 0 -174.5 -51t-81.5 -144h-133q9 136 119 221.5t275 85.5q97 0 173.5 -31t124 -85t72.5 -123.5t25 -149.5v-430zM565 92q71 0 144.5 37t123.5 102t50 138v137l-297 -21q-111 -8 -178.5 -59.5t-67.5 -134.5q0 -85 58.5 -142t146.5 -57h20z" />
    <glyph glyph-name="atilde" unicode="&#xe3;" 
d="M469 1300q-84 0 -84 -133h-102v47q0 85 51 142t127 57q38 0 68 -13t79 -48l15 -11l32 -24t33 -24t26 -16t30.5 -13.5t27.5 -3.5q82 0 82 133h102v-47q0 -85 -51.5 -142t-126.5 -57q-40 0 -75.5 17.5t-84.5 54.5l-16 12q-4 3 -27 20.5t-34 24.5t-32 15.5t-40 8.5z
M1016 225q0 -153 10 -225h-123q-10 56 -10 164q-33 -75 -133.5 -129.5t-229.5 -54.5q-136 0 -229.5 86.5t-93.5 216.5q0 65 22 117t56.5 85t82 56.5t94 34t97.5 14.5l324 24v41q0 131 -68.5 204t-187.5 73h-11q-103 0 -174.5 -51t-81.5 -144h-133q9 136 119 221.5t275 85.5
q97 0 173.5 -31t124 -85t72.5 -123.5t25 -149.5v-430zM565 92q71 0 144.5 37t123.5 102t50 138v137l-297 -21q-111 -8 -178.5 -59.5t-67.5 -134.5q0 -85 58.5 -142t146.5 -57h20z" />
    <glyph glyph-name="adieresis" unicode="&#xe4;" 
d="M516 1372v-164h-154v164h154zM874 1372v-164h-153v164h153zM1016 225q0 -153 10 -225h-123q-10 56 -10 164q-33 -75 -133.5 -129.5t-229.5 -54.5q-136 0 -229.5 86.5t-93.5 216.5q0 65 22 117t56.5 85t82 56.5t94 34t97.5 14.5l324 24v41q0 131 -68.5 204t-187.5 73h-11
q-103 0 -174.5 -51t-81.5 -144h-133q9 136 119 221.5t275 85.5q97 0 173.5 -31t124 -85t72.5 -123.5t25 -149.5v-430zM565 92q71 0 144.5 37t123.5 102t50 138v137l-297 -21q-111 -8 -178.5 -59.5t-67.5 -134.5q0 -85 58.5 -142t146.5 -57h20z" />
    <glyph glyph-name="aring" unicode="&#xe5;" 
d="M618 1157q-69 0 -120.5 49.5t-51.5 122.5t51.5 122.5t120.5 49.5t121 -49.5t52 -122.5t-52 -122.5t-121 -49.5zM621 1419q-37 0 -64 -26.5t-27 -63.5t27 -63.5t64 -26.5t62.5 26.5t25.5 63.5t-25.5 63.5t-62.5 26.5zM1016 225q0 -153 10 -225h-123q-10 56 -10 164
q-33 -75 -133.5 -129.5t-229.5 -54.5q-136 0 -229.5 86.5t-93.5 216.5q0 65 22 117t56.5 85t82 56.5t94 34t97.5 14.5l324 24v41q0 131 -68.5 204t-187.5 73h-11q-103 0 -174.5 -51t-81.5 -144h-133q9 136 119 221.5t275 85.5q97 0 173.5 -31t124 -85t72.5 -123.5t25 -149.5
v-430zM565 92q71 0 144.5 37t123.5 102t50 138v137l-297 -21q-111 -8 -178.5 -59.5t-67.5 -134.5q0 -85 58.5 -142t146.5 -57h20z" />
    <glyph glyph-name="ae" unicode="&#xe6;" 
d="M1217 584v-82h-525q0 -210 61 -310t152 -100h4q74 0 120 56t52 145h133q-6 -65 -27 -120t-57 -99t-93 -69t-130 -25q-189 0 -278 174q-50 -82 -120 -128t-181 -46q-142 0 -229 89.5t-87 223.5q0 84 32 148t85 100.5t114 54.5t126 18h188v80q0 108 -46 173t-142 65h-7
q-91 0 -140.5 -52.5t-55.5 -142.5h-133q9 140 97.5 223.5t244.5 83.5q97 0 165.5 -43.5t98.5 -109.5q35 69 103.5 111t156.5 42q106 0 179 -61.5t106 -162.5t33 -236zM694 614h389q0 150 -45.5 234t-132.5 84h-4q-194 0 -207 -318zM557 350v152h-176q-98 0 -167 -56.5
t-69 -148.5q0 -95 51 -150t142 -55h4q101 0 158 69t57 189z" />
    <glyph glyph-name="ccedilla" unicode="&#xe7;" 
d="M659 92q99 0 167 66.5t89 169.5h134q-27 -156 -126 -249t-253 -99v-72q68 2 118 -45t50 -121q0 -88 -54.5 -145.5t-150.5 -57.5h-127v113h129q44 0 72 23t28 67t-28 66t-72 22h-57v154q-189 26 -294.5 171t-105.5 357q0 152 53.5 271.5t161.5 190t256 70.5q167 0 276 -94
t124 -254h-134q-18 105 -86.5 170.5t-169.5 65.5h-20q-107 0 -183 -59.5t-110.5 -152.5t-34.5 -208t34.5 -208t110.5 -152.5t183 -59.5h20z" />
    <glyph glyph-name="egrave" unicode="&#xe8;" 
d="M729 1167h-100l-180 267h163zM1049 584v-82h-738q1 -105 28 -185.5t72 -128.5t101 -72t121 -24h12q96 0 168 51t100 150h134q-33 -151 -142.5 -232t-269.5 -81q-97 0 -179.5 34.5t-144.5 100.5t-97.5 168.5t-35.5 230.5q0 130 38 233t102.5 167t145.5 97t171 33
q185 0 299.5 -130.5t114.5 -329.5zM623 932q-52 0 -99 -16t-91.5 -51t-76 -99t-41.5 -152h600q-5 139 -79 228.5t-193 89.5h-20z" />
    <glyph glyph-name="eacute" unicode="&#xe9;" 
d="M862 1434l-180 -267h-100l116 267h164zM1049 584v-82h-738q1 -105 28 -185.5t72 -128.5t101 -72t121 -24h12q96 0 168 51t100 150h134q-33 -151 -142.5 -232t-269.5 -81q-97 0 -179.5 34.5t-144.5 100.5t-97.5 168.5t-35.5 230.5q0 130 38 233t102.5 167t145.5 97t171 33
q185 0 299.5 -130.5t114.5 -329.5zM623 932q-52 0 -99 -16t-91.5 -51t-76 -99t-41.5 -152h600q-5 139 -79 228.5t-193 89.5h-20z" />
    <glyph glyph-name="ecircumflex" unicode="&#xea;" 
d="M637 1321l-205 -154h-123l260 267h136l260 -267h-123zM1049 584v-82h-738q1 -105 28 -185.5t72 -128.5t101 -72t121 -24h12q96 0 168 51t100 150h134q-33 -151 -142.5 -232t-269.5 -81q-97 0 -179.5 34.5t-144.5 100.5t-97.5 168.5t-35.5 230.5q0 130 38 233t102.5 167
t145.5 97t171 33q185 0 299.5 -130.5t114.5 -329.5zM623 932q-52 0 -99 -16t-91.5 -51t-76 -99t-41.5 -152h600q-5 139 -79 228.5t-193 89.5h-20z" />
    <glyph glyph-name="edieresis" unicode="&#xeb;" 
d="M535 1372v-164h-154v164h154zM893 1372v-164h-154v164h154zM1049 584v-82h-738q1 -105 28 -185.5t72 -128.5t101 -72t121 -24h12q96 0 168 51t100 150h134q-33 -151 -142.5 -232t-269.5 -81q-97 0 -179.5 34.5t-144.5 100.5t-97.5 168.5t-35.5 230.5q0 130 38 233
t102.5 167t145.5 97t171 33q185 0 299.5 -130.5t114.5 -329.5zM623 932q-52 0 -99 -16t-91.5 -51t-76 -99t-41.5 -152h600q-5 139 -79 228.5t-193 89.5h-20z" />
    <glyph glyph-name="igrave" unicode="&#xec;" 
d="M768 1167h-100l-181 267h164zM743 113h367v-113h-877v113h377v798h-346v113h479v-911z" />
    <glyph glyph-name="iacute" unicode="&#xed;" 
d="M901 1434l-180 -267h-100l116 267h164zM743 113h367v-113h-877v113h377v798h-346v113h479v-911z" />
    <glyph glyph-name="icircumflex" unicode="&#xee;" 
d="M676 1321l-205 -154h-123l260 267h135l261 -267h-123zM743 113h367v-113h-877v113h377v798h-346v113h479v-911z" />
    <glyph glyph-name="idieresis" unicode="&#xef;" 
d="M573 1372v-164h-153v164h153zM932 1372v-164h-154v164h154zM743 113h367v-113h-877v113h377v798h-346v113h479v-911z" />
    <glyph glyph-name="eth" unicode="&#xf0;" 
d="M866 1237q209 -232 209 -678q0 -265 -127 -422t-344 -157q-210 0 -335.5 145t-125.5 369q0 134 55 242t161 172.5t245 64.5q95 0 182.5 -36t143.5 -108q-36 213 -166 340l-166 -112l-57 82l139 96q-129 76 -297 76v123q243 0 405 -125l160 110l62 -86zM614 92
q154 0 241 113.5t87 286.5q0 159 -87 263.5t-241 104.5h-20q-153 0 -235.5 -103t-82.5 -263q0 -173 87 -287.5t241 -114.5h10z" />
    <glyph glyph-name="ntilde" unicode="&#xf1;" 
d="M774 1147q-40 0 -75.5 17.5t-84.5 54.5l-16 12q-4 3 -27 20.5t-34 24.5t-32 15.5t-40 8.5q-84 0 -84 -133h-102v47q0 85 51 142t127 57q38 0 68 -13t79 -48l14 -11q6 -4 32 -23.5t33.5 -24.5t26 -16t31.5 -14t27 -3q82 0 82 133h102v-47q0 -85 -51.5 -142t-126.5 -57z
M195 0v1024h133v-172q45 87 140 139.5t218 52.5q159 0 258.5 -97.5t99.5 -276.5v-670h-133v629q0 303 -245 303h-13q-106 0 -181.5 -60t-109.5 -153t-34 -207v-512h-133z" />
    <glyph glyph-name="ograve" unicode="&#xf2;" 
d="M606 1167l-180 267h164l117 -267h-101zM614 -20q-205 0 -342 148.5t-137 383.5t137 383.5t342 148.5t342.5 -148.5t137.5 -383.5t-137.5 -383.5t-342.5 -148.5zM604 92h21q142 0 237.5 114.5t95.5 305.5t-95.5 305.5t-237.5 114.5h-21q-142 0 -238 -114.5t-96 -305.5
t96 -305.5t238 -114.5z" />
    <glyph glyph-name="oacute" unicode="&#xf3;" 
d="M559 1167l117 267h164l-181 -267h-100zM614 -20q-205 0 -342 148.5t-137 383.5t137 383.5t342 148.5t342.5 -148.5t137.5 -383.5t-137.5 -383.5t-342.5 -148.5zM604 92h21q142 0 237.5 114.5t95.5 305.5t-95.5 305.5t-237.5 114.5h-21q-142 0 -238 -114.5t-96 -305.5
t96 -305.5t238 -114.5z" />
    <glyph glyph-name="ocircumflex" unicode="&#xf4;" 
d="M614 1321l-204 -154h-123l260 267h135l260 -267h-123zM614 1044q205 0 342.5 -148.5t137.5 -383.5t-137.5 -383.5t-342.5 -148.5t-342 148.5t-137 383.5t137 383.5t342 148.5zM625 92q142 0 237.5 114.5t95.5 305.5t-95.5 305.5t-237.5 114.5h-21q-142 0 -238 -114.5
t-96 -305.5t96 -305.5t238 -114.5h21z" />
    <glyph glyph-name="otilde" unicode="&#xf5;" 
d="M774 1147q-40 0 -75.5 17.5t-84.5 54.5l-16 12q-4 3 -27 20.5t-34 24.5t-32 15.5t-40 8.5q-84 0 -84 -133h-102v47q0 85 51 142t127 57q38 0 68 -13t79 -48l14 -11q6 -4 32 -23.5t33.5 -24.5t26 -16t31.5 -14t27 -3q82 0 82 133h102v-47q0 -85 -51.5 -142t-126.5 -57z
M614 -20q-205 0 -342 148.5t-137 383.5t137 383.5t342 148.5t342.5 -148.5t137.5 -383.5t-137.5 -383.5t-342.5 -148.5zM604 92h21q142 0 237.5 114.5t95.5 305.5t-95.5 305.5t-237.5 114.5h-21q-142 0 -238 -114.5t-96 -305.5t96 -305.5t238 -114.5z" />
    <glyph glyph-name="odieresis" unicode="&#xf6;" 
d="M358 1208v164h154v-164h-154zM717 1208v164h153v-164h-153zM614 -20q-205 0 -342 148.5t-137 383.5t137 383.5t342 148.5t342.5 -148.5t137.5 -383.5t-137.5 -383.5t-342.5 -148.5zM604 92h21q142 0 237.5 114.5t95.5 305.5t-95.5 305.5t-237.5 114.5h-21
q-142 0 -238 -114.5t-96 -305.5t96 -305.5t238 -114.5z" />
    <glyph glyph-name="divide" unicode="&#xf7;" 
d="M537 778v174h153v-174h-153zM109 461v133h1011v-133h-1011zM537 102v174h153v-174h-153z" />
    <glyph glyph-name="oslash" unicode="&#xf8;" 
d="M969 883q125 -147 125 -371q0 -235 -137.5 -383.5t-342.5 -148.5q-150 0 -272 86l-100 -134l-88 74l104 137q-123 149 -123 369q0 235 137 383.5t342 148.5q150 0 269 -83l102 133l94 -66zM270 512q0 -155 68 -266l475 622q-86 64 -188 64h-21q-142 0 -238 -114.5
t-96 -305.5zM625 92q142 0 237.5 114.5t95.5 305.5q0 156 -69 268l-475 -622q84 -66 190 -66h21z" />
    <glyph glyph-name="ugrave" unicode="&#xf9;" 
d="M694 1167h-100l-180 267h164zM891 1024h133v-1024h-133v193q-40 -102 -128.5 -157.5t-213.5 -55.5q-167 0 -260.5 101.5t-93.5 266.5v676h133v-635q0 -297 245 -297h21q119 0 208 104t89 275v553z" />
    <glyph glyph-name="uacute" unicode="&#xfa;" 
d="M827 1434l-180 -267h-100l117 267h163zM891 1024h133v-1024h-133v193q-40 -102 -128.5 -157.5t-213.5 -55.5q-167 0 -260.5 101.5t-93.5 266.5v676h133v-635q0 -297 245 -297h21q119 0 208 104t89 275v553z" />
    <glyph glyph-name="ucircumflex" unicode="&#xfb;" 
d="M602 1321l-205 -154h-123l261 267h135l260 -267h-123zM891 1024h133v-1024h-133v193q-40 -102 -128.5 -157.5t-213.5 -55.5q-167 0 -260.5 101.5t-93.5 266.5v676h133v-635q0 -297 245 -297h21q119 0 208 104t89 275v553z" />
    <glyph glyph-name="udieresis" unicode="&#xfc;" 
d="M500 1372v-164h-154v164h154zM858 1372v-164h-153v164h153zM891 1024h133v-1024h-133v193q-40 -102 -128.5 -157.5t-213.5 -55.5q-167 0 -260.5 101.5t-93.5 266.5v676h133v-635q0 -297 245 -297h21q119 0 208 104t89 275v553z" />
    <glyph glyph-name="yacute" unicode="&#xfd;" 
d="M840 1434l-181 -267h-100l117 267h164zM1106 1024l-418 -989v-195q0 -93 -47 -135.5t-147 -42.5h-312v113h291q46 0 64 18t18 64v172l-430 995h145l348 -829l349 829h139z" />
    <glyph glyph-name="thorn" unicode="&#xfe;" 
d="M670 1044q202 0 329 -144.5t127 -387.5t-127 -387.5t-329 -144.5q-103 0 -200 50.5t-142 133.5v-574h-133v1844h133v-574q45 83 142 133.5t200 50.5zM666 92q105 0 180.5 60t110 153t34.5 207t-34.5 207t-110 153t-180.5 60h-11q-106 0 -182 -60t-110.5 -153t-34.5 -207
t34.5 -207t110.5 -153t182 -60h11z" />
    <glyph glyph-name="ydieresis" unicode="&#xff;" 
d="M512 1372v-164h-154v164h154zM870 1372v-164h-153v164h153zM1106 1024l-418 -989v-195q0 -93 -47 -135.5t-147 -42.5h-312v113h291q46 0 64 18t18 64v172l-430 995h145l348 -829l349 829h139z" />
    <glyph glyph-name="Amacron" unicode="&#x100;" 
d="M901 1710v-113h-563v113h563zM1026 0l-125 395h-577l-125 -395h-133l456 1434h189l452 -1434h-137zM367 528h491l-246 779z" />
    <glyph glyph-name="amacron" unicode="&#x101;" 
d="M920 1321v-113h-564v113h564zM1016 225q0 -153 10 -225h-123q-10 56 -10 164q-33 -75 -133.5 -129.5t-229.5 -54.5q-136 0 -229.5 86.5t-93.5 216.5q0 65 22 117t56.5 85t82 56.5t94 34t97.5 14.5l324 24v41q0 131 -68.5 204t-187.5 73h-11q-103 0 -174.5 -51t-81.5 -144
h-133q9 136 119 221.5t275 85.5q97 0 173.5 -31t124 -85t72.5 -123.5t25 -149.5v-430zM565 92q71 0 144.5 37t123.5 102t50 138v137l-297 -21q-111 -8 -178.5 -59.5t-67.5 -134.5q0 -85 58.5 -142t146.5 -57h20z" />
    <glyph glyph-name="Abreve" unicode="&#x102;" 
d="M618 1546q-134 0 -215 72.5t-81 204.5h112q14 -164 184 -164q171 0 185 164h112q0 -132 -81.5 -204.5t-215.5 -72.5zM1026 0l-125 395h-577l-125 -395h-133l456 1434h189l452 -1434h-137zM367 528h491l-246 779z" />
    <glyph glyph-name="abreve" unicode="&#x103;" 
d="M618 1147q-127 0 -206.5 75.5t-79.5 211.5h102q7 -90 56 -136.5t128 -46.5t128.5 46.5t56.5 136.5h102q0 -136 -80 -211.5t-207 -75.5zM1016 225q0 -153 10 -225h-123q-10 56 -10 164q-33 -75 -133.5 -129.5t-229.5 -54.5q-136 0 -229.5 86.5t-93.5 216.5q0 65 22 117
t56.5 85t82 56.5t94 34t97.5 14.5l324 24v41q0 131 -68.5 204t-187.5 73h-11q-103 0 -174.5 -51t-81.5 -144h-133q9 136 119 221.5t275 85.5q97 0 173.5 -31t124 -85t72.5 -123.5t25 -149.5v-430zM565 92q71 0 144.5 37t123.5 102t50 138v137l-297 -21q-111 -8 -178.5 -59.5
t-67.5 -134.5q0 -85 58.5 -142t146.5 -57h20z" />
    <glyph glyph-name="Aogonek" unicode="&#x104;" 
d="M1090 0q-179 -112 -179 -205q0 -43 32.5 -62.5t80.5 -19.5h51v-112h-51q-108 0 -161.5 41.5t-53.5 117.5q0 68 57 136.5t156 115.5l-121 383h-577l-125 -395h-133l456 1434h189l452 -1434h-73zM367 528h491l-246 779z" />
    <glyph glyph-name="aogonek" unicode="&#x105;" 
d="M893 -205q0 -43 32.5 -62.5t80.5 -19.5h51v-112h-51q-108 0 -161.5 41.5t-53.5 117.5q0 64 50 128.5t138 111.5h-76q-10 56 -10 164q-33 -75 -133.5 -129.5t-229.5 -54.5q-136 0 -229.5 86.5t-93.5 216.5q0 65 22 117t56.5 85t82 56.5t94 34t97.5 14.5l324 24v41
q0 131 -68.5 204t-187.5 73h-11q-103 0 -174.5 -51t-81.5 -144h-133q9 136 119 221.5t275 85.5q97 0 173.5 -31t124 -85t72.5 -123.5t25 -149.5v-430q0 -137 8 -207l47 -18q-178 -112 -178 -205zM565 92q71 0 144.5 37t123.5 102t50 138v137l-297 -21q-111 -8 -178.5 -59.5
t-67.5 -134.5q0 -85 58.5 -142t146.5 -57h20z" />
    <glyph glyph-name="Cacute" unicode="&#x106;" 
d="M635 1567l108 256h185l-170 -256h-123zM662 -20q-271 0 -415.5 195.5t-144.5 541.5q0 222 62 386.5t189.5 257.5t308.5 93q205 0 326.5 -127t129.5 -334h-143q-5 142 -83 235t-220 93h-21q-199 0 -302 -161.5t-103 -442.5q0 -286 101.5 -445t303.5 -159h21
q147 0 221 88.5t82 238.5h143q-4 -100 -34.5 -183.5t-86 -145.5t-141.5 -96.5t-194 -34.5z" />
    <glyph glyph-name="cacute" unicode="&#x107;" 
d="M584 1167l116 267h164l-180 -267h-100zM649 -20q-148 0 -256 70.5t-161.5 190t-53.5 271.5t53.5 271.5t161.5 190t256 70.5q167 0 276 -94t124 -254h-134q-18 105 -86.5 170.5t-169.5 65.5h-20q-107 0 -183 -59.5t-110.5 -152.5t-34.5 -208t34.5 -208t110.5 -152.5
t183 -59.5h20q99 0 167 66.5t89 169.5h134q-28 -161 -132.5 -254.5t-267.5 -93.5z" />
    <glyph glyph-name="Ccircumflex" unicode="&#x108;" 
d="M680 1714l-188 -147h-140l236 256h184l236 -256h-140zM672 113q147 0 221 88.5t82 238.5h143q-4 -100 -34.5 -183.5t-86 -145.5t-141.5 -96.5t-194 -34.5q-271 0 -415.5 195.5t-144.5 541.5q0 222 62 386.5t189.5 257.5t308.5 93q205 0 326.5 -127t129.5 -334h-143
q-5 142 -83 235t-220 93h-21q-199 0 -302 -161.5t-103 -442.5q0 -286 101.5 -445t303.5 -159h21z" />
    <glyph glyph-name="ccircumflex" unicode="&#x109;" 
d="M639 1321l-205 -154h-123l260 267h136l260 -267h-123zM659 92q99 0 167 66.5t89 169.5h134q-28 -161 -132.5 -254.5t-267.5 -93.5q-148 0 -256 70.5t-161.5 190t-53.5 271.5t53.5 271.5t161.5 190t256 70.5q167 0 276 -94t124 -254h-134q-18 105 -86.5 170.5t-169.5 65.5
h-20q-107 0 -183 -59.5t-110.5 -152.5t-34.5 -208t34.5 -208t110.5 -152.5t183 -59.5h20z" />
    <glyph glyph-name="Cdotaccent" unicode="&#x10a;" 
d="M602 1597v175h154v-175h-154zM662 -20q-271 0 -415.5 195.5t-144.5 541.5q0 222 62 386.5t189.5 257.5t308.5 93q205 0 326.5 -127t129.5 -334h-143q-5 142 -83 235t-220 93h-21q-199 0 -302 -161.5t-103 -442.5q0 -286 101.5 -445t303.5 -159h21q147 0 221 88.5
t82 238.5h143q-4 -100 -34.5 -183.5t-86 -145.5t-141.5 -96.5t-194 -34.5z" />
    <glyph glyph-name="cdotaccent" unicode="&#x10b;" 
d="M561 1208v174h154v-174h-154zM649 -20q-148 0 -256 70.5t-161.5 190t-53.5 271.5t53.5 271.5t161.5 190t256 70.5q167 0 276 -94t124 -254h-134q-18 105 -86.5 170.5t-169.5 65.5h-20q-107 0 -183 -59.5t-110.5 -152.5t-34.5 -208t34.5 -208t110.5 -152.5t183 -59.5h20
q99 0 167 66.5t89 169.5h134q-28 -161 -132.5 -254.5t-267.5 -93.5z" />
    <glyph glyph-name="Ccaron" unicode="&#x10c;" 
d="M772 1567h-184l-236 256h140l188 -148l188 148h140zM672 113q147 0 221 88.5t82 238.5h143q-4 -100 -34.5 -183.5t-86 -145.5t-141.5 -96.5t-194 -34.5q-271 0 -415.5 195.5t-144.5 541.5q0 222 62 386.5t189.5 257.5t308.5 93q205 0 326.5 -127t129.5 -334h-143
q-5 142 -83 235t-220 93h-21q-199 0 -302 -161.5t-103 -442.5q0 -286 101.5 -445t303.5 -159h21z" />
    <glyph glyph-name="ccaron" unicode="&#x10d;" 
d="M707 1167h-136l-260 267h123l205 -154l205 154h123zM659 92q99 0 167 66.5t89 169.5h134q-28 -161 -132.5 -254.5t-267.5 -93.5q-148 0 -256 70.5t-161.5 190t-53.5 271.5t53.5 271.5t161.5 190t256 70.5q167 0 276 -94t124 -254h-134q-18 105 -86.5 170.5t-169.5 65.5
h-20q-107 0 -183 -59.5t-110.5 -152.5t-34.5 -208t34.5 -208t110.5 -152.5t183 -59.5h20z" />
    <glyph glyph-name="Dcaron" unicode="&#x10e;" 
d="M682 1567h-184l-236 256h139l189 -148l188 148h140zM539 1434q268 0 427.5 -193t159.5 -528q0 -334 -159 -523.5t-428 -189.5h-355v1434h355zM537 133q223 0 334.5 149.5t111.5 434.5q0 283 -113.5 433t-332.5 150h-209v-1167h209z" />
    <glyph glyph-name="dcaron" unicode="&#x10f;" 
d="M559 -20q-202 0 -329.5 144.5t-127.5 387.5t127.5 387.5t329.5 144.5q103 0 200 -50.5t142 -133.5v574h133v-1434h-133v164q-45 -83 -142 -133.5t-200 -50.5zM1133 1106v72h10q92 0 92 82v20h-61v154h133v-174q0 -70 -43 -112t-111 -42h-20zM563 92h10q80 0 144 34.5
t103.5 93t60 133.5t20.5 159t-20.5 159t-60 133.5t-103.5 93t-144 34.5h-10q-105 0 -180.5 -60t-110 -153t-34.5 -207t34.5 -207t110 -153t180.5 -60z" />
    <glyph glyph-name="Dcroat" unicode="&#x110;" 
d="M563 1434q268 0 428 -193t160 -528q0 -334 -159.5 -523.5t-428.5 -189.5h-354v657h-191v123h191v654h354zM561 133q223 0 335 149.5t112 434.5q0 283 -114 433t-333 150h-209v-520h322v-123h-322v-524h209z" />
    <glyph glyph-name="dcroat" unicode="&#x111;" 
d="M1178 1280v-102h-144v-1178h-133v164q-45 -83 -142 -133.5t-200 -50.5q-202 0 -329.5 144.5t-127.5 387.5t127.5 387.5t329.5 144.5q103 0 200 -50.5t142 -133.5v318h-307v102h307v154h133v-154h144zM573 92q80 0 144 34.5t103.5 93t60 133.5t20.5 159t-20.5 159
t-60 133.5t-103.5 93t-144 34.5h-10q-105 0 -180.5 -60t-110 -153t-34.5 -207t34.5 -207t110 -153t180.5 -60h10z" />
    <glyph glyph-name="Emacron" unicode="&#x112;" 
d="M367 1597v113h563v-113h-563zM195 0v1434h870v-134h-727v-495h616v-133h-616v-539h747v-133h-890z" />
    <glyph glyph-name="emacron" unicode="&#x113;" 
d="M938 1321v-113h-563v113h563zM1049 584v-82h-738q1 -105 28 -185.5t72 -128.5t101 -72t121 -24h12q96 0 168 51t100 150h134q-33 -151 -142.5 -232t-269.5 -81q-97 0 -179.5 34.5t-144.5 100.5t-97.5 168.5t-35.5 230.5q0 130 38 233t102.5 167t145.5 97t171 33
q185 0 299.5 -130.5t114.5 -329.5zM623 932q-52 0 -99 -16t-91.5 -51t-76 -99t-41.5 -152h600q-5 139 -79 228.5t-193 89.5h-20z" />
    <glyph glyph-name="Ebreve" unicode="&#x114;" 
d="M647 1546q-134 0 -215.5 72.5t-81.5 204.5h113q14 -164 184 -164t184 164h113q0 -132 -81.5 -204.5t-215.5 -72.5zM195 0v1434h870v-134h-727v-495h616v-133h-616v-539h747v-133h-890z" />
    <glyph glyph-name="ebreve" unicode="&#x115;" 
d="M637 1147q-127 0 -207 75.5t-80 211.5h103q7 -90 56 -136.5t128 -46.5t128 46.5t56 136.5h103q0 -136 -80 -211.5t-207 -75.5zM1049 584v-82h-738q1 -105 28 -185.5t72 -128.5t101 -72t121 -24h12q96 0 168 51t100 150h134q-33 -151 -142.5 -232t-269.5 -81
q-97 0 -179.5 34.5t-144.5 100.5t-97.5 168.5t-35.5 230.5q0 130 38 233t102.5 167t145.5 97t171 33q185 0 299.5 -130.5t114.5 -329.5zM623 932q-52 0 -99 -16t-91.5 -51t-76 -99t-41.5 -152h600q-5 139 -79 228.5t-193 89.5h-20z" />
    <glyph glyph-name="Edotaccent" unicode="&#x116;" 
d="M569 1597v175h154v-175h-154zM195 0v1434h870v-134h-727v-495h616v-133h-616v-539h747v-133h-890z" />
    <glyph glyph-name="edotaccent" unicode="&#x117;" 
d="M713 1382v-174h-154v174h154zM1049 584v-82h-738q1 -105 28 -185.5t72 -128.5t101 -72t121 -24h12q96 0 168 51t100 150h134q-33 -151 -142.5 -232t-269.5 -81q-97 0 -179.5 34.5t-144.5 100.5t-97.5 168.5t-35.5 230.5q0 130 38 233t102.5 167t145.5 97t171 33
q185 0 299.5 -130.5t114.5 -329.5zM623 932q-52 0 -99 -16t-91.5 -51t-76 -99t-41.5 -152h600q-5 139 -79 228.5t-193 89.5h-20z" />
    <glyph glyph-name="Eogonek" unicode="&#x118;" 
d="M1085 0q-178 -112 -178 -205q0 -43 32.5 -62.5t80.5 -19.5h51v-112h-51q-108 0 -161.5 41.5t-53.5 117.5q0 64 50 128.5t138 111.5h-798v1434h870v-134h-727v-495h616v-133h-616v-539h747v-133z" />
    <glyph glyph-name="eogonek" unicode="&#x119;" 
d="M1049 584v-82h-738q1 -105 28 -185.5t72 -128.5t101 -72t121 -24h12q96 0 168 51t100 150h134q-43 -196 -213 -275q-177 -110 -177 -202q0 -43 32.5 -62.5t80.5 -19.5h51v-113h-51q-107 0 -161 42t-54 118q0 51 32.5 104t92.5 97q-14 -2 -45 -2q-97 0 -179.5 34.5
t-144.5 100.5t-97.5 168.5t-35.5 230.5q0 130 38 233t102.5 167t145.5 97t171 33q185 0 299.5 -130.5t114.5 -329.5zM623 932q-52 0 -99 -16t-91.5 -51t-76 -99t-41.5 -152h600q-5 139 -79 228.5t-193 89.5h-20z" />
    <glyph glyph-name="Ecaron" unicode="&#x11a;" 
d="M739 1567h-184l-236 256h140l188 -148l189 148h139zM338 133h747v-133h-890v1434h870v-134h-727v-495h616v-133h-616v-539z" />
    <glyph glyph-name="ecaron" unicode="&#x11b;" 
d="M705 1167h-136l-260 267h123l205 -154l205 154h123zM1049 584v-82h-738q1 -105 28 -185.5t72 -128.5t101 -72t121 -24h12q96 0 168 51t100 150h134q-33 -151 -142.5 -232t-269.5 -81q-97 0 -179.5 34.5t-144.5 100.5t-97.5 168.5t-35.5 230.5q0 130 38 233t102.5 167
t145.5 97t171 33q185 0 299.5 -130.5t114.5 -329.5zM623 932q-52 0 -99 -16t-91.5 -51t-76 -99t-41.5 -152h600q-5 139 -79 228.5t-193 89.5h-20z" />
    <glyph glyph-name="Gcircumflex" unicode="&#x11c;" 
d="M664 1714l-189 -147h-139l235 256h185l235 -256h-139zM993 717q133 0 133 -133v-584h-133v162q-111 -182 -354 -182q-253 0 -395 199t-142 538q0 163 33.5 295.5t100 232t174 154.5t247.5 55q215 0 330.5 -131.5t124.5 -349.5h-143q-12 170 -90.5 259t-216.5 89h-13
q-196 0 -299.5 -157t-103.5 -447q0 -134 23.5 -242.5t71 -190.5t126 -126.5t182.5 -44.5h13q143 0 237 93t94 263v115h-325v133h325z" />
    <glyph glyph-name="gcircumflex" unicode="&#x11d;" 
d="M600 1321l-205 -154h-123l260 267h136l260 -267h-123zM926 1024h133v-1016q0 -204 -127 -331.5t-346 -127.5q-214 0 -330.5 84t-132.5 224h133q20 -95 103.5 -145t215.5 -50h21q68 0 125.5 20t104.5 61.5t73.5 111.5t26.5 163v166q-47 -87 -133.5 -135.5t-206.5 -48.5
q-197 0 -320 136t-123 376q0 242 124 387t319 145q120 0 206.5 -48.5t133.5 -135.5v164zM610 113q141 0 228.5 105.5t87.5 293.5q0 190 -88 305t-228 115h-20q-139 0 -226.5 -115t-87.5 -305q0 -188 86.5 -293.5t227.5 -105.5h20z" />
    <glyph glyph-name="Gbreve" unicode="&#x11e;" 
d="M664 1546q-134 0 -215.5 72.5t-81.5 204.5h112q14 -164 185 -164q170 0 184 164h113q0 -132 -81.5 -204.5t-215.5 -72.5zM639 -20q-253 0 -395 199t-142 538q0 163 33.5 295.5t100 232t174 154.5t247.5 55q215 0 330.5 -131.5t124.5 -349.5h-143q-12 170 -90.5 259
t-216.5 89h-13q-196 0 -299.5 -157t-103.5 -447q0 -134 23.5 -242.5t71 -190.5t126 -126.5t182.5 -44.5h13q143 0 237 93t94 263v115h-325v133h325q133 0 133 -133v-584h-133v162q-111 -182 -354 -182z" />
    <glyph glyph-name="gbreve" unicode="&#x11f;" 
d="M600 1147q-127 0 -207 75.5t-80 211.5h103q7 -90 56 -136.5t128 -46.5t128 46.5t56 136.5h103q0 -136 -80 -211.5t-207 -75.5zM586 -451q-214 0 -330.5 84t-132.5 224h133q20 -95 103.5 -145t215.5 -50h21q68 0 125.5 20t104.5 61.5t73.5 111.5t26.5 163v166
q-47 -87 -133.5 -135.5t-206.5 -48.5q-197 0 -320 136t-123 376q0 242 124 387t319 145q120 0 206.5 -48.5t133.5 -135.5v164h133v-1016q0 -204 -127 -331.5t-346 -127.5zM590 113h20q141 0 228.5 105.5t87.5 293.5q0 190 -88 305t-228 115h-20q-139 0 -226.5 -115
t-87.5 -305q0 -188 86.5 -293.5t227.5 -105.5z" />
    <glyph glyph-name="Gdotaccent" unicode="&#x120;" 
d="M586 1597v175h153v-175h-153zM639 -20q-253 0 -395 199t-142 538q0 163 33.5 295.5t100 232t174 154.5t247.5 55q215 0 330.5 -131.5t124.5 -349.5h-143q-12 170 -90.5 259t-216.5 89h-13q-196 0 -299.5 -157t-103.5 -447q0 -134 23.5 -242.5t71 -190.5t126 -126.5
t182.5 -44.5h13q143 0 237 93t94 263v115h-325v133h325q133 0 133 -133v-584h-133v162q-111 -182 -354 -182z" />
    <glyph glyph-name="gdotaccent" unicode="&#x121;" 
d="M522 1208v174h154v-174h-154zM586 -451q-214 0 -330.5 84t-132.5 224h133q20 -95 103.5 -145t215.5 -50h21q68 0 125.5 20t104.5 61.5t73.5 111.5t26.5 163v166q-47 -87 -133.5 -135.5t-206.5 -48.5q-197 0 -320 136t-123 376q0 242 124 387t319 145q120 0 206.5 -48.5
t133.5 -135.5v164h133v-1016q0 -204 -127 -331.5t-346 -127.5zM590 113h20q141 0 228.5 105.5t87.5 293.5q0 190 -88 305t-228 115h-20q-139 0 -226.5 -115t-87.5 -305q0 -188 86.5 -293.5t227.5 -105.5z" />
    <glyph glyph-name="Gcommaaccent" unicode="&#x122;" 
d="M639 -20q-253 0 -395 199t-142 538q0 163 33.5 295.5t100 232t174 154.5t247.5 55q215 0 330.5 -131.5t124.5 -349.5h-143q-12 170 -90.5 259t-216.5 89h-13q-196 0 -299.5 -157t-103.5 -447q0 -134 23.5 -242.5t71 -190.5t126 -126.5t182.5 -44.5h13q143 0 237 93
t94 263v115h-325v133h325q133 0 133 -133v-584h-133v162q-111 -182 -354 -182zM549 -512v72h10q92 0 92 82v20h-61v154h133v-174q0 -70 -43 -112t-111 -42h-20z" />
    <glyph glyph-name="gcommaaccent" unicode="&#x123;" 
d="M707 1536v-72h-11q-92 0 -92 -82v-20h62v-154h-134v174q0 70 43 112t111 42h21zM586 -451q-214 0 -330.5 84t-132.5 224h133q20 -95 103.5 -145t215.5 -50h21q68 0 125.5 20t104.5 61.5t73.5 111.5t26.5 163v166q-47 -87 -133.5 -135.5t-206.5 -48.5q-197 0 -320 136
t-123 376q0 242 124 387t319 145q120 0 206.5 -48.5t133.5 -135.5v164h133v-1016q0 -204 -127 -331.5t-346 -127.5zM590 113h20q141 0 228.5 105.5t87.5 293.5q0 190 -88 305t-228 115h-20q-139 0 -226.5 -115t-87.5 -305q0 -188 86.5 -293.5t227.5 -105.5z" />
    <glyph glyph-name="Hcircumflex" unicode="&#x124;" 
d="M614 1714l-188 -147h-139l235 256h185l235 -256h-139zM922 1434h143v-1434h-143v651h-615v-651h-143v1434h143v-650h615v650z" />
    <glyph glyph-name="hcircumflex" unicode="&#x125;" 
d="M651 1714l-188 -147h-139l235 256h184l236 -256h-139zM696 1044q166 0 257 -101t91 -267v-676h-133v635q0 297 -245 297h-21q-126 0 -221.5 -104.5t-95.5 -274.5v-553h-133v1434h133v-584q54 93 147.5 143.5t220.5 50.5z" />
    <glyph glyph-name="Hbar" unicode="&#x126;" 
d="M1176 1188v-123h-111v-1065h-143v651h-615v-651h-143v1065h-111v123h111v246h143v-246h615v246h143v-246h111zM922 784v281h-615v-281h615z" />
    <glyph glyph-name="hbar" unicode="&#x127;" 
d="M696 1044q166 0 257 -101t91 -267v-676h-133v635q0 297 -245 297h-21q-126 0 -221.5 -104.5t-95.5 -274.5v-553h-133v1178h-175v102h175v154h133v-154h276v-102h-276v-328q54 93 147.5 143.5t220.5 50.5z" />
    <glyph glyph-name="Itilde" unicode="&#x128;" 
d="M477 1710q-84 0 -84 -133h-102v47q0 85 51 142t127 57q37 0 67 -13.5t80 -48.5l15 -10q10 -7 32.5 -24t32.5 -24t26.5 -17t30 -13.5t27.5 -3.5q82 0 82 133h103v-47q0 -84 -52 -141.5t-127 -57.5q-40 0 -74.5 17.5t-84.5 54.5l-17 12q-5 4 -27 20.5t-34 24.5t-32.5 16.5
t-39.5 8.5zM993 1300h-305v-1167h305v-133h-757v133h309v1167h-309v134h757v-134z" />
    <glyph glyph-name="itilde" unicode="&#x129;" 
d="M526 1300q-84 0 -84 -133h-102v47q0 85 51 142t127 57q38 0 68.5 -13.5t79.5 -47.5l14 -11l32 -24t33 -24t26 -16t30.5 -13.5t27.5 -3.5q82 0 82 133h103v-47q0 -85 -51.5 -142t-126.5 -57q-40 0 -75.5 17.5t-84.5 54.5l-17 12q-4 3 -27 20.5t-34 24.5t-32 15.5t-40 8.5z
M743 113h367v-113h-877v113h377v798h-346v113h479v-911z" />
    <glyph glyph-name="Imacron" unicode="&#x12a;" 
d="M909 1710v-113h-563v113h563zM993 1300h-305v-1167h305v-133h-757v133h309v1167h-309v134h757v-134z" />
    <glyph glyph-name="imacron" unicode="&#x12b;" 
d="M977 1321v-113h-563v113h563zM743 113h367v-113h-877v113h377v798h-346v113h479v-911z" />
    <glyph glyph-name="Ibreve" unicode="&#x12c;" 
d="M627 1546q-134 0 -215.5 72.5t-81.5 204.5h112q14 -164 185 -164q170 0 184 164h113q0 -132 -81.5 -204.5t-215.5 -72.5zM993 1300h-305v-1167h305v-133h-757v133h309v1167h-309v134h757v-134z" />
    <glyph glyph-name="ibreve" unicode="&#x12d;" 
d="M676 1147q-127 0 -207 75.5t-80 211.5h103q7 -90 56 -136.5t128 -46.5t128 46.5t56 136.5h103q0 -136 -80 -211.5t-207 -75.5zM743 113h367v-113h-877v113h377v798h-346v113h479v-911z" />
    <glyph glyph-name="Iogonek" unicode="&#x12e;" 
d="M993 1300h-305v-1167h305v-133h-305q-178 -112 -178 -205q0 -43 32.5 -62.5t80.5 -19.5h51v-112h-51q-108 0 -161.5 41.5t-53.5 117.5q0 64 50 128.5t138 111.5h-360v133h309v1167h-309v134h757v-134z" />
    <glyph glyph-name="iogonek" unicode="&#x12f;" 
d="M768 1413v-205h-184v205h184zM743 113h367v-113h-367q-178 -112 -178 -205q0 -43 32.5 -62.5t80.5 -19.5h51v-112h-51q-108 0 -161.5 41.5t-53.5 117.5q0 64 50 128.5t138 111.5h-418v113h377v798h-346v113h479v-911z" />
    <glyph glyph-name="Idotaccent" unicode="&#x130;" 
d="M702 1772v-175h-153v175h153zM993 1300h-305v-1167h305v-133h-757v133h309v1167h-309v134h757v-134z" />
    <glyph glyph-name="dotlessi" unicode="&#x131;" 
d="M743 113h367v-113h-877v113h377v798h-346v113h479v-911z" />
    <glyph glyph-name="IJ" unicode="&#x132;" 
d="M911 1434h144v-1059q0 -185 -84.5 -280t-241.5 -95h-504v133h502q184 0 184 236v1065zM369 1434v-1055h-144v1055h144z" />
    <glyph glyph-name="ij" unicode="&#x133;" 
d="M264 1208v174h154v-174h-154zM811 1208v174h154v-174h-154zM276 -338v113h463q46 0 64 18t18 64v1167h133v-1178q0 -98 -46.5 -141t-147.5 -43h-484zM276 0v1024h134v-1024h-134z" />
    <glyph glyph-name="Jcircumflex" unicode="&#x134;" 
d="M981 1823l236 -256h-140l-188 147l-189 -147h-139l236 256h184zM819 369v1065h144v-1059q0 -185 -84.5 -280t-241.5 -95h-412v133h410q184 0 184 236z" />
    <glyph glyph-name="jcircumflex" unicode="&#x135;" 
d="M803 1434l260 -267h-123l-205 154l-205 -154h-122l260 267h135zM803 1024v-1178q0 -98 -47 -141t-148 -43h-409v113h389q46 0 64 18t18 64v1054h-346v113h479z" />
    <glyph glyph-name="Kcommaaccent" unicode="&#x136;" 
d="M641 844l526 -844h-166l-458 725l-205 -248v-477h-143v1434h143v-762l618 762h174zM641 -338v154h133v-174q0 -70 -42.5 -112t-110.5 -42h-21v72h10q92 0 92 82v20h-61z" />
    <glyph glyph-name="kcommaaccent" unicode="&#x137;" 
d="M649 616l447 -616h-166l-375 524l-176 -168v-356h-133v1434h133v-910l514 500h182zM559 -338v154h133v-174q0 -70 -42.5 -112t-110.5 -42h-21v72h10q93 0 93 82v20h-62z" />
    <glyph glyph-name="Lacute" unicode="&#x139;" 
d="M201 1567l108 256h185l-170 -256h-123zM174 0v1434h143v-1301h777v-133h-920z" />
    <glyph glyph-name="lacute" unicode="&#x13a;" 
d="M866 1823l-170 -256h-123l109 256h184zM680 113h367v-113h-877v113h377v1208h-326v113h459v-1321z" />
    <glyph glyph-name="Lcommaaccent" unicode="&#x13b;" 
d="M174 0v1434h143v-1301h777v-133h-920zM563 -512v72h10q93 0 93 82v20h-62v154h133v-174q0 -70 -42.5 -112t-110.5 -42h-21z" />
    <glyph glyph-name="lcommaaccent" unicode="&#x13c;" 
d="M680 113h367v-113h-877v113h377v1208h-326v113h459v-1321zM543 -338v154h133v-174q0 -70 -43 -112t-111 -42h-20v72h10q92 0 92 82v20h-61z" />
    <glyph glyph-name="Lcaron" unicode="&#x13d;" 
d="M174 0v1434h143v-1301h777v-133h-920zM631 1106v72h10q92 0 92 82v20h-61v154h133v-174q0 -70 -43 -112t-111 -42h-20z" />
    <glyph glyph-name="lcaron" unicode="&#x13e;" 
d="M680 113h367v-113h-877v113h377v1208h-326v113h459v-1321zM1036 1260q0 -70 -42.5 -112t-110.5 -42h-21v72h10q93 0 93 82v20h-62v154h133v-174z" />
    <glyph glyph-name="Ldot" unicode="&#x13f;" 
d="M174 0v1434h143v-1301h777v-133h-920zM723 655v226h225v-226h-225z" />
    <glyph glyph-name="ldot" unicode="&#x140;" 
d="M680 113h367v-113h-877v113h377v1208h-326v113h459v-1321zM1106 881h225v-226h-225v226z" />
    <glyph glyph-name="Lslash" unicode="&#x141;" 
d="M354 133h776v-133h-919v571l-195 -110v145l195 111v717h143v-637l398 225v-143l-398 -226v-520z" />
    <glyph glyph-name="lslash" unicode="&#x142;" 
d="M737 113h367v-113h-877v113h377v602l-174 -99v136l174 98v471h-325v113h458v-508l174 98v-133l-174 -98v-680z" />
    <glyph glyph-name="Nacute" unicode="&#x143;" 
d="M872 1823l-170 -256h-122l108 256h184zM928 1434h143v-1434h-168l-602 1221v-1221h-143v1434h178l592 -1196v1196z" />
    <glyph glyph-name="nacute" unicode="&#x144;" 
d="M559 1167l117 267h164l-181 -267h-100zM195 0v1024h133v-172q45 87 140 139.5t218 52.5q159 0 258.5 -97.5t99.5 -276.5v-670h-133v629q0 303 -245 303h-13q-106 0 -181.5 -60t-109.5 -153t-34 -207v-512h-133z" />
    <glyph glyph-name="Ncommaaccent" unicode="&#x145;" 
d="M928 1434h143v-1434h-168l-602 1221v-1221h-143v1434h178l592 -1196v1196zM559 -338v154h133v-174q0 -70 -42.5 -112t-110.5 -42h-21v72h10q93 0 93 82v20h-62z" />
    <glyph glyph-name="ncommaaccent" unicode="&#x146;" 
d="M195 0v1024h133v-172q45 87 140 139.5t218 52.5q159 0 258.5 -97.5t99.5 -276.5v-670h-133v629q0 303 -245 303h-13q-106 0 -181.5 -60t-109.5 -153t-34 -207v-512h-133zM506 -512v72h10q92 0 92 82v20h-61v154h133v-174q0 -70 -43 -112t-111 -42h-20z" />
    <glyph glyph-name="Ncaron" unicode="&#x147;" 
d="M717 1567h-185l-235 256h139l189 -148l188 148h139zM928 1434h143v-1434h-168l-602 1221v-1221h-143v1434h178l592 -1196v1196z" />
    <glyph glyph-name="ncaron" unicode="&#x148;" 
d="M682 1167h-135l-260 267h123l204 -154l205 154h123zM686 1044q159 0 258.5 -97.5t99.5 -276.5v-670h-133v629q0 303 -245 303h-13q-106 0 -181.5 -60t-109.5 -153t-34 -207v-512h-133v1024h133v-172q45 87 140 139.5t218 52.5z" />
    <glyph glyph-name="Eng" unicode="&#x14a;" 
d="M928 1434h143v-1577q0 -215 -215 -215h-235v133h215q54 0 73 19t19 73v133h-25l-602 1221v-1221h-143v1434h178l592 -1196v1196z" />
    <glyph glyph-name="eng" unicode="&#x14b;" 
d="M686 1044q159 0 258.5 -97.5t99.5 -276.5v-824q0 -99 -46 -141.5t-148 -42.5h-205v113h184q47 0 64.5 18t17.5 64v772q0 303 -245 303h-13q-106 0 -181.5 -60t-109.5 -153t-34 -207v-512h-133v1024h133v-172q45 87 140 139.5t218 52.5z" />
    <glyph glyph-name="Omacron" unicode="&#x14c;" 
d="M348 1597v113h563v-113h-563zM614 -20q-238 0 -375 194.5t-137 542.5t137 542.5t375 194.5t375 -194.5t137 -542.5t-137 -542.5t-375 -194.5zM610 113h8q171 0 268 161t97 443t-97 443t-268 161h-8q-171 0 -267.5 -161t-96.5 -443t96.5 -443t267.5 -161z" />
    <glyph glyph-name="omacron" unicode="&#x14d;" 
d="M352 1208v113h563v-113h-563zM614 -20q-205 0 -342 148.5t-137 383.5t137 383.5t342 148.5t342.5 -148.5t137.5 -383.5t-137.5 -383.5t-342.5 -148.5zM604 92h21q142 0 237.5 114.5t95.5 305.5t-95.5 305.5t-237.5 114.5h-21q-142 0 -238 -114.5t-96 -305.5t96 -305.5
t238 -114.5z" />
    <glyph glyph-name="Obreve" unicode="&#x14e;" 
d="M629 1546q-134 0 -215.5 72.5t-81.5 204.5h112q14 -164 185 -164q170 0 184 164h113q0 -132 -81.5 -204.5t-215.5 -72.5zM614 -20q-238 0 -375 194.5t-137 542.5t137 542.5t375 194.5t375 -194.5t137 -542.5t-137 -542.5t-375 -194.5zM610 113h8q171 0 268 161t97 443
t-97 443t-268 161h-8q-171 0 -267.5 -161t-96.5 -443t96.5 -443t267.5 -161z" />
    <glyph glyph-name="obreve" unicode="&#x14f;" 
d="M614 1147q-127 0 -206.5 75.5t-79.5 211.5h102q7 -90 56 -136.5t128 -46.5t128.5 46.5t56.5 136.5h102q0 -136 -80 -211.5t-207 -75.5zM614 -20q-205 0 -342 148.5t-137 383.5t137 383.5t342 148.5t342.5 -148.5t137.5 -383.5t-137.5 -383.5t-342.5 -148.5zM604 92h21
q142 0 237.5 114.5t95.5 305.5t-95.5 305.5t-237.5 114.5h-21q-142 0 -238 -114.5t-96 -305.5t96 -305.5t238 -114.5z" />
    <glyph glyph-name="Ohungarumlaut" unicode="&#x150;" 
d="M418 1567l108 256h185l-170 -256h-123zM754 1567l108 256h185l-170 -256h-123zM614 -20q-238 0 -375 194.5t-137 542.5t137 542.5t375 194.5t375 -194.5t137 -542.5t-137 -542.5t-375 -194.5zM610 113h8q171 0 268 161t97 443t-97 443t-268 161h-8q-171 0 -267.5 -161
t-96.5 -443t96.5 -443t267.5 -161z" />
    <glyph glyph-name="ohungarumlaut" unicode="&#x151;" 
d="M412 1167l116 267h164l-180 -267h-100zM735 1167l117 267h164l-180 -267h-101zM614 -20q-205 0 -342 148.5t-137 383.5t137 383.5t342 148.5t342.5 -148.5t137.5 -383.5t-137.5 -383.5t-342.5 -148.5zM604 92h21q142 0 237.5 114.5t95.5 305.5t-95.5 305.5t-237.5 114.5
h-21q-142 0 -238 -114.5t-96 -305.5t96 -305.5t238 -114.5z" />
    <glyph glyph-name="OE" unicode="&#x152;" 
d="M788 133h338v-133h-512q-234 0 -373 187t-139 530t139 530t373 187h492v-134h-318v-495h293v-133h-293v-539zM604 133h41v1167h-41q-166 0 -262 -152.5t-96 -430.5t96 -431t262 -153z" />
    <glyph glyph-name="oe" unicode="&#x153;" 
d="M369 -20q-171 0 -264 144.5t-93 387.5t93 387.5t264 144.5q100 0 167 -52t101 -134q35 85 107 135.5t171 50.5q78 0 137 -34.5t94.5 -97.5t53 -145t17.5 -183v-82h-508q0 -212 56 -311t146 -99h4q74 0 117 55.5t49 145.5h133q-6 -66 -26 -120.5t-55 -98.5t-91 -69
t-129 -25q-108 0 -172 48.5t-104 129.5q-42 -83 -110 -130.5t-158 -47.5zM367 92h4q101 0 152.5 110t51.5 310q0 199 -52 309.5t-152 110.5h-4q-108 0 -164 -110t-56 -310t56 -310t164 -110zM711 614h372q0 147 -41.5 232.5t-126.5 85.5h-4q-91 0 -142.5 -86.5t-57.5 -231.5
z" />
    <glyph glyph-name="Racute" unicode="&#x154;" 
d="M872 1823l-170 -256h-122l108 256h184zM872 707q98 0 140.5 -47t42.5 -148v-512h-144v512q0 92 -92 92h-481v-604h-143v1434h442q189 0 313.5 -108.5t124.5 -274.5q0 -122 -58.5 -213t-158.5 -131h14zM616 737q128 0 222 81.5t94 211.5q0 127 -84 198.5t-232 71.5h-278
v-563h278z" />
    <glyph glyph-name="racute" unicode="&#x155;" 
d="M614 1167l117 267h164l-180 -267h-101zM338 0v1024h123v-199q47 209 327 209h216v-123h-218q-315 0 -315 -393v-518h-133z" />
    <glyph glyph-name="Rcommaaccent" unicode="&#x156;" 
d="M872 707q98 0 140.5 -47t42.5 -148v-512h-144v512q0 92 -92 92h-481v-604h-143v1434h442q189 0 313.5 -108.5t124.5 -274.5q0 -122 -58.5 -213t-158.5 -131h14zM616 737q128 0 222 81.5t94 211.5q0 127 -84 198.5t-232 71.5h-278v-563h278zM559 -338v154h133v-174
q0 -70 -42.5 -112t-110.5 -42h-21v72h10q93 0 93 82v20h-62z" />
    <glyph glyph-name="rcommaaccent" unicode="&#x157;" 
d="M338 0v1024h123v-199q47 209 327 209h216v-123h-218q-315 0 -315 -393v-518h-133zM299 -512v72h10q92 0 92 82v20h-61v154h133v-174q0 -70 -43 -112t-111 -42h-20z" />
    <glyph glyph-name="Rcaron" unicode="&#x158;" 
d="M717 1567h-185l-235 256h139l189 -148l188 148h139zM872 707q98 0 140.5 -47t42.5 -148v-512h-144v512q0 92 -92 92h-481v-604h-143v1434h442q189 0 313.5 -108.5t124.5 -274.5q0 -122 -58.5 -213t-158.5 -131h14zM616 737q128 0 222 81.5t94 211.5q0 127 -84 198.5
t-232 71.5h-278v-563h278z" />
    <glyph glyph-name="rcaron" unicode="&#x159;" 
d="M737 1167h-135l-260 267h123l205 -154l204 154h123zM788 1034h216v-123h-218q-315 0 -315 -393v-518h-133v1024h123v-199q47 209 327 209z" />
    <glyph glyph-name="Sacute" unicode="&#x15a;" 
d="M596 1567l109 256h184l-170 -256h-123zM616 -20q-259 0 -393.5 127t-134.5 344h143q14 -338 392 -338h12q155 0 240.5 75t85.5 191q0 100 -60.5 159.5t-193.5 88.5l-201 43q-179 39 -263.5 128t-84.5 246q0 173 130.5 291.5t342.5 118.5q225 0 356 -119t139 -321h-143
q-7 142 -100.5 224.5t-243.5 82.5h-12q-143 0 -234.5 -78t-91.5 -196q0 -97 59 -153t185 -83l200 -43q359 -75 359 -381q0 -183 -131.5 -295t-356.5 -112z" />
    <glyph glyph-name="sacute" unicode="&#x15b;" 
d="M563 1167l117 267h164l-180 -267h-101zM623 -20q-191 0 -295.5 90t-112.5 237h133q10 -103 82.5 -159t181.5 -56h21q107 0 169 49.5t62 134.5q0 62 -40 99.5t-140 58.5l-149 31q-62 13 -110 33.5t-87.5 52.5t-60.5 80.5t-21 111.5q0 140 106.5 220.5t260.5 80.5
q95 0 169 -27t119 -74t69 -104t28 -122h-134q-9 89 -75 152t-166 63h-21q-103 0 -163 -54t-60 -133q0 -56 44.5 -94t141.5 -59l160 -35q59 -13 103 -31.5t81 -49.5t57 -78.5t21 -110.5q1 -144 -101 -225.5t-273 -81.5z" />
    <glyph glyph-name="Scircumflex" unicode="&#x15c;" 
d="M641 1714l-188 -147h-140l236 256h184l236 -256h-140zM745 768q359 -75 359 -381q0 -183 -131.5 -295t-356.5 -112q-259 0 -393.5 127t-134.5 344h143q14 -338 392 -338h12q155 0 240.5 75t85.5 191q0 100 -60.5 159.5t-193.5 88.5l-201 43q-179 39 -263.5 128t-84.5 246
q0 173 130.5 291.5t342.5 118.5q225 0 356 -119t139 -321h-143q-7 142 -100.5 224.5t-243.5 82.5h-12q-143 0 -234.5 -78t-91.5 -196q0 -97 59 -153t185 -83z" />
    <glyph glyph-name="scircumflex" unicode="&#x15d;" 
d="M618 1321l-204 -154h-123l260 267h135l260 -267h-123zM735 557q59 -13 103 -31.5t81 -49.5t57 -78.5t21 -110.5q1 -144 -101 -225.5t-273 -81.5q-191 0 -295.5 90t-112.5 237h133q10 -103 82.5 -159t181.5 -56h21q107 0 169 49.5t62 134.5q0 62 -40 99.5t-140 58.5
l-149 31q-62 13 -110 33.5t-87.5 52.5t-60.5 80.5t-21 111.5q0 140 106.5 220.5t260.5 80.5q95 0 169 -27t119 -74t69 -104t28 -122h-134q-9 89 -75 152t-166 63h-21q-103 0 -163 -54t-60 -133q0 -56 44.5 -94t141.5 -59z" />
    <glyph glyph-name="Scedilla" unicode="&#x15e;" 
d="M745 768q359 -75 359 -381q0 -176 -122.5 -287t-334.5 -120v-72q68 2 118 -45t50 -121q0 -88 -54.5 -145.5t-150.5 -57.5h-127v113h129q44 0 72.5 23t28.5 67t-28.5 66t-72.5 22h-57v152q-229 15 -348 140t-119 329h143q14 -338 392 -338h12q155 0 240.5 75t85.5 191
q0 100 -60.5 159.5t-193.5 88.5l-201 43q-179 39 -263.5 128t-84.5 246q0 173 130.5 291.5t342.5 118.5q225 0 356 -119t139 -321h-143q-7 142 -100.5 224.5t-243.5 82.5h-12q-143 0 -234.5 -78t-91.5 -196q0 -97 59 -153t185 -83z" />
    <glyph glyph-name="scedilla" unicode="&#x15f;" 
d="M735 557q59 -13 103 -31.5t81 -49.5t57 -78.5t21 -110.5q1 -138 -92 -218.5t-252 -88.5v-72q68 2 118 -45t50 -121q0 -88 -54.5 -145.5t-150.5 -57.5h-127v113h129q44 0 72.5 23t28.5 67t-28.5 66t-72.5 22h-57v152q-162 15 -250 102.5t-96 222.5h133q10 -103 82.5 -159
t181.5 -56h21q107 0 169 49.5t62 134.5q0 62 -40 99.5t-140 58.5l-149 31q-62 13 -110 33.5t-87.5 52.5t-60.5 80.5t-21 111.5q0 140 106.5 220.5t260.5 80.5q95 0 169 -27t119 -74t69 -104t28 -122h-134q-9 89 -75 152t-166 63h-21q-103 0 -163 -54t-60 -133
q0 -56 44.5 -94t141.5 -59z" />
    <glyph glyph-name="Scaron" unicode="&#x160;" 
d="M733 1567h-184l-236 256h140l188 -148l188 148h140zM745 768q359 -75 359 -381q0 -183 -131.5 -295t-356.5 -112q-259 0 -393.5 127t-134.5 344h143q14 -338 392 -338h12q155 0 240.5 75t85.5 191q0 100 -60.5 159.5t-193.5 88.5l-201 43q-179 39 -263.5 128t-84.5 246
q0 173 130.5 291.5t342.5 118.5q225 0 356 -119t139 -321h-143q-7 142 -100.5 224.5t-243.5 82.5h-12q-143 0 -234.5 -78t-91.5 -196q0 -97 59 -153t185 -83z" />
    <glyph glyph-name="scaron" unicode="&#x161;" 
d="M686 1167h-135l-260 267h123l204 -154l205 154h123zM735 557q59 -13 103 -31.5t81 -49.5t57 -78.5t21 -110.5q1 -144 -101 -225.5t-273 -81.5q-191 0 -295.5 90t-112.5 237h133q10 -103 82.5 -159t181.5 -56h21q107 0 169 49.5t62 134.5q0 62 -40 99.5t-140 58.5l-149 31
q-62 13 -110 33.5t-87.5 52.5t-60.5 80.5t-21 111.5q0 140 106.5 220.5t260.5 80.5q95 0 169 -27t119 -74t69 -104t28 -122h-134q-9 89 -75 152t-166 63h-21q-103 0 -163 -54t-60 -133q0 -56 44.5 -94t141.5 -59z" />
    <glyph glyph-name="uni0162" unicode="&#x162;" 
d="M686 0h-31v-92q68 2 118 -45t50 -121q0 -88 -54.5 -145.5t-150.5 -57.5h-126v113h129q44 0 72 23t28 67t-28 66t-72 22h-58v170h-20v1300h-420v134h983v-134h-420v-1300z" />
    <glyph glyph-name="uni0163" unicode="&#x163;" 
d="M1055 0h-301v-88q68 2 118 -45t50 -121q0 -88 -54.5 -145.5t-150.5 -57.5h-127v113h129q44 0 72 23t28 67t-28 66t-72 22h-57v166q-89 5 -131 48t-42 136v727h-346v113h346v332h134v-332h385v-113h-385v-716q0 -46 18 -64t64 -18h350v-113z" />
    <glyph glyph-name="Tcaron" unicode="&#x164;" 
d="M707 1567h-185l-235 256h139l188 -148l189 148h139zM123 1434h983v-134h-420v-1300h-143v1300h-420v134z" />
    <glyph glyph-name="tcaron" unicode="&#x165;" 
d="M762 1106v72h10q92 0 92 82v20h-61v154h133v-174q0 -70 -43 -112t-111 -42h-20zM684 0q-101 0 -148 43t-47 141v727h-346v113h346v332h134v-332h385v-113h-385v-716q0 -46 18 -64t64 -18h350v-113h-371z" />
    <glyph glyph-name="Tbar" unicode="&#x166;" 
d="M1106 1300h-420v-460h338v-123h-338v-717h-143v717h-338v123h338v460h-420v134h983v-134z" />
    <glyph glyph-name="tbar" unicode="&#x167;" 
d="M723 113h350v-113h-371q-101 0 -147.5 43t-46.5 141v359h-305v112h305v256h-346v113h346v332h133v-332h385v-113h-385v-256h385v-112h-385v-348q0 -46 18 -64t64 -18z" />
    <glyph glyph-name="Utilde" unicode="&#x168;" 
d="M743 1556q-40 0 -74.5 17.5t-84.5 54.5l-17 12q-5 4 -27 20.5t-34 24.5t-32.5 16.5t-39.5 8.5q-84 0 -84 -133h-102v47q0 85 51 142t127 57q37 0 67 -13.5t80 -48.5l15 -10q10 -7 32.5 -24t32.5 -24t26.5 -17t30 -13.5t27.5 -3.5q82 0 82 133h103v-47q0 -84 -52 -141.5
t-127 -57.5zM614 -20q-222 0 -341 131t-119 366v957h143v-936q0 -385 313 -385h8q314 0 314 385v936h143v-957q0 -235 -119.5 -366t-341.5 -131z" />
    <glyph glyph-name="utilde" unicode="&#x169;" 
d="M453 1300q-84 0 -84 -133h-103v47q0 85 51 142t127 57q38 0 68.5 -13.5t79.5 -47.5l14 -11q6 -4 32 -23.5t33.5 -24.5t26 -16t31.5 -14t27 -3q82 0 82 133h102v-47q0 -85 -51.5 -142t-126.5 -57q-40 0 -75.5 17.5t-84.5 54.5l-16 12q-4 3 -27 20.5t-34 24.5t-32 15.5
t-40 8.5zM891 1024h133v-1024h-133v193q-40 -102 -128.5 -157.5t-213.5 -55.5q-167 0 -260.5 101.5t-93.5 266.5v676h133v-635q0 -297 245 -297h21q119 0 208 104t89 275v553z" />
    <glyph glyph-name="Umacron" unicode="&#x16a;" 
d="M303 1597v113h563v-113h-563zM614 -20q-222 0 -341 131t-119 366v957h143v-936q0 -385 313 -385h8q314 0 314 385v936h143v-957q0 -235 -119.5 -366t-341.5 -131z" />
    <glyph glyph-name="umacron" unicode="&#x16b;" 
d="M903 1321v-113h-563v113h563zM891 1024h133v-1024h-133v193q-40 -102 -128.5 -157.5t-213.5 -55.5q-167 0 -260.5 101.5t-93.5 266.5v676h133v-635q0 -297 245 -297h21q119 0 208 104t89 275v553z" />
    <glyph glyph-name="Ubreve" unicode="&#x16c;" 
d="M584 1546q-134 0 -215.5 72.5t-81.5 204.5h112q14 -164 185 -164q170 0 184 164h113q0 -132 -81.5 -204.5t-215.5 -72.5zM614 -20q-222 0 -341 131t-119 366v957h143v-936q0 -385 313 -385h8q314 0 314 385v936h143v-957q0 -235 -119.5 -366t-341.5 -131z" />
    <glyph glyph-name="ubreve" unicode="&#x16d;" 
d="M602 1147q-127 0 -207 75.5t-80 211.5h103q7 -90 56 -136.5t128 -46.5t128 46.5t56 136.5h103q0 -136 -80 -211.5t-207 -75.5zM891 1024h133v-1024h-133v193q-40 -102 -128.5 -157.5t-213.5 -55.5q-167 0 -260.5 101.5t-93.5 266.5v676h133v-635q0 -297 245 -297h21
q119 0 208 104t89 275v553z" />
    <glyph glyph-name="Uring" unicode="&#x16e;" 
d="M584 1554q-64 0 -113 47t-49 115t49 115t113 47t112.5 -47t48.5 -115t-48.5 -115t-112.5 -47zM586 1647q27 0 46 20.5t19 48.5t-19 49t-46 21q-28 0 -49 -21t-21 -49t21 -48.5t49 -20.5zM614 -20q-222 0 -341 131t-119 366v957h143v-936q0 -385 313 -385h8q314 0 314 385
v936h143v-957q0 -235 -119.5 -366t-341.5 -131z" />
    <glyph glyph-name="uring" unicode="&#x16f;" 
d="M602 1157q-69 0 -120.5 49.5t-51.5 122.5t51.5 122.5t120.5 49.5t120.5 -49.5t51.5 -122.5t-51.5 -122.5t-120.5 -49.5zM604 1419q-37 0 -63.5 -26.5t-26.5 -63.5t26.5 -63.5t63.5 -26.5t62.5 26.5t25.5 63.5t-25.5 63.5t-62.5 26.5zM891 1024h133v-1024h-133v193
q-40 -102 -128.5 -157.5t-213.5 -55.5q-167 0 -260.5 101.5t-93.5 266.5v676h133v-635q0 -297 245 -297h21q119 0 208 104t89 275v553z" />
    <glyph glyph-name="Uhungarumlaut" unicode="&#x170;" 
d="M373 1567l108 256h185l-170 -256h-123zM709 1567l108 256h184l-170 -256h-122zM614 -20q-222 0 -341 131t-119 366v957h143v-936q0 -385 313 -385h8q314 0 314 385v936h143v-957q0 -235 -119.5 -366t-341.5 -131z" />
    <glyph glyph-name="uhungarumlaut" unicode="&#x171;" 
d="M680 1434l-180 -267h-101l117 267h164zM1004 1434l-181 -267h-100l117 267h164zM891 1024h133v-1024h-133v193q-40 -102 -128.5 -157.5t-213.5 -55.5q-167 0 -260.5 101.5t-93.5 266.5v676h133v-635q0 -297 245 -297h21q119 0 208 104t89 275v553z" />
    <glyph glyph-name="Uogonek" unicode="&#x172;" 
d="M932 1434h143v-957q0 -208 -93.5 -335.5t-270.5 -155.5q-158 -104 -158 -191q0 -43 32.5 -62.5t80.5 -19.5h51v-112h-51q-108 0 -161.5 41.5t-53.5 117.5q0 58 40 116.5t113 103.5q-218 3 -334 133.5t-116 363.5v957h143v-936q0 -385 313 -385h8q314 0 314 385v936z" />
    <glyph glyph-name="uogonek" unicode="&#x173;" 
d="M1024 0q-178 -112 -178 -205q0 -43 32 -62.5t80 -19.5h52v-112h-52q-108 0 -161.5 41.5t-53.5 117.5q0 64 50.5 128.5t138.5 111.5h-41v193q-40 -102 -128.5 -157.5t-213.5 -55.5q-167 0 -260.5 101.5t-93.5 266.5v676h133v-635q0 -297 245 -297h21q119 0 208 104t89 275
v553h133v-1024z" />
    <glyph glyph-name="Wcircumflex" unicode="&#x174;" 
d="M596 1714l-188 -147h-140l236 256h184l236 -256h-140zM993 1434h137l-122 -1434h-179l-213 887l-229 -887h-184l-103 1434h133l82 -1266l215 856h177l196 -846z" />
    <glyph glyph-name="wcircumflex" unicode="&#x175;" 
d="M614 1321l-204 -154h-123l260 267h135l260 -267h-123zM981 1024h131l-172 -1024h-154l-172 647l-174 -647h-151l-172 1024h135l125 -864l160 614h157l160 -616z" />
    <glyph glyph-name="Ycircumflex" unicode="&#x176;" 
d="M614 1714l-188 -147h-139l235 256h185l235 -256h-139zM971 1434h155l-442 -863v-571h-143v571l-439 863h158l354 -723z" />
    <glyph glyph-name="ycircumflex" unicode="&#x177;" 
d="M614 1321l-204 -154h-123l260 267h135l260 -267h-123zM1106 1024l-418 -989v-195q0 -93 -47 -135.5t-147 -42.5h-312v113h291q46 0 64 18t18 64v172l-430 995h145l348 -829l349 829h139z" />
    <glyph glyph-name="Ydieresis" unicode="&#x178;" 
d="M506 1761v-164h-164v164h164zM887 1761v-164h-164v164h164zM971 1434h155l-442 -863v-571h-143v571l-439 863h158l354 -723z" />
    <glyph glyph-name="Zacute" unicode="&#x179;" 
d="M858 1823l-170 -256h-123l109 256h184zM297 133h778v-133h-921v152l751 1148h-731v134h881v-142z" />
    <glyph glyph-name="zacute" unicode="&#x17a;" 
d="M854 1434l-180 -267h-101l117 267h164zM350 113h670v-113h-809v125l635 786h-625v113h768v-121z" />
    <glyph glyph-name="Zdotaccent" unicode="&#x17b;" 
d="M686 1772v-175h-154v175h154zM297 133h778v-133h-921v152l751 1148h-731v134h881v-142z" />
    <glyph glyph-name="zdotaccent" unicode="&#x17c;" 
d="M705 1382v-174h-154v174h154zM350 113h670v-113h-809v125l635 786h-625v113h768v-121z" />
    <glyph glyph-name="Zcaron" unicode="&#x17d;" 
d="M702 1567h-184l-235 256h139l188 -148l189 148h139zM297 133h778v-133h-921v152l751 1148h-731v134h881v-142z" />
    <glyph glyph-name="zcaron" unicode="&#x17e;" 
d="M696 1167h-135l-260 267h123l205 -154l205 154h122zM350 113h670v-113h-809v125l635 786h-625v113h768v-121z" />
    <glyph glyph-name="florin" unicode="&#x192;" 
d="M999 1300q-116 0 -162 -54t-67 -191l-22 -144h266v-123h-285l-123 -808q-33 -211 -114 -300.5t-250 -89.5h-82v134h71q119 0 167 54.5t69 190.5l127 819h-229v123h247l23 150q32 209 109 291t245 82h82v-134h-72z" />
    <glyph glyph-name="uni01E2" unicode="&#x1e2;" 
d="M942 1710v-113h-563v113h563zM721 133h436v-133h-579v395h-285l-129 -395h-137l475 1434h635v-134h-416v-495h340v-133h-340v-539zM336 528h242v742z" />
    <glyph glyph-name="uni01E3" unicode="&#x1e3;" 
d="M373 1208v113h563v-113h-563zM1217 584v-82h-525q0 -210 61 -310t152 -100h4q74 0 120 56t52 145h133q-6 -65 -27 -120t-57 -99t-93 -69t-130 -25q-189 0 -278 174q-50 -82 -120 -128t-181 -46q-142 0 -229 89.5t-87 223.5q0 84 32 148t85 100.5t114 54.5t126 18h188v80
q0 108 -46 173t-142 65h-7q-91 0 -140.5 -52.5t-55.5 -142.5h-133q9 140 97.5 223.5t244.5 83.5q97 0 165.5 -43.5t98.5 -109.5q35 69 103.5 111t156.5 42q106 0 179 -61.5t106 -162.5t33 -236zM694 614h389q0 150 -45.5 234t-132.5 84h-4q-194 0 -207 -318zM557 350v152
h-176q-98 0 -167 -56.5t-69 -148.5q0 -95 51 -150t142 -55h4q101 0 158 69t57 189z" />
    <glyph glyph-name="Aringacute" unicode="&#x1fa;" 
d="M795 2081l-123 -180h-101l80 180h144zM618 1554q-57 0 -99 41t-42 101t42 100.5t99 40.5t99.5 -40.5t42.5 -100.5t-42.5 -101t-99.5 -41zM621 1745q-20 0 -35 -14.5t-15 -34.5t15 -34.5t35 -14.5q19 0 33 14.5t14 34.5t-14 34.5t-33 14.5zM1026 0l-125 395h-577
l-125 -395h-133l456 1434h189l452 -1434h-137zM367 528h491l-246 779z" />
    <glyph glyph-name="aringacute" unicode="&#x1fb;" 
d="M842 1835l-180 -266h-101l117 266h164zM616 1149q-69 0 -120.5 49.5t-51.5 122.5q0 72 51.5 122t120.5 50t120.5 -50t51.5 -122q0 -73 -51.5 -122.5t-120.5 -49.5zM618 1411q-37 0 -63.5 -26.5t-26.5 -63.5t26.5 -63.5t63.5 -26.5t63 26.5t26 63.5t-26 63.5t-63 26.5z
M1016 225q0 -153 10 -225h-123q-10 56 -10 164q-33 -75 -133.5 -129.5t-229.5 -54.5q-136 0 -229.5 86.5t-93.5 216.5q0 65 22 117t56.5 85t82 56.5t94 34t97.5 14.5l324 24v41q0 131 -68.5 204t-187.5 73h-11q-103 0 -174.5 -51t-81.5 -144h-133q9 136 119 221.5t275 85.5
q97 0 173.5 -31t124 -85t72.5 -123.5t25 -149.5v-430zM565 92q71 0 144.5 37t123.5 102t50 138v137l-297 -21q-111 -8 -178.5 -59.5t-67.5 -134.5q0 -85 58.5 -142t146.5 -57h20z" />
    <glyph glyph-name="AEacute" unicode="&#x1fc;" 
d="M907 1823l-170 -256h-123l109 256h184zM721 133h436v-133h-579v395h-285l-129 -395h-137l475 1434h635v-134h-416v-495h340v-133h-340v-539zM336 528h242v742z" />
    <glyph glyph-name="aeacute" unicode="&#x1fd;" 
d="M580 1167l116 267h164l-180 -267h-100zM1217 584v-82h-525q0 -210 61 -310t152 -100h4q74 0 120 56t52 145h133q-6 -65 -27 -120t-57 -99t-93 -69t-130 -25q-189 0 -278 174q-50 -82 -120 -128t-181 -46q-142 0 -229 89.5t-87 223.5q0 84 32 148t85 100.5t114 54.5
t126 18h188v80q0 108 -46 173t-142 65h-7q-91 0 -140.5 -52.5t-55.5 -142.5h-133q9 140 97.5 223.5t244.5 83.5q97 0 165.5 -43.5t98.5 -109.5q35 69 103.5 111t156.5 42q106 0 179 -61.5t106 -162.5t33 -236zM694 614h389q0 150 -45.5 234t-132.5 84h-4q-194 0 -207 -318z
M557 350v152h-176q-98 0 -167 -56.5t-69 -148.5q0 -95 51 -150t142 -55h4q101 0 158 69t57 189z" />
    <glyph glyph-name="Oslashacute" unicode="&#x1fe;" 
d="M879 1823l-170 -256h-123l108 256h185zM1147 1425l-131 -202q112 -194 112 -506q0 -348 -137 -542.5t-375 -194.5q-195 0 -323 131l-109 -168l-100 65l133 205q-113 188 -113 504q0 348 137 542.5t375 194.5q194 0 322 -131l109 168zM248 717q0 -219 59 -367l553 852
q-93 119 -239 119h-9q-171 0 -267.5 -161t-96.5 -443zM985 717q0 220 -59 368l-553 -852q91 -120 239 -120h9q171 0 267.5 161t96.5 443z" />
    <glyph glyph-name="oslashacute" unicode="&#x1ff;" 
d="M840 1434l-181 -267h-100l117 267h164zM969 883q125 -147 125 -371q0 -235 -137.5 -383.5t-342.5 -148.5q-150 0 -272 86l-100 -134l-88 74l104 137q-123 149 -123 369q0 235 137 383.5t342 148.5q150 0 269 -83l102 133l94 -66zM270 512q0 -155 68 -266l475 622
q-86 64 -188 64h-21q-142 0 -238 -114.5t-96 -305.5zM625 92q142 0 237.5 114.5t95.5 305.5q0 156 -69 268l-475 -622q84 -66 190 -66h21z" />
    <glyph glyph-name="Scommaaccent" unicode="&#x218;" 
d="M616 -20q-259 0 -393.5 127t-134.5 344h143q14 -338 392 -338h12q155 0 240.5 75t85.5 191q0 100 -60.5 159.5t-193.5 88.5l-201 43q-179 39 -263.5 128t-84.5 246q0 173 130.5 291.5t342.5 118.5q225 0 356 -119t139 -321h-143q-7 142 -100.5 224.5t-243.5 82.5h-12
q-143 0 -234.5 -78t-91.5 -196q0 -97 59 -153t185 -83l200 -43q359 -75 359 -381q0 -183 -131.5 -295t-356.5 -112zM500 -512v72h10q92 0 92 82v20h-61v154h133v-174q0 -70 -43 -112t-111 -42h-20z" />
    <glyph glyph-name="scommaaccent" unicode="&#x219;" 
d="M623 -20q-191 0 -295.5 90t-112.5 237h133q10 -103 82.5 -159t181.5 -56h21q107 0 169 49.5t62 134.5q0 62 -40 99.5t-140 58.5l-149 31q-62 13 -110 33.5t-87.5 52.5t-60.5 80.5t-21 111.5q0 140 106.5 220.5t260.5 80.5q95 0 169 -27t119 -74t69 -104t28 -122h-134
q-9 89 -75 152t-166 63h-21q-103 0 -163 -54t-60 -133q0 -56 44.5 -94t141.5 -59l160 -35q59 -13 103 -31.5t81 -49.5t57 -78.5t21 -110.5q1 -144 -101 -225.5t-273 -81.5zM506 -512v72h10q92 0 92 82v20h-61v154h133v-174q0 -70 -43 -112t-111 -42h-20z" />
    <glyph glyph-name="uni021A" unicode="&#x21a;" 
d="M543 0v1300h-420v134h983v-134h-420v-1300h-143zM508 -512v72h10q92 0 92 82v20h-61v154h133v-174q0 -70 -43 -112t-111 -42h-20z" />
    <glyph glyph-name="uni021B" unicode="&#x21b;" 
d="M684 0q-101 0 -148 43t-47 141v727h-346v113h346v332h134v-332h385v-113h-385v-716q0 -46 18 -64t64 -18h350v-113h-371zM606 -508v72h10q93 0 93 82v20h-62v154h133v-174q0 -70 -42.5 -112t-110.5 -42h-21z" />
    <glyph glyph-name="uni0226" unicode="&#x226;" 
d="M694 1772v-175h-153v175h153zM1026 0l-125 395h-577l-125 -395h-133l456 1434h189l452 -1434h-137zM367 528h491l-246 779z" />
    <glyph glyph-name="uni0227" unicode="&#x227;" 
d="M694 1382v-174h-153v174h153zM1016 225q0 -153 10 -225h-123q-10 56 -10 164q-33 -75 -133.5 -129.5t-229.5 -54.5q-136 0 -229.5 86.5t-93.5 216.5q0 65 22 117t56.5 85t82 56.5t94 34t97.5 14.5l324 24v41q0 131 -68.5 204t-187.5 73h-11q-103 0 -174.5 -51t-81.5 -144
h-133q9 136 119 221.5t275 85.5q97 0 173.5 -31t124 -85t72.5 -123.5t25 -149.5v-430zM565 92q71 0 144.5 37t123.5 102t50 138v137l-297 -21q-111 -8 -178.5 -59.5t-67.5 -134.5q0 -85 58.5 -142t146.5 -57h20z" />
    <glyph glyph-name="uni0232" unicode="&#x232;" 
d="M897 1710v-113h-563v113h563zM971 1434h155l-442 -863v-571h-143v571l-439 863h158l354 -723z" />
    <glyph glyph-name="uni0233" unicode="&#x233;" 
d="M915 1321v-113h-563v113h563zM1106 1024l-418 -989v-195q0 -93 -47 -135.5t-147 -42.5h-312v113h291q46 0 64 18t18 64v172l-430 995h145l348 -829l349 829h139z" />
    <glyph glyph-name="uni0237" unicode="&#x237;" 
d="M803 1024v-1178q0 -98 -47 -141t-148 -43h-409v113h389q46 0 64 18t18 64v1054h-346v113h479z" />
    <glyph glyph-name="circumflex" unicode="&#x2c6;" 
d="M942 1167h-123l-205 154l-204 -154h-123l260 267h135z" />
    <glyph glyph-name="caron" unicode="&#x2c7;" 
d="M819 1434h123l-260 -267h-135l-260 267h123l204 -154z" />
    <glyph glyph-name="breve" unicode="&#x2d8;" 
d="M614 1147q-127 0 -206.5 75.5t-79.5 211.5h102q7 -90 56 -136.5t128 -46.5t128.5 46.5t56.5 136.5h102q0 -136 -80 -211.5t-207 -75.5z" />
    <glyph glyph-name="dotaccent" unicode="&#x2d9;" 
d="M537 1208v174h153v-174h-153z" />
    <glyph glyph-name="ring" unicode="&#x2da;" 
d="M614 1157q-69 0 -120.5 49.5t-51.5 122.5t51.5 122.5t120.5 49.5t120.5 -49.5t51.5 -122.5t-51.5 -122.5t-120.5 -49.5zM616 1239q37 0 63 26.5t26 63.5t-26 63.5t-63 26.5t-63.5 -26.5t-26.5 -63.5t26.5 -63.5t63.5 -26.5z" />
    <glyph glyph-name="ogonek" unicode="&#x2db;" 
d="M649 -399q-108 0 -161.5 41.5t-53.5 117.5q0 71 62 142t168 118l51 -20q-178 -112 -178 -205q0 -43 32 -62.5t80 -19.5h51v-112h-51z" />
    <glyph glyph-name="tilde" unicode="&#x2dc;" 
d="M774 1147q-40 0 -75.5 17.5t-84.5 54.5l-16 12q-4 3 -27 20.5t-34 24.5t-32 15.5t-40 8.5q-84 0 -84 -133h-102v47q0 85 51 142t127 57q38 0 68 -13t79 -48l14 -11q6 -4 32 -23.5t33.5 -24.5t26 -16t31.5 -14t27 -3q82 0 82 133h102v-47q0 -85 -51.5 -142t-126.5 -57z
" />
    <glyph glyph-name="hungarumlaut" unicode="&#x2dd;" 
d="M328 1167l116 267h164l-180 -267h-100zM651 1167l117 267h164l-180 -267h-101z" />
    <glyph glyph-name="uni0326" unicode="&#x326;" horiz-adv-x="0" 
d="M-721 -512v72h10q93 0 93 82v20h-62v154h133v-174q0 -70 -42.5 -112t-110.5 -42h-21z" />
    <glyph glyph-name="uni0394" unicode="&#x394;" 
d="M111 0v143l411 1291h189l407 -1291v-143h-1007zM242 133h741l-371 1174z" />
    <glyph glyph-name="uni03A9" unicode="&#x3a9;" 
d="M59 0v133h287q-32 29 -55.5 53t-62 79.5t-63.5 115t-44 154t-19 202.5q0 341 137.5 529t374.5 188q236 0 374 -188.5t138 -528.5q0 -108 -19 -202.5t-43.5 -154t-63 -115t-62 -79.5t-55.5 -53h286v-133h-460v113q37 26 69.5 57t72.5 85.5t68.5 118t48 156.5t19.5 199
q0 280 -98 436t-271 156h-8q-173 0 -270.5 -156t-97.5 -436q0 -106 19.5 -199t48 -156.5t68.5 -118t72.5 -85.5t69.5 -57v-113h-461z" />
    <glyph glyph-name="uni03BC" unicode="&#x3bc;" 
d="M901 1024h133v-1024h-133v193q-40 -102 -128.5 -157.5t-213.5 -55.5q-131 0 -221 65v-455h-133v1434h133v-635q0 -297 246 -297h20q119 0 208 104t89 275v553z" />
    <glyph glyph-name="pi" unicode="&#x3c0;" 
d="M287 0v911h-215v113h1054v-113h-215v-696q0 -102 93 -102h122v-113h-133q-215 0 -215 215v696h-358v-911h-133z" />
    <glyph glyph-name="Wgrave" unicode="&#x1e80;" 
d="M682 1567h-123l-170 256h184zM993 1434h137l-122 -1434h-179l-213 887l-229 -887h-184l-103 1434h133l82 -1266l215 856h177l196 -846z" />
    <glyph glyph-name="wgrave" unicode="&#x1e81;" 
d="M707 1167h-101l-180 267h164zM981 1024h131l-172 -1024h-154l-172 647l-174 -647h-151l-172 1024h135l125 -864l160 614h157l160 -616z" />
    <glyph glyph-name="Wacute" unicode="&#x1e82;" 
d="M844 1823l-170 -256h-123l108 256h185zM993 1434h137l-122 -1434h-179l-213 887l-229 -887h-184l-103 1434h133l82 -1266l215 856h177l196 -846z" />
    <glyph glyph-name="wacute" unicode="&#x1e83;" 
d="M840 1434l-181 -267h-100l117 267h164zM981 1024h131l-172 -1024h-154l-172 647l-174 -647h-151l-172 1024h135l125 -864l160 614h157l160 -616z" />
    <glyph glyph-name="Wdieresis" unicode="&#x1e84;" 
d="M487 1761v-164h-163v164h163zM868 1761v-164h-163v164h163zM993 1434h137l-122 -1434h-179l-213 887l-229 -887h-184l-103 1434h133l82 -1266l215 856h177l196 -846z" />
    <glyph glyph-name="wdieresis" unicode="&#x1e85;" 
d="M512 1372v-164h-154v164h154zM870 1372v-164h-153v164h153zM981 1024h131l-172 -1024h-154l-172 647l-174 -647h-151l-172 1024h135l125 -864l160 614h157l160 -616z" />
    <glyph glyph-name="uni1EA0" unicode="&#x1ea0;" 
d="M1163 0h-137l-125 395h-577l-125 -395h-133l456 1434h189zM367 528h491l-246 779zM537 -389v174h153v-174h-153z" />
    <glyph glyph-name="uni1EA1" unicode="&#x1ea1;" 
d="M1016 225q0 -153 10 -225h-123q-10 56 -10 164q-33 -75 -133.5 -129.5t-229.5 -54.5q-136 0 -229.5 86.5t-93.5 216.5q0 65 22 117t56.5 85t82 56.5t94 34t97.5 14.5l324 24v41q0 131 -68.5 204t-187.5 73h-11q-103 0 -174.5 -51t-81.5 -144h-133q9 136 119 221.5
t275 85.5q97 0 173.5 -31t124 -85t72.5 -123.5t25 -149.5v-430zM565 92q71 0 144.5 37t123.5 102t50 138v137l-297 -21q-111 -8 -178.5 -59.5t-67.5 -134.5q0 -85 58.5 -142t146.5 -57h20zM539 -389v174h153v-174h-153z" />
    <glyph glyph-name="uni1EB8" unicode="&#x1eb8;" 
d="M195 0v1434h870v-134h-727v-495h616v-133h-616v-539h747v-133h-890zM567 -389v174h154v-174h-154z" />
    <glyph glyph-name="uni1EB9" unicode="&#x1eb9;" 
d="M1049 584v-82h-738q1 -105 28 -185.5t72 -128.5t101 -72t121 -24h12q96 0 168 51t100 150h134q-33 -151 -142.5 -232t-269.5 -81q-97 0 -179.5 34.5t-144.5 100.5t-97.5 168.5t-35.5 230.5q0 130 38 233t102.5 167t145.5 97t171 33q185 0 299.5 -130.5t114.5 -329.5z
M623 932q-52 0 -99 -16t-91.5 -51t-76 -99t-41.5 -152h600q-5 139 -79 228.5t-193 89.5h-20zM559 -389v174h154v-174h-154z" />
    <glyph glyph-name="uni1ECA" unicode="&#x1eca;" 
d="M993 1300h-305v-1167h305v-133h-757v133h309v1167h-309v134h757v-134zM539 -389v174h153v-174h-153z" />
    <glyph glyph-name="uni1ECB" unicode="&#x1ecb;" 
d="M768 1413v-205h-184v205h184zM743 113h367v-113h-877v113h377v798h-346v113h479v-911zM610 -389v174h154v-174h-154z" />
    <glyph glyph-name="uni1ECC" unicode="&#x1ecc;" 
d="M614 -20q-238 0 -375 194.5t-137 542.5t137 542.5t375 194.5t375 -194.5t137 -542.5t-137 -542.5t-375 -194.5zM610 113h8q171 0 268 161t97 443t-97 443t-268 161h-8q-171 0 -267.5 -161t-96.5 -443t96.5 -443t267.5 -161zM551 -389v174h154v-174h-154z" />
    <glyph glyph-name="uni1ECD" unicode="&#x1ecd;" 
d="M614 -20q-205 0 -342 148.5t-137 383.5t137 383.5t342 148.5t342.5 -148.5t137.5 -383.5t-137.5 -383.5t-342.5 -148.5zM604 92h21q142 0 237.5 114.5t95.5 305.5t-95.5 305.5t-237.5 114.5h-21q-142 0 -238 -114.5t-96 -305.5t96 -305.5t238 -114.5zM537 -389v174h153
v-174h-153z" />
    <glyph glyph-name="uni1EE4" unicode="&#x1ee4;" 
d="M614 -20q-222 0 -341 131t-119 366v957h143v-936q0 -385 313 -385h8q314 0 314 385v936h143v-957q0 -235 -119.5 -366t-341.5 -131zM506 -389v174h153v-174h-153z" />
    <glyph glyph-name="uni1EE5" unicode="&#x1ee5;" 
d="M891 1024h133v-1024h-133v193q-40 -102 -128.5 -157.5t-213.5 -55.5q-167 0 -260.5 101.5t-93.5 266.5v676h133v-635q0 -297 245 -297h21q119 0 208 104t89 275v553zM545 -389v174h153v-174h-153z" />
    <glyph glyph-name="Ygrave" unicode="&#x1ef2;" 
d="M700 1567h-122l-170 256h184zM971 1434h155l-442 -863v-571h-143v571l-439 863h158l354 -723z" />
    <glyph glyph-name="ygrave" unicode="&#x1ef3;" 
d="M707 1167h-101l-180 267h164zM1106 1024l-418 -989v-195q0 -93 -47 -135.5t-147 -42.5h-312v113h291q46 0 64 18t18 64v172l-430 995h145l348 -829l349 829h139z" />
    <glyph glyph-name="uni2002" unicode="&#x2002;" 
 />
    <glyph glyph-name="uni2003" unicode="&#x2003;" 
 />
    <glyph glyph-name="uni2009" unicode="&#x2009;" horiz-adv-x="614" 
 />
    <glyph glyph-name="endash" unicode="&#x2013;" 
d="M215 563v113h799v-113h-799z" />
    <glyph glyph-name="emdash" unicode="&#x2014;" 
d="M41 563v113h1147v-113h-1147z" />
    <glyph glyph-name="quoteleft" unicode="&#x2018;" 
d="M788 1434v-82h-61q-123 0 -123 -123v-31h133v-225h-225v266q0 93 51 144t144 51h81z" />
    <glyph glyph-name="quoteright" unicode="&#x2019;" 
d="M440 973v82h62q123 0 123 123v30h-133v226h225v-267q0 -93 -50.5 -143.5t-144.5 -50.5h-82z" />
    <glyph glyph-name="quotesinglbase" unicode="&#x201a;" 
d="M461 -236v82h61q123 0 123 123v31h-133v225h225v-266q0 -93 -50.5 -144t-143.5 -51h-82z" />
    <glyph glyph-name="quotedblleft" unicode="&#x201c;" 
d="M563 1434v-82h-61q-123 0 -123 -123v-31h133v-225h-225v266q0 93 50.5 144t143.5 51h82zM983 1434v-82h-61q-123 0 -123 -123v-31h133v-225h-225v266q0 93 50.5 144t143.5 51h82z" />
    <glyph glyph-name="quotedblright" unicode="&#x201d;" 
d="M246 973v82h61q123 0 123 123v30h-133v226h225v-267q0 -93 -50.5 -143.5t-143.5 -50.5h-82zM666 973v82h61q123 0 123 123v30h-133v226h225v-267q0 -93 -50.5 -143.5t-143.5 -50.5h-82z" />
    <glyph glyph-name="quotedblbase" unicode="&#x201e;" 
d="M246 -236v82h61q123 0 123 123v31h-133v225h225v-266q0 -93 -50.5 -144t-143.5 -51h-82zM666 -236v82h61q123 0 123 123v31h-133v225h225v-266q0 -93 -50.5 -144t-143.5 -51h-82z" />
    <glyph glyph-name="dagger" unicode="&#x2020;" 
d="M547 -174v1147h-375v112h375v523h133v-523h375v-112h-375v-1147h-133z" />
    <glyph glyph-name="daggerdbl" unicode="&#x2021;" 
d="M1055 973h-375v-512h375v-113h-375v-522h-133v522h-375v113h375v512h-375v112h375v523h133v-523h375v-112z" />
    <glyph glyph-name="bullet" unicode="&#x2022;" 
d="M614 369q-141 0 -244.5 103.5t-103.5 244.5t103.5 244.5t244.5 103.5t245 -103.5t104 -244.5t-104 -244.5t-245 -103.5z" />
    <glyph glyph-name="ellipsis" unicode="&#x2026;" 
d="M102 0v225h226v-225h-226zM502 0v225h225v-225h-225zM901 0v225h225v-225h-225z" />
    <glyph glyph-name="perthousand" unicode="&#x2030;" 
d="M272 819q-120 0 -190 85t-70 226t70 226.5t190 85.5q122 0 192.5 -85.5t70.5 -226.5t-70.5 -226t-192.5 -85zM270 1339q-66 0 -102.5 -62t-36.5 -147q0 -84 36.5 -147t102.5 -63h6q66 0 103 63t37 147q0 85 -37 147t-103 62h-6zM764 946v-115l-694 -344v115zM956 610
q122 0 192.5 -85t70.5 -226t-70.5 -226t-192.5 -85q-128 0 -200 98q-72 -98 -203 -98q-120 0 -190 85t-70 226t70 226t190 85q131 0 203 -98q72 98 200 98zM557 88q66 0 102.5 63.5t36.5 147.5q0 85 -36.5 147t-102.5 62h-6q-66 0 -102.5 -62t-36.5 -147q0 -84 36.5 -147.5
t102.5 -63.5h6zM961 88q66 0 102.5 63.5t36.5 147.5q0 85 -36.5 147t-102.5 62h-7q-66 0 -102.5 -62t-36.5 -147q0 -84 36.5 -147.5t102.5 -63.5h7z" />
    <glyph glyph-name="guilsinglleft" unicode="&#x2039;" 
d="M532 586l299 -443h-155l-297 441l297 440h151z" />
    <glyph glyph-name="guilsinglright" unicode="&#x203a;" 
d="M553 1024l297 -440l-297 -441h-152l295 439l-299 442h156z" />
    <glyph glyph-name="fraction" unicode="&#x2044;" 
d="M117 0l860 1434h133l-860 -1434h-133z" />
    <glyph glyph-name="uni2070" unicode="&#x2070;" 
d="M614 1669q154 0 243 -113.5t89 -302.5t-89 -301t-243 -112t-242.5 112t-88.5 301t88.5 302.5t242.5 113.5zM610 1567q-66 0 -113.5 -47.5t-68 -116.5t-20.5 -150q0 -65 14 -120l334 360q-54 74 -138 74h-8zM618 942q66 0 113.5 46.5t68.5 115t21 149.5q0 73 -18 140
l-338 -367q54 -84 145 -84h8z" />
    <glyph glyph-name="uni2074" unicode="&#x2074;" 
d="M690 850v197h-379v114l367 498h127v-510h110v-102h-110v-197h-115zM430 1149h260v360z" />
    <glyph glyph-name="uni2075" unicode="&#x2075;" 
d="M616 840q-124 0 -199.5 58.5t-84.5 168.5h125q7 -61 51 -93t106 -32h9q65 0 107 46t42 118q0 70 -40.5 109.5t-106.5 39.5h-7q-89 0 -145 -69h-108l92 473h428v-103h-338l-53 -256q61 58 151 58q114 0 183 -69.5t69 -178.5q0 -123 -80.5 -196.5t-200.5 -73.5z" />
    <glyph glyph-name="uni2076" unicode="&#x2076;" 
d="M610 840q-139 0 -218 103.5t-79 287.5q0 199 94 318.5t236 119.5q129 0 200.5 -68.5t71.5 -156.5h-120q-11 55 -50.5 88t-97.5 33h-12q-82 0 -141.5 -77.5t-69.5 -209.5q25 51 85 83t134 32q107 0 183.5 -73t76.5 -192q0 -126 -79 -207t-214 -81zM610 942h6
q71 0 118.5 49.5t47.5 124.5q0 76 -45 125t-116 49h-7q-71 0 -117 -49t-46 -125t44.5 -125t114.5 -49z" />
    <glyph glyph-name="uni2077" unicode="&#x2077;" 
d="M479 850v74q0 226 83 384.5t214 247.5h-434v103h545v-109q-283 -235 -283 -626v-74h-125z" />
    <glyph glyph-name="uni2078" unicode="&#x2078;" 
d="M608 840q-113 0 -191.5 57.5t-78.5 159.5q0 130 137 190q-66 28 -107.5 79.5t-41.5 117.5q0 105 79.5 165t206.5 60q128 0 208.5 -60t80.5 -165q0 -67 -41 -118.5t-108 -78.5q129 -59 129 -190q0 -102 -80 -159.5t-193 -57.5zM604 1305h10q66 0 114 34t48 95
q0 63 -45.5 98t-112.5 35h-10q-67 0 -112 -35t-45 -98q0 -61 45 -95t108 -34zM604 942h10q60 0 101 35.5t41 97.5q0 58 -41.5 94.5t-100.5 36.5h-10q-59 0 -100 -36.5t-41 -94.5q0 -62 40.5 -97.5t100.5 -35.5z" />
    <glyph glyph-name="uni2079" unicode="&#x2079;" 
d="M618 1669q139 0 218 -103.5t79 -287.5q0 -199 -93.5 -318.5t-235.5 -119.5q-129 0 -201 68.5t-72 156.5h121q11 -55 50.5 -88t97.5 -33h12q82 0 141.5 77.5t69.5 209.5q-25 -51 -85 -83t-134 -32q-107 0 -183.5 72.5t-76.5 191.5q0 126 78.5 207.5t213.5 81.5zM618 1567
h-6q-71 0 -118.5 -49.5t-47.5 -124.5q0 -76 45.5 -125t116.5 -49h6q71 0 117.5 49t46.5 125q0 75 -45 124.5t-115 49.5z" />
    <glyph glyph-name="Euro" unicode="&#x20ac;" 
d="M709 113q135 0 210.5 78.5t90.5 228.5h139q-19 -209 -135 -324.5t-314 -115.5q-185 0 -301 112t-161 320l-185 -41v123l166 36q-10 85 -10 164l-156 -35v123l158 35q18 306 139.5 471.5t349.5 165.5q198 0 314 -115.5t135 -324.5h-139q-15 150 -90.5 228.5t-210.5 78.5
h-21q-299 0 -336 -471l365 82v-123l-369 -84v-8q0 -83 6 -156l277 62v-123l-260 -58q68 -329 317 -329h21z" />
    <glyph glyph-name="uni20BF" unicode="&#x20bf;" 
d="M846 727q107 -21 183.5 -107t76.5 -225q0 -185 -109.5 -290t-302.5 -105h-162l-40 -246h-127l41 246h-211v1434h450l43 245h127l-43 -252q145 -22 224 -117.5t79 -250.5q0 -127 -63 -212.5t-166 -119.5zM338 1300v-507h328q119 0 192.5 67t73.5 187q0 253 -266 253h-328z
M664 133q299 0 299 264q0 127 -81 194.5t-216 67.5h-328v-526h326z" />
    <glyph glyph-name="uni2105" unicode="&#x2105;" 
d="M305 840q-122 0 -193 75.5t-71 219.5q0 145 73.5 227t194.5 82q97 0 168 -55t78 -148h-119q-6 51 -41 81t-82 30h-6q-75 0 -112 -62t-37 -155q0 -91 36.5 -147t112.5 -56h6q46 0 79 29t42 79h117q-10 -96 -79.5 -148t-166.5 -52zM117 0l860 1434h133l-860 -1434h-133z
M920 -20q-123 0 -196 81.5t-73 219.5t73 220.5t196 82.5t195.5 -82.5t72.5 -220.5t-72.5 -219.5t-195.5 -81.5zM922 72q72 0 110.5 57t38.5 152q0 94 -40 152.5t-111 58.5t-111.5 -58.5t-40.5 -152.5t41.5 -151.5t112.5 -57.5z" />
    <glyph glyph-name="uni2113" unicode="&#x2113;" 
d="M571 250q0 -66 26 -91.5t91 -25.5h174v-133h-235q-195 0 -195 215v221l-153 -92v148l153 90v526q0 168 73 257t206 89q74 0 130 -28.5t88.5 -79.5t48 -114t15.5 -138q0 -166 -79 -290.5t-201 -197.5l-142 -86v-270zM571 1128v-462l64 36q113 67 166 166.5t53 212.5
q0 117 -38.5 178.5t-104.5 61.5q-61 0 -100.5 -50t-39.5 -143z" />
    <glyph glyph-name="uni2116" unicode="&#x2116;" horiz-adv-x="2457" 
d="M1903 840q-123 0 -196 81.5t-73 219.5t73 220.5t196 82.5t195.5 -82.5t72.5 -220.5t-72.5 -219.5t-195.5 -81.5zM1260 219v1215h143v-1434h-174l-799 1235v-1235h-143v1434h184zM1903 1352q-71 0 -111.5 -58.5t-40.5 -152.5t41.5 -151.5t112.5 -57.5q72 0 110.5 57
t38.5 152q0 94 -40 152.5t-111 58.5zM1634 625v92h535v-92h-535z" />
    <glyph glyph-name="uni2117" unicode="&#x2117;" 
d="M618 102q-166 0 -307.5 82.5t-224 224.5t-82.5 308t82.5 307.5t224 224t307.5 82.5t308 -82.5t224.5 -224t82.5 -307.5q0 -124 -49 -238t-131.5 -196.5t-196.5 -131.5t-238 -49zM618 190q142 0 262.5 71t190.5 192.5t70 263.5t-70 263.5t-190.5 192t-262.5 70.5
q-106 0 -203 -42t-166.5 -112.5t-111 -167.5t-41.5 -204q0 -142 69.5 -263.5t190 -192.5t262.5 -71zM414 383v688h266q112 0 181 -52t69 -159q0 -104 -69.5 -155.5t-180.5 -51.5h-154v-270h-112zM526 745h138q73 0 113 25.5t40 91.5q0 67 -39.5 92t-113.5 25h-138v-234z" />
    <glyph glyph-name="trademark" unicode="&#x2122;" 
d="M45 1331v103h420v-103h-148v-676h-124v676h-148zM942 1434h178v-779h-112v678l-113 -459h-131l-115 447v-666h-112v779h180l114 -439z" />
    <glyph glyph-name="uni2126" unicode="&#x2126;" 
d="M59 0v133h287q-32 29 -55.5 53t-62 79.5t-63.5 115t-44 154t-19 202.5q0 341 137.5 529t374.5 188q236 0 374 -188.5t138 -528.5q0 -108 -19 -202.5t-43.5 -154t-63 -115t-62 -79.5t-55.5 -53h286v-133h-460v113q37 26 69.5 57t72.5 85.5t68.5 118t48 156.5t19.5 199
q0 280 -98 436t-271 156h-8q-173 0 -270.5 -156t-97.5 -436q0 -106 19.5 -199t48 -156.5t68.5 -118t72.5 -85.5t69.5 -57v-113h-461z" />
    <glyph glyph-name="uni2153" unicode="&#x2153;" 
d="M258 827v453l-176 -147v133l203 168h88v-607h-115zM117 0l860 1434h133l-860 -1434h-133zM930 -8q-90 0 -153.5 50t-63.5 134h118q-1 -37 26.5 -60.5t68.5 -23.5h8q44 0 74 22t30 60q0 37 -25.5 58.5t-64.5 21.5h-59v106h61q36 0 60 21t24 55t-27.5 55t-68.5 21h-8
q-38 0 -64 -21t-26 -55h-117q0 84 61.5 131t153.5 47q90 0 151.5 -44.5t61.5 -125.5q0 -47 -26.5 -83.5t-71.5 -53.5q104 -53 104 -145q0 -82 -66 -126t-161 -44z" />
    <glyph glyph-name="uni2154" unicode="&#x2154;" 
d="M16 827v127l205 179q3 2 26 22t30.5 28.5t23 25.5t21 31t4.5 28q-1 32 -26 49.5t-64 17.5h-7q-38 0 -63.5 -22.5t-28.5 -63.5h-119q4 88 66 140.5t154 52.5q87 0 146.5 -48t59.5 -128q0 -32 -10.5 -60t-37 -57t-41.5 -43t-54 -47l-151 -125h301v-107h-435zM117 0
l860 1434h133l-860 -1434h-133zM930 -8q-90 0 -153.5 50t-63.5 134h118q-1 -37 26.5 -60.5t68.5 -23.5h8q44 0 74 22t30 60q0 37 -25.5 58.5t-64.5 21.5h-59v106h61q36 0 60 21t24 55t-27.5 55t-68.5 21h-8q-38 0 -64 -21t-26 -55h-117q0 84 61.5 131t153.5 47
q90 0 151.5 -44.5t61.5 -125.5q0 -47 -26.5 -83.5t-71.5 -53.5q104 -53 104 -145q0 -82 -66 -126t-161 -44z" />
    <glyph glyph-name="uni2155" unicode="&#x2155;" 
d="M258 827v453l-176 -147v133l203 168h88v-607h-115zM117 0l860 1434h133l-860 -1434h-133zM922 -8q-90 0 -153 46t-75 130h125q4 -37 32.5 -56.5t68.5 -19.5h6q46 0 76 28.5t30 72.5q0 39 -28.5 63.5t-69.5 24.5h-6q-42 0 -90 -37h-113l70 362h350v-100h-262l-35 -170
q55 45 123 45q76 0 127 -53t51 -131q0 -93 -64.5 -149t-162.5 -56z" />
    <glyph glyph-name="uni2156" unicode="&#x2156;" 
d="M72 827v127l204 179q3 2 26 22t30.5 28.5t23 25.5t21 31t4.5 28q-1 32 -26 49.5t-64 17.5h-6q-38 0 -63.5 -22.5t-28.5 -63.5h-119q4 88 65.5 140.5t153.5 52.5q87 0 147 -48t60 -128q0 -22 -4.5 -41.5t-18.5 -40t-21.5 -32.5t-32.5 -34.5t-31 -28t-36 -30.5l-151 -125
h301v-107h-434zM117 0l860 1434h133l-860 -1434h-133zM922 -8q-90 0 -153 46t-75 130h125q4 -37 32.5 -56.5t68.5 -19.5h6q46 0 76 28.5t30 72.5q0 39 -28.5 63.5t-69.5 24.5h-6q-42 0 -90 -37h-113l70 362h350v-100h-262l-35 -170q55 45 123 45q76 0 127 -53t51 -131
q0 -93 -64.5 -149t-162.5 -56z" />
    <glyph glyph-name="uni2157" unicode="&#x2157;" 
d="M289 819q-90 0 -153.5 50t-63.5 135h118q-1 -37 26.5 -60.5t68.5 -23.5h8q44 0 74 21.5t30 59.5q0 37 -25.5 58.5t-64.5 21.5h-59v107h61q36 0 60 21t24 55t-27.5 54.5t-68.5 20.5h-8q-38 0 -64 -20.5t-26 -54.5h-117q0 84 61.5 131t153.5 47q90 0 151.5 -44.5
t61.5 -125.5q0 -47 -26.5 -83.5t-71.5 -53.5q104 -53 104 -146q0 -82 -66 -126t-161 -44zM117 0l860 1434h133l-860 -1434h-133zM922 -8q-90 0 -153 46t-75 130h125q4 -37 32.5 -56.5t68.5 -19.5h6q46 0 76 28.5t30 72.5q0 39 -28.5 63.5t-69.5 24.5h-6q-42 0 -90 -37h-113
l70 362h350v-100h-262l-35 -170q55 45 123 45q76 0 127 -53t51 -131q0 -93 -64.5 -149t-162.5 -56z" />
    <glyph glyph-name="uni2158" unicode="&#x2158;" 
d="M309 827v134h-286v100l278 373h123v-373h86v-100h-86v-134h-115zM117 0l860 1434h133l-860 -1434h-133zM135 1061h174v235zM922 -8q-90 0 -153 46t-75 130h125q4 -37 32.5 -56.5t68.5 -19.5h6q46 0 76 28.5t30 72.5q0 39 -28.5 63.5t-69.5 24.5h-6q-42 0 -90 -37h-113
l70 362h350v-100h-262l-35 -170q55 45 123 45q76 0 127 -53t51 -131q0 -93 -64.5 -149t-162.5 -56z" />
    <glyph glyph-name="uni2159" unicode="&#x2159;" 
d="M258 827v453l-176 -147v133l203 168h88v-607h-115zM117 0l860 1434h133l-860 -1434h-133zM956 -8q-107 0 -171 78t-64 215q0 151 75 240t199 89q97 0 149 -51t52 -121h-115q-6 32 -29.5 51t-58.5 19h-8q-60 0 -105.5 -52t-52.5 -138q19 37 63.5 61.5t96.5 24.5
q84 0 142.5 -57t58.5 -148q0 -87 -63 -149t-169 -62zM956 92h5q49 0 80.5 30.5t31.5 76.5q0 45 -30.5 75.5t-79.5 30.5h-5q-43 0 -76.5 -30t-33.5 -76q0 -45 31.5 -76t76.5 -31z" />
    <glyph glyph-name="uni215A" unicode="&#x215a;" 
d="M227 819q-89 0 -152 46t-75 130h125q4 -37 32 -56t68 -19h6q46 0 76.5 28t30.5 72q0 39 -28.5 63.5t-69.5 24.5h-7q-42 0 -90 -37h-112l69 363h351v-101h-263l-34 -170q55 45 122 45q76 0 127.5 -53t51.5 -131q0 -93 -65 -149t-163 -56zM117 0l860 1434h133l-860 -1434
h-133zM956 -8q-107 0 -171 78t-64 215q0 151 75 240t199 89q97 0 149 -51t52 -121h-115q-6 32 -29.5 51t-58.5 19h-8q-60 0 -105.5 -52t-52.5 -138q19 37 63.5 61.5t96.5 24.5q84 0 142.5 -57t58.5 -148q0 -87 -63 -149t-169 -62zM956 92h5q49 0 80.5 30.5t31.5 76.5
q0 45 -30.5 75.5t-79.5 30.5h-5q-43 0 -76.5 -30t-33.5 -76q0 -45 31.5 -76t76.5 -31z" />
    <glyph glyph-name="oneeighth" unicode="&#x215b;" 
d="M258 827v453l-176 -147v133l203 168h88v-607h-115zM117 0l860 1434h133l-860 -1434h-133zM969 -8q-90 0 -151.5 42.5t-61.5 121.5q0 97 112 141q-125 48 -125 147q0 80 63 125t163 45t163.5 -45t63.5 -125q0 -96 -117 -147q47 -20 76 -57t29 -84q0 -79 -62 -121.5
t-153 -42.5zM967 360h8q43 0 74.5 20.5t31.5 57.5q0 35 -30.5 54.5t-77.5 19.5h-6q-47 0 -78 -19.5t-31 -54.5q0 -37 32 -57.5t77 -20.5zM967 92h8q40 0 67 20.5t27 55.5q0 36 -27.5 58t-66.5 22h-8q-40 0 -68.5 -22t-28.5 -58q0 -35 28.5 -55.5t68.5 -20.5z" />
    <glyph glyph-name="threeeighths" unicode="&#x215c;" 
d="M295 819q-90 0 -153.5 50t-63.5 135h119q-1 -37 26 -60.5t68 -23.5h8q44 0 74 21.5t30 59.5q0 37 -25.5 58.5t-64.5 21.5h-59v107h61q36 0 60 21t24 55t-27.5 54.5t-68.5 20.5h-8q-38 0 -64 -20.5t-26 -54.5h-117q0 84 61.5 131t153.5 47q90 0 151.5 -44.5t61.5 -125.5
q0 -47 -26.5 -83.5t-71.5 -53.5q104 -53 104 -146q0 -82 -66 -126t-161 -44zM117 0l860 1434h133l-860 -1434h-133zM969 -8q-90 0 -151.5 42.5t-61.5 121.5q0 97 112 141q-125 48 -125 147q0 80 63 125t163 45t163.5 -45t63.5 -125q0 -96 -117 -147q47 -20 76 -57t29 -84
q0 -79 -62 -121.5t-153 -42.5zM967 360h8q43 0 74.5 20.5t31.5 57.5q0 35 -30.5 54.5t-77.5 19.5h-6q-47 0 -78 -19.5t-31 -54.5q0 -37 32 -57.5t77 -20.5zM967 92h8q40 0 67 20.5t27 55.5q0 36 -27.5 58t-66.5 22h-8q-40 0 -68.5 -22t-28.5 -58q0 -35 28.5 -55.5
t68.5 -20.5z" />
    <glyph glyph-name="fiveeighths" unicode="&#x215d;" 
d="M248 819q-90 0 -153 46t-75 130h125q4 -37 32.5 -56t68.5 -19h6q46 0 76 28t30 72q0 39 -28.5 63.5t-69.5 24.5h-6q-42 0 -90 -37h-113l70 363h350v-101h-262l-35 -170q55 45 123 45q76 0 127 -53t51 -131q0 -93 -64.5 -149t-162.5 -56zM117 0l860 1434h133l-860 -1434
h-133zM969 -8q-90 0 -151.5 42.5t-61.5 121.5q0 97 112 141q-125 48 -125 147q0 80 63 125t163 45t163.5 -45t63.5 -125q0 -96 -117 -147q47 -20 76 -57t29 -84q0 -79 -62 -121.5t-153 -42.5zM967 360h8q43 0 74.5 20.5t31.5 57.5q0 35 -30.5 54.5t-77.5 19.5h-6
q-47 0 -78 -19.5t-31 -54.5q0 -37 32 -57.5t77 -20.5zM967 92h8q40 0 67 20.5t27 55.5q0 36 -27.5 58t-66.5 22h-8q-40 0 -68.5 -22t-28.5 -58q0 -35 28.5 -55.5t68.5 -20.5z" />
    <glyph glyph-name="seveneighths" unicode="&#x215e;" 
d="M207 827v56q0 77 14.5 144t35 112t51.5 85.5t55.5 63t54.5 45.5h-312v101h426v-107q-208 -175 -208 -444v-56h-117zM117 0l860 1434h133l-860 -1434h-133zM969 -8q-90 0 -151.5 42.5t-61.5 121.5q0 97 112 141q-125 48 -125 147q0 80 63 125t163 45t163.5 -45t63.5 -125
q0 -96 -117 -147q47 -20 76 -57t29 -84q0 -79 -62 -121.5t-153 -42.5zM967 360h8q43 0 74.5 20.5t31.5 57.5q0 35 -30.5 54.5t-77.5 19.5h-6q-47 0 -78 -19.5t-31 -54.5q0 -37 32 -57.5t77 -20.5zM967 92h8q40 0 67 20.5t27 55.5q0 36 -27.5 58t-66.5 22h-8q-40 0 -68.5 -22
t-28.5 -58q0 -35 28.5 -55.5t68.5 -20.5z" />
    <glyph glyph-name="uni215F" unicode="&#x215f;" 
d="M117 0l860 1434h133l-860 -1434h-133zM317 889v405l-157 -131v119l182 152h80v-545h-105z" />
    <glyph glyph-name="arrowleft" unicode="&#x2190;" 
d="M557 244l-473 473l473 473l90 -92l-317 -318h776v-127h-776l317 -317z" />
    <glyph glyph-name="arrowup" unicode="&#x2191;" 
d="M141 774l473 473l473 -473l-92 -90l-317 317v-776h-127v776l-318 -317z" />
    <glyph glyph-name="arrowright" unicode="&#x2192;" 
d="M672 1190l473 -473l-473 -473l-90 92l317 317h-776v127h776l-317 318z" />
    <glyph glyph-name="arrowdown" unicode="&#x2193;" 
d="M1087 700l-473 -473l-473 473l92 91l318 -318v776h127v-776l317 318z" />
    <glyph glyph-name="uni2196" unicode="&#x2196;" 
d="M934 381l-549 549v-451h-129v668h670v-129h-451l549 -549z" />
    <glyph glyph-name="uni2197" unicode="&#x2197;" 
d="M295 381l-90 88l549 549h-451v129h670v-668h-129v451z" />
    <glyph glyph-name="uni2198" unicode="&#x2198;" 
d="M295 1053l549 -549v450h129v-667h-670v129h451l-549 549z" />
    <glyph glyph-name="uni2199" unicode="&#x2199;" 
d="M934 1053l90 -88l-549 -549h451v-129h-670v667h129v-450z" />
    <glyph glyph-name="uni21A4" unicode="&#x21a4;" 
d="M952 1126h133v-819h-133v346h-643l318 -317l-90 -92l-474 473l474 473l90 -92l-318 -318h643v346z" />
    <glyph glyph-name="uni21A5" unicode="&#x21a5;" 
d="M678 991v-643h346v-133h-819v133h346v643l-318 -317l-92 90l473 473l473 -473l-92 -90z" />
    <glyph glyph-name="uni21A6" unicode="&#x21a6;" 
d="M672 1190l473 -473l-473 -473l-90 92l317 317h-643v-346h-133v819h133v-346h643l-317 318z" />
    <glyph glyph-name="uni21A7" unicode="&#x21a7;" 
d="M995 719l92 -90l-473 -473l-473 473l92 90l318 -318v643h-346v134h819v-134h-346v-643z" />
    <glyph glyph-name="uni21B0" unicode="&#x21b0;" 
d="M1096 780v-780h-140v653h-637l318 -317l-90 -92l-473 473l473 473l90 -92l-318 -318h777z" />
    <glyph glyph-name="uni21B1" unicode="&#x21b1;" 
d="M682 1190l473 -473l-473 -473l-90 92l317 317h-637v-653h-139v780h776l-317 318z" />
    <glyph glyph-name="uni21B2" unicode="&#x21b2;" 
d="M956 1434h140v-781h-777l318 -317l-90 -92l-473 473l473 473l90 -92l-318 -318h637v654z" />
    <glyph glyph-name="uni21B3" unicode="&#x21b3;" 
d="M682 1190l473 -473l-473 -473l-90 92l317 317h-776v781h139v-654h637l-317 318z" />
    <glyph glyph-name="partialdiff" unicode="&#x2202;" 
d="M567 -20q-216 0 -340.5 140t-124.5 374q0 221 123.5 360t323.5 139q107 0 194 -36.5t140 -106.5l-6 47q-16 108 -61 191.5t-108 133t-134.5 74.5t-147.5 25q-103 0 -190 -31v133q96 31 206 31q118 0 216 -42t168 -117t118 -179.5t71 -229.5t23 -268q0 -320 -127.5 -479
t-343.5 -159zM563 113h10q139 0 232.5 98t93.5 281q0 185 -90.5 281.5t-235.5 96.5h-20q-143 0 -227 -95t-84 -281q0 -185 88.5 -283t232.5 -98z" />
    <glyph glyph-name="uni2206" unicode="&#x2206;" 
d="M111 0v143l411 1291h189l407 -1291v-143h-1007zM242 133h741l-371 1174z" />
    <glyph glyph-name="product" unicode="&#x220f;" 
d="M279 0v1300h-213v134h1259v-134h-211v-1300h-139v1300h-557v-1300h-139z" />
    <glyph glyph-name="summation" unicode="&#x2211;" 
d="M969 1434v-134h-699l422 -583l-422 -584h699v-133h-871v135l418 582l-418 588v129h871z" />
    <glyph glyph-name="minus" unicode="&#x2212;" 
d="M109 461v133h1011v-133h-1011z" />
    <glyph glyph-name="radical" unicode="&#x221a;" 
d="M1305 1434v-127h-412l-318 -1307h-161l-359 1024h140l297 -862l294 1272h519z" />
    <glyph glyph-name="infinity" unicode="&#x221e;" 
d="M301 369q-123 0 -202 73t-79 193t79 193t202 73q103 0 177.5 -43t135.5 -129q61 86 136 129t178 43q123 0 201.5 -73t78.5 -193t-78.5 -193t-201.5 -73q-103 0 -178 43t-136 129q-61 -86 -135.5 -129t-177.5 -43zM307 481h10q70 0 126 36.5t114 117.5q-58 80 -114 116.5
t-126 36.5h-10q-71 0 -117.5 -41.5t-46.5 -111.5t46.5 -112t117.5 -42zM911 481h11q71 0 117 42t46 112t-46 111.5t-117 41.5h-11q-70 0 -125.5 -36t-113.5 -117q58 -81 114 -117.5t125 -36.5z" />
    <glyph glyph-name="integral" unicode="&#x222b;" 
d="M238 -205v133h71q126 0 177 57t51 189v870q0 390 356 390h82v-134h-72q-126 0 -176.5 -56.5t-50.5 -188.5v-871q0 -389 -357 -389h-81z" />
    <glyph glyph-name="approxequal" unicode="&#x2248;" 
d="M850 569q-58 0 -154 41.5t-182 83t-119 41.5q-129 0 -129 -145h-133v51q0 102 66.5 169t179.5 67q58 0 154 -41.5t182 -83t119 -41.5q72 0 100.5 35.5t28.5 99.5h133v-51q0 -103 -63 -164.5t-183 -61.5zM850 180q-58 0 -154 41.5t-182 83t-119 41.5q-129 0 -129 -145
h-133v51q0 102 66.5 168.5t179.5 66.5q58 0 154 -41t182 -82.5t119 -41.5q72 0 100.5 35.5t28.5 99.5h133v-51q0 -103 -63 -164.5t-183 -61.5z" />
    <glyph glyph-name="notequal" unicode="&#x2260;" 
d="M1120 645h-395l-74 -237h469v-134h-510l-75 -243h-146l76 243h-356v134h397l74 237h-471v133h512l75 246h146l-76 -246h354v-133z" />
    <glyph glyph-name="lessequal" unicode="&#x2264;" 
d="M1120 1044v-147l-864 -240l864 -239v-152l-1011 312v155zM109 51v133h1011v-133h-1011z" />
    <glyph glyph-name="greaterequal" unicode="&#x2265;" 
d="M109 1044l1011 -311v-155l-1011 -312v148l864 239l-864 240v151zM109 51v133h1011v-133h-1011z" />
    <glyph glyph-name="uni2460" unicode="&#x2460;" 
d="M614 102q-166 0 -307.5 82.5t-224 224.5t-82.5 308t82.5 307.5t224 224t307.5 82.5t308 -82.5t224.5 -224t82.5 -307.5q0 -124 -49 -238t-131.5 -196.5t-196.5 -131.5t-238 -49zM614 190q142 0 262.5 71t190.5 192.5t70 263.5t-70 263.5t-190.5 192t-262.5 70.5
q-106 0 -203 -42t-166.5 -112.5t-111 -167.5t-41.5 -204q0 -142 69.5 -263.5t190 -192.5t262.5 -71zM592 418v452l-176 -147v133l202 168h89v-606h-115z" />
    <glyph glyph-name="uni2461" unicode="&#x2461;" 
d="M614 102q-166 0 -307.5 82.5t-224 224.5t-82.5 308t82.5 307.5t224 224t307.5 82.5t308 -82.5t224.5 -224t82.5 -307.5q0 -124 -49 -238t-131.5 -196.5t-196.5 -131.5t-238 -49zM614 190q142 0 262.5 71t190.5 192.5t70 263.5t-70 263.5t-190.5 192t-262.5 70.5
q-106 0 -203 -42t-166.5 -112.5t-111 -167.5t-41.5 -204q0 -142 69.5 -263.5t190 -192.5t262.5 -71zM397 418v127l205 178q3 2 26 22t30.5 28.5t23 25.5t21 31t4.5 28q-1 32 -26.5 50t-64.5 18h-6q-38 0 -63.5 -22.5t-28.5 -63.5h-119q4 88 65.5 140t153.5 52q87 0 147 -48
t60 -128q0 -32 -10.5 -60t-37 -57t-41.5 -43t-54 -47l-152 -125h301v-106h-434z" />
    <glyph glyph-name="uni2462" unicode="&#x2462;" 
d="M614 102q-166 0 -307.5 82.5t-224 224.5t-82.5 308t82.5 307.5t224 224t307.5 82.5t308 -82.5t224.5 -224t82.5 -307.5q0 -124 -49 -238t-131.5 -196.5t-196.5 -131.5t-238 -49zM614 190q142 0 262.5 71t190.5 192.5t70 263.5t-70 263.5t-190.5 192t-262.5 70.5
q-106 0 -203 -42t-166.5 -112.5t-111 -167.5t-41.5 -204q0 -142 69.5 -263.5t190 -192.5t262.5 -71zM608 410q-90 0 -153.5 50t-63.5 134h119q-1 -37 26 -60.5t68 -23.5h8q44 0 74.5 22t30.5 60q0 37 -25.5 58.5t-64.5 21.5h-60v106h62q36 0 60 21t24 55t-28 55t-69 21h-8
q-38 0 -64 -21t-26 -55h-117q0 84 61.5 131t153.5 47q90 0 151.5 -44.5t61.5 -125.5q0 -47 -26.5 -83.5t-71.5 -53.5q105 -54 105 -145q0 -82 -66.5 -126t-161.5 -44z" />
    <glyph glyph-name="uni2463" unicode="&#x2463;" 
d="M614 102q-166 0 -307.5 82.5t-224 224.5t-82.5 308t82.5 307.5t224 224t307.5 82.5t308 -82.5t224.5 -224t82.5 -307.5q0 -124 -49 -238t-131.5 -196.5t-196.5 -131.5t-238 -49zM614 190q142 0 262.5 71t190.5 192.5t70 263.5t-70 263.5t-190.5 192t-262.5 70.5
q-106 0 -203 -42t-166.5 -112.5t-111 -167.5t-41.5 -204q0 -142 69.5 -263.5t190 -192.5t262.5 -71zM637 418v133h-287v100l279 373h123v-373h86v-100h-86v-133h-115zM463 651h174v236z" />
    <glyph glyph-name="uni2464" unicode="&#x2464;" 
d="M614 102q-166 0 -307.5 82.5t-224 224.5t-82.5 308t82.5 307.5t224 224t307.5 82.5t308 -82.5t224.5 -224t82.5 -307.5q0 -124 -49 -238t-131.5 -196.5t-196.5 -131.5t-238 -49zM614 190q142 0 262.5 71t190.5 192.5t70 263.5t-70 263.5t-190.5 192t-262.5 70.5
q-106 0 -203 -42t-166.5 -112.5t-111 -167.5t-41.5 -204q0 -142 69.5 -263.5t190 -192.5t262.5 -71zM596 410q-89 0 -152 46t-75 130h125q4 -37 32 -56.5t68 -19.5h6q46 0 76.5 28t30.5 72q0 39 -29 63.5t-70 24.5h-6q-44 0 -90 -36h-113l70 362h350v-100h-262l-35 -170
q55 45 123 45q76 0 127 -53.5t51 -131.5q0 -93 -64.5 -148.5t-162.5 -55.5z" />
    <glyph glyph-name="uni2465" unicode="&#x2465;" 
d="M614 102q-166 0 -307.5 82.5t-224 224.5t-82.5 308t82.5 307.5t224 224t307.5 82.5t308 -82.5t224.5 -224t82.5 -307.5q0 -124 -49 -238t-131.5 -196.5t-196.5 -131.5t-238 -49zM614 190q142 0 262.5 71t190.5 192.5t70 263.5t-70 263.5t-190.5 192t-262.5 70.5
q-106 0 -203 -42t-166.5 -112.5t-111 -167.5t-41.5 -204q0 -142 69.5 -263.5t190 -192.5t262.5 -71zM608 410q-107 0 -171 78t-64 214q0 151 75 240.5t199 89.5q97 0 149 -51t52 -121h-115q-6 32 -29.5 51t-58.5 19h-8q-60 0 -105.5 -52.5t-52.5 -138.5q19 37 63.5 61.5
t96.5 24.5q84 0 142.5 -56.5t58.5 -147.5q0 -87 -63 -149t-169 -62zM608 510h4q49 0 81 30t32 76q0 45 -31 76t-80 31h-4q-43 0 -76.5 -30.5t-33.5 -76.5q0 -45 31.5 -75.5t76.5 -30.5z" />
    <glyph glyph-name="uni2466" unicode="&#x2466;" 
d="M614 102q-166 0 -307.5 82.5t-224 224.5t-82.5 308t82.5 307.5t224 224t307.5 82.5t308 -82.5t224.5 -224t82.5 -307.5q0 -124 -49 -238t-131.5 -196.5t-196.5 -131.5t-238 -49zM614 190q142 0 262.5 71t190.5 192.5t70 263.5t-70 263.5t-190.5 192t-262.5 70.5
q-106 0 -203 -42t-166.5 -112.5t-111 -167.5t-41.5 -204q0 -142 69.5 -263.5t190 -192.5t262.5 -71zM506 418v55q0 95 20 173t55.5 131.5t66 85.5t69.5 61h-311v100h425v-106q-208 -175 -208 -445v-55h-117z" />
    <glyph glyph-name="uni2467" unicode="&#x2467;" 
d="M614 102q-166 0 -307.5 82.5t-224 224.5t-82.5 308t82.5 307.5t224 224t307.5 82.5t308 -82.5t224.5 -224t82.5 -307.5q0 -124 -49 -238t-131.5 -196.5t-196.5 -131.5t-238 -49zM614 190q142 0 262.5 71t190.5 192.5t70 263.5t-70 263.5t-190.5 192t-262.5 70.5
q-106 0 -203 -42t-166.5 -112.5t-111 -167.5t-41.5 -204q0 -142 69.5 -263.5t190 -192.5t262.5 -71zM612 410q-90 0 -151.5 42t-61.5 121q0 97 113 142q-125 48 -125 147q0 80 62.5 125t162.5 45t164 -45t64 -125q0 -96 -117 -147q46 -20 75 -57t29 -85q0 -79 -62 -121
t-153 -42zM610 778h8q43 0 75 20.5t32 57.5q0 35 -31 54.5t-78 19.5h-6q-47 0 -77.5 -19.5t-30.5 -54.5q0 -38 31.5 -58t76.5 -20zM610 510h8q40 0 67.5 20.5t27.5 55.5q0 36 -27.5 58t-67.5 22h-8q-40 0 -68 -22t-28 -58q0 -35 28 -55.5t68 -20.5z" />
    <glyph glyph-name="uni2468" unicode="&#x2468;" 
d="M614 102q-166 0 -307.5 82.5t-224 224.5t-82.5 308t82.5 307.5t224 224t307.5 82.5t308 -82.5t224.5 -224t82.5 -307.5q0 -124 -49 -238t-131.5 -196.5t-196.5 -131.5t-238 -49zM614 190q142 0 262.5 71t190.5 192.5t70 263.5t-70 263.5t-190.5 192t-262.5 70.5
q-106 0 -203 -42t-166.5 -112.5t-111 -167.5t-41.5 -204q0 -142 69.5 -263.5t190 -192.5t262.5 -71zM623 1030q107 0 170 -78t63 -215q0 -151 -75 -240t-199 -89q-97 0 -149 51t-52 121h115q8 -33 31.5 -52.5t56.5 -19.5h10q60 0 105 53t51 139q-19 -37 -63.5 -61.5
t-96.5 -24.5q-82 0 -140.5 57t-58.5 148q0 88 62 149.5t170 61.5zM623 930h-7q-47 0 -78.5 -30.5t-31.5 -76.5q0 -45 30.5 -75.5t77.5 -30.5h4q44 0 77.5 30t33.5 76q0 45 -31.5 76t-74.5 31z" />
    <glyph glyph-name="uni24EA" unicode="&#x24ea;" 
d="M614 102q-166 0 -307.5 82.5t-224 224.5t-82.5 308t82.5 307.5t224 224t307.5 82.5t308 -82.5t224.5 -224t82.5 -307.5q0 -124 -49 -238t-131.5 -196.5t-196.5 -131.5t-238 -49zM614 190q142 0 262.5 71t190.5 192.5t70 263.5t-70 263.5t-190.5 192t-262.5 70.5
q-106 0 -203 -42t-166.5 -112.5t-111 -167.5t-41.5 -204q0 -142 69.5 -263.5t190 -192.5t262.5 -71zM612 410q-120 0 -190 85t-70 226t70 226t190 85q122 0 192 -85t70 -226t-70 -226t-192 -85zM610 510h6q66 0 103 63.5t37 147.5q0 85 -37 147t-103 62h-6q-66 0 -102.5 -62
t-36.5 -147q0 -84 36.5 -147.5t102.5 -63.5z" />
    <glyph glyph-name="uni24FF" unicode="&#x24ff;" 
d="M614 102q124 0 238 49t196.5 131.5t131.5 196.5t49 238q0 166 -82.5 307.5t-224.5 224t-308 82.5t-307.5 -82.5t-224 -224t-82.5 -307.5t82.5 -308t224 -224.5t307.5 -82.5zM612 410q-120 0 -190 85t-70 226t70 226t190 85q122 0 192 -85t70 -226t-70 -226t-192 -85z
M610 510h6q66 0 103 63.5t37 147.5q0 85 -37 147t-103 62h-6q-66 0 -102.5 -62t-36.5 -147q0 -84 36.5 -147.5t102.5 -63.5z" />
    <glyph glyph-name="lozenge" unicode="&#x25ca;" 
d="M690 1434l481 -717l-481 -717h-143l-492 717l492 717h143zM618 139l400 578l-400 588l-399 -588z" />
    <glyph glyph-name="uni278A" unicode="&#x278a;" 
d="M614 102q124 0 238 49t196.5 131.5t131.5 196.5t49 238q0 166 -82.5 307.5t-224.5 224t-308 82.5t-307.5 -82.5t-224 -224t-82.5 -307.5t82.5 -308t224 -224.5t307.5 -82.5zM586 418v452l-176 -147v133l202 168h88v-606h-114z" />
    <glyph glyph-name="uni278B" unicode="&#x278b;" 
d="M614 102q124 0 238 49t196.5 131.5t131.5 196.5t49 238q0 166 -82.5 307.5t-224.5 224t-308 82.5t-307.5 -82.5t-224 -224t-82.5 -307.5t82.5 -308t224 -224.5t307.5 -82.5zM397 418v127l205 178q3 2 26 22t30.5 28.5t23 25.5t21 31t4.5 28q-1 32 -26.5 50t-64.5 18h-6
q-38 0 -63.5 -22.5t-28.5 -63.5h-119q4 88 65.5 140t153.5 52q87 0 147 -48t60 -128q0 -32 -10.5 -60t-37 -57t-41.5 -43t-54 -47l-152 -125h301v-106h-434z" />
    <glyph glyph-name="uni278C" unicode="&#x278c;" 
d="M614 102q124 0 238 49t196.5 131.5t131.5 196.5t49 238q0 166 -82.5 307.5t-224.5 224t-308 82.5t-307.5 -82.5t-224 -224t-82.5 -307.5t82.5 -308t224 -224.5t307.5 -82.5zM608 410q-90 0 -153.5 50t-63.5 134h119q-1 -37 26 -60.5t68 -23.5h8q44 0 74.5 22t30.5 60
q0 37 -25.5 58.5t-64.5 21.5h-60v106h62q36 0 60 21t24 55t-28 55t-69 21h-8q-38 0 -64 -21t-26 -55h-117q0 84 61.5 131t153.5 47q90 0 151.5 -44.5t61.5 -125.5q0 -47 -26.5 -83.5t-71.5 -53.5q105 -54 105 -145q0 -82 -66.5 -126t-161.5 -44z" />
    <glyph glyph-name="uni278D" unicode="&#x278d;" 
d="M614 102q124 0 238 49t196.5 131.5t131.5 196.5t49 238q0 166 -82.5 307.5t-224.5 224t-308 82.5t-307.5 -82.5t-224 -224t-82.5 -307.5t82.5 -308t224 -224.5t307.5 -82.5zM647 418v133h-287v100l279 373h123v-373h86v-100h-86v-133h-115zM473 651h174v236z" />
    <glyph glyph-name="uni278E" unicode="&#x278e;" 
d="M614 102q124 0 238 49t196.5 131.5t131.5 196.5t49 238q0 166 -82.5 307.5t-224.5 224t-308 82.5t-307.5 -82.5t-224 -224t-82.5 -307.5t82.5 -308t224 -224.5t307.5 -82.5zM604 410q-89 0 -152 46t-75 130h125q4 -37 32 -56.5t68 -19.5h6q46 0 76.5 28t30.5 72
q0 39 -29 63.5t-70 24.5h-6q-44 0 -90 -36h-112l69 362h350v-100h-262l-35 -170q55 45 123 45q76 0 127 -53.5t51 -131.5q0 -93 -64.5 -148.5t-162.5 -55.5z" />
    <glyph glyph-name="uni278F" unicode="&#x278f;" 
d="M614 102q124 0 238 49t196.5 131.5t131.5 196.5t49 238q0 166 -82.5 307.5t-224.5 224t-308 82.5t-307.5 -82.5t-224 -224t-82.5 -307.5t82.5 -308t224 -224.5t307.5 -82.5zM612 410q-107 0 -171 78t-64 214q0 151 75 240.5t199 89.5q97 0 149 -51t52 -121h-115
q-6 32 -29.5 51t-58.5 19h-8q-60 0 -105.5 -52.5t-52.5 -138.5q19 37 63.5 61.5t96.5 24.5q84 0 142.5 -56.5t58.5 -147.5q0 -87 -63 -149t-169 -62zM612 510h4q49 0 81 30t32 76q0 45 -31 76t-80 31h-4q-43 0 -76.5 -30.5t-33.5 -76.5q0 -45 31.5 -75.5t76.5 -30.5z" />
    <glyph glyph-name="uni2790" unicode="&#x2790;" 
d="M614 102q124 0 238 49t196.5 131.5t131.5 196.5t49 238q0 166 -82.5 307.5t-224.5 224t-308 82.5t-307.5 -82.5t-224 -224t-82.5 -307.5t82.5 -308t224 -224.5t307.5 -82.5zM502 418v55q0 95 20 173t55.5 131.5t66 85.5t69.5 61h-312v100h426v-106q-209 -176 -209 -445
v-55h-116z" />
    <glyph glyph-name="uni2791" unicode="&#x2791;" 
d="M614 102q124 0 238 49t196.5 131.5t131.5 196.5t49 238q0 166 -82.5 307.5t-224.5 224t-308 82.5t-307.5 -82.5t-224 -224t-82.5 -307.5t82.5 -308t224 -224.5t307.5 -82.5zM612 410q-90 0 -151.5 42t-61.5 121q0 97 113 142q-125 48 -125 147q0 80 62.5 125t162.5 45
t164 -45t64 -125q0 -96 -117 -147q46 -20 75 -57t29 -85q0 -79 -62 -121t-153 -42zM610 778h8q43 0 75 20.5t32 57.5q0 35 -31 54.5t-78 19.5h-6q-47 0 -77.5 -19.5t-30.5 -54.5q0 -38 31.5 -58t76.5 -20zM610 510h8q40 0 67.5 20.5t27.5 55.5q0 36 -27.5 58t-67.5 22h-8
q-40 0 -68 -22t-28 -58q0 -35 28 -55.5t68 -20.5z" />
    <glyph glyph-name="uni2792" unicode="&#x2792;" 
d="M614 102q124 0 238 49t196.5 131.5t131.5 196.5t49 238q0 166 -82.5 307.5t-224.5 224t-308 82.5t-307.5 -82.5t-224 -224t-82.5 -307.5t82.5 -308t224 -224.5t307.5 -82.5zM623 1030q107 0 170 -78t63 -215q0 -151 -75 -240t-199 -89q-97 0 -149 51t-52 121h115
q8 -33 31.5 -52.5t56.5 -19.5h10q60 0 105 53t51 139q-19 -37 -63.5 -61.5t-96.5 -24.5q-82 0 -140.5 57t-58.5 148q0 88 62 149.5t170 61.5zM623 930h-7q-47 0 -78.5 -30.5t-31.5 -76.5q0 -45 30.5 -75.5t77.5 -30.5h4q44 0 77.5 30t33.5 76q0 45 -31.5 76t-74.5 31z" />
    <glyph glyph-name="uniE000" unicode="&#xe000;" 
d="M264 367v700h701v-700h-701zM395 498h439v438h-439v-438z" />
    <glyph glyph-name="uniE001" unicode="&#xe001;" 
d="M131 233h967v967h-967v-967zM264 367v700h701v-700h-701z" />
    <glyph glyph-name="uniE002" unicode="&#xe002;" 
d="M0 102v1229h1229v-1229h-1229zM131 233h967v967h-967v-967z" />
    <glyph glyph-name="uniE009" unicode="&#xe009;" 
d="M264 367v700h701v-700h-701zM395 498h439v438h-439v-438zM526 629v176h176v-176h-176z" />
    <glyph glyph-name="uniE00A" unicode="&#xe00a;" 
d="M131 233h967v967h-967v-967zM264 367v700h701v-700h-701zM395 498h439v438h-439v-438zM526 629v176h176v-176h-176z" />
    <glyph glyph-name="uniE00B" unicode="&#xe00b;" 
d="M0 102v1229h1229v-1229h-1229zM131 233h967v967h-967v-967zM264 367v700h701v-700h-701zM395 498h439v438h-439v-438zM526 629v176h176v-176h-176z" />
    <glyph glyph-name="uniE00C" unicode="&#xe00c;" 
d="M264 367v700h701v-700h-701z" />
    <glyph glyph-name="uniE00D" unicode="&#xe00d;" 
d="M131 233h967v967h-967v-967z" />
    <glyph glyph-name="uniE00E" unicode="&#xe00e;" 
d="M0 102v1229h1229v-1229h-1229z" />
    <glyph glyph-name="uniE010" unicode="&#xe010;" 
d="M614 338q-157 0 -267.5 111t-110.5 268t110.5 268t267.5 111t268 -111t111 -268t-111 -268t-268 -111zM614 457q107 0 183.5 76.5t76.5 183.5t-76.5 183.5t-183.5 76.5t-183.5 -76.5t-76.5 -183.5t76.5 -183.5t183.5 -76.5zM614 575q-58 0 -99.5 41.5t-41.5 100.5
t41.5 100t99.5 41q59 0 100.5 -41.5t41.5 -99.5q0 -59 -42 -100.5t-100 -41.5z" />
    <glyph glyph-name="uniE011" unicode="&#xe011;" 
d="M614 221q134 0 248 67t181 181t67 248t-67 248t-181 180.5t-248 66.5t-248 -66.5t-180.5 -180.5t-66.5 -248t66.5 -248t180.5 -181t248 -67zM614 338q-157 0 -267.5 111t-110.5 268t110.5 268t267.5 111t268 -111t111 -268t-111 -268t-268 -111zM614 457
q107 0 183.5 76.5t76.5 183.5t-76.5 183.5t-183.5 76.5t-183.5 -76.5t-76.5 -183.5t76.5 -183.5t183.5 -76.5zM614 575q-58 0 -99.5 41.5t-41.5 100.5t41.5 100t99.5 41q59 0 100.5 -41.5t41.5 -99.5q0 -59 -42 -100.5t-100 -41.5z" />
    <glyph glyph-name="uniE012" unicode="&#xe012;" 
d="M614 102q-166 0 -307.5 82.5t-224 224.5t-82.5 308t82.5 307.5t224 224t307.5 82.5t308 -82.5t224.5 -224t82.5 -307.5q0 -124 -49 -238t-131.5 -196.5t-196.5 -131.5t-238 -49zM614 221q134 0 248 67t181 181t67 248t-67 248t-181 180.5t-248 66.5t-248 -66.5
t-180.5 -180.5t-66.5 -248t66.5 -248t180.5 -181t248 -67zM614 338q-157 0 -267.5 111t-110.5 268t110.5 268t267.5 111t268 -111t111 -268t-111 -268t-268 -111zM614 457q107 0 183.5 76.5t76.5 183.5t-76.5 183.5t-183.5 76.5t-183.5 -76.5t-76.5 -183.5t76.5 -183.5
t183.5 -76.5zM614 575q-58 0 -99.5 41.5t-41.5 100.5t41.5 100t99.5 41q59 0 100.5 -41.5t41.5 -99.5q0 -59 -42 -100.5t-100 -41.5z" />
    <glyph glyph-name="uniF8FF" unicode="&#xf8ff;" horiz-adv-x="2457" 
d="M1896 1444q67 7 137.5 -5.5t96.5 -35.5q-1 -4 -1.5 -19t-2 -25t-4.5 -13q-11 -11 -40 -14t-52.5 0t-38.5 7q2 -55 -12.5 -103t-52.5 -81.5t-93 -28.5q-14 -46 -42.5 -81.5t-63 -56t-76 -35.5t-81 -19t-78 -6t-67.5 2q0 -1 7 -23.5t18 -62t23 -87.5t24 -109t19 -116
q7 -8 29.5 -33.5t39 -44.5t43.5 -46.5t53 -51.5q44 -39 78 -84t45 -75q19 -50 -35 -60q-44 26 -84.5 65.5t-90.5 97t-85 91.5q-4 -59 7 -125.5t26 -132t19 -98.5q-28 -22 -52.5 -23t-33.5 17q-28 44 -45 137t-25 184t-10 99q-64 3 -457 -91q-1 -47 16 -91t44.5 -82
t56.5 -74.5t57.5 -83.5t42.5 -93q-5 -6 -13 -11.5t-25.5 -9t-37.5 10.5q-20 11 -42.5 37.5t-54 72t-42.5 60.5q-23 30 -48.5 86t-37.5 64q-97 -288 -129 -291h-27t-24.5 10t-9.5 31q3 60 39.5 165t87.5 195q-14 2 -105.5 9t-168.5 24.5t-124 54.5q-10 13 -20 29q12 15 25 26
t21.5 16.5t25.5 15.5t26 16q29 39 106.5 97.5t108.5 102.5q-12 10 -59 32t-85.5 48.5t-47.5 55.5q4 4 18 39q9 7 65 -15t121 -55q16 132 21 145q3 7 22 14t37 10l17 3q18 -11 22 -31q4 -18 -9.5 -85.5t-10.5 -100.5q46 0 97 27t100.5 60t80.5 42q13 4 62 16.5t102 27
t92 26.5q-39 69 -41.5 148.5t35.5 123.5q161 1 228.5 -70t31.5 -174q40 3 83.5 28t49.5 50q-18 17 -55.5 48t-63.5 59q-46 53 -28.5 110t84.5 82q92 35 150 -27.5t44 -171.5q56 27 47 234zM1755 1204q14 39 -4 79.5t-65 53.5q-26 -44 1.5 -86t67.5 -47zM1489 1042q3 1 8 4.5
t13 21.5t8 44q-57 57 -117 57q-11 -30 -6.5 -70.5t22.5 -58.5q11 -11 72 2zM909 459q67 3 151.5 29.5t170.5 47.5t172 15q-5 36 -20 85t-19 73q-4 26 -8 59t-6.5 49t-10 36.5t-22.5 37.5q-99 -22 -240 -96t-223 -95q13 -45 25.5 -102.5t20.5 -96t9 -42.5zM573 483
q170 -26 228 -20q-11 27 -27.5 90t-32.5 96q-19 -17 -60 -51t-65.5 -59t-42.5 -56z" />
    <glyph glyph-name="G.ss02" 
d="M668 717h458v-285q0 -204 -129.5 -328t-337.5 -124q-185 0 -312 95t-186 258t-59 384q0 163 33.5 295.5t100 232t174.5 154.5t249 55q214 0 329 -132t124 -349h-143q-12 172 -90.5 260t-212.5 88h-13q-198 0 -302.5 -156.5t-104.5 -447.5q0 -295 106.5 -449.5
t300.5 -154.5h13q156 0 241.5 91.5t85.5 250.5v129h-325v133z" />
    <glyph glyph-name="Gbreve.ss02" 
d="M664 1546q-134 0 -215.5 72.5t-81.5 204.5h112q14 -164 185 -164q170 0 184 164h113q0 -132 -81.5 -204.5t-215.5 -72.5zM668 717h458v-285q0 -204 -129.5 -328t-337.5 -124q-185 0 -312 95t-186 258t-59 384q0 163 33.5 295.5t100 232t174.5 154.5t249 55
q214 0 329 -132t124 -349h-143q-12 172 -90.5 260t-212.5 88h-13q-198 0 -302.5 -156.5t-104.5 -447.5q0 -295 106.5 -449.5t300.5 -154.5h13q156 0 241.5 91.5t85.5 250.5v129h-325v133z" />
    <glyph glyph-name="Gcircumflex.ss02" 
d="M664 1714l-189 -147h-139l235 256h185l235 -256h-139zM668 717h458v-285q0 -204 -129.5 -328t-337.5 -124q-185 0 -312 95t-186 258t-59 384q0 163 33.5 295.5t100 232t174.5 154.5t249 55q214 0 329 -132t124 -349h-143q-12 172 -90.5 260t-212.5 88h-13
q-198 0 -302.5 -156.5t-104.5 -447.5q0 -295 106.5 -449.5t300.5 -154.5h13q156 0 241.5 91.5t85.5 250.5v129h-325v133z" />
    <glyph glyph-name="Gcommaaccent.ss02" 
d="M668 717h458v-285q0 -204 -129.5 -328t-337.5 -124q-185 0 -312 95t-186 258t-59 384q0 163 33.5 295.5t100 232t174.5 154.5t249 55q214 0 329 -132t124 -349h-143q-12 172 -90.5 260t-212.5 88h-13q-198 0 -302.5 -156.5t-104.5 -447.5q0 -295 106.5 -449.5
t300.5 -154.5h13q156 0 241.5 91.5t85.5 250.5v129h-325v133zM590 -338v154h133v-174q0 -70 -43 -112t-111 -42h-20v72h10q92 0 92 82v20h-61z" />
    <glyph glyph-name="Gdotaccent.ss02" 
d="M739 1772v-175h-153v175h153zM668 717h458v-285q0 -204 -129.5 -328t-337.5 -124q-185 0 -312 95t-186 258t-59 384q0 163 33.5 295.5t100 232t174.5 154.5t249 55q214 0 329 -132t124 -349h-143q-12 172 -90.5 260t-212.5 88h-13q-198 0 -302.5 -156.5t-104.5 -447.5
q0 -295 106.5 -449.5t300.5 -154.5h13q156 0 241.5 91.5t85.5 250.5v129h-325v133z" />
    <glyph glyph-name="R.ss02" 
d="M195 0v1434h442q190 0 314 -112t124 -275q0 -141 -67.5 -238.5t-171.5 -126.5q79 0 119.5 -38.5t64.5 -115.5l168 -528h-154l-157 487q-22 68 -55.5 92.5t-106.5 24.5h-377v-604h-143zM338 737h278q140 0 228 75.5t88 203.5q0 135 -87 209.5t-229 74.5h-278v-563z" />
    <glyph glyph-name="Racute.ss02" 
d="M580 1567l108 256h184l-170 -256h-122zM195 0v1434h442q190 0 314 -112t124 -275q0 -141 -67.5 -238.5t-171.5 -126.5q79 0 119.5 -38.5t64.5 -115.5l168 -528h-154l-157 487q-22 68 -55.5 92.5t-106.5 24.5h-377v-604h-143zM338 737h278q140 0 228 75.5t88 203.5
q0 135 -87 209.5t-229 74.5h-278v-563z" />
    <glyph glyph-name="Rcaron.ss02" 
d="M717 1567h-185l-235 256h139l189 -148l188 148h139zM1020 528l168 -528h-154l-157 487q-22 68 -55.5 92.5t-106.5 24.5h-377v-604h-143v1434h442q190 0 314 -112t124 -275q0 -141 -67.5 -238.5t-171.5 -126.5q79 0 119.5 -38.5t64.5 -115.5zM616 737q140 0 228 75.5
t88 203.5q0 135 -87 209.5t-229 74.5h-278v-563h278z" />
    <glyph glyph-name="Rcommaaccent.ss02" 
d="M195 0v1434h442q190 0 314 -112t124 -275q0 -141 -67.5 -238.5t-171.5 -126.5q79 0 119.5 -38.5t64.5 -115.5l168 -528h-154l-157 487q-22 68 -55.5 92.5t-106.5 24.5h-377v-604h-143zM338 737h278q140 0 228 75.5t88 203.5q0 135 -87 209.5t-229 74.5h-278v-563z
M559 -512v72h10q93 0 93 82v20h-62v154h133v-174q0 -70 -42.5 -112t-110.5 -42h-21z" />
    <glyph glyph-name="germandbls.case" 
d="M195 0v1434h432q166 0 275.5 -101.5t109.5 -273.5q0 -99 -51.5 -184t-139.5 -132q130 -28 207.5 -122.5t77.5 -225.5q0 -180 -117.5 -287.5t-294.5 -107.5h-131v133h101q135 0 217 68.5t82 195.5t-81 194.5t-216 67.5h-103v134h51q113 0 183.5 69.5t70.5 190.5
q0 119 -73 183t-193 64h-264v-1300h-143z" />
    <glyph glyph-name="i.dot" 
d="M768 1413v-205h-184v205h184zM743 113h367v-113h-877v113h377v798h-346v113h479v-911z" />
    <glyph glyph-name="a.sinf" 
d="M547 -246q-76 0 -125 47t-49 127q0 84 48.5 130.5t129.5 56.5l184 20v19q0 51 -34 81.5t-83 30.5h-6q-46 0 -82 -28t-36 -76h-113q4 93 72.5 144.5t164.5 51.5t163 -56t67 -152v-259q0 -84 6 -127h-102q-11 61 -11 103q-21 -55 -73 -84t-121 -29zM578 -154h6q64 0 107 38
t44 106v65l-151 -16q-42 -5 -70.5 -31.5t-28.5 -70.5q0 -43 26.5 -67t66.5 -24z" />
    <glyph glyph-name="b.sinf" 
d="M649 358q113 0 178.5 -85.5t65.5 -213.5q0 -129 -64.5 -217t-177.5 -88q-115 0 -178 99v-89h-117v809h117v-307q24 43 73 67.5t103 24.5zM625 -154q71 0 111 59.5t40 153.5q0 93 -39.5 150t-111.5 57t-111 -57.5t-39 -151.5t39.5 -152.5t110.5 -58.5z" />
    <glyph glyph-name="c.sinf" 
d="M621 -246q-122 0 -193.5 75.5t-71.5 219.5q0 145 74 227t195 82q97 0 167.5 -54.5t77.5 -147.5h-118q-6 51 -41 80.5t-82 29.5h-6q-75 0 -112.5 -62t-37.5 -155q0 -91 37 -147t113 -56h6q46 0 79 29t42 80h116q-10 -96 -79 -148.5t-166 -52.5z" />
    <glyph glyph-name="d.sinf" 
d="M756 573h116v-809h-116v86q-34 -50 -84 -73t-101 -23q-112 0 -173.5 85.5t-61.5 215.5q0 128 65.5 215.5t178.5 87.5q54 0 103 -25.5t73 -68.5v309zM604 -154q72 0 111 57.5t39 151.5t-39.5 152.5t-110.5 58.5q-72 0 -111.5 -58.5t-39.5 -152.5q0 -93 39.5 -151
t111.5 -58z" />
    <glyph glyph-name="e.sinf" 
d="M877 55v-41h-420q7 -79 51 -123.5t115 -44.5h10q44 0 82 26t51 71h96q-12 -92 -78 -140.5t-161 -48.5q-123 0 -197 81.5t-74 207.5q0 138 75 226.5t198 88.5q117 0 184.5 -85t67.5 -218zM618 266q-65 0 -106.5 -44t-52.5 -120h311q-5 67 -40 115.5t-101 48.5h-11z" />
    <glyph glyph-name="f.sinf" 
d="M516 -236v496h-110v88h110v74q0 68 38.5 109.5t107.5 41.5h159v-84h-121q-37 0 -52 -17t-15 -58v-66h143v-88h-143v-496h-117z" />
    <glyph glyph-name="g.sinf" 
d="M756 348h110v-590q0 -114 -66 -176.5t-206 -62.5q-114 0 -178.5 49t-69.5 137h113q14 -48 45.5 -71t93.5 -23h6q74 0 113 37.5t39 126.5v75q-21 -37 -68.5 -66.5t-114.5 -29.5q-106 0 -169.5 88t-63.5 215q0 129 64.5 215t179.5 86q51 0 97.5 -20t74.5 -57v67zM606 -154
q72 0 112 58.5t40 152.5q0 93 -40 151t-112 58q-73 0 -114 -58t-41 -151q0 -94 41 -152.5t114 -58.5z" />
    <glyph glyph-name="h.sinf" 
d="M668 358q94 0 146 -61.5t52 -159.5v-373h-116v353q0 70 -32.5 109.5t-84.5 39.5h-12q-59 0 -101.5 -52.5t-42.5 -127.5v-322h-117v809h117v-315q65 100 191 100z" />
    <glyph glyph-name="i.sinf" 
d="M551 444v129h125v-129h-125zM557 -236v584h113v-584h-113z" />
    <glyph glyph-name="j.sinf" 
d="M573 444v129h125v-129h-125zM406 -471v96h110q35 0 49.5 15.5t14.5 52.5v655h112v-672q0 -65 -38.5 -106t-108.5 -41h-139z" />
    <glyph glyph-name="k.sinf" 
d="M739 -236l-176 271l-98 -107v-164h-113v809h113v-503l248 278h145l-221 -235l237 -349h-135z" />
    <glyph glyph-name="l.sinf" 
d="M557 -236v809h113v-809h-113z" />
    <glyph glyph-name="m.sinf" 
d="M852 358q96 0 146.5 -62t50.5 -169v-363h-117v353q0 72 -28.5 110.5t-82.5 38.5h-6q-60 0 -101.5 -54t-41.5 -126v-322h-117v353q0 72 -28.5 110.5t-82.5 38.5h-6q-65 0 -104 -53t-39 -131v-318h-117v584h117v-94q18 42 67.5 73t110.5 31q136 0 180 -120q64 120 199 120z
" />
    <glyph glyph-name="n.sinf" 
d="M670 358q93 0 144.5 -61.5t51.5 -159.5v-373h-116v353q0 72 -31.5 110.5t-85.5 38.5h-12q-59 0 -101.5 -52.5t-42.5 -127.5v-322h-117v584h117v-90q66 100 193 100z" />
    <glyph glyph-name="o.sinf" 
d="M614 -246q-123 0 -195.5 81.5t-72.5 219.5t72.5 220.5t195.5 82.5t196 -82.5t73 -220.5t-73 -219.5t-196 -81.5zM616 -154q72 0 111 57t39 152q0 94 -40.5 152.5t-111.5 58.5t-111 -58.5t-40 -152.5t41 -151.5t112 -57.5z" />
    <glyph glyph-name="p.sinf" 
d="M657 358q112 0 174 -86.5t62 -216.5q0 -128 -65.5 -214.5t-178.5 -86.5q-55 0 -103.5 23.5t-72.5 66.5v-305h-117v809h117v-88q65 98 184 98zM625 -154q72 0 111.5 58t39.5 151q0 94 -39.5 152.5t-111.5 58.5q-71 0 -110.5 -60.5t-39.5 -154.5q0 -93 39 -149t111 -56z
" />
    <glyph glyph-name="q.sinf" 
d="M756 348h116v-809h-116v305q-24 -43 -72.5 -66.5t-103.5 -23.5q-113 0 -178.5 85.5t-65.5 213.5q0 131 64 218t184 87q43 0 94.5 -25t77.5 -69v84zM604 -154q72 0 111 56t39 149q0 94 -39.5 154.5t-110.5 60.5t-111 -59.5t-40 -153.5q0 -93 39.5 -150t111.5 -57z" />
    <glyph glyph-name="r.sinf" 
d="M756 358h16v-104h-33q-88 0 -129 -60.5t-41 -152.5v-277h-112v584h112v-117q22 60 71 93.5t116 33.5z" />
    <glyph glyph-name="s.sinf" 
d="M616 -246q-117 0 -181 53t-64 148h112q0 -51 34 -80t95 -29h13q53 0 86.5 19.5t33.5 56.5q0 60 -94 80l-98 21q-81 17 -124.5 52.5t-43.5 104.5q0 83 62.5 130.5t168.5 47.5t169 -53t63 -143h-113q0 49 -33 76.5t-84 27.5h-12q-51 0 -80.5 -19.5t-29.5 -53.5
q0 -32 21 -47t81 -27l82 -17q87 -17 131.5 -61t44.5 -109q0 -84 -65.5 -131t-174.5 -47z" />
    <glyph glyph-name="t.sinf" 
d="M674 -236q-71 0 -109.5 40.5t-38.5 103.5v352h-112v88h112v184h115v-184h160v-88h-160v-323q0 -40 17.5 -60t62.5 -20h92v-93h-139z" />
    <glyph glyph-name="u.sinf" horiz-adv-x="1232" 
d="M559 -246q-93 0 -143.5 61t-50.5 160v373h116v-352q0 -70 31 -110t80 -40h12q59 0 101.5 53t42.5 128v321h116v-584h-116v103q-17 -45 -67 -79t-122 -34z" />
    <glyph glyph-name="v.sinf" 
d="M786 348h111l-221 -584h-123l-221 584h114l170 -457z" />
    <glyph glyph-name="w.sinf" 
d="M936 348h106l-184 -584h-102l-140 459l-133 -459h-102l-197 584h115l131 -436l133 436h117l121 -448z" />
    <glyph glyph-name="x.sinf" 
d="M342 -236l211 291l-207 293h129l141 -205l144 205h125l-209 -289l211 -295h-131l-142 205l-145 -205h-127z" />
    <glyph glyph-name="y.sinf" 
d="M797 348h121l-250 -532v-144q0 -62 -40.5 -102.5t-107.5 -40.5h-153v96h122q62 0 62 64v127l-240 532h121l178 -420z" />
    <glyph glyph-name="z.sinf" 
d="M524 -139h324v-97h-467v64l309 428h-303v92h440v-80z" />
    <glyph glyph-name="a.ss01" 
d="M586 -20q-202 0 -329.5 144.5t-127.5 387.5t127.5 387.5t329.5 144.5q103 0 200 -50.5t142 -133.5v164h133v-1024h-133v164q-45 -83 -142 -133.5t-200 -50.5zM590 92h10q80 0 144 34.5t103.5 93t60 133.5t20.5 159t-20.5 159t-60 133.5t-103.5 93t-144 34.5h-10
q-80 0 -144 -34.5t-103.5 -93t-60 -133.5t-20.5 -159t20.5 -159t60 -133.5t103.5 -93t144 -34.5z" />
    <glyph glyph-name="aacute.ss01" 
d="M565 1167l117 267h164l-180 -267h-101zM586 -20q-202 0 -329.5 144.5t-127.5 387.5t127.5 387.5t329.5 144.5q103 0 200 -50.5t142 -133.5v164h133v-1024h-133v164q-45 -83 -142 -133.5t-200 -50.5zM590 92h10q80 0 144 34.5t103.5 93t60 133.5t20.5 159t-20.5 159
t-60 133.5t-103.5 93t-144 34.5h-10q-80 0 -144 -34.5t-103.5 -93t-60 -133.5t-20.5 -159t20.5 -159t60 -133.5t103.5 -93t144 -34.5z" />
    <glyph glyph-name="abreve.ss01" 
d="M621 1147q-127 0 -207 75.5t-80 211.5h102q7 -90 56.5 -136.5t128.5 -46.5t128 46.5t56 136.5h102q0 -136 -79.5 -211.5t-206.5 -75.5zM586 -20q-202 0 -329.5 144.5t-127.5 387.5t127.5 387.5t329.5 144.5q103 0 200 -50.5t142 -133.5v164h133v-1024h-133v164
q-45 -83 -142 -133.5t-200 -50.5zM590 92h10q80 0 144 34.5t103.5 93t60 133.5t20.5 159t-20.5 159t-60 133.5t-103.5 93t-144 34.5h-10q-80 0 -144 -34.5t-103.5 -93t-60 -133.5t-20.5 -159t20.5 -159t60 -133.5t103.5 -93t144 -34.5z" />
    <glyph glyph-name="acircumflex.ss01" 
d="M621 1321l-205 -154h-123l260 267h135l260 -267h-123zM928 1024h133v-1024h-133v164q-45 -83 -142 -133.5t-200 -50.5q-202 0 -329.5 144.5t-127.5 387.5t127.5 387.5t329.5 144.5q103 0 200 -50.5t142 -133.5v164zM600 92q80 0 144 34.5t103.5 93t60 133.5t20.5 159
t-20.5 159t-60 133.5t-103.5 93t-144 34.5h-10q-80 0 -144 -34.5t-103.5 -93t-60 -133.5t-20.5 -159t20.5 -159t60 -133.5t103.5 -93t144 -34.5h10z" />
    <glyph glyph-name="adieresis.ss01" 
d="M365 1208v164h153v-164h-153zM723 1208v164h154v-164h-154zM586 -20q-202 0 -329.5 144.5t-127.5 387.5t127.5 387.5t329.5 144.5q103 0 200 -50.5t142 -133.5v164h133v-1024h-133v164q-45 -83 -142 -133.5t-200 -50.5zM590 92h10q80 0 144 34.5t103.5 93t60 133.5
t20.5 159t-20.5 159t-60 133.5t-103.5 93t-144 34.5h-10q-80 0 -144 -34.5t-103.5 -93t-60 -133.5t-20.5 -159t20.5 -159t60 -133.5t103.5 -93t144 -34.5z" />
    <glyph glyph-name="uni0227.ss01" 
d="M543 1208v174h153v-174h-153zM586 -20q-202 0 -329.5 144.5t-127.5 387.5t127.5 387.5t329.5 144.5q103 0 200 -50.5t142 -133.5v164h133v-1024h-133v164q-45 -83 -142 -133.5t-200 -50.5zM590 92h10q80 0 144 34.5t103.5 93t60 133.5t20.5 159t-20.5 159t-60 133.5
t-103.5 93t-144 34.5h-10q-80 0 -144 -34.5t-103.5 -93t-60 -133.5t-20.5 -159t20.5 -159t60 -133.5t103.5 -93t144 -34.5z" />
    <glyph glyph-name="uni1EA1.ss01" 
d="M586 -20q-202 0 -329.5 144.5t-127.5 387.5t127.5 387.5t329.5 144.5q103 0 200 -50.5t142 -133.5v164h133v-1024h-133v164q-45 -83 -142 -133.5t-200 -50.5zM590 92h10q80 0 144 34.5t103.5 93t60 133.5t20.5 159t-20.5 159t-60 133.5t-103.5 93t-144 34.5h-10
q-80 0 -144 -34.5t-103.5 -93t-60 -133.5t-20.5 -159t20.5 -159t60 -133.5t103.5 -93t144 -34.5zM557 -389v174h154v-174h-154z" />
    <glyph glyph-name="agrave.ss01" 
d="M612 1167l-180 267h164l117 -267h-101zM586 -20q-202 0 -329.5 144.5t-127.5 387.5t127.5 387.5t329.5 144.5q103 0 200 -50.5t142 -133.5v164h133v-1024h-133v164q-45 -83 -142 -133.5t-200 -50.5zM590 92h10q80 0 144 34.5t103.5 93t60 133.5t20.5 159t-20.5 159
t-60 133.5t-103.5 93t-144 34.5h-10q-80 0 -144 -34.5t-103.5 -93t-60 -133.5t-20.5 -159t20.5 -159t60 -133.5t103.5 -93t144 -34.5z" />
    <glyph glyph-name="amacron.ss01" 
d="M358 1208v113h564v-113h-564zM586 -20q-202 0 -329.5 144.5t-127.5 387.5t127.5 387.5t329.5 144.5q103 0 200 -50.5t142 -133.5v164h133v-1024h-133v164q-45 -83 -142 -133.5t-200 -50.5zM590 92h10q80 0 144 34.5t103.5 93t60 133.5t20.5 159t-20.5 159t-60 133.5
t-103.5 93t-144 34.5h-10q-80 0 -144 -34.5t-103.5 -93t-60 -133.5t-20.5 -159t20.5 -159t60 -133.5t103.5 -93t144 -34.5z" />
    <glyph glyph-name="aogonek.ss01" 
d="M1061 0q-178 -112 -178 -205q0 -43 32 -62.5t80 -19.5h52v-112h-52q-108 0 -161.5 41.5t-53.5 117.5q0 64 50.5 128.5t138.5 111.5h-41v164q-45 -83 -142 -133.5t-200 -50.5q-202 0 -329.5 144.5t-127.5 387.5t127.5 387.5t329.5 144.5q103 0 200 -50.5t142 -133.5v164
h133v-1024zM600 92q80 0 144 34.5t103.5 93t60 133.5t20.5 159t-20.5 159t-60 133.5t-103.5 93t-144 34.5h-10q-80 0 -144 -34.5t-103.5 -93t-60 -133.5t-20.5 -159t20.5 -159t60 -133.5t103.5 -93t144 -34.5h10z" />
    <glyph glyph-name="aring.ss01" 
d="M621 1157q-69 0 -120.5 49.5t-51.5 122.5t51.5 122.5t120.5 49.5t120.5 -49.5t51.5 -122.5t-51.5 -122.5t-120.5 -49.5zM623 1239q37 0 62.5 26.5t25.5 63.5t-25.5 63.5t-62.5 26.5t-64 -26.5t-27 -63.5t27 -63.5t64 -26.5zM586 -20q-202 0 -329.5 144.5t-127.5 387.5
t127.5 387.5t329.5 144.5q103 0 200 -50.5t142 -133.5v164h133v-1024h-133v164q-45 -83 -142 -133.5t-200 -50.5zM590 92h10q80 0 144 34.5t103.5 93t60 133.5t20.5 159t-20.5 159t-60 133.5t-103.5 93t-144 34.5h-10q-80 0 -144 -34.5t-103.5 -93t-60 -133.5t-20.5 -159
t20.5 -159t60 -133.5t103.5 -93t144 -34.5z" />
    <glyph glyph-name="aringacute.ss01" 
d="M563 1569l117 266h164l-180 -266h-101zM618 1149q-69 0 -120.5 49.5t-51.5 122.5q0 72 51.5 122t120.5 50t121 -50t52 -122q0 -73 -52 -122.5t-121 -49.5zM621 1231q37 0 62.5 26.5t25.5 63.5t-25.5 63.5t-62.5 26.5t-64 -26.5t-27 -63.5t27 -63.5t64 -26.5zM586 -20
q-202 0 -329.5 144.5t-127.5 387.5t127.5 387.5t329.5 144.5q103 0 200 -50.5t142 -133.5v164h133v-1024h-133v164q-45 -83 -142 -133.5t-200 -50.5zM590 92h10q80 0 144 34.5t103.5 93t60 133.5t20.5 159t-20.5 159t-60 133.5t-103.5 93t-144 34.5h-10q-80 0 -144 -34.5
t-103.5 -93t-60 -133.5t-20.5 -159t20.5 -159t60 -133.5t103.5 -93t144 -34.5z" />
    <glyph glyph-name="atilde.ss01" 
d="M780 1147q-40 0 -74.5 17.5t-84.5 54.5l-17 12q-4 3 -27 20.5t-34 24.5t-32 15.5t-40 8.5q-84 0 -84 -133h-102v47q0 85 51 142t127 57q38 0 68 -13t79 -48l15 -11l32 -24t33 -24t26 -16t30.5 -13.5t27.5 -3.5q82 0 82 133h102v-47q0 -85 -51.5 -142t-126.5 -57zM586 -20
q-202 0 -329.5 144.5t-127.5 387.5t127.5 387.5t329.5 144.5q103 0 200 -50.5t142 -133.5v164h133v-1024h-133v164q-45 -83 -142 -133.5t-200 -50.5zM590 92h10q80 0 144 34.5t103.5 93t60 133.5t20.5 159t-20.5 159t-60 133.5t-103.5 93t-144 34.5h-10q-80 0 -144 -34.5
t-103.5 -93t-60 -133.5t-20.5 -159t20.5 -159t60 -133.5t103.5 -93t144 -34.5z" />
    <glyph glyph-name="a.inferior.ss01" 
d="M582 -246q-111 0 -172.5 86.5t-61.5 216.5q0 129 64.5 215t177.5 86q65 0 114.5 -30t65.5 -64v84h109v-584h-109v82q-73 -92 -188 -92zM614 -154q72 0 112 58.5t40 152.5q0 93 -40 151t-112 58t-112.5 -58t-40.5 -151t40.5 -152t112.5 -59z" />
    <glyph glyph-name="a.superior.ss01" 
d="M582 840q-111 0 -172.5 86.5t-61.5 216.5q0 129 64.5 215t177.5 86q65 0 114.5 -30t65.5 -64v84h109v-584h-109v82q-73 -92 -188 -92zM614 932q72 0 112 58.5t40 152.5q0 93 -40 151t-112 58t-112.5 -58t-40.5 -151t40.5 -152t112.5 -59z" />
    <glyph glyph-name="y.inferior.ss03" 
d="M797 348h121l-302 -672q-17 -36 -25 -52.5t-22.5 -39t-28.5 -31.5t-35 -16.5t-48 -7.5h-129v96h102q28 0 44.5 15t35.5 57l47 106l-246 545h121l182 -416z" />
    <glyph glyph-name="y.superior.ss03" 
d="M797 1434h121l-302 -672q-21 -45 -31 -64.5t-29 -43t-42 -32t-57 -8.5h-129v97h102q28 0 44.5 15t35.5 56l47 107l-246 545h121l182 -416z" />
    <glyph glyph-name="y.ss03" 
d="M971 1024h139l-469 -1139q-44 -107 -99.5 -154.5t-146.5 -47.5h-233v112h207q63 0 95 37.5t73 136.5l34 86l-450 969h145l371 -809z" />
    <glyph glyph-name="yacute.ss03" 
d="M840 1434l-181 -267h-100l117 267h164zM971 1024h139l-469 -1139q-44 -107 -99.5 -154.5t-146.5 -47.5h-233v112h207q63 0 95 37.5t73 136.5l34 86l-450 969h145l371 -809z" />
    <glyph glyph-name="ycircumflex.ss03" 
d="M614 1321l-204 -154h-123l260 267h135l260 -267h-123zM971 1024h139l-469 -1139q-44 -107 -99.5 -154.5t-146.5 -47.5h-233v112h207q63 0 95 37.5t73 136.5l34 86l-450 969h145l371 -809z" />
    <glyph glyph-name="ydieresis.ss03" 
d="M512 1372v-164h-154v164h154zM870 1372v-164h-153v164h153zM971 1024h139l-469 -1139q-44 -107 -99.5 -154.5t-146.5 -47.5h-233v112h207q63 0 95 37.5t73 136.5l34 86l-450 969h145l371 -809z" />
    <glyph glyph-name="ygrave.ss03" 
d="M707 1167h-101l-180 267h164zM971 1024h139l-469 -1139q-44 -107 -99.5 -154.5t-146.5 -47.5h-233v112h207q63 0 95 37.5t73 136.5l34 86l-450 969h145l371 -809z" />
    <glyph glyph-name="uni0233.ss03" 
d="M915 1321v-113h-563v113h563zM971 1024h139l-469 -1139q-44 -107 -99.5 -154.5t-146.5 -47.5h-233v112h207q63 0 95 37.5t73 136.5l34 86l-450 969h145l371 -809z" />
    <glyph glyph-name="i.dot.ss08" 
d="M584 1413h184v-205h-184v205zM264 1024h479v-1024h-133v911h-346v113z" />
    <glyph glyph-name="i.ss08" 
d="M584 1413h184v-205h-184v205zM264 1024h479v-1024h-133v911h-346v113z" />
    <glyph glyph-name="dotlessi.ss08" 
d="M743 1024v-1024h-133v911h-346v113h479z" />
    <glyph glyph-name="iacute.ss08" 
d="M901 1434l-180 -267h-100l116 267h164zM264 1024h479v-1024h-133v911h-346v113z" />
    <glyph glyph-name="ibreve.ss08" 
d="M860 1434h103q0 -136 -80 -211.5t-207 -75.5t-207 75.5t-80 211.5h103q7 -90 56 -136.5t128 -46.5t128 46.5t56 136.5zM264 1024h479v-1024h-133v911h-346v113z" />
    <glyph glyph-name="icircumflex.ss08" 
d="M743 1434l261 -267h-123l-205 154l-205 -154h-123l260 267h135zM264 1024h479v-1024h-133v911h-346v113z" />
    <glyph glyph-name="idieresis.ss08" 
d="M573 1372v-164h-153v164h153zM778 1372h154v-164h-154v164zM264 1024h479v-1024h-133v911h-346v113z" />
    <glyph glyph-name="uni1ECB.ss08" 
d="M584 1413h184v-205h-184v205zM610 0v911h-346v113h479v-1024h-133zM610 -389v174h154v-174h-154z" />
    <glyph glyph-name="igrave.ss08" 
d="M768 1167h-100l-181 267h164zM264 1024h479v-1024h-133v911h-346v113z" />
    <glyph glyph-name="imacron.ss08" 
d="M414 1321h563v-113h-563v113zM264 1024h479v-1024h-133v911h-346v113z" />
    <glyph glyph-name="iogonek.ss08" 
d="M584 1413h184v-205h-184v205zM264 1024h479v-1024q-178 -112 -178 -205q0 -43 32.5 -62.5t80.5 -19.5h51v-112h-51q-108 0 -161.5 41.5t-53.5 117.5q0 64 50 128.5t138 111.5h-41v911h-346v113z" />
    <glyph glyph-name="itilde.ss08" 
d="M911 1393h103v-47q0 -85 -51.5 -142t-126.5 -57q-40 0 -75.5 17.5t-84.5 54.5l-17 12q-4 3 -27 20.5t-34 24.5t-32 15.5t-40 8.5q-84 0 -84 -133h-102v47q0 85 51 142t127 57q38 0 68.5 -13.5t79.5 -47.5l14 -11l32 -24t33 -24t26 -16t30.5 -13.5t27.5 -3.5q82 0 82 133z
M264 1024h479v-1024h-133v911h-346v113z" />
    <glyph glyph-name="r.ss08" 
d="M221 0v1024h133v-172q41 78 130.5 135t215.5 57q154 0 254.5 -86t108.5 -221h-133q-10 77 -70 134t-168 57h-2q-150 0 -243 -115.5t-93 -290.5v-522h-133z" />
    <glyph glyph-name="a.sups" 
d="M547 840q-76 0 -125 47t-49 127q0 84 48.5 130t129.5 56l184 21v18q0 51 -34 82t-83 31h-6q-46 0 -82 -28.5t-36 -76.5h-113q4 93 72.5 145t164.5 52q95 0 162.5 -56.5t67.5 -152.5v-258q0 -84 6 -127h-102q-11 60 -11 102q-21 -55 -73 -83.5t-121 -28.5zM578 932h6
q64 0 107 37.5t44 105.5v66l-151 -17q-42 -5 -70.5 -31.5t-28.5 -70.5q0 -43 26.5 -66.5t66.5 -23.5z" />
    <glyph glyph-name="b.sups" 
d="M649 1444q113 0 178.5 -85.5t65.5 -213.5q0 -129 -64.5 -217t-177.5 -88q-116 0 -178 98v-88h-117v809h117v-307q24 43 73 67.5t103 24.5zM625 932q71 0 111 59.5t40 153.5q0 93 -39.5 150t-111.5 57t-111 -57.5t-39 -151.5t39.5 -152.5t110.5 -58.5z" />
    <glyph glyph-name="c.sups" 
d="M621 840q-122 0 -193.5 75.5t-71.5 219.5q0 145 74 227t195 82q96 0 167 -55t78 -148h-118q-6 51 -41 81t-82 30h-6q-75 0 -112.5 -62t-37.5 -155q0 -91 37 -147t113 -56h6q46 0 79 29t42 79h116q-10 -96 -79 -148t-166 -52z" />
    <glyph glyph-name="d.sups" 
d="M756 1659h116v-809h-116v86q-34 -50 -84 -73t-101 -23q-112 0 -173.5 85.5t-61.5 215.5q0 128 65.5 215.5t178.5 87.5q54 0 103 -25.5t73 -68.5v309zM604 932q72 0 111 57.5t39 151.5t-39.5 152.5t-110.5 58.5q-72 0 -111.5 -58.5t-39.5 -152.5q0 -93 39.5 -151
t111.5 -58z" />
    <glyph glyph-name="e.sups" 
d="M877 1141v-41h-420q7 -79 51 -123.5t115 -44.5h10q44 0 82 25.5t51 70.5h96q-12 -92 -78 -140t-161 -48q-123 0 -197 81t-74 207q0 138 75 227t198 89q117 0 184.5 -85t67.5 -218zM618 1352q-65 0 -106.5 -44t-52.5 -120h311q-5 67 -40 115.5t-101 48.5h-11z" />
    <glyph glyph-name="f.sups" 
d="M516 850v496h-110v88h110v73q0 68 38.5 110t107.5 42h159v-84h-121q-37 0 -52 -17.5t-15 -58.5v-65h143v-88h-143v-496h-117z" />
    <glyph glyph-name="g.sups" 
d="M756 1434h110v-590q0 -114 -66 -177t-206 -63q-113 0 -178 49.5t-70 137.5h113q14 -48 45.5 -71.5t93.5 -23.5h6q74 0 113 37.5t39 126.5v76q-21 -37 -68.5 -66.5t-114.5 -29.5q-106 0 -169.5 88t-63.5 215q0 129 64.5 215t179.5 86q51 0 97 -20.5t75 -57.5v68zM606 932
q72 0 112 58.5t40 152.5q0 93 -40 151t-112 58q-73 0 -114 -58t-41 -151q0 -94 41 -152.5t114 -58.5z" />
    <glyph glyph-name="h.sups" 
d="M668 1444q94 0 146 -61.5t52 -159.5v-373h-116v352q0 70 -32.5 110t-84.5 40h-12q-59 0 -101.5 -53t-42.5 -128v-321h-117v809h117v-316q66 101 191 101z" />
    <glyph glyph-name="i.sups" 
d="M551 1530v129h125v-129h-125zM557 850v584h113v-584h-113z" />
    <glyph glyph-name="j.sups" 
d="M573 1530v129h125v-129h-125zM406 614v97h110q35 0 49.5 15t14.5 52v656h112v-672q0 -65 -38.5 -106.5t-108.5 -41.5h-139z" />
    <glyph glyph-name="k.sups" 
d="M739 850l-176 270l-98 -106v-164h-113v809h113v-504l248 279h145l-221 -236l237 -348h-135z" />
    <glyph glyph-name="l.sups" 
d="M557 850v809h113v-809h-113z" />
    <glyph glyph-name="m.sups" 
d="M852 1444q96 0 146.5 -62.5t50.5 -169.5v-362h-117v352q0 72 -28.5 111t-82.5 39h-6q-60 0 -101.5 -54.5t-41.5 -126.5v-321h-117v352q0 72 -28.5 111t-82.5 39h-6q-65 0 -104 -53.5t-39 -131.5v-317h-117v584h117v-95q18 43 67.5 74t110.5 31q135 0 180 -121
q65 121 199 121z" />
    <glyph glyph-name="n.sups" 
d="M670 1444q93 0 144.5 -61.5t51.5 -159.5v-373h-116v352q0 72 -31.5 111t-85.5 39h-12q-59 0 -101.5 -53t-42.5 -128v-321h-117v584h117v-91q67 101 193 101z" />
    <glyph glyph-name="o.sups" 
d="M614 840q-123 0 -195.5 81.5t-72.5 219.5t72.5 220.5t195.5 82.5t196 -82.5t73 -220.5t-73 -219.5t-196 -81.5zM616 932q72 0 111 57t39 152q0 94 -40.5 152.5t-111.5 58.5t-111 -58.5t-40 -152.5t41 -151.5t112 -57.5z" />
    <glyph glyph-name="p.sups" 
d="M657 1444q112 0 174 -86.5t62 -216.5q0 -128 -65.5 -214.5t-178.5 -86.5q-55 0 -103.5 23.5t-72.5 66.5v-305h-117v809h117v-88q65 98 184 98zM625 932q72 0 111.5 58t39.5 151q0 94 -39.5 152.5t-111.5 58.5q-71 0 -110.5 -60.5t-39.5 -154.5q0 -93 39 -149t111 -56z
" />
    <glyph glyph-name="q.sups" 
d="M756 1434h116v-809h-116v305q-24 -43 -72.5 -66.5t-103.5 -23.5q-113 0 -178.5 85.5t-65.5 213.5q0 131 64 218t184 87q43 0 94.5 -25t77.5 -69v84zM604 932q72 0 111 56t39 149q0 94 -39.5 154.5t-110.5 60.5t-111 -59.5t-40 -153.5q0 -93 39.5 -150t111.5 -57z" />
    <glyph glyph-name="r.sups" 
d="M756 1444h16v-105h-33q-88 0 -129 -60.5t-41 -152.5v-276h-112v584h112v-117q22 60 71 93.5t116 33.5z" />
    <glyph glyph-name="s.sups" 
d="M616 840q-117 0 -181 52.5t-64 147.5h112q0 -51 34 -79.5t95 -28.5h13q53 0 86.5 19.5t33.5 56.5q0 59 -94 79l-98 21q-81 16 -124.5 52.5t-43.5 105.5q0 83 62.5 130.5t168.5 47.5t169 -53t63 -144h-113q0 49 -33 77t-84 28h-12q-51 0 -80.5 -20t-29.5 -54q0 -32 21 -47
t81 -27l82 -16q87 -17 131.5 -61t44.5 -109q0 -84 -65.5 -131t-174.5 -47z" />
    <glyph glyph-name="t.sups" 
d="M674 850q-71 0 -109.5 40t-38.5 103v353h-112v88h112v184h115v-184h160v-88h-160v-324q0 -40 17.5 -60t62.5 -20h92v-92h-139z" />
    <glyph glyph-name="u.sups" 
d="M559 840q-93 0 -143.5 61t-50.5 160v373h116v-353q0 -70 31 -109.5t80 -39.5h12q59 0 101.5 52.5t42.5 127.5v322h116v-584h-116v102q-17 -45 -67 -78.5t-122 -33.5z" />
    <glyph glyph-name="v.sups" 
d="M786 1434h111l-221 -584h-123l-221 584h114l170 -457z" />
    <glyph glyph-name="w.sups" 
d="M936 1434h106l-184 -584h-102l-140 459l-133 -459h-102l-197 584h115l131 -437l133 437h117l121 -449z" />
    <glyph glyph-name="x.sups" 
d="M342 850l211 291l-207 293h129l141 -205l144 205h125l-209 -289l211 -295h-131l-142 205l-145 -205h-127z" />
    <glyph glyph-name="y.sups" 
d="M797 1434h121l-250 -533v-143q0 -62 -40.5 -103t-107.5 -41h-153v97h122q62 0 62 63v127l-240 533h121l178 -420z" />
    <glyph glyph-name="z.sups" 
d="M524 946h324v-96h-467v63l309 428h-303v93h440v-80z" />
    <glyph glyph-name="I_S_B_N" horiz-adv-x="3686" 
d="M3027 1454q258 0 390 -143t132 -389v-922h-143v901q0 199 -95 309.5t-274 110.5h-20q-160 0 -314 -123v154q147 102 324 102zM2324 727q98 -6 179.5 -100t81.5 -232q0 -180 -117.5 -287.5t-294.5 -107.5h-391v133h360q135 0 217 68.5t82 195.5t-81 194.5t-216 67.5h-362
v134h362q118 0 192 67t74 187t-73.5 186.5t-192.5 66.5h-1011q-158 0 -248 -64.5t-90 -180.5q0 -103 59.5 -156t177.5 -78l176 -37q408 -86 408 -374q0 -184 -138 -297t-395 -113h-946v1434h144v-1301h833q169 0 253.5 68t84.5 188q0 111 -72.5 171t-203.5 89l-177 39
q-82 18 -141 43t-108 65.5t-74 102.5t-25 145q0 177 135 283.5t357 106.5h1026q166 0 275.5 -101.5t109.5 -273.5q0 -119 -67.5 -212t-162.5 -120z" />
    <glyph glyph-name="w_w_w" horiz-adv-x="2457" 
d="M2247 1024h120l-110 -1024h-150l-135 700l-135 -700h-100l-135 922l-136 -922h-100l-135 700l-135 -700h-101l-135 922l-135 -922h-100l-136 700l-135 -700h-153l-111 1024h121l76 -860l123 610h157l101 -491l112 741h158l115 -741l98 491h158l100 -491l113 741h157
l115 -741l98 491h158l123 -604z" />
    <glyph glyph-name="zero.inferior" 
d="M614 -246q-154 0 -242.5 112.5t-88.5 301.5t88.5 302.5t242.5 113.5t243 -113.5t89 -302.5t-89 -301.5t-243 -112.5zM610 -143h8q66 0 113.5 46.5t68.5 115t21 149.5t-21 150t-68.5 116t-113.5 47h-8q-66 0 -113.5 -47t-68 -116t-20.5 -150t20.5 -149.5t68 -115
t113.5 -46.5z" />
    <glyph glyph-name="one.inferior" 
d="M614 -236v656l-239 -193v121l278 225h78v-809h-117z" />
    <glyph glyph-name="two.inferior" 
d="M342 -236v140l258 225q97 85 125.5 123.5t28.5 95.5q0 59 -38 96t-95 37h-11q-51 0 -95 -38.5t-44 -102.5h-125q0 110 80 177t192 67q114 0 187.5 -63t73.5 -173q0 -36 -10.5 -69t-22 -55t-38.5 -51.5t-41.5 -42.5t-49.5 -44l-252 -219h422v-103h-545z" />
    <glyph glyph-name="three.inferior" 
d="M610 -246q-114 0 -194 62.5t-80 171.5h125q3 -60 42 -95.5t101 -35.5h10q67 0 111.5 38t44.5 103q0 60 -39 93.5t-98 33.5h-90v96h94q58 0 92.5 32.5t34.5 92.5q0 66 -38.5 100.5t-104.5 34.5h-11q-61 0 -97.5 -33.5t-39.5 -89.5h-125q0 107 79.5 166.5t193.5 59.5
q113 0 190.5 -60t77.5 -166q0 -63 -30.5 -112t-82.5 -74q57 -23 88 -72t31 -114q0 -105 -85.5 -168.5t-199.5 -63.5z" />
    <glyph glyph-name="four.inferior" 
d="M690 -236v197h-379v115l367 497h127v-510h110v-102h-110v-197h-115zM430 63h260v361z" />
    <glyph glyph-name="five.inferior" 
d="M616 -246q-124 0 -199.5 58.5t-84.5 169.5h125q7 -61 51 -93t106 -32h9q65 0 107 45.5t42 117.5q0 71 -40.5 110.5t-106.5 39.5h-7q-88 0 -145 -70h-108l92 473h428v-102h-338l-53 -256q60 57 151 57q114 0 183 -69t69 -178q0 -123 -80.5 -197t-200.5 -74z" />
    <glyph glyph-name="six.inferior" 
d="M610 -246q-139 0 -218 103.5t-79 287.5q0 199 94 319t236 120q129 0 200.5 -69t71.5 -157h-120q-11 55 -50.5 88t-97.5 33h-12q-82 0 -141.5 -77t-69.5 -209q25 51 84.5 82.5t134.5 31.5q107 0 183.5 -72.5t76.5 -191.5q0 -126 -79 -207.5t-214 -81.5zM610 -143h6
q71 0 118.5 49.5t47.5 124.5q0 76 -45 125t-116 49h-7q-71 0 -117 -49t-46 -125t44.5 -125t114.5 -49z" />
    <glyph glyph-name="seven.inferior" 
d="M479 -236v74q0 117 24 219.5t66.5 180t94 134.5t112.5 99h-434v102h545v-108q-283 -235 -283 -627v-74h-125z" />
    <glyph glyph-name="eight.inferior" 
d="M608 -246q-113 0 -191.5 57.5t-78.5 159.5q0 66 37 114.5t100 76.5q-66 28 -107.5 79t-41.5 117q0 105 79.5 165.5t206.5 60.5q128 0 208.5 -60.5t80.5 -165.5q0 -67 -41 -118t-108 -78q60 -28 94.5 -76.5t34.5 -114.5q0 -102 -80 -159.5t-193 -57.5zM604 219h10
q66 0 114 34t48 95q0 63 -45.5 98t-112.5 35h-10q-67 0 -112 -35t-45 -98q0 -61 45 -95t108 -34zM604 -143h10q60 0 101 35.5t41 97.5q0 58 -41.5 94.5t-100.5 36.5h-10q-59 0 -100 -36.5t-41 -94.5q0 -62 40.5 -97.5t100.5 -35.5z" />
    <glyph glyph-name="nine.inferior" 
d="M618 584q139 0 218 -103.5t79 -287.5q0 -199 -93.5 -319t-235.5 -120q-129 0 -201 69t-72 157h121q11 -55 50.5 -88t97.5 -33h12q82 0 141.5 77t69.5 209q-25 -51 -84.5 -82.5t-134.5 -31.5q-107 0 -183.5 72.5t-76.5 191.5q0 126 78.5 207.5t213.5 81.5zM618 481h-6
q-71 0 -118.5 -49.5t-47.5 -124.5q0 -76 45.5 -125t116.5 -49h6q71 0 117.5 49t46.5 125q0 75 -45 124.5t-115 49.5z" />
    <glyph glyph-name="zero.inferior.slashed" 
d="M614 -246q-154 0 -242.5 112.5t-88.5 301.5t88.5 302.5t242.5 113.5t243 -113.5t89 -302.5t-89 -301.5t-243 -112.5zM610 -143h8q66 0 113.5 46.5t68.5 115t21 149.5t-21 150t-68.5 116t-113.5 47h-8q-66 0 -113.5 -47t-68 -116t-20.5 -150t20.5 -149.5t68 -115
t113.5 -46.5z" />
    <glyph glyph-name="zero.posf" 
d="M596 1055q141 0 260 -66t190.5 -189.5t71.5 -277.5t-71.5 -277t-190.5 -189t-260 -66t-260 66t-190.5 189t-71.5 277t71.5 277.5t190.5 189.5t260 66zM207 522q0 -154 86 -268l553 596q-106 92 -240 92h-20q-70 0 -137 -28.5t-121.5 -80.5t-87.5 -133t-33 -178zM606 102
q70 0 137 28.5t121.5 80.5t87.5 133t33 178q0 135 -61 234l-545 -584q103 -70 213 -70h14z" />
    <glyph glyph-name="one.posf" 
d="M686 1024h102v-1024h-129v834l-350 -336v157z" />
    <glyph glyph-name="two.posf" 
d="M778 442l-407 -323h569v-119h-694v166l450 362q80 64 105.5 113t25.5 107q0 76 -60 130t-140 54h-19q-96 0 -157.5 -53.5t-71.5 -169.5h-133q7 162 107.5 248.5t264.5 86.5q149 0 246 -85.5t97 -210.5q0 -88 -43 -159t-140 -147z" />
    <glyph glyph-name="three.posf" 
d="M834 313q108 -32 177.5 -122t69.5 -220q0 -186 -133 -293.5t-338 -107.5q-203 0 -333 100.5t-148 284.5h133q17 -129 108 -200.5t228 -71.5h20q89 0 163 32.5t120.5 99t46.5 156.5q0 125 -87 203t-220 78h-113v113h113q134 0 215.5 76t81.5 200q0 135 -90.5 213
t-226.5 78h-21q-129 0 -214 -76.5t-97 -200.5h-133q9 172 136.5 280.5t319.5 108.5q129 0 232.5 -46t165 -136.5t61.5 -210.5q0 -123 -65.5 -211.5t-171.5 -126.5z" />
    <glyph glyph-name="four.posf" 
d="M913 113h236v-113h-236v-410h-129v410h-690v145l668 879h151v-911zM219 113h565v749z" />
    <glyph glyph-name="five.posf" 
d="M641 487q196 0 316 -124t120 -312q0 -212 -137.5 -346.5t-343.5 -134.5q-197 0 -331 101t-154 288h135q18 -131 112 -203.5t228 -72.5h20q149 0 243.5 101.5t94.5 256.5q0 147 -87 240.5t-226 93.5h-21q-95 0 -175.5 -49t-139.5 -142h-133l174 840h727v-119h-621
l-118 -557q117 139 317 139z" />
    <glyph glyph-name="six.posf" 
d="M672 942q196 0 320 -132.5t124 -332.5q0 -225 -136 -361t-339 -136q-250 0 -384 176t-134 524q0 226 71 402.5t199.5 274t292.5 97.5q184 0 304.5 -94t152.5 -264h-133q-25 109 -113.5 177t-202.5 68h-20q-180 0 -300 -181t-130 -472q59 126 175 190t253 64zM653 92
q146 0 238 101.5t92 267.5t-86.5 267t-230.5 101h-21q-161 0 -259.5 -100t-98.5 -266q0 -169 93 -270t253 -101h20z" />
    <glyph glyph-name="seven.posf" 
d="M139 1024h953v-133q-287 -174 -422 -472.5t-135 -787.5v-41h-134v60q0 913 525 1255h-787v119z" />
    <glyph glyph-name="eight.posf" 
d="M848 702q89 -46 141.5 -133.5t52.5 -189.5q0 -184 -118 -291.5t-310 -107.5q-191 0 -309.5 108t-118.5 291q0 100 53 188.5t142 134.5q-109 46 -166 138.5t-57 208.5q0 180 126.5 292.5t329.5 112.5t330 -112.5t127 -292.5q0 -116 -56.5 -207.5t-166.5 -139.5zM293 1047
q0 -125 86.5 -203t224.5 -78h21q138 0 224.5 78t86.5 203q0 134 -86 214t-225 80h-21q-139 0 -225 -80t-86 -214zM625 92q126 0 205 79t79 206q0 121 -78.5 193.5t-205.5 72.5h-21q-127 0 -206 -72.5t-79 -193.5q0 -127 79.5 -206t205.5 -79h21z" />
    <glyph glyph-name="nine.posf" 
d="M584 1044q250 0 384 -176t134 -524q0 -226 -71 -402.5t-199.5 -274t-292.5 -97.5q-184 0 -304.5 94t-152.5 264h133q25 -109 113 -177t202 -68h21q180 0 300 181t130 472q-59 -126 -175 -190t-253 -64q-196 0 -320 132.5t-124 332.5q0 225 136 361t339 136zM580 195
q161 0 259.5 100t98.5 266q0 169 -93 270t-253 101h-21q-146 0 -237.5 -101.5t-91.5 -267.5t86.5 -267t230.5 -101h21z" />
    <glyph glyph-name="zero.posf.slashed" 
d="M614 -20q-141 0 -260 66t-190.5 189t-71.5 277t71.5 277t190.5 189t260 66t260 -66t191 -189t72 -277t-72 -277t-191 -189t-260 -66zM610 92h15q70 0 137 28.5t121.5 80.5t87.5 133t33 178t-33 178t-87.5 133t-121.5 80.5t-137 28.5h-21q-70 0 -137 -28.5t-121.5 -80.5
t-87.5 -133t-33 -178t34 -178t89.5 -133t123.5 -80.5t138 -28.5z" />
    <glyph glyph-name="zero.slashed" 
d="M614 -20q-250 0 -391 190.5t-141 546.5t141 546.5t391 190.5t391.5 -190.5t141.5 -546.5t-141.5 -546.5t-391.5 -190.5zM604 113h21q55 0 105.5 16.5t102.5 60t89.5 109.5t61.5 173.5t24 244.5t-24 244.5t-61.5 173.5t-89.5 109.5t-102.5 60t-105.5 16.5h-21
q-55 0 -105.5 -16.5t-102.5 -60t-89.5 -109.5t-61.5 -173.5t-24 -244.5t24 -244.5t61.5 -173.5t89.5 -109.5t102.5 -60t105.5 -16.5z" />
    <glyph glyph-name="zero.dnom" 
d="M612 -8q-120 0 -190 85t-70 226t70 226t190 85q122 0 192 -85t70 -226t-70 -226t-192 -85zM610 92h6q66 0 103 63.5t37 147.5q0 85 -37 147t-103 62h-6q-66 0 -102.5 -62t-36.5 -147q0 -84 36.5 -147.5t102.5 -63.5z" />
    <glyph glyph-name="one.dnom" 
d="M586 0v453l-176 -148v133l202 168h88v-606h-114z" />
    <glyph glyph-name="two.dnom" 
d="M397 0v127l205 178q3 2 26 22t30.5 28.5t23 25.5t21 31t4.5 28q-1 32 -26.5 50t-64.5 18h-6q-38 0 -63.5 -22.5t-28.5 -63.5h-119q4 88 65.5 140t153.5 52q87 0 147 -48t60 -128q0 -32 -10.5 -60t-37 -57t-41.5 -43t-54 -47l-152 -125h301v-106h-434z" />
    <glyph glyph-name="three.dnom" 
d="M608 -8q-90 0 -153.5 50t-63.5 134h119q-1 -37 26 -60.5t68 -23.5h8q44 0 74.5 22t30.5 60q0 37 -25.5 58.5t-64.5 21.5h-60v106h62q36 0 60 21t24 55t-28 55t-69 21h-8q-38 0 -64 -21t-26 -55h-117q0 84 61.5 131t153.5 47q90 0 151.5 -44.5t61.5 -125.5
q0 -47 -26.5 -83.5t-71.5 -53.5q105 -54 105 -145q0 -82 -66.5 -126t-161.5 -44z" />
    <glyph glyph-name="four.dnom" 
d="M647 0v133h-287v100l279 373h123v-373h86v-100h-86v-133h-115zM473 233h174v236z" />
    <glyph glyph-name="five.dnom" 
d="M604 -8q-89 0 -152 46t-75 130h125q4 -37 32 -56.5t68 -19.5h6q46 0 76.5 28.5t30.5 72.5q0 39 -29 63.5t-70 24.5h-6q-42 0 -90 -37h-112l69 362h350v-100h-262l-35 -170q55 45 123 45q76 0 127 -53t51 -131q0 -93 -64.5 -149t-162.5 -56z" />
    <glyph glyph-name="six.dnom" 
d="M612 -8q-107 0 -171 78t-64 215q0 151 75 240t199 89q97 0 149 -51t52 -121h-115q-6 32 -29.5 51t-58.5 19h-8q-60 0 -105.5 -52t-52.5 -138q19 37 63.5 61.5t96.5 24.5q84 0 142.5 -57t58.5 -148q0 -87 -63 -149t-169 -62zM612 92h4q49 0 81 30.5t32 76.5q0 45 -31 75.5
t-80 30.5h-4q-43 0 -76.5 -30t-33.5 -76q0 -45 31.5 -76t76.5 -31z" />
    <glyph glyph-name="seven.dnom" 
d="M502 0v55q0 95 20 173t55.5 131.5t66 85.5t69.5 61h-312v100h426v-106q-209 -176 -209 -445v-55h-116z" />
    <glyph glyph-name="eight.dnom" 
d="M612 -8q-90 0 -151.5 42.5t-61.5 121.5q0 96 113 141q-125 48 -125 147q0 80 62.5 125t162.5 45t164 -45t64 -125q0 -96 -117 -147q46 -20 75 -56.5t29 -84.5q0 -79 -62 -121.5t-153 -42.5zM610 360h8q43 0 75 20.5t32 57.5q0 35 -31 54.5t-78 19.5h-6q-47 0 -77.5 -19.5
t-30.5 -54.5q0 -38 31.5 -58t76.5 -20zM610 92h8q40 0 67.5 20.5t27.5 55.5q0 36 -27.5 58t-67.5 22h-8q-40 0 -68 -22t-28 -58q0 -35 28 -55.5t68 -20.5z" />
    <glyph glyph-name="nine.dnom" 
d="M623 612q107 0 170 -78t63 -215q0 -151 -75 -240t-199 -89q-97 0 -149 51t-52 121h115q8 -33 31.5 -52.5t56.5 -19.5h10q60 0 105 53.5t51 139.5q-19 -37 -63.5 -61.5t-96.5 -24.5q-82 0 -140.5 56.5t-58.5 147.5q0 88 62 149.5t170 61.5zM623 512h-7q-47 0 -78.5 -30
t-31.5 -76q0 -45 30.5 -76t77.5 -31h4q44 0 77.5 30.5t33.5 76.5q0 45 -31.5 75.5t-74.5 30.5z" />
    <glyph glyph-name="zero.numr" 
d="M612 1442q122 0 192 -85.5t70 -226.5t-70 -226t-192 -85q-120 0 -190 85t-70 226t70 226.5t190 85.5zM610 1339q-66 0 -102.5 -62t-36.5 -147q0 -40 8 -71l223 239q-30 41 -86 41h-6zM616 920q66 0 103 63t37 147q0 34 -6 64l-222 -240q34 -34 82 -34h6z" />
    <glyph glyph-name="one.numr" 
d="M586 827v453l-176 -147v133l202 168h88v-607h-114z" />
    <glyph glyph-name="two.numr" 
d="M397 827v127l205 179q3 2 26 22t30.5 28.5t23 25.5t21 31t4.5 28q-1 32 -26.5 49.5t-64.5 17.5h-6q-38 0 -63.5 -22.5t-28.5 -63.5h-119q4 88 65.5 140.5t153.5 52.5q87 0 147 -48t60 -128q0 -32 -10.5 -60t-37 -57t-41.5 -43t-54 -47l-152 -125h301v-107h-434z" />
    <glyph glyph-name="three.numr" 
d="M608 819q-90 0 -153.5 50t-63.5 135h119q-1 -37 26 -60.5t68 -23.5h8q44 0 74.5 21.5t30.5 59.5q0 37 -25.5 58.5t-64.5 21.5h-60v107h62q36 0 60 21t24 55t-28 54.5t-69 20.5h-8q-38 0 -64 -20.5t-26 -54.5h-117q0 84 61.5 131t153.5 47q90 0 151.5 -44.5t61.5 -125.5
q0 -47 -26.5 -83.5t-71.5 -53.5q105 -54 105 -146q0 -82 -66.5 -126t-161.5 -44z" />
    <glyph glyph-name="four.numr" 
d="M647 827v134h-287v100l279 373h123v-373h86v-100h-86v-134h-115zM473 1061h174v235z" />
    <glyph glyph-name="five.numr" 
d="M604 819q-89 0 -152 46t-75 130h125q4 -37 32 -56t68 -19h6q46 0 76.5 28t30.5 72q0 39 -29 63.5t-70 24.5h-6q-42 0 -90 -37h-112l69 363h350v-101h-262l-35 -170q55 45 123 45q76 0 127 -53t51 -131q0 -93 -64.5 -149t-162.5 -56z" />
    <glyph glyph-name="six.numr" 
d="M612 819q-107 0 -171 78t-64 215q0 151 75 240.5t199 89.5q97 0 149 -51t52 -121h-115q-6 32 -29.5 50.5t-58.5 18.5h-8q-60 0 -105.5 -52t-52.5 -138q19 37 63.5 61.5t96.5 24.5q84 0 142.5 -57t58.5 -148q0 -87 -63 -149t-169 -62zM612 920h4q49 0 81 30t32 76
q0 45 -31 76t-80 31h-4q-43 0 -76.5 -30.5t-33.5 -76.5q0 -45 31.5 -75.5t76.5 -30.5z" />
    <glyph glyph-name="seven.numr" 
d="M502 827v56q0 77 14.5 144t35 112t51.5 85.5t55.5 63t54.5 45.5h-312v101h426v-107q-209 -176 -209 -444v-56h-116z" />
    <glyph glyph-name="eight.numr" 
d="M612 819q-90 0 -151.5 42.5t-61.5 121.5q0 96 113 141q-56 22 -90.5 59.5t-34.5 88.5q0 80 62.5 125t162.5 45t164 -45t64 -125q0 -97 -117 -148q46 -20 75 -56.5t29 -84.5q0 -79 -62 -121.5t-153 -42.5zM610 1188h8q43 0 75 20.5t32 57.5q0 35 -31 54t-78 19h-6
q-47 0 -77.5 -19t-30.5 -54q0 -38 31.5 -58t76.5 -20zM610 920h8q40 0 67.5 20t27.5 55q0 36 -27.5 58t-67.5 22h-8q-40 0 -68 -22t-28 -58q0 -35 28 -55t68 -20z" />
    <glyph glyph-name="nine.numr" 
d="M623 1440q107 0 170 -78t63 -215q0 -151 -75 -240.5t-199 -89.5q-97 0 -149 51t-52 121h115q8 -33 31.5 -52t56.5 -19h10q60 0 105 53t51 139q-19 -37 -63.5 -61.5t-96.5 -24.5q-82 0 -140.5 57t-58.5 148q0 88 62 149.5t170 61.5zM623 1339h-7q-47 0 -78.5 -30
t-31.5 -76q0 -45 30.5 -76t77.5 -31h4q44 0 77.5 30.5t33.5 76.5q0 45 -31.5 75.5t-74.5 30.5z" />
    <glyph glyph-name="zero.dnom.slashed" 
d="M612 -12q-120 0 -190 85t-70 226t70 226t190 85q122 0 192 -85t70 -226t-70 -226t-192 -85zM610 88h6q66 0 103 63.5t37 147.5q0 85 -37 147t-103 62h-6q-66 0 -102.5 -62t-36.5 -147q0 -84 36.5 -147.5t102.5 -63.5z" />
    <glyph glyph-name="zero.numr.slashed" 
d="M612 819q-120 0 -190 85t-70 226t70 226.5t190 85.5q122 0 192 -85.5t70 -226.5t-70 -226t-192 -85zM610 920h6q66 0 103 63t37 147q0 85 -37 147t-103 62h-6q-66 0 -102.5 -62t-36.5 -147q0 -84 36.5 -147t102.5 -63z" />
    <glyph glyph-name="uni2070.slashed" 
d="M614 840q-154 0 -242.5 112t-88.5 301t88.5 302.5t242.5 113.5t243 -113.5t89 -302.5t-89 -301t-243 -112zM610 942h8q66 0 113.5 46.5t68.5 115t21 149.5t-21 150t-68.5 116.5t-113.5 47.5h-8q-66 0 -113.5 -47.5t-68 -116.5t-20.5 -150t20.5 -149.5t68 -115
t113.5 -46.5z" />
    <glyph glyph-name="exclamdown.case" 
d="M549 1434h153v-174h-153v174zM596 1014h61l41 -584v-430h-143v430z" />
    <glyph glyph-name="questiondown.case" 
d="M791 1434v-174h-154v174h154zM774 1014v-260q0 -92 -36 -128t-128 -36h-41q-109 0 -167 -67.5t-58 -166.5q0 -97 64 -160t182 -63h391v-133h-420q-154 0 -255 100t-101 254q0 164 99 266.5t241 102.5h26q40 0 55 15t15 55v221h133z" />
    <glyph glyph-name="questiondown.ss05.case" 
d="M760 1434v-174h-154v174h154zM752 1014v-185q0 -61 -26 -102t-87 -63l-70 -25q-59 -21 -99 -41.5t-79 -53t-58.5 -79t-19.5 -107.5q0 -105 74 -175t207 -70q125 0 203 64t88 181h139q-5 -119 -64 -205.5t-153.5 -129.5t-212.5 -43q-177 0 -298.5 105.5t-121.5 272.5
q0 136 69.5 229.5t166.5 127.5l67 24q87 31 111 54.5t24 70.5v150h140z" />
    <glyph glyph-name="question.ss05" 
d="M477 420v184q0 125 113 166l69 25q59 21 99 41.5t79 52.5t58.5 78.5t19.5 107.5q0 105 -74 175.5t-206 70.5q-125 0 -203 -64.5t-88 -181.5h-139q5 119 64 206t153.5 130t212.5 43q177 0 298.5 -106t121.5 -273q0 -136 -69.5 -228.5t-166.5 -127.5l-67 -25
q-87 -32 -111.5 -55t-24.5 -70v-149h-139zM469 0v174h154v-174h-154z" />
    <glyph glyph-name="questiondown.ss05" 
d="M780 1024v-174h-153v174h153zM772 604v-184q0 -125 -113 -166l-69 -25q-59 -21 -99 -41.5t-79 -52.5t-58.5 -78.5t-19.5 -107.5q0 -105 74 -175.5t206 -70.5q125 0 203 64.5t88 181.5h139q-5 -119 -64 -206t-153.5 -130t-212.5 -43q-177 0 -298 106t-121 273
q0 136 69 229t166 127l68 25q87 31 111 54.5t24 70.5v149h139z" />
    <glyph glyph-name="braceleft.case" 
d="M758 0q-126 0 -181 76.5t-55 240.5v123q0 78 -20.5 105.5t-81.5 27.5h-51v287h51q61 0 81.5 27.5t20.5 105.5v123q0 164 55 241t181 77h133v-134h-82q-87 0 -115 -32.5t-28 -120.5v-236q0 -174 -164 -174v-41q164 0 164 -174v-235q0 -88 28.5 -121t114.5 -33h82v-133
h-133z" />
    <glyph glyph-name="braceright.case" 
d="M471 1434q126 0 181 -77t55 -241v-123q0 -78 20.5 -105.5t81.5 -27.5h51v-287h-51q-61 0 -81.5 -27.5t-20.5 -105.5v-123q0 -164 -55 -240.5t-181 -76.5h-133v133h82q86 0 114.5 33t28.5 121v235q0 174 164 174v41q-164 0 -164 174v236q0 88 -28 120.5t-115 32.5h-82v134
h133z" />
    <glyph glyph-name="bracketleft.case" 
d="M461 0v1434h368v-134h-225v-1167h225v-133h-368z" />
    <glyph glyph-name="bracketright.case" 
d="M768 1434v-1434h-369v133h226v1167h-226v134h369z" />
    <glyph glyph-name="parenleft.case" 
d="M860 -20q-217 30 -354 230t-137 507t137 507t354 230v-133q-161 -29 -254.5 -192t-93.5 -412t93.5 -411t254.5 -193v-133z" />
    <glyph glyph-name="parenright.case" 
d="M369 1454q217 -30 354 -230t137 -507t-137 -507t-354 -230v133q161 29 254.5 192t93.5 412t-93.5 411t-254.5 193v133z" />
    <glyph glyph-name="emdash.case" 
d="M41 651v113h1147v-113h-1147z" />
    <glyph glyph-name="endash.case" 
d="M215 651v113h799v-113h-799z" />
    <glyph glyph-name="hyphen.case" 
d="M358 662v112h512v-112h-512z" />
    <glyph glyph-name="uni00AD.case" 
d="M358 662v112h512v-112h-512z" />
    <glyph glyph-name="guillemotleft.case" 
d="M653 1157l-295 -438l299 -443h-165l-297 441l297 440h161zM737 719l299 -443h-166l-297 441l297 440h162z" />
    <glyph glyph-name="guillemotright.case" 
d="M358 1157l297 -440l-297 -441h-165l299 443l-295 438h161zM737 1157l297 -440l-297 -441h-166l299 443l-295 438h162z" />
    <glyph glyph-name="guilsinglleft.case" 
d="M543 719l299 -443h-166l-297 441l297 440h162z" />
    <glyph glyph-name="guilsinglright.case" 
d="M553 1157l297 -440l-297 -441h-162l295 439l-299 442h166z" />
    <glyph glyph-name="bullet_one" 
d="M614 225q-133 0 -246 66t-179 179.5t-66 246.5t66 246t179 179t246 66t246.5 -66t179.5 -179t66 -246q0 -99 -39 -190.5t-105 -157.5t-157.5 -105t-190.5 -39z" />
    <glyph glyph-name="bullet_two" 
d="M614 164q-150 0 -277.5 74.5t-201.5 202t-74 276.5t74 276.5t201.5 202t277.5 74.5q149 0 276.5 -74.5t202 -202t74.5 -276.5t-74.5 -276.5t-202 -202t-276.5 -74.5z" />
    <glyph glyph-name="bullet_three" 
d="M614 102q124 0 238 49t196.5 131.5t131.5 196.5t49 238q0 166 -82.5 307.5t-224.5 224t-308 82.5t-307.5 -82.5t-224 -224t-82.5 -307.5t82.5 -308t224 -224.5t307.5 -82.5z" />
    <glyph glyph-name="copyright.alt" 
d="M614 573q-127 0 -235.5 63.5t-172 172t-63.5 235.5q0 128 63.5 236.5t172 172t235.5 63.5q128 0 236.5 -63.5t171.5 -172t63 -236.5q0 -127 -63 -235.5t-171.5 -172t-236.5 -63.5zM614 651q161 0 274 115t113 278q0 164 -113 279t-274 115q-160 0 -273.5 -115
t-113.5 -279q0 -163 113.5 -278t273.5 -115zM621 788q-97 0 -156 65.5t-59 190.5q0 124 59 190t156 66q85 0 136.5 -46.5t57.5 -118.5h-92q-7 41 -33 62.5t-65 21.5h-9q-59 0 -87.5 -49.5t-28.5 -125.5q0 -77 28.5 -126.5t87.5 -49.5h9q71 0 94 82h92q-6 -71 -56 -116.5
t-134 -45.5z" />
    <glyph glyph-name="registered.alt" 
d="M614 573q-127 0 -235.5 63.5t-172 172t-63.5 235.5q0 128 63.5 236.5t172 172t235.5 63.5q128 0 236.5 -63.5t171.5 -172t63 -236.5q0 -127 -63 -235.5t-171.5 -172t-236.5 -63.5zM614 651q161 0 274 115t113 278q0 164 -113 279t-274 115q-160 0 -273.5 -115
t-113.5 -279q0 -163 113.5 -278t273.5 -115zM453 813v471h198q73 0 114.5 -41t41.5 -92q0 -43 -22.5 -78t-61.5 -47q40 0 59 -15t19 -50v-148h-80v123q0 28 -11 37.5t-40 9.5h-138v-170h-79zM532 1053h113q36 0 59 21.5t23 60.5q0 79 -82 79h-113v-161z" />
    <glyph glyph-name="uni2117.alt" 
d="M614 573q-127 0 -235.5 63.5t-172 172t-63.5 235.5q0 128 63.5 236.5t172 172t235.5 63.5q128 0 236.5 -63.5t171.5 -172t63 -236.5q0 -127 -63 -235.5t-171.5 -172t-236.5 -63.5zM614 651q161 0 274 115t113 278q0 164 -113 279t-274 115q-160 0 -273.5 -115
t-113.5 -279q0 -163 113.5 -278t273.5 -115zM463 809v471h199q71 0 114 -41.5t43 -114.5t-43 -114t-114 -41h-119v-160h-80zM543 1038h108q88 0 88 86t-88 86h-108v-172z" />
    <glyph glyph-name="ampersand.ss04" 
d="M1188 0h-168l-109 131q-151 -151 -370 -151q-207 0 -322 97.5t-115 252.5q0 225 232 370l67 43q-44 54 -72 92t-59.5 90.5t-47 104t-15.5 103.5q0 139 99 230t237 91q149 0 240.5 -97t91.5 -251q0 -110 -54.5 -193t-167.5 -159l-57 -39l315 -381q56 114 56 362v92h133
v-96q0 -301 -105 -461zM502 831l14 -16l53 33q82 51 125 111t43 149t-53 151t-141 62q-90 0 -142.5 -56.5t-52.5 -136.5q0 -51 22.5 -103.5t46.5 -86t71 -90.5q9 -11 14 -17zM526 113q110 0 178.5 27t126.5 87l-344 416l-41 -27q-69 -46 -108 -81.5t-64.5 -86t-25.5 -112.5
q0 -98 79.5 -160.5t198.5 -62.5z" />
    <glyph glyph-name="at.ss06" 
d="M758 -256q-359 0 -536 222.5t-177 668.5q0 407 164 633.5t438 226.5q181 0 308.5 -95.5t190 -267.5t62.5 -407q0 -294 -57.5 -412t-212.5 -118h-139v116q-23 -64 -74.5 -100.5t-116.5 -36.5q-132 0 -207 121.5t-75 318.5q0 186 74.5 308t209.5 122q128 0 189 -122v102
h123v-721h28q51 0 78 30t42 123t15 269q0 308 -107.5 482.5t-330.5 174.5q-233 0 -356 -196t-123 -551q0 -399 145 -588.5t467 -189.5h203v-113h-225zM623 283h8q79 0 123.5 90t44.5 241q0 154 -46.5 238t-121.5 84h-8q-82 0 -127 -93t-45 -229q0 -142 45 -236.5t127 -94.5z
" />
    <glyph glyph-name="whiteCircle_three_numbers" 
d="M614 102q-166 0 -307.5 82.5t-224 224.5t-82.5 308t82.5 307.5t224 224t307.5 82.5t308 -82.5t224.5 -224t82.5 -307.5q0 -124 -49 -238t-131.5 -196.5t-196.5 -131.5t-238 -49zM614 190q142 0 262.5 71t190.5 192.5t70 263.5t-70 263.5t-190.5 192t-262.5 70.5
q-106 0 -203 -42t-166.5 -112.5t-111 -167.5t-41.5 -204q0 -142 69.5 -263.5t190 -192.5t262.5 -71z" />
    <glyph glyph-name="circle_one" 
d="M614 225q-133 0 -246 66t-179 179.5t-66 246.5t66 246t179 179t246 66t246.5 -66t179.5 -179t66 -246q0 -99 -39 -190.5t-105 -157.5t-157.5 -105t-190.5 -39zM614 379q140 0 239 99.5t99 238.5t-99 238.5t-239 99.5t-239 -99.5t-99 -238.5t99 -238.5t239 -99.5z" />
    <glyph glyph-name="circle_two" 
d="M614 164q-150 0 -277.5 74.5t-201.5 202t-74 276.5t74 276.5t201.5 202t277.5 74.5q149 0 276.5 -74.5t202 -202t74.5 -276.5t-74.5 -276.5t-202 -202t-276.5 -74.5zM614 317q164 0 282 118t118 282t-118 281.5t-282 117.5q-165 0 -282 -117t-117 -282t117 -282.5
t282 -117.5z" />
    <glyph glyph-name="circle_three" 
d="M614 102q-166 0 -307.5 82.5t-224 224.5t-82.5 308t82.5 307.5t224 224t307.5 82.5t308 -82.5t224.5 -224t82.5 -307.5q0 -124 -49 -238t-131.5 -196.5t-196.5 -131.5t-238 -49zM614 256q125 0 231 62t168 168t62 231t-62 231t-168 168t-231 62q-190 0 -325 -135
t-135 -326t135 -326t325 -135z" />
    <glyph glyph-name="caroncomb.alt" horiz-adv-x="0" 
d="M-721 1106v72h10q93 0 93 82v20h-62v154h133v-174q0 -70 -42.5 -112t-110.5 -42h-21z" />
    <glyph glyph-name="acute.case" 
d="M528 1567l109 256h184l-170 -256h-123z" />
    <glyph glyph-name="breve.case" 
d="M614 1546q-134 0 -215.5 72.5t-81.5 204.5h113q14 -164 184 -164q171 0 185 164h112q0 -132 -81.5 -204.5t-215.5 -72.5z" />
    <glyph glyph-name="caron.case" 
d="M803 1823h139l-235 -256h-185l-235 256h139l188 -148z" />
    <glyph glyph-name="circumflex.case" 
d="M942 1567h-139l-189 147l-188 -147h-139l235 256h185z" />
    <glyph glyph-name="dieresis.case" 
d="M342 1597v164h164v-164h-164zM723 1597v164h164v-164h-164z" />
    <glyph glyph-name="dotaccent.case" 
d="M537 1597v175h153v-175h-153z" />
    <glyph glyph-name="grave.case" 
d="M700 1567h-122l-170 256h184z" />
    <glyph glyph-name="hungarumlaut.case" 
d="M360 1567l109 256h184l-170 -256h-123zM696 1567l109 256h184l-170 -256h-123z" />
    <glyph glyph-name="macron.case" 
d="M334 1597v113h563v-113h-563z" />
    <glyph glyph-name="ring.case" 
d="M614 1554q-64 0 -112.5 47t-48.5 115t48.5 115t112.5 47t113 -47t49 -115t-49 -115t-113 -47zM616 1647q27 0 46.5 20.5t19.5 48.5t-19.5 49t-46.5 21q-28 0 -48.5 -21t-20.5 -49t20.5 -48.5t48.5 -20.5z" />
    <glyph glyph-name="tilde.case" 
d="M774 1556q-40 0 -75.5 17.5t-84.5 54.5l-16 12q-5 4 -27 20.5t-34 24.5t-32.5 16.5t-39.5 8.5q-84 0 -84 -133h-102v47q0 85 51 142t127 57q37 0 67 -13.5t80 -48.5l14 -10q9 -6 32.5 -24t33 -24t26.5 -16.5t30.5 -14t27.5 -3.5q82 0 82 133h102v-47q0 -85 -51.5 -142
t-126.5 -57z" />
    <glyph glyph-name="dotaccent.low" 
d="M537 -389v174h153v-174h-153z" />
    <glyph glyph-name="dinamo" horiz-adv-x="2457" 
d="M1896 1444q67 7 137.5 -5.5t96.5 -35.5q-1 -4 -1.5 -19t-2 -25t-4.5 -13q-11 -11 -40 -14t-52.5 0t-38.5 7q2 -55 -12.5 -103t-52.5 -81.5t-93 -28.5q-14 -46 -42.5 -81.5t-63 -56t-76 -35.5t-81 -19t-78 -6t-67.5 2q0 -1 7 -23.5t18 -62t23 -87.5t24 -109t19 -116
q7 -8 29.5 -33.5t39 -44.5t43.5 -46.5t53 -51.5q44 -39 78 -84t45 -75q19 -50 -35 -60q-44 26 -84.5 65.5t-90.5 97t-85 91.5q-4 -59 7 -125.5t26 -132t19 -98.5q-28 -22 -52.5 -23t-33.5 17q-28 44 -45 137t-25 184t-10 99q-64 3 -457 -91q-1 -47 16 -91t44.5 -82
t56.5 -74.5t57.5 -83.5t42.5 -93q-5 -6 -13 -11.5t-25.5 -9t-37.5 10.5q-20 11 -42.5 37.5t-54 72t-42.5 60.5q-23 30 -48.5 86t-37.5 64q-97 -288 -129 -291h-27t-24.5 10t-9.5 31q3 60 39.5 165t87.5 195q-14 2 -105.5 9t-168.5 24.5t-124 54.5q-10 13 -20 29q12 15 25 26
t21.5 16.5t25.5 15.5t26 16q29 39 106.5 97.5t108.5 102.5q-12 10 -59 32t-85.5 48.5t-47.5 55.5q4 4 18 39q9 7 65 -15t121 -55q16 132 21 145q3 7 22 14t37 10l17 3q18 -11 22 -31q4 -18 -9.5 -85.5t-10.5 -100.5q46 0 97 27t100.5 60t80.5 42q13 4 62 16.5t102 27
t92 26.5q-39 69 -41.5 148.5t35.5 123.5q161 1 228.5 -70t31.5 -174q40 3 83.5 28t49.5 50q-18 17 -55.5 48t-63.5 59q-46 53 -28.5 110t84.5 82q92 35 150 -27.5t44 -171.5q56 27 47 234zM1755 1204q14 39 -4 79.5t-65 53.5q-26 -44 1.5 -86t67.5 -47zM1489 1042q3 1 8 4.5
t13 21.5t8 44q-57 57 -117 57q-11 -30 -6.5 -70.5t22.5 -58.5q11 -11 72 2zM909 459q67 3 151.5 29.5t170.5 47.5t172 15q-5 36 -20 85t-19 73q-4 26 -8 59t-6.5 49t-10 36.5t-22.5 37.5q-99 -22 -240 -96t-223 -95q13 -45 25.5 -102.5t20.5 -96t9 -42.5zM573 483
q170 -26 228 -20q-11 27 -27.5 90t-32.5 96q-19 -17 -60 -51t-65.5 -59t-42.5 -56z" />
    <glyph glyph-name="edgeleft.case" 
d="M680 0q-115 0 -188.5 72.5t-73.5 189.5q0 52 21 99.5t59 74.5q-80 34 -125 111t-45 170t45 169t125 111q-38 27 -59 74.5t-21 99.5q0 118 73.5 190.5t188.5 72.5h174v-144h-164q-59 0 -99 -32t-40 -82v-17q0 -55 40 -90t99 -35h41v-143h-82q-82 0 -135 -47t-53 -117v-20
q0 -70 53 -117t135 -47h82v-144h-41q-59 0 -99 -35t-40 -90v-16q0 -50 40 -82.5t99 -32.5h164v-143h-174z" />
    <glyph glyph-name="edgeleft" 
d="M778 -297q-110 0 -188 72t-78 184q0 95 74 174q-166 36 -166 234v700q0 197 166 233q-74 79 -74 175q0 112 78 184t188 72h185v-113h-170q-67 0 -107.5 -37.5t-40.5 -97.5v-17q0 -60 40.5 -97.5t107.5 -37.5h36v-112h-98q-178 0 -178 -181v-643q0 -180 178 -180h98v-113
h-36q-67 0 -107.5 -37.5t-40.5 -97.5v-16q0 -60 40.5 -97.5t107.5 -37.5h170v-113h-185z" />
    <glyph glyph-name="edgeright.case" 
d="M549 0h-174v143h164q59 0 99 32.5t40 82.5v16q0 55 -40 90t-99 35h-41v144h82q82 0 135 47t53 117v20q0 70 -53 117t-135 47h-82v143h41q59 0 99 35t40 90v17q0 50 -40 82t-99 32h-164v144h174q115 0 188.5 -72.5t73.5 -190.5q0 -52 -21 -99.5t-59 -74.5q80 -35 125 -111
t45 -169t-45 -170t-125 -111q38 -27 59 -74.5t21 -99.5q0 -117 -73.5 -189.5t-188.5 -72.5z" />
    <glyph glyph-name="edgeright" 
d="M451 -297h-185v113h170q67 0 107.5 37.5t40.5 97.5v16q0 60 -40.5 97.5t-107.5 37.5h-37v113h99q178 0 178 180v643q0 181 -178 181h-99v112h37q67 0 107.5 37.5t40.5 97.5v17q0 60 -40.5 97.5t-107.5 37.5h-170v113h185q110 0 188 -72t78 -184q0 -96 -74 -175
q166 -36 166 -233v-700q0 -198 -166 -234q74 -79 74 -174q0 -112 -78 -184t-188 -72z" />
    <glyph glyph-name="ringacute.case" 
d="M567 1901l80 180h144l-123 -180h-101zM614 1554q-57 0 -99 41t-42 101t42 100.5t99 40.5t99.5 -40.5t42.5 -100.5t-42.5 -101t-99.5 -41zM616 1647q19 0 33.5 14.5t14.5 34.5t-14.5 34.5t-33.5 14.5q-20 0 -34.5 -14.5t-14.5 -34.5t14.5 -34.5t34.5 -14.5z" />
    <glyph glyph-name="ringacute" 
d="M559 1569l117 266h164l-181 -266h-100zM614 1149q-69 0 -120.5 49.5t-51.5 122.5q0 72 51.5 122t120.5 50t120.5 -50t51.5 -122q0 -73 -51.5 -122.5t-120.5 -49.5zM616 1231q37 0 63 26.5t26 63.5t-26 63.5t-63 26.5t-63.5 -26.5t-26.5 -63.5t26.5 -63.5t63.5 -26.5z" />
    <glyph glyph-name="Triangle" 
d="M0 0l614 1094l615 -1094h-1229z" />
  </font>
</defs>
</svg>
